<?xml version='1.0' encoding='utf-8'?>
<svg width="75.79697mm" height="47.872303mm" viewBox="-37.898485 -23.936151 75.79697 47.872303" version="1.1" xmlns="http://www.w3.org/2000/svg">
  <g transform="scale(1,-1)" stroke-linecap="round">
    <g fill="none" stroke="rgb(38,38,38)" stroke-width="0.4" id="plate_visible">
      <line x1="9.899495" y1="19.139772" x2="32.526912" y2="7.621479" />
      <path d="M -32.526912,-7.621479 A 4.0,2.036165783938431 180.0 0,0 -33.698485,-6.181693" />
      <line x1="-32.526912" y1="-7.621479" x2="-9.899495" y2="-19.139772" />
      <path d="M -9.899495,-19.139772 A 4.0,2.036165783938431 0.0 0,1 -4.242641,-19.139772" />
      <line x1="32.526912" y1="-0.422546" x2="-4.242641" y2="-19.139772" />
      <path d="M 33.698485,1.017241 A 4.0,2.036165783938431 180.0 0,0 32.526912,-0.422546" />
      <line x1="-14.849242" y1="-6.776387" x2="-9.899495" y2="-4.25676" />
      <path d="M -9.899495,-4.25676 A 2.5,1.2726036149615194 0.0 0,1 -9.167262,-3.356894" />
      <path d="M -9.167262,-3.356894 A 2.5,1.2726036149615194 0.0 0,1 -13.435029,-2.457027" />
      <line x1="-13.435029" y1="-6.056494" x2="-13.435029" y2="-2.457027" />
      <line x1="-18.384776" y1="-6.776387" x2="-18.384776" y2="-4.976654" />
      <line x1="-18.384776" y1="-4.976654" x2="-13.435029" y2="-2.457027" />
      <path d="M -14.849242,-6.776387 A 2.5,1.2726036149615194 180.0 0,0 -19.117009,-5.87652" />
      <path d="M -19.117009,-5.87652 A 2.5,1.2726036149615194 180.0 0,0 -18.384776,-4.976654" />
      <line x1="13.435029" y1="7.621479" x2="18.384776" y2="10.141106" />
      <path d="M 18.384776,10.141106 A 2.5,1.2726036149615194 0.0 0,1 19.117009,11.040972" />
      <path d="M 19.117009,11.040972 A 2.5,1.2726036149615194 0.0 0,1 14.849242,11.940839" />
      <line x1="14.849242" y1="8.341373" x2="14.849242" y2="11.940839" />
      <line x1="9.899495" y1="7.621479" x2="9.899495" y2="9.421213" />
      <line x1="9.899495" y1="9.421213" x2="14.849242" y2="11.940839" />
      <path d="M 13.435029,7.621479 A 2.5,1.2726036149615194 180.0 0,0 9.167262,8.521346" />
      <path d="M 9.167262,8.521346 A 2.5,1.2726036149615194 180.0 0,0 9.899495,9.421213" />
      <line x1="32.526912" y1="4.741906" x2="-4.242641" y2="-13.97532" />
      <path d="M -9.899495,-13.97532 A 4.0,2.036165783938431 0.0 0,1 -4.242641,-13.97532" />
      <line x1="-32.526912" y1="-2.457027" x2="-9.899495" y2="-13.97532" />
      <path d="M -32.526912,-2.457027 A 4.0,2.036165783938431 180.0 0,0 -33.698485,-1.017241" />
      <path d="M -33.698485,-1.017241 A 4.0,2.036165783938431 180.0 0,0 -32.526912,0.422546" />
      <line x1="4.242641" y1="19.139772" x2="-32.526912" y2="0.422546" />
      <path d="M 32.526912,7.621479 A 4.0,2.036165783938431 180.0 0,0 33.698485,6.181693" />
      <path d="M 33.698485,6.181693 A 4.0,2.036165783938431 180.0 0,0 32.526912,4.741906" />
      <path d="M 9.899495,19.139772 A 4.0,2.036165783938431 0.0 0,1 4.242641,19.139772" />
      <line x1="32.526912" y1="-0.422546" x2="32.526912" y2="4.741906" />
      <line x1="-4.242641" y1="-19.139772" x2="-4.242641" y2="-13.97532" />
      <line x1="-9.899495" y1="-19.139772" x2="-9.899495" y2="-13.97532" />
      <line x1="-32.526912" y1="-7.621479" x2="-32.526912" y2="-2.457027" />
      <line x1="-33.698485" y1="-6.181693" x2="-33.698485" y2="-1.017241" />
      <line x1="33.698485" y1="1.017241" x2="33.698485" y2="6.181693" />
    </g>
    <g fill="none" stroke="rgb(165,165,165)" stroke-width="0.22" id="plate_hidden" stroke-dasharray="1.397 0.6985">
      <line x1="9.899495" y1="13.97532" x2="32.526912" y2="2.457027" />
      <path d="M 9.899495,13.97532 A 4.0,2.036165783938431 0.0 0,1 4.242641,13.97532" />
      <line x1="4.242641" y1="13.97532" x2="-32.526912" y2="-4.741906" />
      <path d="M -33.698485,-6.181693 A 4.0,2.036165783938431 180.0 0,0 -32.526912,-4.741906" />
      <path d="M 32.526912,2.457027 A 4.0,2.036165783938431 180.0 0,0 33.698485,1.017241" />
      <path d="M 9.899495,4.25676 A 2.5,1.2726036149615194 0.0 0,1 9.167262,3.356894" />
      <path d="M 9.167262,3.356894 A 2.5,1.2726036149615194 0.0 0,1 13.435029,2.457027" />
      <line x1="9.899495" y1="4.25676" x2="14.849242" y2="6.776387" />
      <path d="M 18.384776,4.976654 A 2.5,1.2726036149615194 0.0 0,1 19.117009,5.87652" />
      <path d="M 19.117009,5.87652 A 2.5,1.2726036149615194 0.0 0,1 14.849242,6.776387" />
      <line x1="13.435029" y1="2.457027" x2="18.384776" y2="4.976654" />
      <path d="M -18.384776,-10.141106 A 2.5,1.2726036149615194 0.0 0,1 -19.117009,-11.040972" />
      <path d="M -19.117009,-11.040972 A 2.5,1.2726036149615194 0.0 0,1 -14.849242,-11.940839" />
      <line x1="-18.384776" y1="-10.141106" x2="-13.435029" y2="-7.621479" />
      <path d="M -9.899495,-9.421213 A 2.5,1.2726036149615194 0.0 0,1 -9.167262,-8.521346" />
      <path d="M -9.167262,-8.521346 A 2.5,1.2726036149615194 0.0 0,1 -13.435029,-7.621479" />
      <line x1="-14.849242" y1="-11.940839" x2="-9.899495" y2="-9.421213" />
      <line x1="-14.849242" y1="-11.940839" x2="-14.849242" y2="-6.776387" />
      <line x1="-9.899495" y1="-9.421213" x2="-9.899495" y2="-4.25676" />
      <line x1="-13.435029" y1="-7.621479" x2="-13.435029" y2="-6.056494" />
      <line x1="-18.384776" y1="-10.141106" x2="-18.384776" y2="-6.776387" />
      <line x1="13.435029" y1="2.457027" x2="13.435029" y2="7.621479" />
      <line x1="18.384776" y1="4.976654" x2="18.384776" y2="10.141106" />
      <line x1="14.849242" y1="6.776387" x2="14.849242" y2="8.341373" />
      <line x1="9.899495" y1="4.25676" x2="9.899495" y2="7.621479" />
      <line x1="-9.167262" y1="-8.521346" x2="-9.167262" y2="-3.356894" />
      <line x1="-19.117009" y1="-11.040972" x2="-19.117009" y2="-5.87652" />
      <line x1="19.117009" y1="5.87652" x2="19.117009" y2="11.040972" />
      <line x1="9.167262" y1="3.356894" x2="9.167262" y2="8.521346" />
      <line x1="9.899495" y1="13.97532" x2="9.899495" y2="19.139772" />
      <line x1="32.526912" y1="2.457027" x2="32.526912" y2="7.621479" />
      <line x1="-32.526912" y1="-4.741906" x2="-32.526912" y2="0.422546" />
      <line x1="4.242641" y1="13.97532" x2="4.242641" y2="19.139772" />
    </g>
  </g>
</svg>