<?xml version='1.0' encoding='utf-8'?>
<svg width="115.799112mm" height="78.786698mm" viewBox="-57.899556 -39.393349 115.799112 78.786698" version="1.1" xmlns="http://www.w3.org/2000/svg">
  <g transform="scale(1,-1)" stroke-linecap="round">
    <g fill="none" stroke="rgb(30,56,76)" stroke-width="0.4" id="base_visible">
      <path d="M 7.990307,12.691582 A 3.2,1.520416469287907 0.0 0,1 13.453048,13.766678" />
      <path d="M 7.053048,13.766678 A 3.2,1.520416469287907 0.0 0,1 7.990307,12.691582" />
      <path d="M 7.990307,16.211244 A 3.2,1.520416469287907 0.0 0,1 13.453048,17.286341" />
      <path d="M 13.453048,17.286341 A 3.2,1.520416469287907 0.0 0,1 7.053048,17.286341" />
      <path d="M 7.053048,17.286341 A 3.2,1.520416469287907 0.0 0,1 7.990307,16.211244" />
      <line x1="13.453048" y1="15.404359" x2="33.39901" y2="5.927431" />
      <line x1="7.053048" y1="15.404359" x2="-28.148133" y2="-1.320783" />
      <line x1="-33.959145" y1="-4.081771" x2="-36.734197" y2="-5.400282" />
      <line x1="-39.491914" y1="-6.710556" x2="-48.214581" y2="-10.854958" />
      <line x1="-18.031223" y1="-5.047515" x2="4.596194" y2="5.703452" />
      <line x1="-18.031223" y1="-5.047515" x2="-15.909903" y2="-6.055419" />
      <line x1="-15.909903" y1="-6.055419" x2="6.717514" y2="4.695549" />
      <line x1="4.596194" y1="5.703452" x2="6.717514" y2="4.695549" />
      <path d="M -33.021887,-6.794548 A 3.2,1.520416469287907 0.0 0,1 -27.559145,-5.719451" />
      <path d="M -33.959145,-5.719451 A 3.2,1.520416469287907 0.0 0,1 -33.021887,-6.794548" />
      <line x1="-13.788582" y1="-7.063322" x2="8.838835" y2="3.687646" />
      <line x1="-13.788582" y1="-7.063322" x2="-11.667262" y2="-8.071225" />
      <line x1="-11.667262" y1="-8.071225" x2="10.960155" y2="2.679743" />
      <line x1="8.838835" y1="3.687646" x2="10.960155" y2="2.679743" />
      <line x1="-9.545942" y1="-9.079128" x2="13.081475" y2="1.67184" />
      <line x1="-9.545942" y1="-9.079128" x2="-7.424621" y2="-10.087032" />
      <line x1="-7.424621" y1="-10.087032" x2="15.202796" y2="0.663936" />
      <line x1="13.081475" y1="1.67184" x2="15.202796" y2="0.663936" />
      <line x1="-5.303301" y1="-11.094935" x2="17.324116" y2="-0.343967" />
      <line x1="-5.303301" y1="-11.094935" x2="-3.865517" y2="-11.778069" />
      <line x1="17.324116" y1="-0.343967" x2="18.7619" y2="-1.027101" />
      <path d="M 9.298454,16.832784 A 1.35,0.6414256979808357 0.0 0,1 11.603048,17.286341" />
      <path d="M 11.603048,17.286341 A 1.35,0.6414256979808357 0.0 0,1 8.903048,17.286341" />
      <path d="M 8.903048,17.286341 A 1.35,0.6414256979808357 0.0 0,1 9.298454,16.832784" />
      <line x1="10.253048" y1="18.806757" x2="10.253048" y2="34.17112" />
      <line x1="10.253048" y1="34.17112" x2="51.548084" y2="14.550603" />
      <line x1="25.950819" y1="9.642274" x2="13.930004" y2="15.353726" />
      <line x1="25.950819" y1="9.642274" x2="25.950819" y2="14.217835" />
      <line x1="25.950819" y1="14.217835" x2="13.930004" y2="19.929287" />
      <line x1="13.930004" y1="15.353726" x2="13.930004" y2="19.929287" />
      <line x1="-10.253048" y1="-14.812978" x2="51.548084" y2="14.550603" />
      <line x1="-51.548084" y1="4.807538" x2="10.253048" y2="34.17112" />
      <line x1="-0.742462" y1="21.907497" x2="-10.146982" y2="17.439126" />
      <line x1="-0.742462" y1="21.907497" x2="-0.742462" y2="14.868173" />
      <line x1="-10.146982" y1="17.439126" x2="-10.146982" y2="10.399802" />
      <line x1="-0.742462" y1="14.868173" x2="-10.146982" y2="10.399802" />
      <line x1="-13.152186" y1="14.69139" x2="-20.364675" y2="11.264519" />
      <line x1="-13.152186" y1="14.69139" x2="-13.152186" y2="8.971939" />
      <line x1="-20.364675" y1="11.264519" x2="-20.364675" y2="5.545068" />
      <line x1="-13.152186" y1="8.971939" x2="-20.364675" y2="5.545068" />
      <line x1="-23.051681" y1="9.987841" x2="-30.26417" y2="6.56097" />
      <line x1="-30.26417" y1="6.56097" x2="-30.26417" y2="0.841519" />
      <line x1="-23.051681" y1="4.26839" x2="-30.26417" y2="0.841519" />
      <line x1="-23.051681" y1="9.987841" x2="-23.051681" y2="4.26839" />
      <line x1="-51.548084" y1="4.807538" x2="-49.462119" y2="3.816434" />
      <line x1="-49.462119" y1="-10.262215" x2="-49.462119" y2="3.816434" />
      <line x1="-25.066935" y1="-7.774454" x2="-10.253048" y2="-14.812978" />
      <line x1="-39.491914" y1="-14.99936" x2="-49.462119" y2="-10.262215" />
      <line x1="-26.763992" y1="-21.04678" x2="-36.734197" y2="-16.309634" />
      <line x1="-37.794857" y1="-1.727034" x2="-36.734197" y2="-2.230986" />
      <line x1="-36.734197" y1="-16.309634" x2="-36.734197" y2="-2.230986" />
      <line x1="-13.859293" y1="-27.178191" x2="-24.183052" y2="-22.273062" />
      <line x1="-24.183052" y1="-22.273062" x2="-24.183052" y2="-10.686974" />
      <line x1="4.596194" y1="3.687646" x2="4.596194" y2="5.703452" />
      <path d="M -33.021887,-3.274886 A 3.2,1.520416469287907 0.0 0,1 -27.559145,-2.199789" />
      <path d="M -27.559145,-2.199789 A 3.2,1.520416469287907 0.0 0,1 -33.959145,-2.199789" />
      <path d="M -33.959145,-2.199789 A 3.2,1.520416469287907 0.0 0,1 -33.021887,-3.274886" />
      <line x1="8.838835" y1="1.67184" x2="8.838835" y2="3.687646" />
      <line x1="13.081475" y1="-0.343967" x2="13.081475" y2="1.67184" />
      <line x1="17.324116" y1="-1.710236" x2="17.324116" y2="-0.343967" />
      <line x1="12.374369" y1="34.775862" x2="52.820877" y2="15.558506" />
      <path d="M 52.820877,15.558506 A 3.0,1.4253904399574127 180.0 0,0 53.699556,14.550603" />
      <path d="M 53.699556,14.550603 A 3.0,1.4253904399574127 180.0 0,0 52.820877,13.5427" />
      <line x1="52.820877" y1="13.5427" x2="-8.131728" y2="-15.41772" />
      <path d="M -12.374369,-15.41772 A 3.0,1.4253904399574127 0.0 0,1 -8.131728,-15.41772" />
      <line x1="-26.763992" y1="-8.580776" x2="-12.374369" y2="-15.41772" />
      <line x1="-25.066935" y1="-7.774454" x2="-26.763992" y2="-8.580776" />
      <line x1="-49.462119" y1="3.816434" x2="-51.159176" y2="3.010111" />
      <line x1="-52.820877" y1="3.799635" x2="-51.159176" y2="3.010111" />
      <path d="M -52.820877,3.799635 A 3.0,1.4253904399574127 180.0 0,0 -53.699556,4.807538" />
      <path d="M -53.699556,4.807538 A 3.0,1.4253904399574127 180.0 0,0 -52.820877,5.815442" />
      <line x1="8.131728" y1="34.775862" x2="-52.820877" y2="5.815442" />
      <path d="M 12.374369,34.775862 A 3.0,1.4253904399574127 0.0 0,1 8.131728,34.775862" />
      <line x1="15.62706" y1="16.160049" x2="13.930004" y2="15.353726" />
      <line x1="25.950819" y1="11.25492" x2="15.62706" y2="16.160049" />
      <line x1="15.62706" y1="16.160049" x2="15.62706" y2="19.122964" />
      <line x1="-2.439518" y1="15.674495" x2="-0.742462" y2="14.868173" />
      <line x1="-2.439518" y1="21.101174" x2="-2.439518" y2="15.674495" />
      <line x1="-2.439518" y1="15.674495" x2="-10.146982" y2="12.012447" />
      <line x1="-14.849242" y1="9.778261" x2="-13.152186" y2="8.971939" />
      <line x1="-14.849242" y1="13.885067" x2="-14.849242" y2="9.778261" />
      <line x1="-14.849242" y1="9.778261" x2="-20.364675" y2="7.157713" />
      <line x1="-24.748737" y1="5.074713" x2="-23.051681" y2="4.26839" />
      <line x1="-24.748737" y1="5.074713" x2="-30.26417" y2="2.454164" />
      <line x1="-24.748737" y1="9.181519" x2="-24.748737" y2="5.074713" />
      <line x1="-49.462119" y1="-10.262215" x2="-51.159176" y2="-11.068537" />
      <line x1="-51.159176" y1="-11.068537" x2="-51.159176" y2="3.010111" />
      <line x1="-39.491914" y1="-16.612005" x2="-51.159176" y2="-11.068537" />
      <line x1="-26.763992" y1="-22.659425" x2="-26.763992" y2="-8.580776" />
      <line x1="-39.491914" y1="-16.612005" x2="-39.491914" y2="-2.533357" />
      <line x1="-37.794857" y1="-1.727034" x2="-39.491914" y2="-2.533357" />
      <line x1="-26.763992" y1="-22.659425" x2="-38.431254" y2="-17.115957" />
      <line x1="-36.734197" y1="-16.309634" x2="-38.431254" y2="-17.115957" />
      <line x1="-39.491914" y1="-2.533357" x2="-38.431254" y2="-3.037308" />
      <line x1="-36.734197" y1="-2.230986" x2="-38.431254" y2="-3.037308" />
      <line x1="-38.431254" y1="-17.115957" x2="-38.431254" y2="-3.037308" />
      <line x1="-13.859293" y1="-28.790836" x2="-25.880108" y2="-23.079384" />
      <line x1="-24.183052" y1="-22.273062" x2="-25.880108" y2="-23.079384" />
      <line x1="-13.859293" y1="-28.790836" x2="-13.859293" y2="-15.592103" />
      <line x1="-13.859293" y1="-15.592103" x2="-25.880108" y2="-9.880652" />
      <line x1="-25.880108" y1="-23.079384" x2="-25.880108" y2="-9.880652" />
      <path d="M 53.699556,-4.807538 A 3.0,1.4253904399574127 180.0 0,0 52.820877,-5.815442" />
      <line x1="52.820877" y1="-5.815442" x2="-8.131728" y2="-34.775862" />
      <path d="M -52.820877,-15.558506 A 3.0,1.4253904399574127 180.0 0,0 -53.699556,-14.550603" />
      <path d="M -12.374369,-34.775862 A 3.0,1.4253904399574127 0.0 0,1 -8.131728,-34.775862" />
      <line x1="-52.820877" y1="-15.558506" x2="-12.374369" y2="-34.775862" />
      <path d="M -31.713739,-2.653345 A 1.35,0.6414256979808357 0.0 0,1 -29.409145,-2.199789" />
      <path d="M -29.409145,-2.199789 A 1.35,0.6414256979808357 0.0 0,1 -32.109145,-2.199789" />
      <path d="M -32.109145,-2.199789 A 1.35,0.6414256979808357 0.0 0,1 -31.713739,-2.653345" />
      <line x1="52.820877" y1="-5.815442" x2="52.820877" y2="13.5427" />
      <line x1="-8.131728" y1="-34.775862" x2="-8.131728" y2="-15.41772" />
      <line x1="-12.374369" y1="-34.775862" x2="-12.374369" y2="-15.41772" />
      <line x1="-52.820877" y1="-15.558506" x2="-52.820877" y2="3.799635" />
      <line x1="13.453048" y1="13.766678" x2="13.453048" y2="17.286341" />
      <line x1="7.053048" y1="13.766678" x2="7.053048" y2="17.286341" />
      <line x1="-27.559145" y1="-5.719451" x2="-27.559145" y2="-2.199789" />
      <line x1="-33.959145" y1="-5.719451" x2="-33.959145" y2="-2.199789" />
      <line x1="53.699556" y1="-4.807538" x2="53.699556" y2="14.550603" />
      <line x1="-53.699556" y1="-14.550603" x2="-53.699556" y2="4.807538" />
    </g>
    <g fill="none" stroke="rgb(158,173,183)" stroke-width="0.22" id="base_hidden" stroke-dasharray="1.397 0.6985">
      <path d="M 13.453048,13.766678 A 3.2,1.520416469287907 0.0 0,1 7.053048,13.766678" />
      <line x1="10.253048" y1="16.924775" x2="13.453048" y2="15.404359" />
      <line x1="33.39901" y1="5.927431" x2="51.548084" y2="-2.695741" />
      <line x1="51.548084" y1="-2.695741" x2="-10.253048" y2="-32.059322" />
      <line x1="10.253048" y1="16.924775" x2="7.053048" y2="15.404359" />
      <line x1="-28.148133" y1="-1.320783" x2="-33.959145" y2="-4.081771" />
      <line x1="-36.734197" y1="-5.400282" x2="-39.491914" y2="-6.710556" />
      <line x1="-48.214581" y1="-10.854958" x2="-51.548084" y2="-12.438806" />
      <line x1="-51.548084" y1="-12.438806" x2="-10.253048" y2="-32.059322" />
      <path d="M -27.559145,-5.719451 A 3.2,1.520416469287907 0.0 0,1 -33.959145,-5.719451" />
      <path d="M 42.638539,-3.770838 A 3.2,1.520416469287907 0.0 0,1 48.101281,-2.695741" />
      <path d="M 48.101281,-2.695741 A 3.2,1.520416469287907 0.0 0,1 41.701281,-2.695741" />
      <path d="M 41.701281,-2.695741 A 3.2,1.520416469287907 0.0 0,1 42.638539,-3.770838" />
      <line x1="-3.865517" y1="-11.778069" x2="-3.181981" y2="-12.102838" />
      <line x1="-3.181981" y1="-12.102838" x2="19.445436" y2="-1.35187" />
      <line x1="18.7619" y1="-1.027101" x2="19.445436" y2="-1.35187" />
      <line x1="-1.06066" y1="-13.110741" x2="21.566757" y2="-2.359773" />
      <line x1="-1.06066" y1="-13.110741" x2="1.06066" y2="-14.118645" />
      <line x1="1.06066" y1="-14.118645" x2="23.688077" y2="-3.367677" />
      <line x1="21.566757" y1="-2.359773" x2="23.688077" y2="-3.367677" />
      <line x1="3.181981" y1="-15.126548" x2="25.809398" y2="-4.37558" />
      <line x1="3.181981" y1="-15.126548" x2="5.303301" y2="-16.134451" />
      <line x1="5.303301" y1="-16.134451" x2="27.930718" y2="-5.383483" />
      <line x1="25.809398" y1="-4.37558" x2="27.930718" y2="-5.383483" />
      <path d="M 1.626346,-23.256967 A 3.2,1.520416469287907 0.0 0,1 7.089087,-22.181871" />
      <path d="M 7.089087,-22.181871 A 3.2,1.520416469287907 0.0 0,1 0.689087,-22.181871" />
      <path d="M 0.689087,-22.181871 A 3.2,1.520416469287907 0.0 0,1 1.626346,-23.256967" />
      <line x1="10.253048" y1="16.924775" x2="10.253048" y2="18.806757" />
      <line x1="51.548084" y1="-2.695741" x2="51.548084" y2="14.550603" />
      <line x1="-10.253048" y1="-32.059322" x2="-10.253048" y2="-14.812978" />
      <line x1="-51.548084" y1="-12.438806" x2="-51.548084" y2="4.807538" />
      <line x1="-37.794857" y1="-15.805683" x2="-39.491914" y2="-14.99936" />
      <line x1="-25.066935" y1="-21.853102" x2="-25.066935" y2="-7.774454" />
      <line x1="-37.794857" y1="-15.805683" x2="-37.794857" y2="-1.727034" />
      <line x1="-25.066935" y1="-21.853102" x2="-26.763992" y2="-21.04678" />
      <line x1="-12.162237" y1="-27.984514" x2="-13.859293" y2="-27.178191" />
      <line x1="-12.162237" y1="-27.984514" x2="-12.162237" y2="-14.785781" />
      <line x1="-12.162237" y1="-14.785781" x2="-24.183052" y2="-9.074329" />
      <line x1="-24.183052" y1="-10.686974" x2="-24.183052" y2="-9.074329" />
      <line x1="-18.031223" y1="-7.159313" x2="-18.031223" y2="-5.047515" />
      <line x1="4.596194" y1="3.591655" x2="4.596194" y2="3.687646" />
      <line x1="-18.031223" y1="-7.159313" x2="4.596194" y2="3.591655" />
      <line x1="-15.909903" y1="-8.167216" x2="-15.909903" y2="-6.055419" />
      <line x1="-18.031223" y1="-7.159313" x2="-15.909903" y2="-8.167216" />
      <line x1="6.717514" y1="2.583752" x2="6.717514" y2="4.695549" />
      <line x1="-15.909903" y1="-8.167216" x2="6.717514" y2="2.583752" />
      <line x1="4.596194" y1="3.591655" x2="6.717514" y2="2.583752" />
      <line x1="-13.788582" y1="-9.175119" x2="-13.788582" y2="-7.063322" />
      <line x1="8.838835" y1="1.575849" x2="8.838835" y2="1.67184" />
      <line x1="-13.788582" y1="-9.175119" x2="8.838835" y2="1.575849" />
      <line x1="-11.667262" y1="-10.183022" x2="-11.667262" y2="-8.071225" />
      <line x1="-13.788582" y1="-9.175119" x2="-11.667262" y2="-10.183022" />
      <line x1="10.960155" y1="0.567945" x2="10.960155" y2="2.679743" />
      <line x1="-11.667262" y1="-10.183022" x2="10.960155" y2="0.567945" />
      <line x1="8.838835" y1="1.575849" x2="10.960155" y2="0.567945" />
      <line x1="-9.545942" y1="-11.190926" x2="-9.545942" y2="-9.079128" />
      <line x1="13.081475" y1="-0.439958" x2="13.081475" y2="-0.343967" />
      <line x1="-9.545942" y1="-11.190926" x2="13.081475" y2="-0.439958" />
      <line x1="-7.424621" y1="-12.198829" x2="-7.424621" y2="-10.087032" />
      <line x1="-9.545942" y1="-11.190926" x2="-7.424621" y2="-12.198829" />
      <line x1="15.202796" y1="-1.447861" x2="15.202796" y2="0.663936" />
      <line x1="-7.424621" y1="-12.198829" x2="15.202796" y2="-1.447861" />
      <line x1="13.081475" y1="-0.439958" x2="15.202796" y2="-1.447861" />
      <path d="M 42.638539,-0.251176 A 3.2,1.520416469287907 0.0 0,1 48.101281,0.823921" />
      <path d="M 48.101281,0.823921 A 3.2,1.520416469287907 0.0 0,1 41.701281,0.823921" />
      <path d="M 41.701281,0.823921 A 3.2,1.520416469287907 0.0 0,1 42.638539,-0.251176" />
      <line x1="-5.303301" y1="-13.206732" x2="-5.303301" y2="-11.094935" />
      <line x1="17.324116" y1="-2.455764" x2="17.324116" y2="-1.710236" />
      <line x1="-5.303301" y1="-13.206732" x2="17.324116" y2="-2.455764" />
      <line x1="-3.181981" y1="-14.214635" x2="-3.181981" y2="-12.102838" />
      <line x1="-5.303301" y1="-13.206732" x2="-3.181981" y2="-14.214635" />
      <line x1="19.445436" y1="-3.463668" x2="19.445436" y2="-1.35187" />
      <line x1="-3.181981" y1="-14.214635" x2="19.445436" y2="-3.463668" />
      <line x1="17.324116" y1="-2.455764" x2="19.445436" y2="-3.463668" />
      <line x1="-1.06066" y1="-15.222539" x2="-1.06066" y2="-13.110741" />
      <line x1="21.566757" y1="-4.471571" x2="21.566757" y2="-2.359773" />
      <line x1="-1.06066" y1="-15.222539" x2="21.566757" y2="-4.471571" />
      <line x1="1.06066" y1="-16.230442" x2="1.06066" y2="-14.118645" />
      <line x1="-1.06066" y1="-15.222539" x2="1.06066" y2="-16.230442" />
      <line x1="23.688077" y1="-5.479474" x2="23.688077" y2="-3.367677" />
      <line x1="1.06066" y1="-16.230442" x2="23.688077" y2="-5.479474" />
      <line x1="21.566757" y1="-4.471571" x2="23.688077" y2="-5.479474" />
      <line x1="3.181981" y1="-17.238345" x2="3.181981" y2="-15.126548" />
      <line x1="25.809398" y1="-6.487377" x2="25.809398" y2="-4.37558" />
      <line x1="3.181981" y1="-17.238345" x2="25.809398" y2="-6.487377" />
      <line x1="5.303301" y1="-18.246248" x2="5.303301" y2="-16.134451" />
      <line x1="3.181981" y1="-17.238345" x2="5.303301" y2="-18.246248" />
      <line x1="27.930718" y1="-7.49528" x2="27.930718" y2="-5.383483" />
      <line x1="5.303301" y1="-18.246248" x2="27.930718" y2="-7.49528" />
      <line x1="25.809398" y1="-6.487377" x2="27.930718" y2="-7.49528" />
      <path d="M 1.626346,-19.737305 A 3.2,1.520416469287907 0.0 0,1 7.089087,-18.662209" />
      <path d="M 7.089087,-18.662209 A 3.2,1.520416469287907 0.0 0,1 0.689087,-18.662209" />
      <path d="M 0.689087,-18.662209 A 3.2,1.520416469287907 0.0 0,1 1.626346,-19.737305" />
      <path d="M 9.298454,11.201325 A 1.35,0.6414256979808357 0.0 0,1 11.603048,11.654881" />
      <path d="M 11.603048,11.654881 A 1.35,0.6414256979808357 0.0 0,1 8.903048,11.654881" />
      <path d="M 8.903048,11.654881 A 1.35,0.6414256979808357 0.0 0,1 9.298454,11.201325" />
      <line x1="27.647875" y1="10.448597" x2="25.950819" y2="9.642274" />
      <line x1="27.647875" y1="10.448597" x2="25.950819" y2="11.25492" />
      <line x1="27.647875" y1="15.024158" x2="25.950819" y2="14.217835" />
      <line x1="27.647875" y1="10.448597" x2="27.647875" y2="15.024158" />
      <line x1="15.62706" y1="20.735609" x2="13.930004" y2="19.929287" />
      <line x1="27.647875" y1="15.024158" x2="15.62706" y2="20.735609" />
      <line x1="15.62706" y1="19.122964" x2="15.62706" y2="20.735609" />
      <line x1="-2.439518" y1="22.71382" x2="-0.742462" y2="21.907497" />
      <line x1="-11.844039" y1="18.245449" x2="-10.146982" y2="17.439126" />
      <line x1="-2.439518" y1="22.71382" x2="-11.844039" y2="18.245449" />
      <line x1="-2.439518" y1="22.71382" x2="-2.439518" y2="21.101174" />
      <line x1="-11.844039" y1="11.206124" x2="-10.146982" y2="10.399802" />
      <line x1="-11.844039" y1="18.245449" x2="-11.844039" y2="11.206124" />
      <line x1="-10.146982" y1="12.012447" x2="-11.844039" y2="11.206124" />
      <line x1="-14.849242" y1="15.497712" x2="-13.152186" y2="14.69139" />
      <line x1="-22.061732" y1="12.070841" x2="-20.364675" y2="11.264519" />
      <line x1="-14.849242" y1="15.497712" x2="-22.061732" y2="12.070841" />
      <line x1="-14.849242" y1="15.497712" x2="-14.849242" y2="13.885067" />
      <line x1="-22.061732" y1="6.35139" x2="-20.364675" y2="5.545068" />
      <line x1="-22.061732" y1="12.070841" x2="-22.061732" y2="6.35139" />
      <line x1="-20.364675" y1="7.157713" x2="-22.061732" y2="6.35139" />
      <line x1="-24.748737" y1="10.794164" x2="-23.051681" y2="9.987841" />
      <line x1="-31.961227" y1="7.367293" x2="-30.26417" y2="6.56097" />
      <line x1="-24.748737" y1="10.794164" x2="-31.961227" y2="7.367293" />
      <line x1="-31.961227" y1="1.647842" x2="-30.26417" y2="0.841519" />
      <line x1="-31.961227" y1="7.367293" x2="-31.961227" y2="1.647842" />
      <line x1="-30.26417" y1="2.454164" x2="-31.961227" y2="1.647842" />
      <line x1="-24.748737" y1="10.794164" x2="-24.748737" y2="9.181519" />
      <line x1="-37.794857" y1="-15.805683" x2="-39.491914" y2="-16.612005" />
      <line x1="-25.066935" y1="-21.853102" x2="-26.763992" y2="-22.659425" />
      <line x1="-12.162237" y1="-27.984514" x2="-13.859293" y2="-28.790836" />
      <line x1="-12.162237" y1="-14.785781" x2="-13.859293" y2="-15.592103" />
      <line x1="-24.183052" y1="-9.074329" x2="-25.880108" y2="-9.880652" />
      <line x1="12.374369" y1="15.41772" x2="52.820877" y2="-3.799635" />
      <path d="M 12.374369,15.41772 A 3.0,1.4253904399574127 0.0 0,1 8.131728,15.41772" />
      <path d="M 52.820877,-3.799635 A 3.0,1.4253904399574127 180.0 0,0 53.699556,-4.807538" />
      <line x1="8.131728" y1="15.41772" x2="-52.820877" y2="-13.5427" />
      <path d="M -53.699556,-14.550603 A 3.0,1.4253904399574127 180.0 0,0 -52.820877,-13.5427" />
      <path d="M -31.713739,-8.284805 A 1.35,0.6414256979808357 0.0 0,1 -29.409145,-7.831248" />
      <path d="M -29.409145,-7.831248 A 1.35,0.6414256979808357 0.0 0,1 -32.109145,-7.831248" />
      <path d="M -32.109145,-7.831248 A 1.35,0.6414256979808357 0.0 0,1 -31.713739,-8.284805" />
      <path d="M 43.946686,-5.261095 A 1.35,0.6414256979808357 0.0 0,1 46.251281,-4.807538" />
      <path d="M 46.251281,-4.807538 A 1.35,0.6414256979808357 0.0 0,1 43.551281,-4.807538" />
      <path d="M 43.551281,-4.807538 A 1.35,0.6414256979808357 0.0 0,1 43.946686,-5.261095" />
      <path d="M 2.934493,-24.747224 A 1.35,0.6414256979808357 0.0 0,1 5.239087,-24.293668" />
      <path d="M 5.239087,-24.293668 A 1.35,0.6414256979808357 0.0 0,1 2.539087,-24.293668" />
      <path d="M 2.539087,-24.293668 A 1.35,0.6414256979808357 0.0 0,1 2.934493,-24.747224" />
      <path d="M 43.946686,0.370364 A 1.35,0.6414256979808357 0.0 0,1 46.251281,0.823921" />
      <path d="M 46.251281,0.823921 A 1.35,0.6414256979808357 0.0 0,1 43.551281,0.823921" />
      <path d="M 43.551281,0.823921 A 1.35,0.6414256979808357 0.0 0,1 43.946686,0.370364" />
      <path d="M 2.934493,-19.115765 A 1.35,0.6414256979808357 0.0 0,1 5.239087,-18.662209" />
      <path d="M 5.239087,-18.662209 A 1.35,0.6414256979808357 0.0 0,1 2.539087,-18.662209" />
      <path d="M 2.539087,-18.662209 A 1.35,0.6414256979808357 0.0 0,1 2.934493,-19.115765" />
      <line x1="48.101281" y1="-2.695741" x2="48.101281" y2="0.823921" />
      <line x1="41.701281" y1="-2.695741" x2="41.701281" y2="0.823921" />
      <line x1="7.089087" y1="-22.181871" x2="7.089087" y2="-18.662209" />
      <line x1="0.689087" y1="-22.181871" x2="0.689087" y2="-18.662209" />
      <line x1="11.603048" y1="11.654881" x2="11.603048" y2="17.286341" />
      <line x1="8.903048" y1="11.654881" x2="8.903048" y2="17.286341" />
      <line x1="-29.409145" y1="-7.831248" x2="-29.409145" y2="-2.199789" />
      <line x1="-32.109145" y1="-7.831248" x2="-32.109145" y2="-2.199789" />
      <line x1="46.251281" y1="-4.807538" x2="46.251281" y2="0.823921" />
      <line x1="43.551281" y1="-4.807538" x2="43.551281" y2="0.823921" />
      <line x1="5.239087" y1="-24.293668" x2="5.239087" y2="-18.662209" />
      <line x1="2.539087" y1="-24.293668" x2="2.539087" y2="-18.662209" />
      <line x1="12.374369" y1="15.41772" x2="12.374369" y2="34.775862" />
      <line x1="52.820877" y1="-3.799635" x2="52.820877" y2="15.558506" />
      <line x1="-52.820877" y1="-13.5427" x2="-52.820877" y2="5.815442" />
      <line x1="8.131728" y1="15.41772" x2="8.131728" y2="34.775862" />
    </g>
    <g fill="none" stroke="rgb(127,45,45)" stroke-width="0.4" id="lid_visible">
      <line x1="12.374369" y1="20.169264" x2="52.820877" y2="0.951909" />
      <path d="M 12.374369,20.169264 A 3.0,1.4253904399574127 0.0 0,1 8.131728,20.169264" />
      <path d="M 52.820877,0.951909 A 3.0,1.4253904399574127 180.0 0,0 53.699556,-0.055995" />
      <path d="M 53.699556,-0.055995 A 3.0,1.4253904399574127 180.0 0,0 52.820877,-1.063898" />
      <line x1="8.131728" y1="20.169264" x2="-52.820877" y2="-8.791156" />
      <line x1="52.820877" y1="-1.063898" x2="-8.131728" y2="-30.024318" />
      <path d="M -52.820877,-10.806963 A 3.0,1.4253904399574127 180.0 0,0 -53.699556,-9.799059" />
      <path d="M -53.699556,-9.799059 A 3.0,1.4253904399574127 180.0 0,0 -52.820877,-8.791156" />
      <path d="M -12.374369,-30.024318 A 3.0,1.4253904399574127 0.0 0,1 -8.131728,-30.024318" />
      <line x1="-52.820877" y1="-10.806963" x2="-12.374369" y2="-30.024318" />
      <line x1="-33.234019" y1="-7.615269" x2="5.656854" y2="10.862957" />
      <line x1="-33.234019" y1="-7.615269" x2="-31.112698" y2="-8.623172" />
      <line x1="-31.112698" y1="-8.623172" x2="7.778175" y2="9.855054" />
      <line x1="5.656854" y1="10.862957" x2="7.778175" y2="9.855054" />
      <line x1="-28.991378" y1="-9.631075" x2="9.899495" y2="8.847151" />
      <line x1="-28.991378" y1="-9.631075" x2="-26.870058" y2="-10.638979" />
      <line x1="-26.870058" y1="-10.638979" x2="12.020815" y2="7.839247" />
      <line x1="9.899495" y1="8.847151" x2="12.020815" y2="7.839247" />
      <line x1="-24.748737" y1="-11.646882" x2="14.142136" y2="6.831344" />
      <line x1="-24.748737" y1="-11.646882" x2="-22.627417" y2="-12.654785" />
      <line x1="-22.627417" y1="-12.654785" x2="16.263456" y2="5.823441" />
      <line x1="14.142136" y1="6.831344" x2="16.263456" y2="5.823441" />
      <line x1="-20.506097" y1="-13.662688" x2="18.384776" y2="4.815538" />
      <line x1="-20.506097" y1="-13.662688" x2="-18.384776" y2="-14.670592" />
      <line x1="-18.384776" y1="-14.670592" x2="20.506097" y2="3.807634" />
      <line x1="18.384776" y1="4.815538" x2="20.506097" y2="3.807634" />
      <line x1="31.112698" y1="-1.231882" x2="33.198663" y2="-2.222987" />
      <line x1="-7.778175" y1="-19.710108" x2="31.112698" y2="-1.231882" />
      <line x1="-7.778175" y1="-19.710108" x2="-5.656854" y2="-20.718011" />
      <line x1="-5.656854" y1="-20.718011" x2="2.12132" y2="-17.022366" />
      <line x1="2.12132" y1="-17.022366" x2="8.096373" y2="-19.861293" />
      <line x1="8.096373" y1="-19.861293" x2="46.280139" y2="-1.719035" />
      <line x1="40.269731" y1="1.136691" x2="46.280139" y2="-1.719035" />
      <line x1="33.198663" y1="-2.222987" x2="40.269731" y2="1.136691" />
      <line x1="-16.263456" y1="-15.678495" x2="22.627417" y2="2.799731" />
      <line x1="-16.263456" y1="-15.678495" x2="-14.142136" y2="-16.686398" />
      <line x1="-14.142136" y1="-16.686398" x2="24.748737" y2="1.791828" />
      <line x1="22.627417" y1="2.799731" x2="24.748737" y2="1.791828" />
      <line x1="-12.020815" y1="-17.694301" x2="26.870058" y2="0.783925" />
      <line x1="-12.020815" y1="-17.694301" x2="-9.899495" y2="-18.702205" />
      <line x1="-9.899495" y1="-18.702205" x2="28.991378" y2="-0.223978" />
      <line x1="26.870058" y1="0.783925" x2="28.991378" y2="-0.223978" />
      <path d="M 53.699556,-2.167792 A 3.0,1.4253904399574127 180.0 0,0 52.820877,-3.175695" />
      <line x1="52.820877" y1="-3.175695" x2="-8.131728" y2="-32.136115" />
      <path d="M -52.820877,-12.91876 A 3.0,1.4253904399574127 180.0 0,0 -53.699556,-11.910857" />
      <path d="M -12.374369,-32.136115 A 3.0,1.4253904399574127 0.0 0,1 -8.131728,-32.136115" />
      <line x1="-52.820877" y1="-12.91876" x2="-12.374369" y2="-32.136115" />
      <line x1="5.656854" y1="8.847151" x2="5.656854" y2="10.862957" />
      <line x1="9.899495" y1="6.831344" x2="9.899495" y2="8.847151" />
      <line x1="14.142136" y1="4.815538" x2="14.142136" y2="6.831344" />
      <line x1="18.384776" y1="2.799731" x2="18.384776" y2="4.815538" />
      <line x1="31.112698" y1="-3.343679" x2="31.112698" y2="-1.231882" />
      <line x1="33.198663" y1="-2.222987" x2="33.198663" y2="-4.334784" />
      <line x1="31.112698" y1="-3.343679" x2="33.198663" y2="-4.334784" />
      <line x1="2.222336" y1="-17.070361" x2="31.112698" y2="-3.343679" />
      <line x1="40.269731" y1="-0.975106" x2="40.269731" y2="1.136691" />
      <line x1="40.269731" y1="-0.975106" x2="44.057803" y2="-2.774934" />
      <line x1="33.198663" y1="-4.334784" x2="40.269731" y2="-0.975106" />
      <line x1="22.627417" y1="0.783925" x2="22.627417" y2="2.799731" />
      <line x1="26.870058" y1="-1.231882" x2="26.870058" y2="0.783925" />
      <line x1="51.12382" y1="-4.807538" x2="51.12382" y2="-3.982018" />
      <line x1="-51.12382" y1="-14.550603" x2="-51.12382" y2="-13.725082" />
      <line x1="-10.253048" y1="-33.969539" x2="-10.253048" y2="-32.553602" />
      <line x1="-51.12382" y1="-14.550603" x2="-10.253048" y2="-33.969539" />
      <line x1="51.12382" y1="-4.807538" x2="-10.253048" y2="-33.969539" />
      <line x1="40.249528" y1="-0.984705" x2="44.0376" y2="-2.784533" />
      <line x1="52.820877" y1="-3.175695" x2="52.820877" y2="-1.063898" />
      <line x1="-8.131728" y1="-32.136115" x2="-8.131728" y2="-30.024318" />
      <line x1="-52.820877" y1="-12.91876" x2="-52.820877" y2="-10.806963" />
      <line x1="-12.374369" y1="-32.136115" x2="-12.374369" y2="-30.024318" />
      <line x1="53.699556" y1="-2.167792" x2="53.699556" y2="-0.055995" />
      <line x1="-53.699556" y1="-11.910857" x2="-53.699556" y2="-9.799059" />
    </g>
    <g fill="none" stroke="rgb(191,158,158)" stroke-width="0.22" id="lid_hidden" stroke-dasharray="1.397 0.6985">
      <line x1="12.374369" y1="18.057467" x2="52.820877" y2="-1.159889" />
      <path d="M 12.374369,18.057467 A 3.0,1.4253904399574127 0.0 0,1 8.131728,18.057467" />
      <path d="M 52.820877,-1.159889 A 3.0,1.4253904399574127 180.0 0,0 53.699556,-2.167792" />
      <line x1="8.131728" y1="18.057467" x2="-52.820877" y2="-10.902953" />
      <path d="M -53.699556,-11.910857 A 3.0,1.4253904399574127 180.0 0,0 -52.820877,-10.902953" />
      <line x1="10.253048" y1="17.251144" x2="51.12382" y2="-2.167792" />
      <line x1="10.253048" y1="17.251144" x2="-51.12382" y2="-11.910857" />
      <line x1="-51.12382" y1="-11.910857" x2="-10.253048" y2="-31.329792" />
      <line x1="51.12382" y1="-2.167792" x2="-10.253048" y2="-31.329792" />
      <line x1="-33.234019" y1="-9.727066" x2="-33.234019" y2="-7.615269" />
      <line x1="5.656854" y1="8.75116" x2="5.656854" y2="8.847151" />
      <line x1="-33.234019" y1="-9.727066" x2="5.656854" y2="8.75116" />
      <line x1="-31.112698" y1="-10.734969" x2="-31.112698" y2="-8.623172" />
      <line x1="-33.234019" y1="-9.727066" x2="-31.112698" y2="-10.734969" />
      <line x1="7.778175" y1="7.743257" x2="7.778175" y2="9.855054" />
      <line x1="-31.112698" y1="-10.734969" x2="7.778175" y2="7.743257" />
      <line x1="5.656854" y1="8.75116" x2="7.778175" y2="7.743257" />
      <line x1="-28.991378" y1="-11.742873" x2="-28.991378" y2="-9.631075" />
      <line x1="9.899495" y1="6.735353" x2="9.899495" y2="6.831344" />
      <line x1="-28.991378" y1="-11.742873" x2="9.899495" y2="6.735353" />
      <line x1="-26.870058" y1="-12.750776" x2="-26.870058" y2="-10.638979" />
      <line x1="-28.991378" y1="-11.742873" x2="-26.870058" y2="-12.750776" />
      <line x1="12.020815" y1="5.72745" x2="12.020815" y2="7.839247" />
      <line x1="-26.870058" y1="-12.750776" x2="12.020815" y2="5.72745" />
      <line x1="9.899495" y1="6.735353" x2="12.020815" y2="5.72745" />
      <line x1="-24.748737" y1="-13.758679" x2="-24.748737" y2="-11.646882" />
      <line x1="14.142136" y1="4.719547" x2="14.142136" y2="4.815538" />
      <line x1="-24.748737" y1="-13.758679" x2="14.142136" y2="4.719547" />
      <line x1="-22.627417" y1="-14.766582" x2="-22.627417" y2="-12.654785" />
      <line x1="-24.748737" y1="-13.758679" x2="-22.627417" y2="-14.766582" />
      <line x1="16.263456" y1="3.711644" x2="16.263456" y2="5.823441" />
      <line x1="-22.627417" y1="-14.766582" x2="16.263456" y2="3.711644" />
      <line x1="14.142136" y1="4.719547" x2="16.263456" y2="3.711644" />
      <line x1="-20.506097" y1="-15.774486" x2="-20.506097" y2="-13.662688" />
      <line x1="18.384776" y1="2.70374" x2="18.384776" y2="2.799731" />
      <line x1="-20.506097" y1="-15.774486" x2="18.384776" y2="2.70374" />
      <line x1="-18.384776" y1="-16.782389" x2="-18.384776" y2="-14.670592" />
      <line x1="-20.506097" y1="-15.774486" x2="-18.384776" y2="-16.782389" />
      <line x1="20.506097" y1="1.695837" x2="20.506097" y2="3.807634" />
      <line x1="-18.384776" y1="-16.782389" x2="20.506097" y2="1.695837" />
      <line x1="18.384776" y1="2.70374" x2="20.506097" y2="1.695837" />
      <line x1="-7.778175" y1="-21.821905" x2="-7.778175" y2="-19.710108" />
      <line x1="-7.778175" y1="-21.821905" x2="2.222336" y2="-17.070361" />
      <line x1="-5.656854" y1="-22.829808" x2="-5.656854" y2="-20.718011" />
      <line x1="-7.778175" y1="-21.821905" x2="-5.656854" y2="-22.829808" />
      <line x1="2.12132" y1="-19.134163" x2="2.12132" y2="-17.022366" />
      <line x1="-5.656854" y1="-22.829808" x2="2.12132" y2="-19.134163" />
      <line x1="8.096373" y1="-22.413048" x2="8.096373" y2="-19.861293" />
      <line x1="7.353911" y1="-22.060282" x2="8.096373" y2="-22.413048" />
      <line x1="7.353911" y1="-21.620325" x2="7.353911" y2="-22.060282" />
      <line x1="2.12132" y1="-19.134163" x2="7.353911" y2="-21.620325" />
      <line x1="46.280139" y1="-4.27079" x2="46.280139" y2="-1.719035" />
      <line x1="46.280139" y1="-4.27079" x2="8.096373" y2="-22.413048" />
      <line x1="45.537677" y1="-3.918024" x2="46.280139" y2="-4.27079" />
      <line x1="45.537677" y1="-3.478066" x2="45.537677" y2="-3.918024" />
      <line x1="44.057803" y1="-2.774934" x2="45.537677" y2="-3.478066" />
      <line x1="-16.263456" y1="-17.790292" x2="-16.263456" y2="-15.678495" />
      <line x1="22.627417" y1="0.687934" x2="22.627417" y2="0.783925" />
      <line x1="-16.263456" y1="-17.790292" x2="22.627417" y2="0.687934" />
      <line x1="-14.142136" y1="-18.798195" x2="-14.142136" y2="-16.686398" />
      <line x1="-16.263456" y1="-17.790292" x2="-14.142136" y2="-18.798195" />
      <line x1="24.748737" y1="-0.319969" x2="24.748737" y2="1.791828" />
      <line x1="-14.142136" y1="-18.798195" x2="24.748737" y2="-0.319969" />
      <line x1="22.627417" y1="0.687934" x2="24.748737" y2="-0.319969" />
      <line x1="-12.020815" y1="-19.806099" x2="-12.020815" y2="-17.694301" />
      <line x1="26.870058" y1="-1.327873" x2="26.870058" y2="-1.231882" />
      <line x1="-12.020815" y1="-19.806099" x2="26.870058" y2="-1.327873" />
      <line x1="-9.899495" y1="-20.814002" x2="-9.899495" y2="-18.702205" />
      <line x1="-12.020815" y1="-19.806099" x2="-9.899495" y2="-20.814002" />
      <line x1="28.991378" y1="-2.335776" x2="28.991378" y2="-0.223978" />
      <line x1="-9.899495" y1="-20.814002" x2="28.991378" y2="-2.335776" />
      <line x1="26.870058" y1="-1.327873" x2="28.991378" y2="-2.335776" />
      <line x1="10.253048" y1="14.611397" x2="10.253048" y2="17.251144" />
      <line x1="51.12382" y1="-3.982018" x2="51.12382" y2="-2.167792" />
      <line x1="10.253048" y1="14.611397" x2="51.12382" y2="-4.807538" />
      <line x1="10.253048" y1="14.611397" x2="-51.12382" y2="-14.550603" />
      <line x1="-51.12382" y1="-13.725082" x2="-51.12382" y2="-11.910857" />
      <line x1="-10.253048" y1="-32.553602" x2="-10.253048" y2="-31.329792" />
      <line x1="48.295393" y1="-2.167792" x2="45.537677" y2="-3.478066" />
      <line x1="7.353911" y1="-21.620325" x2="-10.253048" y2="-29.985921" />
      <line x1="-48.295393" y1="-11.910857" x2="-10.253048" y2="-29.985921" />
      <line x1="10.253048" y1="15.907273" x2="-48.295393" y2="-11.910857" />
      <line x1="10.253048" y1="15.907273" x2="48.295393" y2="-2.167792" />
      <line x1="45.537677" y1="-3.918024" x2="7.353911" y2="-22.060282" />
      <line x1="-10.253048" y1="-32.625668" x2="-10.253048" y2="-29.985921" />
      <line x1="48.295393" y1="-4.807538" x2="48.295393" y2="-2.167792" />
      <line x1="48.295393" y1="-4.807538" x2="-10.253048" y2="-32.625668" />
      <line x1="10.253048" y1="13.267526" x2="40.249528" y2="-0.984705" />
      <line x1="44.0376" y1="-2.784533" x2="48.295393" y2="-4.807538" />
      <line x1="10.253048" y1="13.267526" x2="-48.295393" y2="-14.550603" />
      <line x1="-48.295393" y1="-14.550603" x2="-10.253048" y2="-32.625668" />
      <line x1="-48.295393" y1="-14.550603" x2="-48.295393" y2="-11.910857" />
      <line x1="10.253048" y1="13.267526" x2="10.253048" y2="15.907273" />
      <line x1="12.374369" y1="18.057467" x2="12.374369" y2="20.169264" />
      <line x1="52.820877" y1="-1.159889" x2="52.820877" y2="0.951909" />
      <line x1="8.131728" y1="18.057467" x2="8.131728" y2="20.169264" />
      <line x1="-52.820877" y1="-10.902953" x2="-52.820877" y2="-8.791156" />
    </g>
  </g>
</svg>