<?xml version='1.0' encoding='utf-8'?>
<svg width="89.151594mm" height="59.143028mm" viewBox="-44.575797 -26.500908 89.151594 59.143028" version="1.1" xmlns="http://www.w3.org/2000/svg">
  <g transform="scale(1,-1)" stroke-linecap="round">
    <g fill="none" stroke="rgb(30,56,76)" stroke-width="0.4" id="base_visible">
      <path d="M 11.543518,13.838435 A 1.175,0.5884087399089502 0.0 0,1 13.549369,14.254503" />
      <path d="M 11.199369,14.254503 A 1.175,0.5884087399089502 0.0 0,1 11.543518,13.838435" />
      <path d="M 11.543518,15.872544 A 1.175,0.5884087399089502 0.0 0,1 13.549369,16.288612" />
      <path d="M 13.549369,16.288612 A 1.175,0.5884087399089502 0.0 0,1 11.199369,16.288612" />
      <path d="M 11.199369,16.288612 A 1.175,0.5884087399089502 0.0 0,1 11.543518,15.872544" />
      <path d="M 10.535891,13.333842 A 2.6,1.302010828734698 0.0 0,1 14.974369,14.254503" />
      <path d="M 14.974369,14.254503 A 2.6,1.302010828734698 0.0 0,1 13.549369,15.415971" />
      <path d="M 11.199369,15.415971 A 2.6,1.302010828734698 0.0 0,1 9.774369,14.254503" />
      <path d="M 9.774369,14.254503 A 2.6,1.302010828734698 0.0 0,1 10.535891,13.333842" />
      <path d="M 10.535891,11.42957 A 2.6,1.302010828734698 0.0 0,1 14.974369,12.35023" />
      <path d="M 9.774369,12.35023 A 2.6,1.302010828734698 0.0 0,1 10.535891,11.42957" />
      <line x1="14.974369" y1="14.093482" x2="27.462825" y2="7.839595" />
      <line x1="9.774369" y1="14.093482" x2="-27.462825" y2="-4.553914" />
      <line x1="6.22254" y1="6.790856" x2="7.919596" y2="7.640697" />
      <line x1="6.22254" y1="6.790856" x2="16.742717" y2="1.522631" />
      <line x1="7.919596" y1="7.640697" x2="18.439774" y2="2.372472" />
      <line x1="-2.262742" y1="2.541653" x2="-0.565685" y2="3.391494" />
      <line x1="-2.262742" y1="2.541653" x2="8.257436" y2="-2.726572" />
      <line x1="-0.565685" y1="3.391494" x2="9.954492" y2="-1.876731" />
      <path d="M -27.903568,-9.436597 A 2.6,1.302010828734698 0.0 0,1 -27.454224,-9.346861" />
      <line x1="-10.748023" y1="-1.70755" x2="-9.050967" y2="-0.85771" />
      <line x1="-10.748023" y1="-1.70755" x2="-0.227846" y2="-6.975775" />
      <line x1="-9.050967" y1="-0.85771" x2="1.469211" y2="-6.125935" />
      <line x1="-19.233304" y1="-5.956753" x2="-17.536248" y2="-5.106913" />
      <line x1="-19.233304" y1="-5.956753" x2="-8.713127" y2="-11.224978" />
      <line x1="-17.536248" y1="-5.106913" x2="-7.016071" y2="-10.375138" />
      <line x1="12.374369" y1="16.877021" x2="12.374369" y2="21.714215" />
      <line x1="12.374369" y1="21.714215" x2="34.718943" y2="10.524647" />
      <line x1="27.867992" y1="8.588835" x2="18.596908" y2="13.231547" />
      <line x1="28.496403" y1="8.728437" x2="28.496403" y2="10.351531" />
      <line x1="28.496403" y1="10.351531" x2="18.596908" y2="15.308935" />
      <line x1="18.596908" y1="13.231547" x2="18.596908" y2="15.308935" />
      <line x1="-12.374369" y1="-13.058431" x2="34.718943" y2="10.524647" />
      <line x1="-34.718943" y1="-1.868863" x2="12.374369" y2="21.714215" />
      <line x1="6.22254" y1="17.075502" x2="-0.141421" y2="13.888599" />
      <line x1="6.22254" y1="17.075502" x2="6.22254" y2="13.440072" />
      <line x1="-0.141421" y1="13.888599" x2="-0.141421" y2="10.25317" />
      <line x1="6.22254" y1="13.440072" x2="-0.141421" y2="10.25317" />
      <line x1="-23.369879" y1="2.08329" x2="-29.380287" y2="-0.926562" />
      <line x1="-29.380287" y1="-0.926562" x2="-29.380287" y2="-3.793149" />
      <line x1="-23.369879" y1="-1.379024" x2="-28.071731" y2="-3.733586" />
      <line x1="-23.369879" y1="2.08329" x2="-23.369879" y2="-1.379024" />
      <line x1="-14.283557" y1="6.806594" x2="-20.647518" y2="3.619692" />
      <line x1="-14.283557" y1="6.806594" x2="-14.283557" y2="3.171165" />
      <line x1="-20.647518" y1="3.619692" x2="-20.647518" y2="-0.015738" />
      <line x1="-14.283557" y1="3.171165" x2="-20.647518" y2="-0.015738" />
      <line x1="-34.718943" y1="-1.868863" x2="-12.374369" y2="-13.058431" />
      <line x1="-18.596908" y1="-14.097125" x2="-29.910617" y2="-8.431521" />
      <line x1="-29.910617" y1="-8.431521" x2="-29.910617" y2="-8.116765" />
      <line x1="7.919596" y1="5.941016" x2="7.919596" y2="7.640697" />
      <line x1="-0.565685" y1="1.691812" x2="-0.565685" y2="3.391494" />
      <path d="M -26.041479,-6.214306 A 2.6,1.302010828734698 0.0 0,1 -27.462825,-5.121845" />
      <line x1="-9.050967" y1="-2.557391" x2="-9.050967" y2="-0.85771" />
      <line x1="-17.536248" y1="-6.806594" x2="-17.536248" y2="-5.106913" />
      <path d="M 27.462825,7.271665 A 2.6,1.302010828734698 0.0 0,1 26.041479,6.179204" />
      <line x1="15.202796" y1="21.714215" x2="34.718943" y2="11.941048" />
      <path d="M 15.202796,21.714215 A 4.0,2.0030935826687664 0.0 0,1 9.545942,21.714215" />
      <path d="M 34.718943,11.941048 A 4.0,2.0030935826687664 180.0 0,0 35.890516,10.524647" />
      <path d="M 35.890516,10.524647 A 4.0,2.0030935826687664 180.0 0,0 34.718943,9.108246" />
      <line x1="9.545942" y1="21.714215" x2="-34.718943" y2="-0.452461" />
      <line x1="34.718943" y1="9.108246" x2="-9.545942" y2="-13.058431" />
      <path d="M -34.718943,-3.285264 A 4.0,2.0030935826687664 180.0 0,0 -35.890516,-1.868863" />
      <path d="M -35.890516,-1.868863 A 4.0,2.0030935826687664 180.0 0,0 -34.718943,-0.452461" />
      <path d="M -15.202796,-13.058431 A 4.0,2.0030935826687664 0.0 0,1 -9.545942,-13.058431" />
      <line x1="-34.718943" y1="-3.285264" x2="-15.202796" y2="-13.058431" />
      <line x1="20.011122" y1="13.939747" x2="18.596908" y2="13.231547" />
      <line x1="28.496403" y1="9.690544" x2="20.011122" y2="13.939747" />
      <line x1="20.011122" y1="13.939747" x2="20.011122" y2="14.600734" />
      <line x1="4.808326" y1="14.148273" x2="6.22254" y2="13.440072" />
      <line x1="4.808326" y1="16.367301" x2="4.808326" y2="14.148273" />
      <line x1="4.808326" y1="14.148273" x2="-0.141421" y2="11.669571" />
      <line x1="-24.784093" y1="-0.670823" x2="-23.369879" y2="-1.379024" />
      <line x1="-24.784093" y1="-0.670823" x2="-29.380287" y2="-2.972475" />
      <line x1="-24.784093" y1="1.375089" x2="-24.784093" y2="-0.670823" />
      <line x1="-15.697771" y1="3.879365" x2="-14.283557" y2="3.171165" />
      <line x1="-15.697771" y1="6.098393" x2="-15.697771" y2="3.879365" />
      <line x1="-15.697771" y1="3.879365" x2="-20.647518" y2="1.400663" />
      <line x1="-18.596908" y1="-15.513526" x2="-31.32483" y2="-9.139721" />
      <line x1="-29.910617" y1="-8.431521" x2="-31.32483" y2="-9.139721" />
      <line x1="-18.596908" y1="-15.513526" x2="-18.596908" y2="-13.782369" />
      <line x1="-18.596908" y1="-13.782369" x2="-31.32483" y2="-7.408564" />
      <line x1="-31.32483" y1="-9.139721" x2="-31.32483" y2="-7.408564" />
      <path d="M 35.890516,1.868863 A 4.0,2.0030935826687664 180.0 0,0 34.718943,0.452461" />
      <line x1="34.718943" y1="0.452461" x2="-9.545942" y2="-21.714215" />
      <path d="M -34.718943,-11.941048 A 4.0,2.0030935826687664 180.0 0,0 -35.890516,-10.524647" />
      <path d="M -15.202796,-21.714215 A 4.0,2.0030935826687664 0.0 0,1 -9.545942,-21.714215" />
      <line x1="-34.718943" y1="-11.941048" x2="-15.202796" y2="-21.714215" />
      <path d="M 34.718943,8.329225 A 4.0,2.0030935826687664 0.0 0,1 35.822405,9.37755" />
      <line x1="35.822405" y1="8.511971" x2="35.822405" y2="9.37755" />
      <path d="M 34.718943,7.463647 A 4.0,2.0030935826687664 0.0 0,1 35.822405,8.511971" />
      <line x1="34.718943" y1="8.329225" x2="-9.545942" y2="-13.837451" />
      <path d="M -35.822405,-3.881538 A 4.0,2.0030935826687664 0.0 0,1 -34.718943,-4.929863" />
      <line x1="-35.822405" y1="-3.881538" x2="-35.822405" y2="-3.015959" />
      <path d="M -35.822405,-3.015959 A 4.0,2.0030935826687664 0.0 0,1 -34.718943,-4.064284" />
      <path d="M -15.202796,-14.70303 A 4.0,2.0030935826687664 0.0 0,1 -13.109384,-15.255614" />
      <line x1="-13.109384" y1="-15.255614" x2="-13.109384" y2="-14.390036" />
      <path d="M -15.202796,-13.837451 A 4.0,2.0030935826687664 0.0 0,1 -13.109384,-14.390036" />
      <path d="M -11.639353,-14.390036 A 4.0,2.0030935826687664 0.0 0,1 -9.545942,-13.837451" />
      <line x1="-11.639353" y1="-15.255614" x2="-11.639353" y2="-14.390036" />
      <path d="M -11.639353,-15.255614 A 4.0,2.0030935826687664 0.0 0,1 -9.545942,-14.70303" />
      <line x1="-15.202796" y1="-13.837451" x2="-34.718943" y2="-4.064284" />
      <line x1="-15.202796" y1="-14.70303" x2="-34.718943" y2="-4.929863" />
      <line x1="34.718943" y1="7.463647" x2="-9.545942" y2="-14.70303" />
      <path d="M -28.802163,-4.831828 A 1.175,0.5884087399089502 0.0 0,1 -27.462825,-4.249203" />
      <path d="M -27.462825,-4.249203 A 1.1750000000000005,0.5884087399089504 0.0 0,1 -29.812825,-4.249203" />
      <path d="M -29.812825,-4.249203 A 1.175,0.5884087399089502 0.0 0,1 -29.801275,-4.3315" />
      <path d="M 27.806974,7.728238 A 1.175,0.5884087399089502 0.0 0,1 28.802163,7.561681" />
      <path d="M 29.801275,8.06201 A 1.175,0.5884087399089502 0.0 0,1 29.812825,8.144306" />
      <path d="M 29.812825,8.144306 A 1.1750000000000005,0.5884087399089504 0.0 0,1 27.462825,8.144306" />
      <path d="M 27.462825,8.144306 A 1.175,0.5884087399089502 0.0 0,1 27.806974,7.728238" />
      <path d="M -12.538707,-12.976134 A 1.175,0.5884087399089502 0.0 0,1 -12.21003,-12.976134" />
      <path d="M -11.210918,-12.475806 A 1.175,0.5884087399089502 0.0 0,1 -11.199369,-12.393509" />
      <path d="M -11.199369,-12.393509 A 1.175,0.5884087399089502 0.0 0,1 -13.549369,-12.393509" />
      <path d="M -13.549369,-12.393509 A 1.175,0.5884087399089502 0.0 0,1 -13.53782,-12.475806" />
      <line x1="35.822405" y1="8.511971" x2="-11.639353" y2="-15.255614" />
      <line x1="-35.822405" y1="-3.881538" x2="-13.109384" y2="-15.255614" />
      <line x1="34.718943" y1="8.329225" x2="34.718943" y2="9.108246" />
      <line x1="34.718943" y1="0.452461" x2="34.718943" y2="7.463647" />
      <line x1="-9.545942" y1="-13.837451" x2="-9.545942" y2="-13.058431" />
      <line x1="-34.718943" y1="-11.941048" x2="-34.718943" y2="-4.929863" />
      <line x1="-34.718943" y1="-4.064284" x2="-34.718943" y2="-3.285264" />
      <line x1="-15.202796" y1="-21.714215" x2="-15.202796" y2="-14.70303" />
      <line x1="-15.202796" y1="-13.837451" x2="-15.202796" y2="-13.058431" />
      <line x1="-9.545942" y1="-21.714215" x2="-9.545942" y2="-14.70303" />
      <line x1="13.549369" y1="14.254503" x2="13.549369" y2="16.288612" />
      <line x1="11.199369" y1="14.254503" x2="11.199369" y2="16.288612" />
      <line x1="14.974369" y1="12.35023" x2="14.974369" y2="14.254503" />
      <line x1="9.774369" y1="12.35023" x2="9.774369" y2="14.254503" />
      <line x1="35.890516" y1="1.868863" x2="35.890516" y2="10.524647" />
      <line x1="-35.890516" y1="-10.524647" x2="-35.890516" y2="-1.868863" />
      <line x1="-27.462825" y1="-5.502534" x2="-27.462825" y2="-4.249203" />
      <line x1="-29.812825" y1="-4.325716" x2="-29.812825" y2="-4.249203" />
      <line x1="29.812825" y1="8.067793" x2="29.812825" y2="8.144306" />
      <line x1="27.462825" y1="6.890976" x2="27.462825" y2="8.144306" />
      <line x1="-11.199369" y1="-12.470022" x2="-11.199369" y2="-12.393509" />
      <line x1="-13.549369" y1="-12.470022" x2="-13.549369" y2="-12.393509" />
    </g>
    <g fill="none" stroke="rgb(158,173,183)" stroke-width="0.22" id="base_hidden" stroke-dasharray="1.397 0.6985">
      <path d="M 13.549369,14.254503 A 1.175,0.5884087399089502 0.0 0,1 11.199369,14.254503" />
      <path d="M 13.549369,15.415971 A 2.6,1.302010828734698 0.0 0,1 11.199369,15.415971" />
      <path d="M 14.974369,12.35023 A 2.6,1.302010828734698 0.0 0,1 9.774369,12.35023" />
      <line x1="12.374369" y1="15.395493" x2="14.974369" y2="14.093482" />
      <line x1="27.462825" y1="7.839595" x2="34.718943" y2="4.205924" />
      <line x1="34.718943" y1="4.205924" x2="-12.374369" y2="-19.377153" />
      <line x1="12.374369" y1="15.395493" x2="9.774369" y2="14.093482" />
      <line x1="-27.462825" y1="-4.553914" x2="-34.718943" y2="-8.187585" />
      <line x1="-34.718943" y1="-8.187585" x2="-12.374369" y2="-19.377153" />
      <line x1="16.742717" y1="1.522631" x2="17.536248" y2="1.125252" />
      <line x1="18.439774" y1="2.372472" x2="19.233304" y2="1.975093" />
      <line x1="17.536248" y1="1.125252" x2="19.233304" y2="1.975093" />
      <line x1="8.257436" y1="-2.726572" x2="9.050967" y2="-3.123951" />
      <line x1="9.954492" y1="-1.876731" x2="10.748023" y2="-2.274111" />
      <line x1="9.050967" y1="-3.123951" x2="10.748023" y2="-2.274111" />
      <path d="M -30.476302,-9.108246 A 2.6,1.302010828734698 0.0 0,1 -27.903568,-9.436597" />
      <path d="M -27.454224,-9.346861 A 2.6,1.302010828734698 0.0 0,1 -26.037825,-8.187585" />
      <path d="M -26.037825,-8.187585 A 2.6,1.302010828734698 0.0 0,1 -31.237825,-8.187585" />
      <path d="M -31.237825,-8.187585 A 2.6,1.302010828734698 0.0 0,1 -30.476302,-9.108246" />
      <line x1="-0.227846" y1="-6.975775" x2="0.565685" y2="-7.373154" />
      <line x1="1.469211" y1="-6.125935" x2="2.262742" y2="-6.523314" />
      <line x1="0.565685" y1="-7.373154" x2="2.262742" y2="-6.523314" />
      <line x1="-8.713127" y1="-11.224978" x2="-7.919596" y2="-11.622358" />
      <line x1="-7.919596" y1="-11.622358" x2="-6.22254" y2="-10.772517" />
      <line x1="-7.016071" y1="-10.375138" x2="-6.22254" y2="-10.772517" />
      <path d="M 26.799347,3.285264 A 2.6,1.302010828734698 0.0 0,1 31.237825,4.205924" />
      <path d="M 31.237825,4.205924 A 2.6,1.302010828734698 0.0 0,1 26.037825,4.205924" />
      <path d="M 26.037825,4.205924 A 2.6,1.302010828734698 0.0 0,1 26.799347,3.285264" />
      <path d="M -14.212846,-17.252552 A 2.6,1.302010828734698 0.0 0,1 -9.774369,-16.331891" />
      <path d="M -9.774369,-16.331891 A 2.6,1.302010828734698 0.0 0,1 -14.974369,-16.331891" />
      <path d="M -14.974369,-16.331891 A 2.6,1.302010828734698 0.0 0,1 -14.212846,-17.252552" />
      <line x1="12.374369" y1="15.395493" x2="12.374369" y2="16.877021" />
      <line x1="34.718943" y1="4.205924" x2="34.718943" y2="10.524647" />
      <line x1="28.496403" y1="8.274143" x2="27.867992" y2="8.588835" />
      <line x1="28.496403" y1="8.274143" x2="28.496403" y2="8.728437" />
      <line x1="-12.374369" y1="-19.377153" x2="-12.374369" y2="-13.058431" />
      <line x1="-34.718943" y1="-8.187585" x2="-34.718943" y2="-1.868863" />
      <line x1="-29.380287" y1="-3.793149" x2="-29.380287" y2="-4.388876" />
      <line x1="-28.071731" y1="-3.733586" x2="-29.380287" y2="-4.388876" />
      <line x1="-17.182695" y1="-14.805325" x2="-18.596908" y2="-14.097125" />
      <line x1="-17.182695" y1="-14.805325" x2="-17.182695" y2="-13.074169" />
      <line x1="-17.182695" y1="-13.074169" x2="-29.910617" y2="-6.700364" />
      <line x1="-29.910617" y1="-8.116765" x2="-29.910617" y2="-6.700364" />
      <line x1="6.22254" y1="4.453794" x2="6.22254" y2="6.790856" />
      <line x1="7.919596" y1="5.303635" x2="7.919596" y2="5.941016" />
      <line x1="6.22254" y1="4.453794" x2="7.919596" y2="5.303635" />
      <line x1="17.536248" y1="-1.21181" x2="17.536248" y2="1.125252" />
      <line x1="6.22254" y1="4.453794" x2="17.536248" y2="-1.21181" />
      <line x1="19.233304" y1="-0.361969" x2="19.233304" y2="1.975093" />
      <line x1="7.919596" y1="5.303635" x2="19.233304" y2="-0.361969" />
      <line x1="17.536248" y1="-1.21181" x2="19.233304" y2="-0.361969" />
      <line x1="-2.262742" y1="0.204591" x2="-2.262742" y2="2.541653" />
      <line x1="-0.565685" y1="1.054432" x2="-0.565685" y2="1.691812" />
      <line x1="-2.262742" y1="0.204591" x2="-0.565685" y2="1.054432" />
      <line x1="9.050967" y1="-5.461013" x2="9.050967" y2="-3.123951" />
      <line x1="-2.262742" y1="0.204591" x2="9.050967" y2="-5.461013" />
      <line x1="10.748023" y1="-4.611172" x2="10.748023" y2="-2.274111" />
      <line x1="-0.565685" y1="1.054432" x2="10.748023" y2="-4.611172" />
      <line x1="9.050967" y1="-5.461013" x2="10.748023" y2="-4.611172" />
      <path d="M -30.476302,-7.203973 A 2.6,1.302010828734698 0.0 0,1 -26.037825,-6.283312" />
      <path d="M -26.037825,-6.283312 A 2.6,1.302010828734698 0.0 0,1 -26.041479,-6.214306" />
      <path d="M -27.462825,-5.121845 A 2.6,1.302010828734698 0.0 0,1 -31.237825,-6.283312" />
      <path d="M -31.237825,-6.283312 A 2.6,1.302010828734698 0.0 0,1 -30.476302,-7.203973" />
      <line x1="-10.748023" y1="-4.044612" x2="-10.748023" y2="-1.70755" />
      <line x1="-9.050967" y1="-3.194771" x2="-9.050967" y2="-2.557391" />
      <line x1="-10.748023" y1="-4.044612" x2="-9.050967" y2="-3.194771" />
      <line x1="0.565685" y1="-9.710216" x2="0.565685" y2="-7.373154" />
      <line x1="-10.748023" y1="-4.044612" x2="0.565685" y2="-9.710216" />
      <line x1="2.262742" y1="-8.860375" x2="2.262742" y2="-6.523314" />
      <line x1="-9.050967" y1="-3.194771" x2="2.262742" y2="-8.860375" />
      <line x1="0.565685" y1="-9.710216" x2="2.262742" y2="-8.860375" />
      <line x1="-19.233304" y1="-8.293815" x2="-19.233304" y2="-5.956753" />
      <line x1="-17.536248" y1="-7.443974" x2="-17.536248" y2="-6.806594" />
      <line x1="-19.233304" y1="-8.293815" x2="-17.536248" y2="-7.443974" />
      <line x1="-7.919596" y1="-13.959419" x2="-7.919596" y2="-11.622358" />
      <line x1="-19.233304" y1="-8.293815" x2="-7.919596" y2="-13.959419" />
      <line x1="-6.22254" y1="-13.109579" x2="-6.22254" y2="-10.772517" />
      <line x1="-7.919596" y1="-13.959419" x2="-6.22254" y2="-13.109579" />
      <line x1="-17.536248" y1="-7.443974" x2="-6.22254" y2="-13.109579" />
      <path d="M 26.799347,5.189536 A 2.6,1.302010828734698 0.0 0,1 31.237825,6.110197" />
      <path d="M 31.237825,6.110197 A 2.6,1.302010828734698 0.0 0,1 27.462825,7.271665" />
      <path d="M 26.041479,6.179204 A 2.6,1.302010828734698 0.0 0,1 26.037825,6.110197" />
      <path d="M 26.037825,6.110197 A 2.6,1.302010828734698 0.0 0,1 26.799347,5.189536" />
      <path d="M -14.212846,-15.348279 A 2.6,1.302010828734698 0.0 0,1 -9.774369,-14.427619" />
      <path d="M -9.774369,-14.427619 A 2.6,1.302010828734698 0.0 0,1 -14.974369,-14.427619" />
      <path d="M -14.974369,-14.427619 A 2.6,1.302010828734698 0.0 0,1 -14.212846,-15.348279" />
      <line x1="29.910617" y1="8.982343" x2="28.496403" y2="8.274143" />
      <line x1="29.910617" y1="8.982343" x2="28.496403" y2="9.690544" />
      <line x1="29.910617" y1="11.059732" x2="28.496403" y2="10.351531" />
      <line x1="29.910617" y1="8.982343" x2="29.910617" y2="11.059732" />
      <line x1="20.011122" y1="16.017135" x2="18.596908" y2="15.308935" />
      <line x1="29.910617" y1="11.059732" x2="20.011122" y2="16.017135" />
      <line x1="20.011122" y1="14.600734" x2="20.011122" y2="16.017135" />
      <line x1="5.303301" y1="17.535832" x2="6.22254" y2="17.075502" />
      <line x1="-1.06066" y1="14.34893" x2="-0.141421" y2="13.888599" />
      <line x1="5.303301" y1="17.535832" x2="-1.06066" y2="14.34893" />
      <line x1="4.808326" y1="17.697144" x2="4.808326" y2="16.367301" />
      <line x1="4.808326" y1="17.697144" x2="5.303301" y2="17.449274" />
      <line x1="5.303301" y1="17.535832" x2="5.303301" y2="17.449274" />
      <line x1="-1.555635" y1="10.96137" x2="-0.141421" y2="10.25317" />
      <line x1="-1.555635" y1="14.510242" x2="-1.555635" y2="10.96137" />
      <line x1="-1.555635" y1="14.510242" x2="-1.06066" y2="14.262372" />
      <line x1="-1.06066" y1="14.34893" x2="-1.06066" y2="14.262372" />
      <line x1="-0.141421" y1="11.669571" x2="-1.555635" y2="10.96137" />
      <line x1="-24.784093" y1="2.79149" x2="-23.369879" y2="2.08329" />
      <line x1="-30.7945" y1="-0.218362" x2="-29.380287" y2="-0.926562" />
      <line x1="-24.784093" y1="2.79149" x2="-30.7945" y2="-0.218362" />
      <line x1="-30.7945" y1="-3.680676" x2="-29.380287" y2="-4.388876" />
      <line x1="-30.7945" y1="-0.218362" x2="-30.7945" y2="-3.680676" />
      <line x1="-29.380287" y1="-2.972475" x2="-30.7945" y2="-3.680676" />
      <line x1="-24.784093" y1="2.79149" x2="-24.784093" y2="1.375089" />
      <line x1="-15.202796" y1="7.266924" x2="-14.283557" y2="6.806594" />
      <line x1="-21.566757" y1="4.080022" x2="-20.647518" y2="3.619692" />
      <line x1="-15.202796" y1="7.266924" x2="-21.566757" y2="4.080022" />
      <line x1="-15.697771" y1="7.428237" x2="-15.697771" y2="6.098393" />
      <line x1="-15.697771" y1="7.428237" x2="-15.202796" y2="7.180366" />
      <line x1="-15.202796" y1="7.266924" x2="-15.202796" y2="7.180366" />
      <line x1="-22.061732" y1="0.692463" x2="-20.647518" y2="-0.015738" />
      <line x1="-22.061732" y1="4.241334" x2="-22.061732" y2="0.692463" />
      <line x1="-22.061732" y1="4.241334" x2="-21.566757" y2="3.993464" />
      <line x1="-21.566757" y1="4.080022" x2="-21.566757" y2="3.993464" />
      <line x1="-20.647518" y1="1.400663" x2="-22.061732" y2="0.692463" />
      <line x1="-17.182695" y1="-14.805325" x2="-18.596908" y2="-15.513526" />
      <line x1="-17.182695" y1="-13.074169" x2="-18.596908" y2="-13.782369" />
      <line x1="-29.910617" y1="-6.700364" x2="-31.32483" y2="-7.408564" />
      <line x1="15.202796" y1="13.058431" x2="34.718943" y2="3.285264" />
      <path d="M 15.202796,13.058431 A 4.0,2.0030935826687664 0.0 0,1 9.545942,13.058431" />
      <path d="M 34.718943,3.285264 A 4.0,2.0030935826687664 180.0 0,0 35.890516,1.868863" />
      <line x1="9.545942" y1="13.058431" x2="-34.718943" y2="-9.108246" />
      <path d="M -35.890516,-10.524647 A 4.0,2.0030935826687664 180.0 0,0 -34.718943,-9.108246" />
      <path d="M -29.468675,-6.69938 A 1.175,0.5884087399089502 0.0 0,1 -27.462825,-6.283312" />
      <path d="M -27.462825,-6.283312 A 1.1750000000000005,0.5884087399089504 0.0 0,1 -29.812825,-6.283312" />
      <path d="M -29.812825,-6.283312 A 1.175,0.5884087399089502 0.0 0,1 -29.468675,-6.69938" />
      <path d="M 27.806974,5.694129 A 1.175,0.5884087399089502 0.0 0,1 29.812825,6.110197" />
      <path d="M 29.812825,6.110197 A 1.1750000000000005,0.5884087399089504 0.0 0,1 27.462825,6.110197" />
      <path d="M 27.462825,6.110197 A 1.175,0.5884087399089502 0.0 0,1 27.806974,5.694129" />
      <path d="M -13.205219,-14.843686 A 1.175,0.5884087399089502 0.0 0,1 -11.199369,-14.427619" />
      <path d="M -11.199369,-14.427619 A 1.175,0.5884087399089502 0.0 0,1 -13.549369,-14.427619" />
      <path d="M -13.549369,-14.427619 A 1.175,0.5884087399089502 0.0 0,1 -13.205219,-14.843686" />
      <line x1="34.718943" y1="11.162027" x2="15.202796" y2="20.935194" />
      <path d="M 15.202796,20.069616 A 4.0,2.0030935826687664 0.0 0,1 13.109384,20.6222" />
      <line x1="13.109384" y1="20.6222" x2="13.109384" y2="21.487779" />
      <path d="M 15.202796,20.935194 A 4.0,2.0030935826687664 0.0 0,1 13.109384,21.487779" />
      <path d="M 11.639353,21.487779 A 4.0,2.0030935826687664 0.0 0,1 9.545942,20.935194" />
      <line x1="11.639353" y1="20.6222" x2="11.639353" y2="21.487779" />
      <path d="M 11.639353,20.6222 A 4.0,2.0030935826687664 0.0 0,1 9.545942,20.069616" />
      <path d="M 35.822405,9.248124 A 4.0,2.0030935826687664 0.0 0,1 34.718943,10.296449" />
      <line x1="35.822405" y1="9.248124" x2="35.822405" y2="10.113702" />
      <path d="M 35.822405,10.113702 A 4.0,2.0030935826687664 0.0 0,1 34.718943,11.162027" />
      <line x1="9.545942" y1="20.935194" x2="-34.718943" y2="-1.231482" />
      <path d="M -34.718943,-1.231482 A 4.0,2.0030935826687664 0.0 0,1 -35.822405,-2.279807" />
      <line x1="-35.822405" y1="-3.145385" x2="-35.822405" y2="-2.279807" />
      <path d="M -34.718943,-2.09706 A 4.0,2.0030935826687664 0.0 0,1 -35.822405,-3.145385" />
      <line x1="34.718943" y1="10.296449" x2="15.202796" y2="20.069616" />
      <line x1="-35.822405" y1="-2.279807" x2="11.639353" y2="21.487779" />
      <line x1="11.639353" y1="20.6222" x2="5.303301" y2="17.449274" />
      <line x1="-1.06066" y1="14.262372" x2="-15.202796" y2="7.180366" />
      <line x1="-21.566757" y1="3.993464" x2="-35.822405" y2="-3.145385" />
      <line x1="9.545942" y1="20.069616" x2="4.808326" y2="17.697144" />
      <line x1="-22.061732" y1="4.241334" x2="-34.718943" y2="-2.09706" />
      <line x1="-1.555635" y1="14.510242" x2="-15.697771" y2="7.428237" />
      <path d="M -29.468675,-4.665271 A 1.175,0.5884087399089502 0.0 0,1 -28.802163,-4.831828" />
      <path d="M -29.801275,-4.3315 A 1.175,0.5884087399089502 0.0 0,1 -29.468675,-4.665271" />
      <path d="M 28.802163,7.561681 A 1.175,0.5884087399089502 0.0 0,1 29.801275,8.06201" />
      <path d="M -13.205219,-12.809577 A 1.175,0.5884087399089502 0.0 0,1 -12.538707,-12.976134" />
      <path d="M -12.21003,-12.976134 A 1.175,0.5884087399089502 0.0 0,1 -11.210918,-12.475806" />
      <path d="M -13.53782,-12.475806 A 1.175,0.5884087399089502 0.0 0,1 -13.205219,-12.809577" />
      <line x1="13.109384" y1="21.487779" x2="35.822405" y2="10.113702" />
      <line x1="13.109384" y1="20.6222" x2="35.822405" y2="9.248124" />
      <line x1="-11.639353" y1="-14.390036" x2="35.822405" y2="9.37755" />
      <line x1="-35.822405" y1="-3.015959" x2="-13.109384" y2="-14.390036" />
      <line x1="-26.037825" y1="-8.187585" x2="-26.037825" y2="-6.283312" />
      <line x1="-31.237825" y1="-8.187585" x2="-31.237825" y2="-6.283312" />
      <line x1="31.237825" y1="4.205924" x2="31.237825" y2="6.110197" />
      <line x1="26.037825" y1="4.205924" x2="26.037825" y2="6.110197" />
      <line x1="-9.774369" y1="-16.331891" x2="-9.774369" y2="-14.427619" />
      <line x1="-14.974369" y1="-16.331891" x2="-14.974369" y2="-14.427619" />
      <line x1="-27.462825" y1="-6.283312" x2="-27.462825" y2="-5.502534" />
      <line x1="-29.812825" y1="-6.283312" x2="-29.812825" y2="-4.325716" />
      <line x1="29.812825" y1="6.110197" x2="29.812825" y2="8.067793" />
      <line x1="27.462825" y1="6.110197" x2="27.462825" y2="6.890976" />
      <line x1="-11.199369" y1="-14.427619" x2="-11.199369" y2="-12.470022" />
      <line x1="-13.549369" y1="-14.427619" x2="-13.549369" y2="-12.470022" />
      <line x1="34.718943" y1="11.162027" x2="34.718943" y2="11.941048" />
      <line x1="15.202796" y1="20.935194" x2="15.202796" y2="21.714215" />
      <line x1="15.202796" y1="13.058431" x2="15.202796" y2="20.069616" />
      <line x1="9.545942" y1="20.935194" x2="9.545942" y2="21.714215" />
      <line x1="9.545942" y1="13.058431" x2="9.545942" y2="20.069616" />
      <line x1="34.718943" y1="3.285264" x2="34.718943" y2="10.296449" />
      <line x1="-34.718943" y1="-1.231482" x2="-34.718943" y2="-0.452461" />
      <line x1="-34.718943" y1="-9.108246" x2="-34.718943" y2="-2.09706" />
    </g>
    <g fill="none" stroke="rgb(127,45,45)" stroke-width="0.4" id="lid_visible">
      <line x1="40.375797" y1="-2.02624" x2="40.375797" y2="1.868863" />
      <line x1="38.6361" y1="2.740056" x2="40.375797" y2="1.868863" />
      <line x1="15.344217" y1="16.135169" x2="37.405949" y2="5.08724" />
      <line x1="9.40452" y1="16.135169" x2="-37.405949" y2="-7.306269" />
      <line x1="-38.6361" y1="-9.653453" x2="-40.375797" y2="-10.524647" />
      <line x1="-40.375797" y1="-14.41975" x2="-40.375797" y2="-10.524647" />
      <line x1="40.375797" y1="-2.02624" x2="-12.374369" y2="-28.44212" />
      <line x1="-40.375797" y1="-14.41975" x2="-12.374369" y2="-28.44212" />
      <line x1="40.375797" y1="1.868863" x2="37.405949" y2="0.381641" />
      <line x1="37.405949" y1="0.381641" x2="37.405949" y2="2.112798" />
      <line x1="37.405949" y1="2.112798" x2="-9.40452" y2="-21.328639" />
      <line x1="-9.40452" y1="-23.059796" x2="-9.40452" y2="-21.328639" />
      <line x1="-9.40452" y1="-23.059796" x2="-12.374369" y2="-24.547017" />
      <line x1="-12.374369" y1="-28.44212" x2="-12.374369" y2="-24.547017" />
      <path d="M 38.6361,1.868863 A 4.2,2.1032482618022046 180.0 0,0 37.405949,0.381641" />
      <path d="M 37.405949,5.08724 A 4.2,2.1032482618022046 180.0 0,0 38.6361,3.600019" />
      <path d="M 38.6361,3.600019 A 4.2,2.1032482618022046 180.0 0,0 37.405949,2.112798" />
      <path d="M 15.344217,16.135169 A 4.2,2.1032482618022046 0.0 0,1 9.40452,16.135169" />
      <path d="M -37.405949,-10.280711 A 4.2,2.1032482618022046 180.0 0,0 -38.6361,-8.79349" />
      <path d="M -38.6361,-8.79349 A 4.2,2.1032482618022046 180.0 0,0 -37.405949,-7.306269" />
      <path d="M -15.344217,-21.328639 A 4.2,2.1032482618022046 0.0 0,1 -9.40452,-21.328639" />
      <line x1="-37.405949" y1="-10.280711" x2="-15.344217" y2="-21.328639" />
      <path d="M -1.343503,-0.295084 A 1.2,0.6009280748006299 0.0 0,1 0.705025,0.129837" />
      <path d="M 0.705025,0.129837 A 1.2,0.6009280748006299 0.0 0,1 -1.694975,0.129837" />
      <path d="M -1.694975,0.129837 A 1.2,0.6009280748006299 0.0 0,1 -1.343503,-0.295084" />
      <path d="M 4.596194,-0.295084 A 1.2,0.6009280748006299 0.0 0,1 6.644722,0.129837" />
      <path d="M 6.644722,0.129837 A 1.2,0.6009280748006299 0.0 0,1 4.244722,0.129837" />
      <path d="M 4.244722,0.129837 A 1.2,0.6009280748006299 0.0 0,1 4.596194,-0.295084" />
      <path d="M 1.626346,-1.782305 A 1.2,0.6009280748006299 0.0 0,1 3.674874,-1.357384" />
      <path d="M 3.674874,-1.357384 A 1.2,0.6009280748006299 0.0 0,1 1.274874,-1.357384" />
      <path d="M 1.274874,-1.357384 A 1.2,0.6009280748006299 0.0 0,1 1.626346,-1.782305" />
      <path d="M 4.596194,-3.269526 A 1.2,0.6009280748006299 0.0 0,1 6.644722,-2.844605" />
      <path d="M 6.644722,-2.844605 A 1.2,0.6009280748006299 0.0 0,1 4.244722,-2.844605" />
      <path d="M 4.244722,-2.844605 A 1.2,0.6009280748006299 0.0 0,1 4.596194,-3.269526" />
      <path d="M -1.343503,-3.269526 A 1.2,0.6009280748006299 0.0 0,1 0.705025,-2.844605" />
      <path d="M 0.705025,-2.844605 A 1.2,0.6009280748006299 0.0 0,1 -1.694975,-2.844605" />
      <path d="M -1.694975,-2.844605 A 1.2,0.6009280748006299 0.0 0,1 -1.343503,-3.269526" />
      <line x1="-12.551145" y1="-14.724669" x2="24.218407" y2="3.688544" />
      <line x1="-12.551145" y1="-14.724669" x2="-7.954951" y2="-17.026321" />
      <line x1="24.218407" y1="3.688544" x2="28.814601" y2="1.386893" />
      <line x1="-7.954951" y1="-17.026321" x2="28.814601" y2="1.386893" />
      <path d="M -37.405949,-12.011868 A 4.2,2.1032482618022046 180.0 0,0 -38.6361,-10.524647" />
      <line x1="-37.405949" y1="-12.011868" x2="-37.405949" y2="-10.280711" />
      <line x1="-40.375797" y1="-10.524647" x2="-37.405949" y2="-12.011868" />
      <line x1="-15.344217" y1="-23.059796" x2="-12.374369" y2="-24.547017" />
      <line x1="-15.344217" y1="-23.059796" x2="-15.344217" y2="-21.328639" />
      <path d="M -15.344217,-23.059796 A 4.2,2.1032482618022046 0.0 0,1 -9.40452,-23.059796" />
      <line x1="24.218407" y1="2.000666" x2="24.218407" y2="3.688544" />
      <line x1="-10.865874" y1="-15.568608" x2="24.218407" y2="2.000666" />
      <line x1="24.218407" y1="2.000666" x2="27.12933" y2="0.542954" />
      <line x1="38.6361" y1="1.868863" x2="38.6361" y2="3.600019" />
      <line x1="-38.6361" y1="-10.524647" x2="-38.6361" y2="-8.79349" />
    </g>
    <g fill="none" stroke="rgb(191,158,158)" stroke-width="0.22" id="lid_hidden" stroke-dasharray="1.397 0.6985">
      <line x1="12.374369" y1="11.99613" x2="12.374369" y2="15.891233" />
      <line x1="12.374369" y1="11.99613" x2="40.375797" y2="-2.02624" />
      <line x1="37.405949" y1="3.356084" x2="38.6361" y2="2.740056" />
      <line x1="37.405949" y1="3.356084" x2="37.405949" y2="5.08724" />
      <line x1="15.344217" y1="14.404012" x2="15.344217" y2="16.135169" />
      <line x1="12.374369" y1="15.891233" x2="15.344217" y2="14.404012" />
      <line x1="12.374369" y1="11.99613" x2="-40.375797" y2="-14.41975" />
      <line x1="12.374369" y1="15.891233" x2="9.40452" y2="14.404012" />
      <line x1="9.40452" y1="14.404012" x2="9.40452" y2="16.135169" />
      <line x1="-37.405949" y1="-9.037426" x2="-37.405949" y2="-7.306269" />
      <line x1="-37.405949" y1="-9.037426" x2="-38.6361" y2="-9.653453" />
      <line x1="-37.830213" y1="-14.41975" x2="12.374369" y2="10.721369" />
      <line x1="-37.830213" y1="-14.41975" x2="-12.374369" y2="-27.167359" />
      <line x1="-12.374369" y1="-27.167359" x2="37.830213" y2="-2.02624" />
      <line x1="12.374369" y1="10.721369" x2="37.830213" y2="-2.02624" />
      <path d="M 37.405949,3.356084 A 4.2,2.1032482618022046 180.0 0,0 38.6361,1.868863" />
      <path d="M 15.344217,14.404012 A 4.2,2.1032482618022046 0.0 0,1 9.40452,14.404012" />
      <path d="M -38.6361,-10.524647 A 4.2,2.1032482618022046 180.0 0,0 -37.405949,-9.037426" />
      <line x1="-37.830213" y1="-14.41975" x2="-37.830213" y2="-10.481368" />
      <line x1="12.374369" y1="14.659751" x2="-37.830213" y2="-10.481368" />
      <line x1="12.374369" y1="10.721369" x2="12.374369" y2="14.659751" />
      <line x1="-2.687006" y1="6.165279" x2="-22.768838" y2="-3.891168" />
      <line x1="-22.768838" y1="-4.497073" x2="-22.768838" y2="-3.891168" />
      <line x1="-2.687006" y1="5.559374" x2="-22.768838" y2="-4.497073" />
      <line x1="-2.687006" y1="5.559374" x2="-2.687006" y2="6.165279" />
      <line x1="-37.830213" y1="-10.481368" x2="-12.374369" y2="-23.228977" />
      <line x1="-12.374369" y1="-27.167359" x2="-12.374369" y2="-23.228977" />
      <line x1="-30.19346" y1="-15.863692" x2="-30.19346" y2="-15.257787" />
      <line x1="-30.19346" y1="-15.863692" x2="-20.011122" y2="-20.962736" />
      <line x1="-20.011122" y1="-20.962736" x2="-20.011122" y2="-20.356831" />
      <line x1="-30.19346" y1="-15.257787" x2="-20.011122" y2="-20.356831" />
      <line x1="37.830213" y1="1.912141" x2="-12.374369" y2="-23.228977" />
      <line x1="37.830213" y1="-2.02624" x2="37.830213" y2="1.912141" />
      <line x1="22.768838" y1="-6.58233" x2="2.687006" y2="-16.638778" />
      <line x1="2.687006" y1="-17.244683" x2="2.687006" y2="-16.638778" />
      <line x1="22.768838" y1="-7.188235" x2="2.687006" y2="-17.244683" />
      <line x1="22.768838" y1="-7.188235" x2="22.768838" y2="-6.58233" />
      <line x1="12.374369" y1="14.659751" x2="37.830213" y2="1.912141" />
      <line x1="20.011122" y1="9.277427" x2="20.011122" y2="9.883332" />
      <line x1="20.011122" y1="9.277427" x2="30.19346" y2="4.178383" />
      <line x1="30.19346" y1="4.178383" x2="30.19346" y2="4.784288" />
      <line x1="20.011122" y1="9.883332" x2="30.19346" y2="4.784288" />
      <path d="M -1.343503,-1.982961 A 1.2,0.6009280748006299 0.0 0,1 0.705025,-1.558041" />
      <path d="M 0.705025,-1.558041 A 1.2,0.6009280748006299 0.0 0,1 -1.694975,-1.558041" />
      <path d="M -1.694975,-1.558041 A 1.2,0.6009280748006299 0.0 0,1 -1.343503,-1.982961" />
      <path d="M 4.596194,-1.982961 A 1.2,0.6009280748006299 0.0 0,1 6.644722,-1.558041" />
      <path d="M 6.644722,-1.558041 A 1.2,0.6009280748006299 0.0 0,1 4.244722,-1.558041" />
      <path d="M 4.244722,-1.558041 A 1.2,0.6009280748006299 0.0 0,1 4.596194,-1.982961" />
      <path d="M 1.626346,-3.470183 A 1.2,0.6009280748006299 0.0 0,1 3.674874,-3.045262" />
      <path d="M 3.674874,-3.045262 A 1.2,0.6009280748006299 0.0 0,1 1.274874,-3.045262" />
      <path d="M 1.274874,-3.045262 A 1.2,0.6009280748006299 0.0 0,1 1.626346,-3.470183" />
      <path d="M 4.596194,-4.957404 A 1.2,0.6009280748006299 0.0 0,1 6.644722,-4.532483" />
      <path d="M 6.644722,-4.532483 A 1.2,0.6009280748006299 0.0 0,1 4.244722,-4.532483" />
      <path d="M 4.244722,-4.532483 A 1.2,0.6009280748006299 0.0 0,1 4.596194,-4.957404" />
      <path d="M -1.343503,-4.957404 A 1.2,0.6009280748006299 0.0 0,1 0.705025,-4.532483" />
      <path d="M 0.705025,-4.532483 A 1.2,0.6009280748006299 0.0 0,1 -1.694975,-4.532483" />
      <path d="M -1.694975,-4.532483 A 1.2,0.6009280748006299 0.0 0,1 -1.343503,-4.957404" />
      <line x1="-12.551145" y1="-16.412547" x2="-12.551145" y2="-14.724669" />
      <line x1="-12.551145" y1="-16.412547" x2="-10.865874" y2="-15.568608" />
      <line x1="-7.954951" y1="-18.714199" x2="-7.954951" y2="-17.026321" />
      <line x1="-12.551145" y1="-16.412547" x2="-7.954951" y2="-18.714199" />
      <line x1="28.814601" y1="-0.300985" x2="28.814601" y2="1.386893" />
      <line x1="27.12933" y1="0.542954" x2="28.814601" y2="-0.300985" />
      <line x1="-7.954951" y1="-18.714199" x2="28.814601" y2="-0.300985" />
      <line x1="-2.687006" y1="6.165279" x2="-2.085965" y2="5.864294" />
      <line x1="-2.085965" y1="5.864294" x2="-22.167798" y2="-4.192154" />
      <line x1="-22.768838" y1="-3.891168" x2="-22.167798" y2="-4.192154" />
      <line x1="-22.167798" y1="-4.798059" x2="-22.167798" y2="-4.192154" />
      <line x1="-22.768838" y1="-4.497073" x2="-22.167798" y2="-4.798059" />
      <line x1="-2.687006" y1="5.559374" x2="-2.085965" y2="5.258389" />
      <line x1="-2.085965" y1="5.258389" x2="-22.167798" y2="-4.798059" />
      <line x1="-2.085965" y1="5.258389" x2="-2.085965" y2="5.864294" />
      <line x1="-29.592419" y1="-15.562707" x2="-30.19346" y2="-15.863692" />
      <line x1="-29.592419" y1="-14.956802" x2="-30.19346" y2="-15.257787" />
      <line x1="-29.592419" y1="-15.562707" x2="-29.592419" y2="-14.956802" />
      <line x1="-29.592419" y1="-15.562707" x2="-19.410081" y2="-20.66175" />
      <line x1="-19.410081" y1="-20.66175" x2="-20.011122" y2="-20.962736" />
      <line x1="-19.410081" y1="-20.055846" x2="-20.011122" y2="-20.356831" />
      <line x1="-19.410081" y1="-20.66175" x2="-19.410081" y2="-20.055846" />
      <line x1="-29.592419" y1="-14.956802" x2="-19.410081" y2="-20.055846" />
      <line x1="22.167798" y1="-6.281345" x2="22.768838" y2="-6.58233" />
      <line x1="2.085965" y1="-16.337793" x2="2.687006" y2="-16.638778" />
      <line x1="22.167798" y1="-6.281345" x2="2.085965" y2="-16.337793" />
      <line x1="2.085965" y1="-16.943698" x2="2.085965" y2="-16.337793" />
      <line x1="2.085965" y1="-16.943698" x2="2.687006" y2="-17.244683" />
      <line x1="22.167798" y1="-6.88725" x2="22.768838" y2="-7.188235" />
      <line x1="22.167798" y1="-6.88725" x2="2.085965" y2="-16.943698" />
      <line x1="22.167798" y1="-6.88725" x2="22.167798" y2="-6.281345" />
      <line x1="20.011122" y1="9.277427" x2="19.410081" y2="8.976442" />
      <line x1="19.410081" y1="8.976442" x2="19.410081" y2="9.582347" />
      <line x1="20.011122" y1="9.883332" x2="19.410081" y2="9.582347" />
      <line x1="30.19346" y1="4.178383" x2="29.592419" y2="3.877398" />
      <line x1="19.410081" y1="8.976442" x2="29.592419" y2="3.877398" />
      <line x1="29.592419" y1="3.877398" x2="29.592419" y2="4.483303" />
      <line x1="30.19346" y1="4.784288" x2="29.592419" y2="4.483303" />
      <line x1="19.410081" y1="9.582347" x2="29.592419" y2="4.483303" />
      <line x1="0.705025" y1="-1.558041" x2="0.705025" y2="0.129837" />
      <line x1="-1.694975" y1="-1.558041" x2="-1.694975" y2="0.129837" />
      <line x1="6.644722" y1="-1.558041" x2="6.644722" y2="0.129837" />
      <line x1="4.244722" y1="-1.558041" x2="4.244722" y2="0.129837" />
      <line x1="3.674874" y1="-3.045262" x2="3.674874" y2="-1.357384" />
      <line x1="1.274874" y1="-3.045262" x2="1.274874" y2="-1.357384" />
      <line x1="6.644722" y1="-4.532483" x2="6.644722" y2="-2.844605" />
      <line x1="4.244722" y1="-4.532483" x2="4.244722" y2="-2.844605" />
      <line x1="0.705025" y1="-4.532483" x2="0.705025" y2="-2.844605" />
      <line x1="-1.694975" y1="-4.532483" x2="-1.694975" y2="-2.844605" />
    </g>
  </g>
</svg>