<?xml version='1.0' encoding='utf-8'?>
<svg width="115.799112mm" height="82.929372mm" viewBox="-57.899556 -33.895673 115.799112 82.929372" version="1.1" xmlns="http://www.w3.org/2000/svg">
  <g transform="scale(1,-1)" stroke-linecap="round">
    <g fill="none" stroke="rgb(30,56,76)" stroke-width="0.4" id="base_visible">
      <path d="M 7.990307,-3.112995 A 3.2,1.3131112551436306 0.0 0,1 13.453048,-2.184485" />
      <path d="M 7.053048,-2.184485 A 3.2,1.3131112551436306 0.0 0,1 7.990307,-3.112995" />
      <path d="M 7.990307,0.534722 A 3.2,1.3131112551436306 0.0 0,1 13.453048,1.463232" />
      <path d="M 13.453048,1.463232 A 3.2,1.3131112551436306 0.0 0,1 7.053048,1.463232" />
      <path d="M 7.053048,1.463232 A 3.2,1.3131112551436306 0.0 0,1 7.990307,0.534722" />
      <line x1="13.453048" y1="-0.770099" x2="29.769195" y2="-7.465385" />
      <line x1="35.910923" y1="-9.985626" x2="41.814622" y2="-12.408193" />
      <line x1="7.053048" y1="-0.770099" x2="-27.672486" y2="-15.019627" />
      <line x1="-18.031223" y1="-18.433408" x2="4.596194" y2="-9.148309" />
      <line x1="-18.031223" y1="-18.433408" x2="-15.909903" y2="-19.303886" />
      <line x1="-15.909903" y1="-19.303886" x2="6.717514" y2="-10.018787" />
      <line x1="4.596194" y1="-9.148309" x2="6.717514" y2="-10.018787" />
      <line x1="-13.788582" y1="-20.174364" x2="8.838835" y2="-10.889265" />
      <line x1="-13.788582" y1="-20.174364" x2="-11.667262" y2="-21.044842" />
      <line x1="-11.667262" y1="-21.044842" x2="10.960155" y2="-11.759743" />
      <line x1="8.838835" y1="-10.889265" x2="10.960155" y2="-11.759743" />
      <line x1="-9.545942" y1="-21.91532" x2="13.081475" y2="-12.630221" />
      <line x1="-9.545942" y1="-21.91532" x2="-7.495332" y2="-22.756782" />
      <line x1="13.081475" y1="-12.630221" x2="15.132085" y2="-13.471683" />
      <line x1="-1.06066" y1="-25.397232" x2="21.566757" y2="-16.112133" />
      <line x1="-1.06066" y1="-25.397232" x2="1.06066" y2="-26.26771" />
      <line x1="1.06066" y1="-26.26771" x2="23.688077" y2="-16.982611" />
      <line x1="21.566757" y1="-16.112133" x2="23.688077" y2="-16.982611" />
      <line x1="3.181981" y1="-27.138188" x2="25.809398" y2="-17.853089" />
      <line x1="3.181981" y1="-27.138188" x2="5.303301" y2="-28.008666" />
      <line x1="5.303301" y1="-28.008666" x2="27.930718" y2="-18.723567" />
      <line x1="25.809398" y1="-17.853089" x2="27.930718" y2="-18.723567" />
      <path d="M 9.263099,1.057009 A 1.4,0.5744861741253383 0.0 0,1 11.653048,1.463232" />
      <path d="M 11.653048,1.463232 A 1.4000000000000001,0.5744861741253384 0.0 0,1 8.853048,1.463232" />
      <path d="M 8.853048,1.463232 A 1.4,0.5744861741253383 0.0 0,1 9.263099,1.057009" />
      <line x1="10.253048" y1="2.776343" x2="10.253048" y2="18.416828" />
      <line x1="10.253048" y1="18.416828" x2="51.548084" y2="1.471522" />
      <line x1="40.092954" y1="-11.154554" x2="36.577624" y2="-9.712047" />
      <line x1="30.435896" y1="-7.191806" x2="21.708178" y2="-3.610411" />
      <line x1="40.092954" y1="-11.154554" x2="40.092954" y2="-8.269541" />
      <line x1="38.214071" y1="-4.000054" x2="21.708178" y2="2.773094" />
      <line x1="21.708178" y1="-3.610411" x2="21.708178" y2="2.773094" />
      <line x1="-10.253048" y1="-23.888404" x2="51.548084" y2="1.471522" />
      <line x1="45.396255" y1="-14.731804" x2="-2.404163" y2="-34.346575" />
      <line x1="45.396255" y1="-6.093346" x2="45.396255" y2="-14.731804" />
      <line x1="-51.548084" y1="-6.943098" x2="10.253048" y2="18.416828" />
      <line x1="4.101219" y1="12.244724" x2="-45.396255" y2="-8.06643" />
      <line x1="-45.396255" y1="-8.06643" x2="-45.396255" y2="-9.467485" />
      <line x1="4.101219" y1="2.213501" x2="-34.880567" y2="-13.782568" />
      <line x1="4.101219" y1="12.244724" x2="4.101219" y2="2.213501" />
      <line x1="-51.548084" y1="-6.943098" x2="-10.253048" y2="-23.888404" />
      <line x1="4.596194" y1="-10.889265" x2="4.596194" y2="-9.148309" />
      <path d="M -28.631537,-16.346841 A 3.2,1.3131112551436306 0.0 0,1 -27.559145,-15.366009" />
      <path d="M -27.559145,-15.366009 A 3.2,1.3131112551436306 0.0 0,1 -33.149393,-14.492951" />
      <line x1="8.838835" y1="-12.630221" x2="8.838835" y2="-10.889265" />
      <line x1="13.081475" y1="-14.313145" x2="13.081475" y2="-12.630221" />
      <path d="M 42.638539,-13.683085 A 3.2,1.3131112551436306 0.0 0,1 45.396255,-14.051883" />
      <path d="M 45.396255,-11.457268 A 3.2,1.3131112551436306 0.0 0,1 41.701281,-12.754575" />
      <path d="M 41.701281,-12.754575 A 3.2,1.3131112551436306 0.0 0,1 42.638539,-13.683085" />
      <line x1="21.566757" y1="-17.853089" x2="21.566757" y2="-16.112133" />
      <line x1="25.809398" y1="-19.594045" x2="25.809398" y2="-17.853089" />
      <path d="M 1.626346,-30.512327 A 3.2,1.3131112551436306 0.0 0,1 7.089087,-29.583817" />
      <path d="M 7.089087,-29.583817 A 3.2,1.3131112551436306 0.0 0,1 0.689087,-29.583817" />
      <path d="M 0.689087,-29.583817 A 3.2,1.3131112551436306 0.0 0,1 1.626346,-30.512327" />
      <line x1="12.374369" y1="18.939114" x2="52.820877" y2="2.342" />
      <path d="M 12.374369,18.939114 A 3.0,1.2310418016971536 0.0 0,1 8.131728,18.939114" />
      <path d="M 52.820877,2.342 A 3.0,1.2310418016971536 180.0 0,0 53.699556,1.471522" />
      <path d="M 53.699556,1.471522 A 3.0,1.2310418016971536 180.0 0,0 52.820877,0.601044" />
      <line x1="8.131728" y1="18.939114" x2="-52.820877" y2="-6.07262" />
      <line x1="52.820877" y1="0.601044" x2="-8.131728" y2="-24.41069" />
      <path d="M -52.820877,-7.813576 A 3.0,1.2310418016971536 180.0 0,0 -53.699556,-6.943098" />
      <path d="M -53.699556,-6.943098 A 3.0,1.2310418016971536 180.0 0,0 -52.820877,-6.07262" />
      <path d="M -12.374369,-24.41069 A 3.0,1.2310418016971536 0.0 0,1 -8.131728,-24.41069" />
      <line x1="-52.820877" y1="-7.813576" x2="-12.374369" y2="-24.41069" />
      <line x1="23.405234" y1="-2.914029" x2="21.708178" y2="-3.610411" />
      <line x1="40.092954" y1="-9.761789" x2="38.27468" y2="-9.015665" />
      <line x1="32.132952" y1="-6.495424" x2="23.405234" y2="-2.914029" />
      <line x1="23.405234" y1="-2.914029" x2="23.405234" y2="2.076712" />
      <line x1="47.093312" y1="-5.396964" x2="-2.404163" y2="-25.708117" />
      <line x1="-2.404163" y1="-25.708117" x2="-2.404163" y2="-35.73934" />
      <line x1="45.396255" y1="-14.731804" x2="47.093312" y2="-15.428186" />
      <line x1="47.093312" y1="-15.428186" x2="-2.404163" y2="-35.73934" />
      <line x1="47.093312" y1="-5.396964" x2="47.093312" y2="-15.428186" />
      <line x1="2.404163" y1="2.909884" x2="4.101219" y2="2.213501" />
      <line x1="2.404163" y1="2.909884" x2="-36.577624" y2="-13.086186" />
      <line x1="2.404163" y1="11.548342" x2="2.404163" y2="2.909884" />
      <path d="M 53.699556,-18.590923 A 3.0,1.2310418016971536 180.0 0,0 52.820877,-19.461401" />
      <line x1="52.820877" y1="-19.461401" x2="-8.131728" y2="-44.473136" />
      <path d="M -52.820877,-27.876022 A 3.0,1.2310418016971536 180.0 0,0 -53.699556,-27.005544" />
      <path d="M -12.374369,-44.473136 A 3.0,1.2310418016971536 0.0 0,1 -8.131728,-44.473136" />
      <line x1="-52.820877" y1="-27.876022" x2="-12.374369" y2="-44.473136" />
      <path d="M -29.909264,-15.822529 A 1.4,0.5744861741253383 0.0 0,1 -29.359145,-15.366009" />
      <path d="M -29.359145,-15.366009 A 1.4,0.5744861741253383 0.0 0,1 -31.871666,-15.017263" />
      <path d="M 43.911331,-13.160798 A 1.4,0.5744861741253383 0.0 0,1 45.396255,-13.291958" />
      <path d="M 45.396255,-12.217193 A 1.4,0.5744861741253383 0.0 0,1 43.501281,-12.754575" />
      <path d="M 43.501281,-12.754575 A 1.4,0.5744861741253383 0.0 0,1 43.911331,-13.160798" />
      <path d="M 2.899138,-29.99004 A 1.4,0.5744861741253383 0.0 0,1 5.289087,-29.583817" />
      <path d="M 5.289087,-29.583817 A 1.4000000000000001,0.5744861741253384 0.0 0,1 2.489087,-29.583817" />
      <path d="M 2.489087,-29.583817 A 1.4,0.5744861741253383 0.0 0,1 2.899138,-29.99004" />
      <line x1="52.820877" y1="-19.461401" x2="52.820877" y2="0.601044" />
      <line x1="-8.131728" y1="-44.473136" x2="-8.131728" y2="-24.41069" />
      <line x1="-52.820877" y1="-27.876022" x2="-52.820877" y2="-7.813576" />
      <line x1="-12.374369" y1="-44.473136" x2="-12.374369" y2="-24.41069" />
      <line x1="13.453048" y1="-2.184485" x2="13.453048" y2="1.463232" />
      <line x1="7.053048" y1="-2.184485" x2="7.053048" y2="1.463232" />
      <line x1="-27.559145" y1="-16.786894" x2="-27.559145" y2="-15.366009" />
      <line x1="41.701281" y1="-16.248027" x2="41.701281" y2="-12.754575" />
      <line x1="7.089087" y1="-30.451046" x2="7.089087" y2="-29.583817" />
      <line x1="0.689087" y1="-33.077268" x2="0.689087" y2="-29.583817" />
      <line x1="53.699556" y1="-18.590923" x2="53.699556" y2="1.471522" />
      <line x1="-53.699556" y1="-27.005544" x2="-53.699556" y2="-6.943098" />
    </g>
    <g fill="none" stroke="rgb(158,173,183)" stroke-width="0.22" id="base_hidden" stroke-dasharray="1.397 0.6985">
      <path d="M 13.453048,-2.184485 A 3.2,1.3131112551436306 0.0 0,1 7.053048,-2.184485" />
      <line x1="10.253048" y1="0.543012" x2="13.453048" y2="-0.770099" />
      <line x1="29.769195" y1="-7.465385" x2="35.910923" y2="-9.985626" />
      <line x1="41.814622" y1="-12.408193" x2="51.548084" y2="-16.402293" />
      <line x1="51.548084" y1="-16.402293" x2="-10.253048" y2="-41.762219" />
      <line x1="10.253048" y1="0.543012" x2="7.053048" y2="-0.770099" />
      <line x1="-27.672486" y1="-15.019627" x2="-51.548084" y2="-24.816913" />
      <line x1="-51.548084" y1="-24.816913" x2="-10.253048" y2="-41.762219" />
      <path d="M -33.021887,-19.942237 A 3.2,1.3131112551436306 0.0 0,1 -27.559145,-19.013727" />
      <path d="M -27.559145,-19.013727 A 3.2,1.3131112551436306 0.0 0,1 -33.959145,-19.013727" />
      <path d="M -33.959145,-19.013727 A 3.2,1.3131112551436306 0.0 0,1 -33.021887,-19.942237" />
      <line x1="-7.495332" y1="-22.756782" x2="-7.424621" y2="-22.785798" />
      <line x1="-7.424621" y1="-22.785798" x2="15.202796" y2="-13.500699" />
      <line x1="15.132085" y1="-13.471683" x2="15.202796" y2="-13.500699" />
      <path d="M 42.638539,-17.330803 A 3.2,1.3131112551436306 0.0 0,1 48.101281,-16.402293" />
      <path d="M 48.101281,-16.402293 A 3.2,1.3131112551436306 0.0 0,1 41.701281,-16.402293" />
      <path d="M 41.701281,-16.402293 A 3.2,1.3131112551436306 0.0 0,1 42.638539,-17.330803" />
      <line x1="-5.303301" y1="-23.656276" x2="17.324116" y2="-14.371177" />
      <line x1="-5.303301" y1="-23.656276" x2="-3.181981" y2="-24.526754" />
      <line x1="-3.181981" y1="-24.526754" x2="19.445436" y2="-15.241655" />
      <line x1="17.324116" y1="-14.371177" x2="19.445436" y2="-15.241655" />
      <path d="M 1.626346,-34.160044 A 3.2,1.3131112551436306 0.0 0,1 7.089087,-33.231534" />
      <path d="M 7.089087,-33.231534 A 3.2,1.3131112551436306 0.0 0,1 0.689087,-33.231534" />
      <path d="M 0.689087,-33.231534 A 3.2,1.3131112551436306 0.0 0,1 1.626346,-34.160044" />
      <line x1="10.253048" y1="0.543012" x2="10.253048" y2="2.776343" />
      <line x1="51.548084" y1="-16.402293" x2="51.548084" y2="1.471522" />
      <line x1="36.577624" y1="-9.712047" x2="30.435896" y2="-7.191806" />
      <line x1="40.092954" y1="-8.269541" x2="40.092954" y2="-4.771048" />
      <line x1="40.092954" y1="-4.771048" x2="38.214071" y2="-4.000054" />
      <line x1="-10.253048" y1="-41.762219" x2="-10.253048" y2="-23.888404" />
      <line x1="45.396255" y1="-4.700581" x2="-4.101219" y2="-25.011735" />
      <line x1="-4.101219" y1="-25.011735" x2="-4.101219" y2="-35.042957" />
      <line x1="-2.404163" y1="-34.346575" x2="-4.101219" y2="-35.042957" />
      <line x1="45.396255" y1="-4.700581" x2="45.396255" y2="-6.093346" />
      <line x1="-51.548084" y1="-24.816913" x2="-51.548084" y2="-6.943098" />
      <line x1="-45.396255" y1="-9.467485" x2="-45.396255" y2="-18.097652" />
      <line x1="-34.880567" y1="-13.782568" x2="-45.396255" y2="-18.097652" />
      <line x1="-18.031223" y1="-20.622038" x2="-18.031223" y2="-18.433408" />
      <line x1="4.596194" y1="-11.33694" x2="4.596194" y2="-10.889265" />
      <line x1="-18.031223" y1="-20.622038" x2="4.596194" y2="-11.33694" />
      <line x1="-15.909903" y1="-21.492516" x2="-15.909903" y2="-19.303886" />
      <line x1="-18.031223" y1="-20.622038" x2="-15.909903" y2="-21.492516" />
      <line x1="6.717514" y1="-12.207418" x2="6.717514" y2="-10.018787" />
      <line x1="-15.909903" y1="-21.492516" x2="6.717514" y2="-12.207418" />
      <line x1="4.596194" y1="-11.33694" x2="6.717514" y2="-12.207418" />
      <path d="M -33.021887,-16.294519 A 3.2,1.3131112551436306 0.0 0,1 -28.631537,-16.346841" />
      <path d="M -33.149393,-14.492951 A 3.2,1.3131112551436306 0.0 0,1 -33.959145,-15.366009" />
      <path d="M -33.959145,-15.366009 A 3.2,1.3131112551436306 0.0 0,1 -33.021887,-16.294519" />
      <line x1="-13.788582" y1="-22.362994" x2="-13.788582" y2="-20.174364" />
      <line x1="8.838835" y1="-13.077896" x2="8.838835" y2="-12.630221" />
      <line x1="-13.788582" y1="-22.362994" x2="8.838835" y2="-13.077896" />
      <line x1="-11.667262" y1="-23.233472" x2="-11.667262" y2="-21.044842" />
      <line x1="-13.788582" y1="-22.362994" x2="-11.667262" y2="-23.233472" />
      <line x1="10.960155" y1="-13.948374" x2="10.960155" y2="-11.759743" />
      <line x1="-11.667262" y1="-23.233472" x2="10.960155" y2="-13.948374" />
      <line x1="8.838835" y1="-13.077896" x2="10.960155" y2="-13.948374" />
      <line x1="-9.545942" y1="-24.10395" x2="-9.545942" y2="-21.91532" />
      <line x1="13.081475" y1="-14.818852" x2="13.081475" y2="-14.313145" />
      <line x1="-9.545942" y1="-24.10395" x2="13.081475" y2="-14.818852" />
      <line x1="-7.424621" y1="-24.974429" x2="-7.424621" y2="-22.785798" />
      <line x1="-9.545942" y1="-24.10395" x2="-7.424621" y2="-24.974429" />
      <line x1="15.202796" y1="-15.68933" x2="15.202796" y2="-13.500699" />
      <line x1="-7.424621" y1="-24.974429" x2="15.202796" y2="-15.68933" />
      <line x1="13.081475" y1="-14.818852" x2="15.202796" y2="-15.68933" />
      <path d="M 45.396255,-14.051883 A 3.2,1.3131112551436306 0.0 0,1 48.101281,-12.754575" />
      <path d="M 48.101281,-12.754575 A 3.2,1.3131112551436306 0.0 0,1 45.396255,-11.457268" />
      <line x1="-5.303301" y1="-25.844907" x2="-5.303301" y2="-23.656276" />
      <line x1="17.324116" y1="-16.559808" x2="17.324116" y2="-14.371177" />
      <line x1="-5.303301" y1="-25.844907" x2="17.324116" y2="-16.559808" />
      <line x1="-3.181981" y1="-26.715385" x2="-3.181981" y2="-24.526754" />
      <line x1="-5.303301" y1="-25.844907" x2="-3.181981" y2="-26.715385" />
      <line x1="19.445436" y1="-17.430286" x2="19.445436" y2="-15.241655" />
      <line x1="-3.181981" y1="-26.715385" x2="19.445436" y2="-17.430286" />
      <line x1="17.324116" y1="-16.559808" x2="19.445436" y2="-17.430286" />
      <line x1="-1.06066" y1="-27.585863" x2="-1.06066" y2="-25.397232" />
      <line x1="21.566757" y1="-18.300764" x2="21.566757" y2="-17.853089" />
      <line x1="-1.06066" y1="-27.585863" x2="21.566757" y2="-18.300764" />
      <line x1="1.06066" y1="-28.456341" x2="1.06066" y2="-26.26771" />
      <line x1="-1.06066" y1="-27.585863" x2="1.06066" y2="-28.456341" />
      <line x1="23.688077" y1="-19.171242" x2="23.688077" y2="-16.982611" />
      <line x1="1.06066" y1="-28.456341" x2="23.688077" y2="-19.171242" />
      <line x1="21.566757" y1="-18.300764" x2="23.688077" y2="-19.171242" />
      <line x1="3.181981" y1="-29.326819" x2="3.181981" y2="-27.138188" />
      <line x1="25.809398" y1="-20.04172" x2="25.809398" y2="-19.594045" />
      <line x1="3.181981" y1="-29.326819" x2="25.809398" y2="-20.04172" />
      <line x1="5.303301" y1="-30.197297" x2="5.303301" y2="-28.008666" />
      <line x1="3.181981" y1="-29.326819" x2="5.303301" y2="-30.197297" />
      <line x1="27.930718" y1="-20.912198" x2="27.930718" y2="-18.723567" />
      <line x1="5.303301" y1="-30.197297" x2="27.930718" y2="-20.912198" />
      <line x1="25.809398" y1="-20.04172" x2="27.930718" y2="-20.912198" />
      <path d="M 9.263099,-4.779339 A 1.4,0.5744861741253383 0.0 0,1 11.653048,-4.373116" />
      <path d="M 11.653048,-4.373116 A 1.4000000000000001,0.5744861741253384 0.0 0,1 8.853048,-4.373116" />
      <path d="M 8.853048,-4.373116 A 1.4,0.5744861741253383 0.0 0,1 9.263099,-4.779339" />
      <line x1="41.790011" y1="-10.458171" x2="40.092954" y2="-11.154554" />
      <line x1="41.790011" y1="-10.458171" x2="40.092954" y2="-9.761789" />
      <line x1="38.27468" y1="-9.015665" x2="32.132952" y2="-6.495424" />
      <line x1="41.790011" y1="-4.074666" x2="40.092954" y2="-4.771048" />
      <line x1="41.790011" y1="-10.458171" x2="41.790011" y2="-4.074666" />
      <line x1="23.405234" y1="3.469477" x2="21.708178" y2="2.773094" />
      <line x1="41.790011" y1="-4.074666" x2="23.405234" y2="3.469477" />
      <line x1="23.405234" y1="2.076712" x2="23.405234" y2="3.469477" />
      <line x1="45.396255" y1="-4.700581" x2="47.093312" y2="-5.396964" />
      <line x1="-4.101219" y1="-25.011735" x2="-2.404163" y2="-25.708117" />
      <line x1="-4.101219" y1="-35.042957" x2="-2.404163" y2="-35.73934" />
      <line x1="2.404163" y1="12.941106" x2="4.101219" y2="12.244724" />
      <line x1="-47.093312" y1="-7.370047" x2="-45.396255" y2="-8.06643" />
      <line x1="2.404163" y1="12.941106" x2="-47.093312" y2="-7.370047" />
      <line x1="-47.093312" y1="-17.40127" x2="-45.396255" y2="-18.097652" />
      <line x1="-47.093312" y1="-7.370047" x2="-47.093312" y2="-17.40127" />
      <line x1="-36.577624" y1="-13.086186" x2="-47.093312" y2="-17.40127" />
      <line x1="2.404163" y1="12.941106" x2="2.404163" y2="11.548342" />
      <line x1="12.374369" y1="-1.123331" x2="52.820877" y2="-17.720445" />
      <path d="M 12.374369,-1.123331 A 3.0,1.2310418016971536 0.0 0,1 8.131728,-1.123331" />
      <path d="M 52.820877,-17.720445 A 3.0,1.2310418016971536 180.0 0,0 53.699556,-18.590923" />
      <line x1="8.131728" y1="-1.123331" x2="-52.820877" y2="-26.135066" />
      <path d="M -53.699556,-27.005544 A 3.0,1.2310418016971536 180.0 0,0 -52.820877,-26.135066" />
      <path d="M -31.749094,-21.60858 A 1.4,0.5744861741253383 0.0 0,1 -29.359145,-21.202357" />
      <path d="M -29.359145,-21.202357 A 1.4000000000000001,0.5744861741253384 0.0 0,1 -32.159145,-21.202357" />
      <path d="M -32.159145,-21.202357 A 1.4,0.5744861741253383 0.0 0,1 -31.749094,-21.60858" />
      <path d="M 43.911331,-18.997146 A 1.4,0.5744861741253383 0.0 0,1 46.301281,-18.590923" />
      <path d="M 46.301281,-18.590923 A 1.4000000000000021,0.5744861741253392 0.0 0,1 43.501281,-18.590923" />
      <path d="M 43.501281,-18.590923 A 1.4,0.5744861741253383 0.0 0,1 43.911331,-18.997146" />
      <path d="M 2.899138,-35.826388 A 1.4,0.5744861741253383 0.0 0,1 5.289087,-35.420165" />
      <path d="M 5.289087,-35.420165 A 1.4000000000000001,0.5744861741253384 0.0 0,1 2.489087,-35.420165" />
      <path d="M 2.489087,-35.420165 A 1.4,0.5744861741253383 0.0 0,1 2.899138,-35.826388" />
      <path d="M -31.749094,-15.772232 A 1.4,0.5744861741253383 0.0 0,1 -29.909264,-15.822529" />
      <path d="M -31.871666,-15.017263 A 1.4,0.5744861741253383 0.0 0,1 -32.159145,-15.366009" />
      <path d="M -32.159145,-15.366009 A 1.4,0.5744861741253383 0.0 0,1 -31.749094,-15.772232" />
      <path d="M 45.396255,-13.291958 A 1.4,0.5744861741253383 0.0 0,1 46.301281,-12.754575" />
      <path d="M 46.301281,-12.754575 A 1.4,0.5744861741253383 0.0 0,1 45.396255,-12.217193" />
      <line x1="-27.559145" y1="-19.013727" x2="-27.559145" y2="-16.786894" />
      <line x1="-33.959145" y1="-19.013727" x2="-33.959145" y2="-15.366009" />
      <line x1="48.101281" y1="-16.402293" x2="48.101281" y2="-12.754575" />
      <line x1="41.701281" y1="-16.402293" x2="41.701281" y2="-16.248027" />
      <line x1="7.089087" y1="-33.231534" x2="7.089087" y2="-30.451046" />
      <line x1="0.689087" y1="-33.231534" x2="0.689087" y2="-33.077268" />
      <line x1="11.653048" y1="-4.373116" x2="11.653048" y2="1.463232" />
      <line x1="8.853048" y1="-4.373116" x2="8.853048" y2="1.463232" />
      <line x1="-29.359145" y1="-21.202357" x2="-29.359145" y2="-15.366009" />
      <line x1="-32.159145" y1="-21.202357" x2="-32.159145" y2="-15.366009" />
      <line x1="46.301281" y1="-18.590923" x2="46.301281" y2="-12.754575" />
      <line x1="43.501281" y1="-18.590923" x2="43.501281" y2="-12.754575" />
      <line x1="5.289087" y1="-35.420165" x2="5.289087" y2="-29.583817" />
      <line x1="2.489087" y1="-35.420165" x2="2.489087" y2="-29.583817" />
      <line x1="12.374369" y1="-1.123331" x2="12.374369" y2="18.939114" />
      <line x1="52.820877" y1="-17.720445" x2="52.820877" y2="2.342" />
      <line x1="8.131728" y1="-1.123331" x2="8.131728" y2="18.939114" />
      <line x1="-52.820877" y1="-26.135066" x2="-52.820877" y2="-6.07262" />
    </g>
    <g fill="none" stroke="rgb(30,107,45)" stroke-width="0.4" id="pcb_proxy_visible">
      <line x1="23.758788" y1="3.614556" x2="42.143564" y2="-3.929586" />
      <line x1="42.143564" y1="-5.338932" x2="42.143564" y2="-3.929586" />
      <line x1="20.85965" y1="0.601044" x2="20.85965" y2="2.424903" />
      <line x1="23.758788" y1="3.614556" x2="20.85965" y2="2.424903" />
      <line x1="42.143564" y1="-3.929586" x2="39.244426" y2="-5.11924" />
      <line x1="20.85965" y1="2.424903" x2="39.244426" y2="-5.11924" />
      <line x1="39.244426" y1="-6.528585" x2="39.244426" y2="-5.11924" />
      <line x1="10.253048" y1="4.953434" x2="20.85965" y2="0.601044" />
      <line x1="20.85965" y1="0.601044" x2="38.73935" y2="-6.735842" />
      <line x1="47.446865" y1="-10.308947" x2="49.851028" y2="-11.295488" />
      <line x1="49.851028" y1="-12.754575" x2="49.851028" y2="-11.295488" />
      <line x1="49.851028" y1="-12.754575" x2="47.446865" y2="-13.741117" />
      <line x1="-4.283047" y1="-34.968345" x2="-10.253048" y2="-37.418119" />
      <line x1="-49.851028" y1="-21.169196" x2="-10.253048" y2="-37.418119" />
      <line x1="49.851028" y1="-11.295488" x2="47.446865" y2="-12.28203" />
      <line x1="-4.949747" y1="-33.782837" x2="-10.253048" y2="-35.959032" />
      <line x1="10.253048" y1="4.953434" x2="4.949747" y2="2.777239" />
      <line x1="4.949747" y1="2.777239" x2="-44.547727" y2="-17.533914" />
      <line x1="-44.547727" y1="-17.533914" x2="-49.851028" y2="-19.710109" />
      <line x1="-49.851028" y1="-19.710109" x2="-10.253048" y2="-35.959032" />
      <path d="M 9.263099,2.516096 A 1.4,0.5744861741253383 0.0 0,1 11.653048,2.922319" />
      <path d="M 11.653048,2.922319 A 1.4000000000000001,0.5744861741253384 0.0 0,1 8.853048,2.922319" />
      <path d="M 8.853048,2.922319 A 1.4,0.5744861741253383 0.0 0,1 9.263099,2.516096" />
      <path d="M -31.749094,-14.313145 A 1.4,0.5744861741253383 0.0 0,1 -29.359145,-13.906922" />
      <path d="M -29.359145,-13.906922 A 1.4000000000000001,0.5744861741253384 0.0 0,1 -32.159145,-13.906922" />
      <path d="M -32.159145,-13.906922 A 1.4,0.5744861741253383 0.0 0,1 -31.749094,-14.313145" />
      <line x1="-49.851028" y1="-21.169196" x2="-49.851028" y2="-19.710109" />
      <line x1="-10.253048" y1="-37.418119" x2="-10.253048" y2="-35.959032" />
      <line x1="-4.949747" y1="-34.694766" x2="-4.949747" y2="-33.782837" />
      <line x1="-4.949747" y1="-33.782837" x2="-4.949747" y2="-24.663544" />
      <line x1="44.547727" y1="-4.35239" x2="-4.949747" y2="-24.663544" />
      <line x1="-44.547727" y1="-17.533914" x2="-44.547727" y2="-8.414621" />
      <line x1="4.949747" y1="11.896533" x2="-44.547727" y2="-8.414621" />
      <line x1="4.949747" y1="2.777239" x2="4.949747" y2="11.896533" />
      <line x1="-47.446865" y1="-17.25619" x2="-47.446865" y2="-7.224967" />
      <line x1="-47.446865" y1="-7.224967" x2="-44.547727" y2="-8.414621" />
      <line x1="-47.446865" y1="-17.25619" x2="-45.658895" y2="-17.989879" />
      <line x1="2.05061" y1="13.086186" x2="4.949747" y2="11.896533" />
      <line x1="-4.949747" y1="-24.663544" x2="-2.05061" y2="-25.853197" />
      <line x1="-2.05061" y1="-35.88442" x2="-2.05061" y2="-25.853197" />
      <line x1="-4.949747" y1="-34.694766" x2="-2.05061" y2="-35.88442" />
      <line x1="47.446865" y1="-15.573266" x2="-2.05061" y2="-35.88442" />
      <line x1="44.547727" y1="-4.35239" x2="47.446865" y2="-5.542043" />
      <line x1="47.446865" y1="-15.573266" x2="47.446865" y2="-5.542043" />
      <line x1="47.446865" y1="-5.542043" x2="-2.05061" y2="-25.853197" />
      <line x1="2.05061" y1="13.086186" x2="-47.446865" y2="-7.224967" />
    </g>
    <g fill="none" stroke="rgb(158,183,158)" stroke-width="0.22" id="pcb_proxy_hidden" stroke-dasharray="1.397 0.6985">
      <line x1="23.758788" y1="-2.768949" x2="23.758788" y2="3.614556" />
      <line x1="42.143564" y1="-10.313092" x2="42.143564" y2="-5.338932" />
      <line x1="23.758788" y1="-2.768949" x2="42.143564" y2="-10.313092" />
      <line x1="23.758788" y1="-2.768949" x2="20.85965" y2="-3.958602" />
      <line x1="20.85965" y1="-3.958602" x2="20.85965" y2="-0.858043" />
      <line x1="20.85965" y1="-0.858043" x2="20.85965" y2="0.601044" />
      <line x1="42.143564" y1="-10.313092" x2="39.244426" y2="-11.502745" />
      <line x1="39.244426" y1="-11.502745" x2="39.244426" y2="-8.402185" />
      <line x1="39.244426" y1="-8.402185" x2="39.244426" y2="-6.943098" />
      <line x1="39.244426" y1="-6.943098" x2="39.244426" y2="-6.528585" />
      <line x1="20.85965" y1="-3.958602" x2="39.244426" y2="-11.502745" />
      <line x1="20.85965" y1="-0.858043" x2="39.244426" y2="-8.402185" />
      <line x1="10.253048" y1="3.494347" x2="20.85965" y2="-0.858043" />
      <line x1="10.253048" y1="3.494347" x2="10.253048" y2="4.953434" />
      <line x1="38.73935" y1="-6.735842" x2="39.244426" y2="-6.943098" />
      <line x1="39.244426" y1="-6.943098" x2="47.446865" y2="-10.308947" />
      <line x1="39.244426" y1="-8.402185" x2="49.851028" y2="-12.754575" />
      <line x1="47.446865" y1="-13.741117" x2="-4.283047" y2="-34.968345" />
      <line x1="10.253048" y1="3.494347" x2="-49.851028" y2="-21.169196" />
      <path d="M 9.263099,1.057009 A 1.4,0.5744861741253383 0.0 0,1 11.653048,1.463232" />
      <path d="M 11.653048,1.463232 A 1.4000000000000001,0.5744861741253384 0.0 0,1 8.853048,1.463232" />
      <path d="M 8.853048,1.463232 A 1.4,0.5744861741253383 0.0 0,1 9.263099,1.057009" />
      <path d="M -31.749094,-15.772232 A 1.4,0.5744861741253383 0.0 0,1 -29.359145,-15.366009" />
      <path d="M -29.359145,-15.366009 A 1.4000000000000001,0.5744861741253384 0.0 0,1 -32.159145,-15.366009" />
      <path d="M -32.159145,-15.366009 A 1.4,0.5744861741253383 0.0 0,1 -31.749094,-15.772232" />
      <path d="M 43.911331,-13.160798 A 1.4,0.5744861741253383 0.0 0,1 46.301281,-12.754575" />
      <path d="M 46.301281,-12.754575 A 1.4000000000000021,0.5744861741253392 0.0 0,1 43.501281,-12.754575" />
      <path d="M 43.501281,-12.754575 A 1.4,0.5744861741253383 0.0 0,1 43.911331,-13.160798" />
      <path d="M 2.899138,-29.99004 A 1.4,0.5744861741253383 0.0 0,1 5.289087,-29.583817" />
      <path d="M 5.289087,-29.583817 A 1.4000000000000001,0.5744861741253384 0.0 0,1 2.489087,-29.583817" />
      <path d="M 2.489087,-29.583817 A 1.4,0.5744861741253383 0.0 0,1 2.899138,-29.99004" />
      <line x1="47.446865" y1="-12.28203" x2="44.547727" y2="-13.471683" />
      <line x1="44.547727" y1="-13.471683" x2="-4.949747" y2="-33.782837" />
      <path d="M 43.911331,-11.701711 A 1.4,0.5744861741253383 0.0 0,1 46.301281,-11.295488" />
      <path d="M 46.301281,-11.295488 A 1.4000000000000021,0.5744861741253392 0.0 0,1 43.501281,-11.295488" />
      <path d="M 43.501281,-11.295488 A 1.4,0.5744861741253383 0.0 0,1 43.911331,-11.701711" />
      <path d="M 2.899138,-28.530953 A 1.4,0.5744861741253383 0.0 0,1 5.289087,-28.12473" />
      <path d="M 5.289087,-28.12473 A 1.4000000000000001,0.5744861741253384 0.0 0,1 2.489087,-28.12473" />
      <path d="M 2.489087,-28.12473 A 1.4,0.5744861741253383 0.0 0,1 2.899138,-28.530953" />
      <line x1="-44.547727" y1="-18.445843" x2="-44.547727" y2="-17.533914" />
      <line x1="4.949747" y1="1.86531" x2="-44.547727" y2="-18.445843" />
      <line x1="4.949747" y1="1.86531" x2="4.949747" y2="2.777239" />
      <line x1="44.547727" y1="-14.383613" x2="-4.949747" y2="-34.694766" />
      <line x1="44.547727" y1="-14.383613" x2="44.547727" y2="-13.471683" />
      <line x1="44.547727" y1="-13.471683" x2="44.547727" y2="-4.35239" />
      <line x1="-45.658895" y1="-17.989879" x2="-44.547727" y2="-18.445843" />
      <line x1="2.05061" y1="3.054963" x2="4.949747" y2="1.86531" />
      <line x1="2.05061" y1="3.054963" x2="-47.446865" y2="-17.25619" />
      <line x1="2.05061" y1="3.054963" x2="2.05061" y2="13.086186" />
      <line x1="44.547727" y1="-14.383613" x2="47.446865" y2="-15.573266" />
      <line x1="11.653048" y1="1.463232" x2="11.653048" y2="2.922319" />
      <line x1="8.853048" y1="1.463232" x2="8.853048" y2="2.922319" />
      <line x1="-29.359145" y1="-15.366009" x2="-29.359145" y2="-13.906922" />
      <line x1="-32.159145" y1="-15.366009" x2="-32.159145" y2="-13.906922" />
      <line x1="46.301281" y1="-12.754575" x2="46.301281" y2="-11.295488" />
      <line x1="43.501281" y1="-12.754575" x2="43.501281" y2="-11.295488" />
      <line x1="5.289087" y1="-29.583817" x2="5.289087" y2="-28.12473" />
      <line x1="2.489087" y1="-29.583817" x2="2.489087" y2="-28.12473" />
    </g>
    <g fill="none" stroke="rgb(127,45,45)" stroke-width="0.4" id="lid_visible">
      <line x1="12.374369" y1="29.335109" x2="52.820877" y2="12.737995" />
      <path d="M 12.374369,29.335109 A 3.0,1.2310418016971536 0.0 0,1 8.131728,29.335109" />
      <path d="M 52.820877,12.737995 A 3.0,1.2310418016971536 180.0 0,0 53.699556,11.867517" />
      <path d="M 53.699556,11.867517 A 3.0,1.2310418016971536 180.0 0,0 52.820877,10.997039" />
      <line x1="8.131728" y1="29.335109" x2="-52.820877" y2="4.323374" />
      <line x1="52.820877" y1="10.997039" x2="-8.131728" y2="-14.014696" />
      <path d="M -52.820877,2.582418 A 3.0,1.2310418016971536 180.0 0,0 -53.699556,3.452896" />
      <path d="M -53.699556,3.452896 A 3.0,1.2310418016971536 180.0 0,0 -52.820877,4.323374" />
      <path d="M -12.374369,-14.014696 A 3.0,1.2310418016971536 0.0 0,1 -8.131728,-14.014696" />
      <line x1="-52.820877" y1="2.582418" x2="-12.374369" y2="-14.014696" />
      <line x1="-33.234019" y1="5.338932" x2="5.656854" y2="21.297695" />
      <line x1="-33.234019" y1="5.338932" x2="-31.112698" y2="4.468454" />
      <line x1="-31.112698" y1="4.468454" x2="7.778175" y2="20.427217" />
      <line x1="5.656854" y1="21.297695" x2="7.778175" y2="20.427217" />
      <line x1="-28.991378" y1="3.597976" x2="9.899495" y2="19.556739" />
      <line x1="-28.991378" y1="3.597976" x2="-26.870058" y2="2.727498" />
      <line x1="-26.870058" y1="2.727498" x2="12.020815" y2="18.686261" />
      <line x1="9.899495" y1="19.556739" x2="12.020815" y2="18.686261" />
      <line x1="-24.748737" y1="1.85702" x2="14.142136" y2="17.815783" />
      <line x1="-24.748737" y1="1.85702" x2="-22.627417" y2="0.986542" />
      <line x1="-22.627417" y1="0.986542" x2="16.263456" y2="16.945305" />
      <line x1="14.142136" y1="17.815783" x2="16.263456" y2="16.945305" />
      <line x1="-20.506097" y1="0.116064" x2="18.384776" y2="16.074827" />
      <line x1="-20.506097" y1="0.116064" x2="-18.384776" y2="-0.754414" />
      <line x1="-18.384776" y1="-0.754414" x2="20.506097" y2="15.204349" />
      <line x1="18.384776" y1="16.074827" x2="20.506097" y2="15.204349" />
      <line x1="-16.263456" y1="-1.624892" x2="22.627417" y2="14.333871" />
      <line x1="-16.263456" y1="-1.624892" x2="-14.142136" y2="-2.49537" />
      <line x1="-14.142136" y1="-2.49537" x2="24.748737" y2="13.463393" />
      <line x1="22.627417" y1="14.333871" x2="24.748737" y2="13.463393" />
      <line x1="-12.020815" y1="-3.365848" x2="26.870058" y2="12.592915" />
      <line x1="-12.020815" y1="-3.365848" x2="-9.899495" y2="-4.236326" />
      <line x1="-9.899495" y1="-4.236326" x2="28.991378" y2="11.722437" />
      <line x1="26.870058" y1="12.592915" x2="28.991378" y2="11.722437" />
      <line x1="-7.778175" y1="-5.106804" x2="31.112698" y2="10.851959" />
      <line x1="-7.778175" y1="-5.106804" x2="-5.656854" y2="-5.977282" />
      <line x1="-5.656854" y1="-5.977282" x2="33.234019" y2="9.981481" />
      <line x1="31.112698" y1="10.851959" x2="33.234019" y2="9.981481" />
      <path d="M 53.699556,9.678886 A 3.0,1.2310418016971536 180.0 0,0 52.820877,8.808408" />
      <line x1="52.820877" y1="8.808408" x2="-8.131728" y2="-16.203326" />
      <path d="M -52.820877,0.393788 A 3.0,1.2310418016971536 180.0 0,0 -53.699556,1.264266" />
      <path d="M -12.374369,-16.203326 A 3.0,1.2310418016971536 0.0 0,1 -8.131728,-16.203326" />
      <line x1="-52.820877" y1="0.393788" x2="-12.374369" y2="-16.203326" />
      <line x1="5.656854" y1="19.556739" x2="5.656854" y2="21.297695" />
      <line x1="9.899495" y1="17.815783" x2="9.899495" y2="19.556739" />
      <line x1="14.142136" y1="16.074827" x2="14.142136" y2="17.815783" />
      <line x1="18.384776" y1="14.333871" x2="18.384776" y2="16.074827" />
      <line x1="22.627417" y1="12.592915" x2="22.627417" y2="14.333871" />
      <line x1="26.870058" y1="10.851959" x2="26.870058" y2="12.592915" />
      <line x1="31.112698" y1="9.111003" x2="31.112698" y2="10.851959" />
      <line x1="51.12382" y1="6.943098" x2="51.12382" y2="8.112026" />
      <line x1="-51.12382" y1="-1.471522" x2="-51.12382" y2="-0.302595" />
      <line x1="-10.253048" y1="-18.242732" x2="-10.253048" y2="-16.56389" />
      <line x1="-51.12382" y1="-1.471522" x2="-10.253048" y2="-18.242732" />
      <line x1="51.12382" y1="6.943098" x2="-10.253048" y2="-18.242732" />
      <line x1="52.820877" y1="8.808408" x2="52.820877" y2="10.997039" />
      <line x1="-8.131728" y1="-16.203326" x2="-8.131728" y2="-14.014696" />
      <line x1="-52.820877" y1="0.393788" x2="-52.820877" y2="2.582418" />
      <line x1="-12.374369" y1="-16.203326" x2="-12.374369" y2="-14.014696" />
      <line x1="53.699556" y1="9.678886" x2="53.699556" y2="11.867517" />
      <line x1="-53.699556" y1="1.264266" x2="-53.699556" y2="3.452896" />
    </g>
    <g fill="none" stroke="rgb(191,158,158)" stroke-width="0.22" id="lid_hidden" stroke-dasharray="1.397 0.6985">
      <line x1="12.374369" y1="27.146478" x2="52.820877" y2="10.549364" />
      <path d="M 12.374369,27.146478 A 3.0,1.2310418016971536 0.0 0,1 8.131728,27.146478" />
      <path d="M 52.820877,10.549364 A 3.0,1.2310418016971536 180.0 0,0 53.699556,9.678886" />
      <line x1="8.131728" y1="27.146478" x2="-52.820877" y2="2.134744" />
      <path d="M -53.699556,1.264266 A 3.0,1.2310418016971536 180.0 0,0 -52.820877,2.134744" />
      <line x1="10.253048" y1="26.450096" x2="51.12382" y2="9.678886" />
      <line x1="10.253048" y1="26.450096" x2="-51.12382" y2="1.264266" />
      <line x1="-51.12382" y1="1.264266" x2="-10.253048" y2="-15.506944" />
      <line x1="51.12382" y1="9.678886" x2="-10.253048" y2="-15.506944" />
      <line x1="-33.234019" y1="3.150301" x2="-33.234019" y2="5.338932" />
      <line x1="5.656854" y1="19.109065" x2="5.656854" y2="19.556739" />
      <line x1="-33.234019" y1="3.150301" x2="5.656854" y2="19.109065" />
      <line x1="-31.112698" y1="2.279823" x2="-31.112698" y2="4.468454" />
      <line x1="-33.234019" y1="3.150301" x2="-31.112698" y2="2.279823" />
      <line x1="7.778175" y1="18.238587" x2="7.778175" y2="20.427217" />
      <line x1="-31.112698" y1="2.279823" x2="7.778175" y2="18.238587" />
      <line x1="5.656854" y1="19.109065" x2="7.778175" y2="18.238587" />
      <line x1="-28.991378" y1="1.409345" x2="-28.991378" y2="3.597976" />
      <line x1="9.899495" y1="17.368109" x2="9.899495" y2="17.815783" />
      <line x1="-28.991378" y1="1.409345" x2="9.899495" y2="17.368109" />
      <line x1="-26.870058" y1="0.538867" x2="-26.870058" y2="2.727498" />
      <line x1="-28.991378" y1="1.409345" x2="-26.870058" y2="0.538867" />
      <line x1="12.020815" y1="16.497631" x2="12.020815" y2="18.686261" />
      <line x1="-26.870058" y1="0.538867" x2="12.020815" y2="16.497631" />
      <line x1="9.899495" y1="17.368109" x2="12.020815" y2="16.497631" />
      <line x1="-24.748737" y1="-0.331611" x2="-24.748737" y2="1.85702" />
      <line x1="14.142136" y1="15.627153" x2="14.142136" y2="16.074827" />
      <line x1="-24.748737" y1="-0.331611" x2="14.142136" y2="15.627153" />
      <line x1="-22.627417" y1="-1.202089" x2="-22.627417" y2="0.986542" />
      <line x1="-24.748737" y1="-0.331611" x2="-22.627417" y2="-1.202089" />
      <line x1="16.263456" y1="14.756675" x2="16.263456" y2="16.945305" />
      <line x1="-22.627417" y1="-1.202089" x2="16.263456" y2="14.756675" />
      <line x1="14.142136" y1="15.627153" x2="16.263456" y2="14.756675" />
      <line x1="-20.506097" y1="-2.072567" x2="-20.506097" y2="0.116064" />
      <line x1="18.384776" y1="13.886197" x2="18.384776" y2="14.333871" />
      <line x1="-20.506097" y1="-2.072567" x2="18.384776" y2="13.886197" />
      <line x1="-18.384776" y1="-2.943045" x2="-18.384776" y2="-0.754414" />
      <line x1="-20.506097" y1="-2.072567" x2="-18.384776" y2="-2.943045" />
      <line x1="20.506097" y1="13.015719" x2="20.506097" y2="15.204349" />
      <line x1="-18.384776" y1="-2.943045" x2="20.506097" y2="13.015719" />
      <line x1="18.384776" y1="13.886197" x2="20.506097" y2="13.015719" />
      <line x1="-16.263456" y1="-3.813523" x2="-16.263456" y2="-1.624892" />
      <line x1="22.627417" y1="12.145241" x2="22.627417" y2="12.592915" />
      <line x1="-16.263456" y1="-3.813523" x2="22.627417" y2="12.145241" />
      <line x1="-14.142136" y1="-4.684001" x2="-14.142136" y2="-2.49537" />
      <line x1="-16.263456" y1="-3.813523" x2="-14.142136" y2="-4.684001" />
      <line x1="24.748737" y1="11.274763" x2="24.748737" y2="13.463393" />
      <line x1="-14.142136" y1="-4.684001" x2="24.748737" y2="11.274763" />
      <line x1="22.627417" y1="12.145241" x2="24.748737" y2="11.274763" />
      <line x1="-12.020815" y1="-5.554479" x2="-12.020815" y2="-3.365848" />
      <line x1="26.870058" y1="10.404285" x2="26.870058" y2="10.851959" />
      <line x1="-12.020815" y1="-5.554479" x2="26.870058" y2="10.404285" />
      <line x1="-9.899495" y1="-6.424957" x2="-9.899495" y2="-4.236326" />
      <line x1="-12.020815" y1="-5.554479" x2="-9.899495" y2="-6.424957" />
      <line x1="28.991378" y1="9.533807" x2="28.991378" y2="11.722437" />
      <line x1="-9.899495" y1="-6.424957" x2="28.991378" y2="9.533807" />
      <line x1="26.870058" y1="10.404285" x2="28.991378" y2="9.533807" />
      <line x1="-7.778175" y1="-7.295435" x2="-7.778175" y2="-5.106804" />
      <line x1="31.112698" y1="8.663329" x2="31.112698" y2="9.111003" />
      <line x1="-7.778175" y1="-7.295435" x2="31.112698" y2="8.663329" />
      <line x1="-5.656854" y1="-8.165913" x2="-5.656854" y2="-5.977282" />
      <line x1="-7.778175" y1="-7.295435" x2="-5.656854" y2="-8.165913" />
      <line x1="33.234019" y1="7.792851" x2="33.234019" y2="9.981481" />
      <line x1="-5.656854" y1="-8.165913" x2="33.234019" y2="7.792851" />
      <line x1="31.112698" y1="8.663329" x2="33.234019" y2="7.792851" />
      <line x1="10.253048" y1="23.714308" x2="10.253048" y2="26.450096" />
      <line x1="51.12382" y1="8.112026" x2="51.12382" y2="9.678886" />
      <line x1="10.253048" y1="23.714308" x2="51.12382" y2="6.943098" />
      <line x1="10.253048" y1="23.714308" x2="-51.12382" y2="-1.471522" />
      <line x1="-51.12382" y1="-0.302595" x2="-51.12382" y2="1.264266" />
      <line x1="-10.253048" y1="-16.56389" x2="-10.253048" y2="-15.506944" />
      <line x1="10.253048" y1="25.289459" x2="48.295393" y2="9.678886" />
      <line x1="48.295393" y1="9.678886" x2="-10.253048" y2="-14.346307" />
      <line x1="10.253048" y1="25.289459" x2="-48.295393" y2="1.264266" />
      <line x1="-48.295393" y1="1.264266" x2="-10.253048" y2="-14.346307" />
      <line x1="10.253048" y1="22.553671" x2="48.295393" y2="6.943098" />
      <line x1="10.253048" y1="22.553671" x2="-48.295393" y2="-1.471522" />
      <line x1="-48.295393" y1="-1.471522" x2="-10.253048" y2="-17.082095" />
      <line x1="48.295393" y1="6.943098" x2="-10.253048" y2="-17.082095" />
      <line x1="10.253048" y1="22.553671" x2="10.253048" y2="25.289459" />
      <line x1="48.295393" y1="6.943098" x2="48.295393" y2="9.678886" />
      <line x1="-10.253048" y1="-17.082095" x2="-10.253048" y2="-14.346307" />
      <line x1="-48.295393" y1="-1.471522" x2="-48.295393" y2="1.264266" />
      <line x1="12.374369" y1="27.146478" x2="12.374369" y2="29.335109" />
      <line x1="52.820877" y1="10.549364" x2="52.820877" y2="12.737995" />
      <line x1="8.131728" y1="27.146478" x2="8.131728" y2="29.335109" />
      <line x1="-52.820877" y1="2.134744" x2="-52.820877" y2="4.323374" />
    </g>
  </g>
</svg>