<?xml version='1.0' encoding='utf-8'?>
<svg width="91.131493mm" height="68.218213mm" viewBox="-45.565747 -30.61036 91.131493 68.218213" version="1.1" xmlns="http://www.w3.org/2000/svg">
  <g transform="scale(1,-1)" stroke-linecap="round">
    <g fill="none" stroke="rgb(30,56,76)" stroke-width="0.4" id="base_visible">
      <path d="M 11.543518,-1.889598 A 1.175,0.5116592560346246 0.0 0,1 13.549369,-1.527801" />
      <path d="M 11.199369,-1.527801 A 1.175,0.5116592560346246 0.0 0,1 11.543518,-1.889598" />
      <path d="M 11.543518,0.225897 A 1.175,0.5116592560346246 0.0 0,1 13.549369,0.587694" />
      <path d="M 13.549369,0.587694 A 1.175,0.5116592560346246 0.0 0,1 11.199369,0.587694" />
      <path d="M 11.199369,0.587694 A 1.175,0.5116592560346246 0.0 0,1 11.543518,0.225897" />
      <path d="M 10.535891,-2.328374 A 2.6,1.132182183565978 0.0 0,1 14.974369,-1.527801" />
      <path d="M 14.974369,-1.527801 A 2.6,1.132182183565978 0.0 0,1 13.549369,-0.51783" />
      <path d="M 11.199369,-0.51783 A 2.6,1.132182183565978 0.0 0,1 9.774369,-1.527801" />
      <path d="M 9.774369,-1.527801 A 2.6,1.132182183565978 0.0 0,1 10.535891,-2.328374" />
      <path d="M 10.535891,-4.308838 A 2.6,1.132182183565978 0.0 0,1 14.974369,-3.508264" />
      <path d="M 9.774369,-3.508264 A 2.6,1.132182183565978 0.0 0,1 10.535891,-4.308838" />
      <line x1="14.974369" y1="-1.992395" x2="24.899321" y2="-6.314262" />
      <line x1="9.774369" y1="-1.992395" x2="-24.899321" y2="-17.091215" />
      <line x1="6.22254" y1="-8.342498" x2="7.919596" y2="-7.603507" />
      <line x1="6.22254" y1="-8.342498" x2="13.232059" y2="-11.394826" />
      <line x1="7.919596" y1="-7.603507" x2="14.929115" y2="-10.655834" />
      <line x1="-2.262742" y1="-12.037453" x2="-0.565685" y2="-11.298462" />
      <line x1="-2.262742" y1="-12.037453" x2="4.746777" y2="-15.089781" />
      <line x1="-0.565685" y1="-11.298462" x2="6.443834" y2="-14.35079" />
      <path d="M -26.55175,-22.042984 A 2.6,1.132182183565978 0.0 0,1 -26.126021,-21.659601" />
      <line x1="-10.748023" y1="-15.732409" x2="-9.050967" y2="-14.993418" />
      <line x1="-10.748023" y1="-15.732409" x2="-3.738504" y2="-18.784737" />
      <line x1="-9.050967" y1="-14.993418" x2="-2.041448" y2="-18.045745" />
      <line x1="-19.233304" y1="-19.427364" x2="-17.536248" y2="-18.688373" />
      <line x1="-19.233304" y1="-19.427364" x2="-12.223785" y2="-22.479692" />
      <line x1="-17.536248" y1="-18.688373" x2="-10.526729" y2="-21.740701" />
      <line x1="12.374369" y1="1.099354" x2="12.374369" y2="5.891367" />
      <line x1="32.651654" y1="-2.938472" x2="12.374369" y2="5.891367" />
      <line x1="26.759881" y1="-5.504072" x2="18.596908" y2="-1.949468" />
      <line x1="28.496403" y1="-4.747895" x2="28.496403" y2="-4.099743" />
      <line x1="28.496403" y1="-4.099743" x2="18.596908" y2="0.211038" />
      <line x1="18.596908" y1="-1.949468" x2="18.596908" y2="0.211038" />
      <line x1="-10.696085" y1="-23.614869" x2="-12.374369" y2="-24.345686" />
      <line x1="12.374369" y1="5.891367" x2="-32.651654" y2="-13.715425" />
      <line x1="6.22254" y1="2.042251" x2="-0.141421" y2="-0.728966" />
      <line x1="6.22254" y1="2.042251" x2="6.22254" y2="-1.738634" />
      <line x1="-0.141421" y1="-0.728966" x2="-0.141421" y2="-4.509851" />
      <line x1="6.22254" y1="-1.738634" x2="-0.141421" y2="-4.509851" />
      <line x1="-14.283557" y1="-6.887225" x2="-20.647518" y2="-9.658442" />
      <line x1="-14.283557" y1="-6.887225" x2="-14.283557" y2="-10.66811" />
      <line x1="-20.647518" y1="-9.658442" x2="-20.647518" y2="-13.439327" />
      <line x1="-14.283557" y1="-10.66811" x2="-20.647518" y2="-13.439327" />
      <line x1="-23.369879" y1="-11.023949" x2="-29.380287" y2="-13.641209" />
      <line x1="-29.380287" y1="-13.641209" x2="-29.380287" y2="-15.139958" />
      <line x1="-23.369879" y1="-14.624792" x2="-26.966609" y2="-16.191005" />
      <line x1="-23.369879" y1="-11.023949" x2="-23.369879" y2="-14.624792" />
      <line x1="-12.374369" y1="-24.345686" x2="-14.052652" y2="-23.614869" />
      <line x1="-18.596908" y1="-25.506957" x2="-29.910617" y2="-20.58035" />
      <line x1="-29.910617" y1="-20.58035" x2="-29.910617" y2="-20.01158" />
      <line x1="7.919596" y1="-9.081489" x2="7.919596" y2="-7.603507" />
      <line x1="-0.565685" y1="-12.776444" x2="-0.565685" y2="-11.298462" />
      <path d="M -29.910617,-20.373997 A 2.6,1.132182183565978 0.0 0,1 -28.747832,-20.517921" />
      <line x1="-9.050967" y1="-16.4714" x2="-9.050967" y2="-14.993418" />
      <line x1="-17.536248" y1="-20.166355" x2="-17.536248" y2="-18.688373" />
      <path d="M 35.844299,-3.574665 A 4.0,1.7418187439476582 0.0 0,1 35.69334,-3.298556" />
      <path d="M -35.69334,-14.07551 A 4.0,1.7418187439476582 0.0 0,1 -35.844299,-14.351619" />
      <path d="M 14.052652,6.240804 A 4.0,1.7418187439476582 0.0 0,1 10.696085,6.240804" />
      <line x1="20.011122" y1="-1.333642" x2="18.596908" y2="-1.949468" />
      <line x1="28.174094" y1="-4.888246" x2="20.011122" y2="-1.333642" />
      <line x1="20.011122" y1="-1.333642" x2="20.011122" y2="-0.404788" />
      <line x1="4.808326" y1="-1.122808" x2="6.22254" y2="-1.738634" />
      <line x1="4.808326" y1="1.426425" x2="4.808326" y2="-1.122808" />
      <line x1="4.808326" y1="-1.122808" x2="-0.141421" y2="-3.278199" />
      <line x1="-15.697771" y1="-10.052284" x2="-14.283557" y2="-10.66811" />
      <line x1="-15.697771" y1="-7.503051" x2="-15.697771" y2="-10.052284" />
      <line x1="-15.697771" y1="-10.052284" x2="-20.647518" y2="-12.207675" />
      <line x1="-24.784093" y1="-14.008966" x2="-23.369879" y2="-14.624792" />
      <line x1="-24.784093" y1="-14.008966" x2="-28.380823" y2="-15.575179" />
      <line x1="-24.784093" y1="-11.639775" x2="-24.784093" y2="-14.008966" />
      <line x1="-18.596908" y1="-26.738609" x2="-31.32483" y2="-21.196176" />
      <line x1="-29.910617" y1="-20.58035" x2="-31.32483" y2="-21.196176" />
      <line x1="-18.596908" y1="-26.738609" x2="-18.596908" y2="-24.938188" />
      <line x1="-18.596908" y1="-24.938188" x2="-31.32483" y2="-19.395755" />
      <line x1="-31.32483" y1="-21.196176" x2="-31.32483" y2="-19.395755" />
      <path d="M 35.890516,-12.390684 A 4.0,1.7418187439476582 180.0 0,0 34.718943,-13.622335" />
      <line x1="34.718943" y1="-13.622335" x2="-9.545942" y2="-32.897687" />
      <path d="M -34.718943,-24.399289 A 4.0,1.7418187439476582 180.0 0,0 -35.890516,-23.167637" />
      <path d="M -15.202796,-32.897687 A 4.0,1.7418187439476582 0.0 0,1 -9.545942,-32.897687" />
      <line x1="-34.718943" y1="-24.399289" x2="-15.202796" y2="-32.897687" />
      <line x1="35.890516" y1="-2.142361" x2="37.512015" y2="-2.848451" />
      <line x1="35.844299" y1="-3.022446" x2="36.47837" y2="-3.298556" />
      <line x1="-12.374369" y1="-24.57171" x2="-9.879352" y2="-23.485244" />
      <line x1="-9.879352" y1="-23.485244" x2="-9.879352" y2="-23.395223" />
      <line x1="35.016999" y1="-3.934917" x2="35.016999" y2="-3.844896" />
      <line x1="35.016999" y1="-3.934917" x2="37.512015" y2="-2.848451" />
      <line x1="-37.512015" y1="-13.625404" x2="-35.016999" y2="-14.711871" />
      <line x1="-35.016999" y1="-14.711871" x2="-35.016999" y2="-14.62185" />
      <line x1="-14.869385" y1="-23.485244" x2="-14.869385" y2="-23.395223" />
      <line x1="-14.869385" y1="-23.485244" x2="-12.374369" y2="-24.57171" />
      <line x1="-36.47837" y1="-14.07551" x2="-35.844299" y2="-13.7994" />
      <line x1="-37.512015" y1="-13.625404" x2="-35.890516" y2="-12.919315" />
      <path d="M -11.552256,-23.987693 A 1.175,0.5116592560346246 0.0 0,1 -13.196482,-23.987693" />
      <line x1="12.374369" y1="8.544329" x2="13.259854" y2="8.15874" />
      <line x1="35.791274" y1="-1.652672" x2="38.53732" y2="-2.848451" />
      <line x1="38.53732" y1="-2.848451" x2="-12.374369" y2="-25.018184" />
      <line x1="12.374369" y1="8.544329" x2="11.488883" y2="8.15874" />
      <line x1="-35.791274" y1="-12.429626" x2="-38.53732" y2="-13.625404" />
      <line x1="-38.53732" y1="-13.625404" x2="-12.374369" y2="-25.018184" />
      <path d="M -35.016999,-14.711871 A 4.0,1.7418187439476582 0.0 0,1 -34.718943,-14.857056" />
      <line x1="-15.202796" y1="-23.355454" x2="-34.718943" y2="-14.857056" />
      <path d="M -15.202796,-23.355454 A 4.0,1.7418187439476582 0.0 0,1 -14.869385,-23.485244" />
      <path d="M -9.879352,-23.485244 A 4.0,1.7418187439476582 0.0 0,1 -9.545942,-23.355454" />
      <line x1="34.718943" y1="-4.080102" x2="-9.545942" y2="-23.355454" />
      <path d="M 34.718943,-4.080102 A 4.0,1.7418187439476582 0.0 0,1 35.016999,-3.934917" />
      <path d="M 15.202796,7.691789 A 4.0,1.7418187439476582 0.0 0,1 9.545942,7.691789" />
      <path d="M 35.016999,-3.844896 A 4.0,1.7418187439476582 0.0 0,1 35.890516,-2.75843" />
      <path d="M -14.869385,-23.395223 A 4.0,1.7418187439476582 0.0 0,1 -9.879352,-23.395223" />
      <path d="M -35.890516,-13.535383 A 4.0,1.7418187439476582 0.0 0,1 -35.016999,-14.62185" />
      <line x1="12.374369" y1="6.97162" x2="-33.892027" y2="-13.175299" />
      <line x1="33.892027" y1="-2.398345" x2="12.374369" y2="6.97162" />
      <path d="M 34.718943,-0.806609 A 4.0,1.7418187439476582 180.0 0,0 35.890516,-2.038261" />
      <path d="M 35.890516,-2.038261 A 4.0,1.7418187439476582 180.0 0,0 34.718943,-3.269913" />
      <line x1="38.53732" y1="-3.748661" x2="-12.374369" y2="-25.918395" />
      <line x1="-38.53732" y1="-14.525615" x2="-12.374369" y2="-25.918395" />
      <path d="M -15.202796,-22.545264 A 4.0,1.7418187439476582 0.0 0,1 -9.545942,-22.545264" />
      <path d="M -34.718943,-14.046867 A 4.0,1.7418187439476582 180.0 0,0 -35.890516,-12.815215" />
      <path d="M -35.890516,-12.815215 A 4.0,1.7418187439476582 180.0 0,0 -34.718943,-11.583563" />
      <line x1="38.53732" y1="-3.748661" x2="38.53732" y2="-2.848451" />
      <line x1="-12.374369" y1="-25.918395" x2="-12.374369" y2="-25.018184" />
      <line x1="-38.53732" y1="-14.525615" x2="-38.53732" y2="-13.625404" />
      <line x1="15.202796" y1="7.691789" x2="34.718943" y2="-0.806609" />
      <line x1="9.545942" y1="7.691789" x2="-34.718943" y2="-11.583563" />
      <line x1="-34.718943" y1="-14.046867" x2="-15.202796" y2="-22.545264" />
      <line x1="34.718943" y1="-3.269913" x2="-9.545942" y2="-22.545264" />
      <line x1="-34.718943" y1="-12.815215" x2="12.374369" y2="7.691789" />
      <line x1="-34.718943" y1="-12.815215" x2="-12.374369" y2="-22.545264" />
      <line x1="-12.374369" y1="-22.545264" x2="34.718943" y2="-2.038261" />
      <line x1="12.374369" y1="7.691789" x2="34.718943" y2="-2.038261" />
      <line x1="12.374369" y1="6.97162" x2="12.374369" y2="7.691789" />
      <line x1="34.718943" y1="-13.622335" x2="34.718943" y2="-5.411391" />
      <line x1="-15.202796" y1="-32.897687" x2="-15.202796" y2="-24.686743" />
      <line x1="-9.545942" y1="-32.897687" x2="-9.545942" y2="-24.686743" />
      <line x1="-34.718943" y1="-24.399289" x2="-34.718943" y2="-16.188345" />
      <line x1="34.718943" y1="-4.080102" x2="34.718943" y2="-3.269913" />
      <line x1="-15.202796" y1="-23.355454" x2="-15.202796" y2="-22.545264" />
      <line x1="-9.545942" y1="-23.355454" x2="-9.545942" y2="-22.545264" />
      <line x1="-34.718943" y1="-14.857056" x2="-34.718943" y2="-14.046867" />
      <line x1="13.549369" y1="-1.527801" x2="13.549369" y2="0.587694" />
      <line x1="11.199369" y1="-1.527801" x2="11.199369" y2="0.587694" />
      <line x1="14.974369" y1="-3.508264" x2="14.974369" y2="-1.527801" />
      <line x1="9.774369" y1="-3.508264" x2="9.774369" y2="-1.527801" />
      <line x1="35.890516" y1="-12.390684" x2="35.890516" y2="-4.901224" />
      <line x1="-35.890516" y1="-23.167637" x2="-35.890516" y2="-15.678178" />
      <line x1="35.890516" y1="-2.75843" x2="35.890516" y2="-2.038261" />
      <line x1="-35.890516" y1="-13.535383" x2="-35.890516" y2="-12.815215" />
    </g>
    <g fill="none" stroke="rgb(158,173,183)" stroke-width="0.22" id="base_hidden" stroke-dasharray="1.397 0.6985">
      <path d="M 13.549369,-1.527801 A 1.175,0.5116592560346246 0.0 0,1 11.199369,-1.527801" />
      <path d="M 13.549369,-0.51783 A 2.6,1.132182183565978 0.0 0,1 11.199369,-0.51783" />
      <path d="M 14.974369,-3.508264 A 2.6,1.132182183565978 0.0 0,1 9.774369,-3.508264" />
      <line x1="12.374369" y1="-0.860213" x2="14.974369" y2="-1.992395" />
      <line x1="24.899321" y1="-6.314262" x2="34.718943" y2="-10.590262" />
      <line x1="34.718943" y1="-10.590262" x2="-12.374369" y2="-31.097265" />
      <line x1="12.374369" y1="-0.860213" x2="9.774369" y2="-1.992395" />
      <line x1="-24.899321" y1="-17.091215" x2="-34.718943" y2="-21.367216" />
      <line x1="-34.718943" y1="-21.367216" x2="-12.374369" y2="-31.097265" />
      <line x1="13.232059" y1="-11.394826" x2="17.536248" y2="-13.269105" />
      <line x1="14.929115" y1="-10.655834" x2="19.233304" y2="-12.530114" />
      <line x1="17.536248" y1="-13.269105" x2="19.233304" y2="-12.530114" />
      <line x1="4.746777" y1="-15.089781" x2="9.050967" y2="-16.964061" />
      <line x1="6.443834" y1="-14.35079" x2="10.748023" y2="-16.225069" />
      <line x1="9.050967" y1="-16.964061" x2="10.748023" y2="-16.225069" />
      <path d="M -30.476302,-22.16779 A 2.6,1.132182183565978 0.0 0,1 -26.55175,-22.042984" />
      <path d="M -26.126021,-21.659601 A 2.6,1.132182183565978 0.0 0,1 -26.037825,-21.367216" />
      <path d="M -26.037825,-21.367216 A 2.6,1.132182183565978 0.0 0,1 -31.237825,-21.367216" />
      <path d="M -31.237825,-21.367216 A 2.6,1.132182183565978 0.0 0,1 -30.476302,-22.16779" />
      <line x1="-3.738504" y1="-18.784737" x2="0.565685" y2="-20.659016" />
      <line x1="-2.041448" y1="-18.045745" x2="2.262742" y2="-19.920025" />
      <line x1="0.565685" y1="-20.659016" x2="2.262742" y2="-19.920025" />
      <line x1="-12.223785" y1="-22.479692" x2="-7.919596" y2="-24.353972" />
      <line x1="-7.919596" y1="-24.353972" x2="-6.22254" y2="-23.61498" />
      <line x1="-10.526729" y1="-21.740701" x2="-6.22254" y2="-23.61498" />
      <path d="M 26.799347,-11.390836 A 2.6,1.132182183565978 0.0 0,1 31.237825,-10.590262" />
      <path d="M 31.237825,-10.590262 A 2.6,1.132182183565978 0.0 0,1 26.037825,-10.590262" />
      <path d="M 26.037825,-10.590262 A 2.6,1.132182183565978 0.0 0,1 26.799347,-11.390836" />
      <path d="M -14.212846,-29.249788 A 2.6,1.132182183565978 0.0 0,1 -9.774369,-28.449214" />
      <path d="M -9.774369,-28.449214 A 2.6,1.132182183565978 0.0 0,1 -14.974369,-28.449214" />
      <path d="M -14.974369,-28.449214 A 2.6,1.132182183565978 0.0 0,1 -14.212846,-29.249788" />
      <line x1="12.374369" y1="-0.860213" x2="12.374369" y2="1.099354" />
      <line x1="34.718943" y1="-3.838682" x2="32.651654" y2="-2.938472" />
      <line x1="34.718943" y1="-10.590262" x2="34.718943" y2="-3.838682" />
      <line x1="28.496403" y1="-6.260249" x2="26.759881" y2="-5.504072" />
      <line x1="28.496403" y1="-6.260249" x2="28.496403" y2="-4.747895" />
      <line x1="-12.374369" y1="-31.097265" x2="-12.374369" y2="-24.345686" />
      <line x1="34.718943" y1="-3.838682" x2="-10.696085" y2="-23.614869" />
      <line x1="-34.718943" y1="-21.367216" x2="-34.718943" y2="-14.615636" />
      <line x1="-32.651654" y1="-13.715425" x2="-34.718943" y2="-14.615636" />
      <line x1="-29.380287" y1="-15.139958" x2="-29.380287" y2="-17.242052" />
      <line x1="-26.966609" y1="-16.191005" x2="-29.380287" y2="-17.242052" />
      <line x1="-14.052652" y1="-23.614869" x2="-34.718943" y2="-14.615636" />
      <line x1="-17.182695" y1="-26.122783" x2="-18.596908" y2="-25.506957" />
      <line x1="-17.182695" y1="-26.122783" x2="-17.182695" y2="-24.322362" />
      <line x1="-17.182695" y1="-24.322362" x2="-29.910617" y2="-18.779929" />
      <line x1="-29.910617" y1="-20.01158" x2="-29.910617" y2="-18.779929" />
      <line x1="6.22254" y1="-10.142919" x2="6.22254" y2="-8.342498" />
      <line x1="7.919596" y1="-9.403928" x2="7.919596" y2="-9.081489" />
      <line x1="6.22254" y1="-10.142919" x2="7.919596" y2="-9.403928" />
      <line x1="17.536248" y1="-15.069526" x2="17.536248" y2="-13.269105" />
      <line x1="6.22254" y1="-10.142919" x2="17.536248" y2="-15.069526" />
      <line x1="19.233304" y1="-14.330535" x2="19.233304" y2="-12.530114" />
      <line x1="7.919596" y1="-9.403928" x2="19.233304" y2="-14.330535" />
      <line x1="17.536248" y1="-15.069526" x2="19.233304" y2="-14.330535" />
      <line x1="-2.262742" y1="-13.837874" x2="-2.262742" y2="-12.037453" />
      <line x1="-0.565685" y1="-13.098883" x2="-0.565685" y2="-12.776444" />
      <line x1="-2.262742" y1="-13.837874" x2="-0.565685" y2="-13.098883" />
      <line x1="9.050967" y1="-18.764482" x2="9.050967" y2="-16.964061" />
      <line x1="-2.262742" y1="-13.837874" x2="9.050967" y2="-18.764482" />
      <line x1="10.748023" y1="-18.025491" x2="10.748023" y2="-16.225069" />
      <line x1="-0.565685" y1="-13.098883" x2="10.748023" y2="-18.025491" />
      <line x1="9.050967" y1="-18.764482" x2="10.748023" y2="-18.025491" />
      <path d="M -30.476302,-20.187326 A 2.6,1.132182183565978 0.0 0,1 -29.910617,-20.373997" />
      <path d="M -28.747832,-20.517921 A 2.6,1.132182183565978 0.0 0,1 -26.037825,-19.386752" />
      <path d="M -26.037825,-19.386752 A 2.6,1.132182183565978 0.0 0,1 -31.237825,-19.386752" />
      <path d="M -31.237825,-19.386752 A 2.6,1.132182183565978 0.0 0,1 -30.476302,-20.187326" />
      <line x1="-10.748023" y1="-17.53283" x2="-10.748023" y2="-15.732409" />
      <line x1="-9.050967" y1="-16.793839" x2="-9.050967" y2="-16.4714" />
      <line x1="-10.748023" y1="-17.53283" x2="-9.050967" y2="-16.793839" />
      <line x1="0.565685" y1="-22.459437" x2="0.565685" y2="-20.659016" />
      <line x1="-10.748023" y1="-17.53283" x2="0.565685" y2="-22.459437" />
      <line x1="2.262742" y1="-21.720446" x2="2.262742" y2="-19.920025" />
      <line x1="-9.050967" y1="-16.793839" x2="2.262742" y2="-21.720446" />
      <line x1="0.565685" y1="-22.459437" x2="2.262742" y2="-21.720446" />
      <line x1="-19.233304" y1="-21.227786" x2="-19.233304" y2="-19.427364" />
      <line x1="-17.536248" y1="-20.488794" x2="-17.536248" y2="-20.166355" />
      <line x1="-19.233304" y1="-21.227786" x2="-17.536248" y2="-20.488794" />
      <line x1="-7.919596" y1="-26.154393" x2="-7.919596" y2="-24.353972" />
      <line x1="-19.233304" y1="-21.227786" x2="-7.919596" y2="-26.154393" />
      <line x1="-6.22254" y1="-25.415402" x2="-6.22254" y2="-23.61498" />
      <line x1="-7.919596" y1="-26.154393" x2="-6.22254" y2="-25.415402" />
      <line x1="-17.536248" y1="-20.488794" x2="-6.22254" y2="-25.415402" />
      <path d="M 26.799347,-9.410373 A 2.6,1.132182183565978 0.0 0,1 31.237825,-8.609799" />
      <path d="M 31.237825,-8.609799 A 2.6,1.132182183565978 0.0 0,1 26.037825,-8.609799" />
      <path d="M 26.037825,-8.609799 A 2.6,1.132182183565978 0.0 0,1 26.799347,-9.410373" />
      <path d="M -14.212846,-27.269324 A 2.6,1.132182183565978 0.0 0,1 -9.774369,-26.468751" />
      <path d="M -9.774369,-26.468751 A 2.6,1.132182183565978 0.0 0,1 -14.974369,-26.468751" />
      <path d="M -14.974369,-26.468751 A 2.6,1.132182183565978 0.0 0,1 -14.212846,-27.269324" />
      <line x1="14.869385" y1="6.021157" x2="35.016999" y2="-2.752216" />
      <path d="M 35.016999,-4.925149 A 4.0,1.7418187439476582 0.0 0,1 35.890516,-3.838682" />
      <path d="M 35.890516,-3.838682 A 4.0,1.7418187439476582 0.0 0,1 35.844299,-3.574665" />
      <path d="M 35.69334,-3.298556 A 4.0,1.7418187439476582 0.0 0,1 35.016999,-2.752216" />
      <line x1="35.016999" y1="-4.925149" x2="-9.879352" y2="-24.475475" />
      <path d="M -14.869385,-24.475475 A 4.0,1.7418187439476582 0.0 0,1 -9.879352,-24.475475" />
      <line x1="-35.016999" y1="-15.702102" x2="-14.869385" y2="-24.475475" />
      <path d="M -35.016999,-13.52917 A 4.0,1.7418187439476582 0.0 0,1 -35.69334,-14.07551" />
      <path d="M -35.844299,-14.351619 A 4.0,1.7418187439476582 0.0 0,1 -35.890516,-14.615636" />
      <path d="M -35.890516,-14.615636 A 4.0,1.7418187439476582 0.0 0,1 -35.016999,-15.702102" />
      <line x1="9.879352" y1="6.021157" x2="-35.016999" y2="-13.52917" />
      <path d="M 14.869385,6.021157 A 4.0,1.7418187439476582 0.0 0,1 14.052652,6.240804" />
      <path d="M 10.696085,6.240804 A 4.0,1.7418187439476582 0.0 0,1 9.879352,6.021157" />
      <line x1="29.910617" y1="-5.644423" x2="28.496403" y2="-6.260249" />
      <line x1="29.910617" y1="-5.644423" x2="28.174094" y2="-4.888246" />
      <line x1="29.910617" y1="-3.483918" x2="28.496403" y2="-4.099743" />
      <line x1="29.910617" y1="-5.644423" x2="29.910617" y2="-3.483918" />
      <line x1="20.011122" y1="0.826864" x2="18.596908" y2="0.211038" />
      <line x1="29.910617" y1="-3.483918" x2="20.011122" y2="0.826864" />
      <line x1="20.011122" y1="-0.404788" x2="20.011122" y2="0.826864" />
      <line x1="4.808326" y1="2.658077" x2="6.22254" y2="2.042251" />
      <line x1="-1.555635" y1="-0.11314" x2="-0.141421" y2="-0.728966" />
      <line x1="4.808326" y1="2.658077" x2="-1.555635" y2="-0.11314" />
      <line x1="4.808326" y1="2.658077" x2="4.808326" y2="1.426425" />
      <line x1="-1.555635" y1="-3.894025" x2="-0.141421" y2="-4.509851" />
      <line x1="-1.555635" y1="-0.11314" x2="-1.555635" y2="-3.894025" />
      <line x1="-0.141421" y1="-3.278199" x2="-1.555635" y2="-3.894025" />
      <line x1="-15.697771" y1="-6.271399" x2="-14.283557" y2="-6.887225" />
      <line x1="-22.061732" y1="-9.042616" x2="-20.647518" y2="-9.658442" />
      <line x1="-15.697771" y1="-6.271399" x2="-22.061732" y2="-9.042616" />
      <line x1="-15.697771" y1="-6.271399" x2="-15.697771" y2="-7.503051" />
      <line x1="-22.061732" y1="-12.823501" x2="-20.647518" y2="-13.439327" />
      <line x1="-22.061732" y1="-9.042616" x2="-22.061732" y2="-12.823501" />
      <line x1="-20.647518" y1="-12.207675" x2="-22.061732" y2="-12.823501" />
      <line x1="-24.784093" y1="-10.408123" x2="-23.369879" y2="-11.023949" />
      <line x1="-30.7945" y1="-13.025383" x2="-29.380287" y2="-13.641209" />
      <line x1="-24.784093" y1="-10.408123" x2="-30.7945" y2="-13.025383" />
      <line x1="-30.7945" y1="-16.626226" x2="-29.380287" y2="-17.242052" />
      <line x1="-30.7945" y1="-13.025383" x2="-30.7945" y2="-16.626226" />
      <line x1="-28.380823" y1="-15.575179" x2="-30.7945" y2="-16.626226" />
      <line x1="-24.784093" y1="-10.408123" x2="-24.784093" y2="-11.639775" />
      <line x1="-17.182695" y1="-26.122783" x2="-18.596908" y2="-26.738609" />
      <line x1="-17.182695" y1="-24.322362" x2="-18.596908" y2="-24.938188" />
      <line x1="-29.910617" y1="-18.779929" x2="-31.32483" y2="-19.395755" />
      <line x1="15.202796" y1="-2.660634" x2="34.718943" y2="-11.159032" />
      <path d="M 15.202796,-2.660634 A 4.0,1.7418187439476582 0.0 0,1 9.545942,-2.660634" />
      <path d="M 34.718943,-11.159032 A 4.0,1.7418187439476582 180.0 0,0 35.890516,-12.390684" />
      <line x1="9.545942" y1="-2.660634" x2="-34.718943" y2="-21.935985" />
      <path d="M -35.890516,-23.167637 A 4.0,1.7418187439476582 180.0 0,0 -34.718943,-21.935985" />
      <path d="M -29.468675,-19.74855 A 1.175,0.5116592560346246 0.0 0,1 -27.462825,-19.386752" />
      <path d="M -27.462825,-19.386752 A 1.1750000000000005,0.5116592560346248 0.0 0,1 -29.812825,-19.386752" />
      <path d="M -29.812825,-19.386752 A 1.175,0.5116592560346246 0.0 0,1 -29.468675,-19.74855" />
      <path d="M 27.806974,-8.971597 A 1.175,0.5116592560346246 0.0 0,1 29.812825,-8.609799" />
      <path d="M 29.812825,-8.609799 A 1.1750000000000005,0.5116592560346248 0.0 0,1 27.462825,-8.609799" />
      <path d="M 27.462825,-8.609799 A 1.175,0.5116592560346246 0.0 0,1 27.806974,-8.971597" />
      <path d="M -13.205219,-26.830548 A 1.175,0.5116592560346246 0.0 0,1 -11.199369,-26.468751" />
      <path d="M -11.199369,-26.468751 A 1.175,0.5116592560346246 0.0 0,1 -13.549369,-26.468751" />
      <path d="M -13.549369,-26.468751 A 1.175,0.5116592560346246 0.0 0,1 -13.205219,-26.830548" />
      <line x1="12.374369" y1="7.197644" x2="12.374369" y2="8.097855" />
      <line x1="12.374369" y1="8.097855" x2="14.869385" y2="7.011389" />
      <line x1="14.869385" y1="7.011389" x2="14.869385" y2="7.10141" />
      <line x1="14.869385" y1="7.10141" x2="35.016999" y2="-1.671963" />
      <line x1="35.016999" y1="-1.761984" x2="35.016999" y2="-1.671963" />
      <line x1="35.016999" y1="-1.761984" x2="35.890516" y2="-2.142361" />
      <line x1="37.512015" y1="-3.748661" x2="37.512015" y2="-2.848451" />
      <line x1="35.016999" y1="-2.662195" x2="35.844299" y2="-3.022446" />
      <line x1="36.47837" y1="-3.298556" x2="37.512015" y2="-3.748661" />
      <line x1="35.016999" y1="-2.752216" x2="35.016999" y2="-2.662195" />
      <line x1="14.869385" y1="6.021157" x2="14.869385" y2="6.111178" />
      <line x1="12.374369" y1="7.197644" x2="14.869385" y2="6.111178" />
      <path d="M 35.016999,-2.662195 A 4.0,1.7418187439476582 0.0 0,1 34.718943,-2.517009" />
      <line x1="35.016999" y1="-4.925149" x2="35.016999" y2="-4.835128" />
      <path d="M 34.718943,-4.980313 A 4.0,1.7418187439476582 0.0 0,1 35.016999,-4.835128" />
      <line x1="-9.879352" y1="-24.475475" x2="-9.879352" y2="-24.385454" />
      <line x1="-12.374369" y1="-25.471921" x2="-9.879352" y2="-24.385454" />
      <line x1="-12.374369" y1="-25.471921" x2="-12.374369" y2="-24.57171" />
      <line x1="35.016999" y1="-3.844896" x2="-9.879352" y2="-23.395223" />
      <line x1="35.016999" y1="-4.835128" x2="37.512015" y2="-3.748661" />
      <path d="M -15.202796,-24.255665 A 4.0,1.7418187439476582 0.0 0,1 -14.869385,-24.385454" />
      <line x1="-14.869385" y1="-24.475475" x2="-14.869385" y2="-24.385454" />
      <path d="M -9.879352,-24.385454 A 4.0,1.7418187439476582 0.0 0,1 -9.545942,-24.255665" />
      <line x1="-37.512015" y1="-14.525615" x2="-37.512015" y2="-13.625404" />
      <line x1="-35.016999" y1="-14.62185" x2="-14.869385" y2="-23.395223" />
      <line x1="-14.869385" y1="-24.385454" x2="-12.374369" y2="-25.471921" />
      <line x1="-35.016999" y1="-15.702102" x2="-35.016999" y2="-15.612081" />
      <line x1="-37.512015" y1="-14.525615" x2="-35.016999" y2="-15.612081" />
      <path d="M -35.016999,-15.612081 A 4.0,1.7418187439476582 0.0 0,1 -34.718943,-15.757267" />
      <line x1="-35.016999" y1="-13.52917" x2="-35.016999" y2="-13.439148" />
      <path d="M -34.718943,-13.293963 A 4.0,1.7418187439476582 0.0 0,1 -35.016999,-13.439148" />
      <line x1="-37.512015" y1="-14.525615" x2="-36.47837" y2="-14.07551" />
      <line x1="-35.844299" y1="-13.7994" x2="-35.016999" y2="-13.439148" />
      <line x1="-35.890516" y1="-12.919315" x2="-35.016999" y2="-12.538938" />
      <line x1="-35.016999" y1="-12.538938" x2="-35.016999" y2="-12.448917" />
      <line x1="9.879352" y1="7.10141" x2="-35.016999" y2="-12.448917" />
      <line x1="9.879352" y1="7.011389" x2="9.879352" y2="7.10141" />
      <line x1="9.879352" y1="7.011389" x2="12.374369" y2="8.097855" />
      <line x1="9.879352" y1="6.111178" x2="12.374369" y2="7.197644" />
      <line x1="9.879352" y1="6.021157" x2="9.879352" y2="6.111178" />
      <path d="M 15.202796,5.981388 A 4.0,1.7418187439476582 0.0 0,1 14.869385,6.111178" />
      <path d="M 9.879352,6.111178 A 4.0,1.7418187439476582 0.0 0,1 9.545942,5.981388" />
      <line x1="34.718943" y1="-2.517009" x2="15.202796" y2="5.981388" />
      <line x1="9.545942" y1="5.981388" x2="-34.718943" y2="-13.293963" />
      <line x1="-15.202796" y1="-24.255665" x2="-34.718943" y2="-15.757267" />
      <line x1="34.718943" y1="-4.980313" x2="-9.545942" y2="-24.255665" />
      <path d="M -29.468675,-17.633055 A 1.175,0.5116592560346246 0.0 0,1 -27.462825,-17.271257" />
      <path d="M -27.462825,-17.271257 A 1.1750000000000005,0.5116592560346248 0.0 0,1 -29.812825,-17.271257" />
      <path d="M -29.812825,-17.271257 A 1.175,0.5116592560346246 0.0 0,1 -29.468675,-17.633055" />
      <path d="M 27.806974,-6.856102 A 1.175,0.5116592560346246 0.0 0,1 29.812825,-6.494304" />
      <path d="M 29.812825,-6.494304 A 1.1750000000000005,0.5116592560346248 0.0 0,1 27.462825,-6.494304" />
      <path d="M 27.462825,-6.494304 A 1.175,0.5116592560346246 0.0 0,1 27.806974,-6.856102" />
      <path d="M -13.205219,-24.715053 A 1.175,0.5116592560346246 0.0 0,1 -11.199369,-24.353256" />
      <path d="M -11.199369,-24.353256 A 1.175,0.5116592560346246 0.0 0,1 -11.552256,-23.987693" />
      <path d="M -13.196482,-23.987693 A 1.175,0.5116592560346246 0.0 0,1 -13.549369,-24.353256" />
      <path d="M -13.549369,-24.353256 A 1.175,0.5116592560346246 0.0 0,1 -13.205219,-24.715053" />
      <line x1="13.259854" y1="8.15874" x2="35.791274" y2="-1.652672" />
      <line x1="11.488883" y1="8.15874" x2="-35.791274" y2="-12.429626" />
      <line x1="34.718943" y1="-1.616799" x2="15.202796" y2="6.881599" />
      <path d="M 15.202796,6.881599 A 4.0,1.7418187439476582 0.0 0,1 14.869385,7.011389" />
      <path d="M 9.879352,7.011389 A 4.0,1.7418187439476582 0.0 0,1 9.545942,6.881599" />
      <line x1="9.545942" y1="6.881599" x2="-34.718943" y2="-12.393752" />
      <path d="M -34.718943,-12.393752 A 4.0,1.7418187439476582 0.0 0,1 -35.016999,-12.538938" />
      <path d="M 35.016999,-1.761984 A 4.0,1.7418187439476582 0.0 0,1 34.718943,-1.616799" />
      <path d="M 14.869385,7.10141 A 4.0,1.7418187439476582 0.0 0,1 9.879352,7.10141" />
      <path d="M 35.890516,-2.75843 A 4.0,1.7418187439476582 0.0 0,1 35.016999,-1.671963" />
      <path d="M -35.016999,-12.448917 A 4.0,1.7418187439476582 0.0 0,1 -35.890516,-13.535383" />
      <line x1="-33.892027" y1="-13.175299" x2="-34.718943" y2="-13.535383" />
      <line x1="-12.374369" y1="-23.265433" x2="-34.718943" y2="-13.535383" />
      <line x1="34.718943" y1="-2.75843" x2="-12.374369" y2="-23.265433" />
      <line x1="34.718943" y1="-2.75843" x2="33.892027" y2="-2.398345" />
      <line x1="12.374369" y1="7.644118" x2="38.53732" y2="-3.748661" />
      <line x1="12.374369" y1="7.644118" x2="-38.53732" y2="-14.525615" />
      <line x1="12.374369" y1="7.644118" x2="12.374369" y2="8.544329" />
      <line x1="-34.718943" y1="-13.535383" x2="-34.718943" y2="-12.815215" />
      <line x1="-12.374369" y1="-23.265433" x2="-12.374369" y2="-22.545264" />
      <line x1="34.718943" y1="-2.75843" x2="34.718943" y2="-2.038261" />
      <line x1="-26.037825" y1="-21.367216" x2="-26.037825" y2="-19.386752" />
      <line x1="-31.237825" y1="-21.367216" x2="-31.237825" y2="-19.386752" />
      <line x1="31.237825" y1="-10.590262" x2="31.237825" y2="-8.609799" />
      <line x1="26.037825" y1="-10.590262" x2="26.037825" y2="-8.609799" />
      <line x1="-9.774369" y1="-28.449214" x2="-9.774369" y2="-26.468751" />
      <line x1="-14.974369" y1="-28.449214" x2="-14.974369" y2="-26.468751" />
      <line x1="35.890516" y1="-4.901224" x2="35.890516" y2="-3.838682" />
      <line x1="-35.890516" y1="-15.678178" x2="-35.890516" y2="-14.615636" />
      <line x1="-27.462825" y1="-19.386752" x2="-27.462825" y2="-17.271257" />
      <line x1="-29.812825" y1="-19.386752" x2="-29.812825" y2="-17.271257" />
      <line x1="29.812825" y1="-8.609799" x2="29.812825" y2="-6.494304" />
      <line x1="27.462825" y1="-8.609799" x2="27.462825" y2="-6.494304" />
      <line x1="-11.199369" y1="-26.468751" x2="-11.199369" y2="-24.353256" />
      <line x1="-13.549369" y1="-26.468751" x2="-13.549369" y2="-24.353256" />
      <line x1="34.718943" y1="-11.159032" x2="34.718943" y2="-2.517009" />
      <line x1="34.718943" y1="-5.411391" x2="34.718943" y2="-4.980313" />
      <line x1="-15.202796" y1="-24.686743" x2="-15.202796" y2="-24.255665" />
      <line x1="-9.545942" y1="-24.686743" x2="-9.545942" y2="-24.255665" />
      <line x1="-34.718943" y1="-16.188345" x2="-34.718943" y2="-15.757267" />
      <line x1="-34.718943" y1="-21.935985" x2="-34.718943" y2="-13.293963" />
      <line x1="15.202796" y1="-2.660634" x2="15.202796" y2="5.981388" />
      <line x1="9.545942" y1="-2.660634" x2="9.545942" y2="5.981388" />
      <line x1="15.202796" y1="6.881599" x2="15.202796" y2="7.691789" />
      <line x1="9.545942" y1="6.881599" x2="9.545942" y2="7.691789" />
      <line x1="34.718943" y1="-1.616799" x2="34.718943" y2="-0.806609" />
      <line x1="-34.718943" y1="-12.393752" x2="-34.718943" y2="-11.583563" />
    </g>
    <g fill="none" stroke="rgb(30,107,45)" stroke-width="0.4" id="pcb_proxy_visible">
      <line x1="12.374369" y1="1.887885" x2="33.587572" y2="-7.349504" />
      <line x1="33.587572" y1="-8.609799" x2="33.587572" y2="-7.349504" />
      <line x1="-33.587572" y1="-19.386752" x2="-33.587572" y2="-18.126458" />
      <line x1="12.374369" y1="1.887885" x2="-33.587572" y2="-18.126458" />
      <line x1="33.587572" y1="-7.349504" x2="-12.374369" y2="-27.363846" />
      <line x1="-33.587572" y1="-18.126458" x2="-12.374369" y2="-27.363846" />
      <path d="M 11.402097,-0.690886 A 1.375,0.5987501932320075 0.0 0,1 13.749369,-0.267506" />
      <path d="M 13.749369,-0.267506 A 1.375,0.5987501932320075 0.0 0,1 10.999369,-0.267506" />
      <path d="M 10.999369,-0.267506 A 1.375,0.5987501932320075 0.0 0,1 11.402097,-0.690886" />
      <path d="M -29.610096,-18.549838 A 1.375,0.5987501932320075 0.0 0,1 -27.262825,-18.126458" />
      <path d="M -27.262825,-18.126458 A 1.375,0.5987501932320075 0.0 0,1 -30.012825,-18.126458" />
      <path d="M -30.012825,-18.126458 A 1.375,0.5987501932320075 0.0 0,1 -29.610096,-18.549838" />
      <path d="M 27.665553,-7.772884 A 1.375,0.5987501932320075 0.0 0,1 30.012825,-7.349504" />
      <path d="M 30.012825,-7.349504 A 1.375,0.5987501932320075 0.0 0,1 27.262825,-7.349504" />
      <path d="M 27.262825,-7.349504 A 1.375,0.5987501932320075 0.0 0,1 27.665553,-7.772884" />
      <path d="M -13.34664,-25.631836 A 1.375,0.5987501932320075 0.0 0,1 -10.999369,-25.208456" />
      <path d="M -10.999369,-25.208456 A 1.375,0.5987501932320075 0.0 0,1 -13.749369,-25.208456" />
      <path d="M -13.749369,-25.208456 A 1.375,0.5987501932320075 0.0 0,1 -13.34664,-25.631836" />
      <line x1="33.587572" y1="-8.609799" x2="-12.374369" y2="-28.624141" />
      <line x1="-12.374369" y1="-28.624141" x2="-12.374369" y2="-27.363846" />
      <line x1="-33.587572" y1="-19.386752" x2="-12.374369" y2="-28.624141" />
    </g>
    <g fill="none" stroke="rgb(158,183,158)" stroke-width="0.22" id="pcb_proxy_hidden" stroke-dasharray="1.397 0.6985">
      <line x1="12.374369" y1="0.62759" x2="12.374369" y2="1.887885" />
      <line x1="12.374369" y1="0.62759" x2="33.587572" y2="-8.609799" />
      <line x1="12.374369" y1="0.62759" x2="-33.587572" y2="-19.386752" />
      <path d="M 11.402097,-1.951181 A 1.375,0.5987501932320075 0.0 0,1 13.749369,-1.527801" />
      <path d="M 13.749369,-1.527801 A 1.375,0.5987501932320075 0.0 0,1 10.999369,-1.527801" />
      <path d="M 10.999369,-1.527801 A 1.375,0.5987501932320075 0.0 0,1 11.402097,-1.951181" />
      <path d="M -29.610096,-19.810133 A 1.375,0.5987501932320075 0.0 0,1 -27.262825,-19.386752" />
      <path d="M -27.262825,-19.386752 A 1.375,0.5987501932320075 0.0 0,1 -30.012825,-19.386752" />
      <path d="M -30.012825,-19.386752 A 1.375,0.5987501932320075 0.0 0,1 -29.610096,-19.810133" />
      <path d="M 27.665553,-9.033179 A 1.375,0.5987501932320075 0.0 0,1 30.012825,-8.609799" />
      <path d="M 30.012825,-8.609799 A 1.375,0.5987501932320075 0.0 0,1 27.262825,-8.609799" />
      <path d="M 27.262825,-8.609799 A 1.375,0.5987501932320075 0.0 0,1 27.665553,-9.033179" />
      <path d="M -13.34664,-26.892131 A 1.375,0.5987501932320075 0.0 0,1 -10.999369,-26.468751" />
      <path d="M -10.999369,-26.468751 A 1.375,0.5987501932320075 0.0 0,1 -13.749369,-26.468751" />
      <path d="M -13.749369,-26.468751 A 1.375,0.5987501932320075 0.0 0,1 -13.34664,-26.892131" />
      <line x1="13.749369" y1="-1.527801" x2="13.749369" y2="-0.267506" />
      <line x1="10.999369" y1="-1.527801" x2="10.999369" y2="-0.267506" />
      <line x1="-27.262825" y1="-19.386752" x2="-27.262825" y2="-18.126458" />
      <line x1="-30.012825" y1="-19.386752" x2="-30.012825" y2="-18.126458" />
      <line x1="30.012825" y1="-8.609799" x2="30.012825" y2="-7.349504" />
      <line x1="27.262825" y1="-8.609799" x2="27.262825" y2="-7.349504" />
      <line x1="-10.999369" y1="-26.468751" x2="-10.999369" y2="-25.208456" />
      <line x1="-13.749369" y1="-26.468751" x2="-13.749369" y2="-25.208456" />
    </g>
    <g fill="none" stroke="rgb(127,45,45)" stroke-width="0.4" id="lid_visible">
      <line x1="41.365747" y1="8.764267" x2="41.365747" y2="12.815215" />
      <line x1="39.460364" y1="13.644922" x2="41.365747" y2="12.815215" />
      <line x1="15.62706" y1="25.823668" x2="38.113056" y2="16.032036" />
      <line x1="9.121677" y1="25.823668" x2="-38.113056" y2="5.255082" />
      <line x1="-39.460364" y1="2.867969" x2="-41.365747" y2="2.038261" />
      <line x1="-41.365747" y1="-2.012687" x2="-41.365747" y2="2.038261" />
      <line x1="41.365747" y1="8.764267" x2="-12.374369" y2="-14.637118" />
      <line x1="-41.365747" y1="-2.012687" x2="-12.374369" y2="-14.637118" />
      <line x1="41.365747" y1="12.815215" x2="38.113056" y2="11.398815" />
      <line x1="38.113056" y1="11.398815" x2="38.113056" y2="13.199236" />
      <line x1="38.113056" y1="13.199236" x2="-9.121677" y2="-7.369349" />
      <line x1="-9.121677" y1="-9.169771" x2="-9.121677" y2="-7.369349" />
      <line x1="-9.121677" y1="-9.169771" x2="-12.374369" y2="-10.58617" />
      <line x1="-12.374369" y1="-14.637118" x2="-12.374369" y2="-10.58617" />
      <path d="M 39.460364,12.815215 A 4.6,2.003091555539807 180.0 0,0 38.113056,11.398815" />
      <path d="M 38.113056,16.032036 A 4.6,2.003091555539807 180.0 0,0 39.460364,14.615636" />
      <path d="M 39.460364,14.615636 A 4.6,2.003091555539807 180.0 0,0 38.113056,13.199236" />
      <path d="M 15.62706,25.823668 A 4.6,2.003091555539807 0.0 0,1 9.121677,25.823668" />
      <path d="M -38.113056,2.422283 A 4.6,2.003091555539807 180.0 0,0 -39.460364,3.838682" />
      <path d="M -39.460364,3.838682 A 4.6,2.003091555539807 180.0 0,0 -38.113056,5.255082" />
      <path d="M -15.62706,-7.369349 A 4.6,2.003091555539807 0.0 0,1 -9.121677,-7.369349" />
      <line x1="-38.113056" y1="2.422283" x2="-15.62706" y2="-7.369349" />
      <path d="M -1.343503,11.228593 A 1.2,0.5225456231842974 0.0 0,1 0.705025,11.598089" />
      <path d="M 0.705025,11.598089 A 1.2,0.5225456231842974 0.0 0,1 -1.694975,11.598089" />
      <path d="M -1.694975,11.598089 A 1.2,0.5225456231842974 0.0 0,1 -1.343503,11.228593" />
      <path d="M 4.596194,11.228593 A 1.2,0.5225456231842974 0.0 0,1 6.644722,11.598089" />
      <path d="M 6.644722,11.598089 A 1.2,0.5225456231842974 0.0 0,1 4.244722,11.598089" />
      <path d="M 4.244722,11.598089 A 1.2,0.5225456231842974 0.0 0,1 4.596194,11.228593" />
      <path d="M 1.626346,9.935359 A 1.2,0.5225456231842974 0.0 0,1 3.674874,10.304855" />
      <path d="M 3.674874,10.304855 A 1.2,0.5225456231842974 0.0 0,1 1.274874,10.304855" />
      <path d="M 1.274874,10.304855 A 1.2,0.5225456231842974 0.0 0,1 1.626346,9.935359" />
      <path d="M 4.596194,8.642125 A 1.2,0.5225456231842974 0.0 0,1 6.644722,9.01162" />
      <path d="M 6.644722,9.01162 A 1.2,0.5225456231842974 0.0 0,1 4.244722,9.01162" />
      <path d="M 4.244722,9.01162 A 1.2,0.5225456231842974 0.0 0,1 4.596194,8.642125" />
      <path d="M -1.343503,8.642125 A 1.2,0.5225456231842974 0.0 0,1 0.705025,9.01162" />
      <path d="M 0.705025,9.01162 A 1.2,0.5225456231842974 0.0 0,1 -1.694975,9.01162" />
      <path d="M -1.694975,9.01162 A 1.2,0.5225456231842974 0.0 0,1 -1.343503,8.642125" />
      <line x1="-12.551145" y1="-1.31886" x2="24.218407" y2="14.692614" />
      <line x1="-12.551145" y1="-1.31886" x2="-7.954951" y2="-3.320294" />
      <line x1="24.218407" y1="14.692614" x2="28.814601" y2="12.69118" />
      <line x1="-7.954951" y1="-3.320294" x2="28.814601" y2="12.69118" />
      <path d="M -38.113056,0.621861 A 4.6,2.003091555539807 180.0 0,0 -39.460364,2.038261" />
      <line x1="-38.113056" y1="0.621861" x2="-38.113056" y2="2.422283" />
      <line x1="-41.365747" y1="2.038261" x2="-38.113056" y2="0.621861" />
      <line x1="-15.62706" y1="-9.169771" x2="-12.374369" y2="-10.58617" />
      <line x1="-15.62706" y1="-9.169771" x2="-15.62706" y2="-7.369349" />
      <path d="M -15.62706,-9.169771 A 4.6,2.003091555539807 0.0 0,1 -9.121677,-9.169771" />
      <line x1="24.218407" y1="12.937203" x2="24.218407" y2="14.692614" />
      <line x1="-10.535539" y1="-2.196565" x2="24.218407" y2="12.937203" />
      <line x1="24.218407" y1="12.937203" x2="26.798995" y2="11.813475" />
      <line x1="39.460364" y1="12.815215" x2="39.460364" y2="14.615636" />
      <line x1="-39.460364" y1="2.038261" x2="-39.460364" y2="3.838682" />
    </g>
    <g fill="none" stroke="rgb(191,158,158)" stroke-width="0.22" id="lid_hidden" stroke-dasharray="1.397 0.6985">
      <line x1="12.374369" y1="21.388698" x2="12.374369" y2="25.439646" />
      <line x1="12.374369" y1="21.388698" x2="41.365747" y2="8.764267" />
      <line x1="38.113056" y1="14.231614" x2="39.460364" y2="13.644922" />
      <line x1="38.113056" y1="14.231614" x2="38.113056" y2="16.032036" />
      <line x1="15.62706" y1="24.023246" x2="15.62706" y2="25.823668" />
      <line x1="12.374369" y1="25.439646" x2="15.62706" y2="24.023246" />
      <line x1="12.374369" y1="21.388698" x2="-41.365747" y2="-2.012687" />
      <line x1="12.374369" y1="25.439646" x2="9.121677" y2="24.023246" />
      <line x1="9.121677" y1="24.023246" x2="9.121677" y2="25.823668" />
      <line x1="-38.113056" y1="3.454661" x2="-38.113056" y2="5.255082" />
      <line x1="-38.113056" y1="3.454661" x2="-39.460364" y2="2.867969" />
      <line x1="-38.820162" y1="-2.012687" x2="12.374369" y2="20.280212" />
      <line x1="-38.820162" y1="-2.012687" x2="-12.374369" y2="-13.528632" />
      <line x1="-12.374369" y1="-13.528632" x2="38.820162" y2="8.764267" />
      <line x1="12.374369" y1="20.280212" x2="38.820162" y2="8.764267" />
      <path d="M 38.113056,14.231614 A 4.6,2.003091555539807 180.0 0,0 39.460364,12.815215" />
      <path d="M 15.62706,24.023246 A 4.6,2.003091555539807 0.0 0,1 9.121677,24.023246" />
      <path d="M -39.460364,2.038261 A 4.6,2.003091555539807 180.0 0,0 -38.113056,3.454661" />
      <line x1="-38.820162" y1="-2.012687" x2="-38.820162" y2="2.083272" />
      <line x1="12.374369" y1="24.37617" x2="-38.820162" y2="2.083272" />
      <line x1="12.374369" y1="20.280212" x2="12.374369" y2="24.37617" />
      <line x1="-2.983991" y1="15.797858" x2="-23.461803" y2="6.880699" />
      <line x1="-23.461803" y1="5.980488" x2="-23.461803" y2="6.880699" />
      <line x1="-2.983991" y1="14.897647" x2="-23.461803" y2="5.980488" />
      <line x1="-2.983991" y1="14.897647" x2="-2.983991" y2="15.797858" />
      <line x1="-38.820162" y1="2.083272" x2="-12.374369" y2="-9.432673" />
      <line x1="-12.374369" y1="-13.528632" x2="-12.374369" y2="-9.432673" />
      <line x1="-30.886424" y1="-4.162165" x2="-30.886424" y2="-3.261954" />
      <line x1="-30.886424" y1="-4.162165" x2="-20.308107" y2="-8.768543" />
      <line x1="-20.308107" y1="-8.768543" x2="-20.308107" y2="-7.868332" />
      <line x1="-30.886424" y1="-3.261954" x2="-20.308107" y2="-7.868332" />
      <line x1="38.820162" y1="12.860225" x2="-12.374369" y2="-9.432673" />
      <line x1="38.820162" y1="8.764267" x2="38.820162" y2="12.860225" />
      <line x1="23.461803" y1="4.281913" x2="2.983991" y2="-4.635246" />
      <line x1="2.983991" y1="-5.535457" x2="2.983991" y2="-4.635246" />
      <line x1="23.461803" y1="3.381703" x2="2.983991" y2="-5.535457" />
      <line x1="23.461803" y1="3.381703" x2="23.461803" y2="4.281913" />
      <line x1="12.374369" y1="24.37617" x2="38.820162" y2="12.860225" />
      <line x1="20.308107" y1="18.130734" x2="20.308107" y2="19.030944" />
      <line x1="20.308107" y1="18.130734" x2="30.886424" y2="13.524356" />
      <line x1="30.886424" y1="13.524356" x2="30.886424" y2="14.424566" />
      <line x1="20.308107" y1="19.030944" x2="30.886424" y2="14.424566" />
      <path d="M -1.343503,9.473183 A 1.2,0.5225456231842974 0.0 0,1 0.705025,9.842678" />
      <path d="M 0.705025,9.842678 A 1.2,0.5225456231842974 0.0 0,1 -1.694975,9.842678" />
      <path d="M -1.694975,9.842678 A 1.2,0.5225456231842974 0.0 0,1 -1.343503,9.473183" />
      <path d="M 4.596194,9.473183 A 1.2,0.5225456231842974 0.0 0,1 6.644722,9.842678" />
      <path d="M 6.644722,9.842678 A 1.2,0.5225456231842974 0.0 0,1 4.244722,9.842678" />
      <path d="M 4.244722,9.842678 A 1.2,0.5225456231842974 0.0 0,1 4.596194,9.473183" />
      <path d="M 1.626346,8.179948 A 1.2,0.5225456231842974 0.0 0,1 3.674874,8.549444" />
      <path d="M 3.674874,8.549444 A 1.2,0.5225456231842974 0.0 0,1 1.274874,8.549444" />
      <path d="M 1.274874,8.549444 A 1.2,0.5225456231842974 0.0 0,1 1.626346,8.179948" />
      <path d="M 4.596194,6.886714 A 1.2,0.5225456231842974 0.0 0,1 6.644722,7.256209" />
      <path d="M 6.644722,7.256209 A 1.2,0.5225456231842974 0.0 0,1 4.244722,7.256209" />
      <path d="M 4.244722,7.256209 A 1.2,0.5225456231842974 0.0 0,1 4.596194,6.886714" />
      <path d="M -1.343503,6.886714 A 1.2,0.5225456231842974 0.0 0,1 0.705025,7.256209" />
      <path d="M 0.705025,7.256209 A 1.2,0.5225456231842974 0.0 0,1 -1.694975,7.256209" />
      <path d="M -1.694975,7.256209 A 1.2,0.5225456231842974 0.0 0,1 -1.343503,6.886714" />
      <line x1="-12.551145" y1="-3.074271" x2="-12.551145" y2="-1.31886" />
      <line x1="-12.551145" y1="-3.074271" x2="-10.535539" y2="-2.196565" />
      <line x1="-7.954951" y1="-5.075705" x2="-7.954951" y2="-3.320294" />
      <line x1="-12.551145" y1="-3.074271" x2="-7.954951" y2="-5.075705" />
      <line x1="28.814601" y1="10.935769" x2="28.814601" y2="12.69118" />
      <line x1="26.798995" y1="11.813475" x2="28.814601" y2="10.935769" />
      <line x1="-7.954951" y1="-5.075705" x2="28.814601" y2="10.935769" />
      <line x1="-2.983991" y1="15.797858" x2="-2.38295" y2="15.536132" />
      <line x1="-2.38295" y1="15.536132" x2="-22.860762" y2="6.618973" />
      <line x1="-23.461803" y1="6.880699" x2="-22.860762" y2="6.618973" />
      <line x1="-22.860762" y1="5.718762" x2="-22.860762" y2="6.618973" />
      <line x1="-23.461803" y1="5.980488" x2="-22.860762" y2="5.718762" />
      <line x1="-2.983991" y1="14.897647" x2="-2.38295" y2="14.635921" />
      <line x1="-2.38295" y1="14.635921" x2="-22.860762" y2="5.718762" />
      <line x1="-2.38295" y1="14.635921" x2="-2.38295" y2="15.536132" />
      <line x1="-30.285383" y1="-3.900439" x2="-30.886424" y2="-4.162165" />
      <line x1="-30.285383" y1="-3.000228" x2="-30.886424" y2="-3.261954" />
      <line x1="-30.285383" y1="-3.900439" x2="-30.285383" y2="-3.000228" />
      <line x1="-30.285383" y1="-3.900439" x2="-19.707066" y2="-8.506817" />
      <line x1="-19.707066" y1="-8.506817" x2="-20.308107" y2="-8.768543" />
      <line x1="-19.707066" y1="-7.606606" x2="-20.308107" y2="-7.868332" />
      <line x1="-19.707066" y1="-8.506817" x2="-19.707066" y2="-7.606606" />
      <line x1="-30.285383" y1="-3.000228" x2="-19.707066" y2="-7.606606" />
      <line x1="22.860762" y1="4.543639" x2="23.461803" y2="4.281913" />
      <line x1="2.38295" y1="-4.37352" x2="2.983991" y2="-4.635246" />
      <line x1="22.860762" y1="4.543639" x2="2.38295" y2="-4.37352" />
      <line x1="2.38295" y1="-5.273731" x2="2.38295" y2="-4.37352" />
      <line x1="2.38295" y1="-5.273731" x2="2.983991" y2="-5.535457" />
      <line x1="22.860762" y1="3.643429" x2="23.461803" y2="3.381703" />
      <line x1="22.860762" y1="3.643429" x2="2.38295" y2="-5.273731" />
      <line x1="22.860762" y1="3.643429" x2="22.860762" y2="4.543639" />
      <line x1="20.308107" y1="18.130734" x2="19.707066" y2="17.869008" />
      <line x1="19.707066" y1="17.869008" x2="19.707066" y2="18.769218" />
      <line x1="20.308107" y1="19.030944" x2="19.707066" y2="18.769218" />
      <line x1="30.886424" y1="13.524356" x2="30.285383" y2="13.26263" />
      <line x1="19.707066" y1="17.869008" x2="30.285383" y2="13.26263" />
      <line x1="30.285383" y1="13.26263" x2="30.285383" y2="14.16284" />
      <line x1="30.886424" y1="14.424566" x2="30.285383" y2="14.16284" />
      <line x1="19.707066" y1="18.769218" x2="30.285383" y2="14.16284" />
      <line x1="0.705025" y1="9.842678" x2="0.705025" y2="11.598089" />
      <line x1="-1.694975" y1="9.842678" x2="-1.694975" y2="11.598089" />
      <line x1="6.644722" y1="9.842678" x2="6.644722" y2="11.598089" />
      <line x1="4.244722" y1="9.842678" x2="4.244722" y2="11.598089" />
      <line x1="3.674874" y1="8.549444" x2="3.674874" y2="10.304855" />
      <line x1="1.274874" y1="8.549444" x2="1.274874" y2="10.304855" />
      <line x1="6.644722" y1="7.256209" x2="6.644722" y2="9.01162" />
      <line x1="4.244722" y1="7.256209" x2="4.244722" y2="9.01162" />
      <line x1="0.705025" y1="7.256209" x2="0.705025" y2="9.01162" />
      <line x1="-1.694975" y1="7.256209" x2="-1.694975" y2="9.01162" />
    </g>
  </g>
</svg>