<?xml version='1.0' encoding='utf-8'?>
<svg width="89.151594mm" height="68.069511mm" viewBox="-44.575797 -31.043336 89.151594 68.069511" version="1.1" xmlns="http://www.w3.org/2000/svg">
  <g transform="scale(1,-1)" stroke-linecap="round">
    <g fill="none" stroke="rgb(30,56,76)" stroke-width="0.4" id="base_visible">
      <path d="M 11.543518,-0.46273 A 1.175,0.5157801437227496 0.0 0,1 13.549369,-0.098019" />
      <path d="M 11.199369,-0.098019 A 1.175,0.5157801437227496 0.0 0,1 11.543518,-0.46273" />
      <path d="M 11.543518,1.648758 A 1.175,0.5157801437227496 0.0 0,1 13.549369,2.01347" />
      <path d="M 13.549369,2.01347 A 1.175,0.5157801437227496 0.0 0,1 11.199369,2.01347" />
      <path d="M 11.199369,2.01347 A 1.175,0.5157801437227496 0.0 0,1 11.543518,1.648758" />
      <path d="M 10.535891,-0.90504 A 2.6,1.1413007435567226 0.0 0,1 14.974369,-0.098019" />
      <path d="M 14.974369,-0.098019 A 2.6,1.1413007435567226 0.0 0,1 13.549369,0.920086" />
      <path d="M 11.199369,0.920086 A 2.6,1.1413007435567226 0.0 0,1 9.774369,-0.098019" />
      <path d="M 9.774369,-0.098019 A 2.6,1.1413007435567226 0.0 0,1 10.535891,-0.90504" />
      <path d="M 10.535891,-2.881753 A 2.6,1.1413007435567226 0.0 0,1 14.974369,-2.074731" />
      <path d="M 9.774369,-2.074731 A 2.6,1.1413007435567226 0.0 0,1 10.535891,-2.881753" />
      <line x1="14.974369" y1="-0.546653" x2="27.247802" y2="-5.934222" />
      <line x1="9.774369" y1="-0.546653" x2="-27.247802" y2="-16.797973" />
      <line x1="6.22254" y1="-6.9479" x2="7.919596" y2="-6.202957" />
      <line x1="6.22254" y1="-6.9479" x2="15.58054" y2="-11.055704" />
      <line x1="7.919596" y1="-6.202957" x2="17.277596" y2="-10.310761" />
      <line x1="-2.262742" y1="-10.672614" x2="-0.565685" y2="-9.927671" />
      <line x1="-2.262742" y1="-10.672614" x2="7.095258" y2="-14.780419" />
      <line x1="-0.565685" y1="-9.927671" x2="8.792315" y2="-14.035476" />
      <path d="M -27.345591,-21.067874 A 2.6,1.1413007435567226 0.0 0,1 -26.654811,-20.815661" />
      <line x1="-10.748023" y1="-14.397329" x2="-9.050967" y2="-13.652386" />
      <line x1="-10.748023" y1="-14.397329" x2="-1.390023" y2="-18.505134" />
      <line x1="-9.050967" y1="-13.652386" x2="0.307033" y2="-17.760191" />
      <line x1="-19.233304" y1="-18.122043" x2="-17.536248" y2="-17.3771" />
      <line x1="-19.233304" y1="-18.122043" x2="-9.875304" y2="-22.229848" />
      <line x1="-17.536248" y1="-17.3771" x2="-8.178248" y2="-21.484905" />
      <line x1="12.374369" y1="2.52925" x2="12.374369" y2="7.153739" />
      <line x1="12.374369" y1="7.153739" x2="34.718943" y2="-2.654676" />
      <line x1="27.476759" y1="-5.046369" x2="18.596908" y2="-1.148454" />
      <line x1="28.496403" y1="-4.613536" x2="28.496403" y2="-3.33754" />
      <line x1="28.496403" y1="-3.33754" x2="18.596908" y2="1.00796" />
      <line x1="18.596908" y1="-1.148454" x2="18.596908" y2="1.00796" />
      <line x1="-12.374369" y1="-23.326842" x2="34.718943" y2="-2.654676" />
      <line x1="-34.718943" y1="-13.518427" x2="12.374369" y2="7.153739" />
      <line x1="6.22254" y1="2.836011" x2="-0.141421" y2="0.042475" />
      <line x1="6.22254" y1="2.836011" x2="6.22254" y2="-0.937713" />
      <line x1="-0.141421" y1="0.042475" x2="-0.141421" y2="-3.731249" />
      <line x1="6.22254" y1="-0.937713" x2="-0.141421" y2="-3.731249" />
      <line x1="-23.369879" y1="-10.333633" x2="-29.380287" y2="-12.971972" />
      <line x1="-29.380287" y1="-12.971972" x2="-29.380287" y2="-15.589555" />
      <line x1="-23.369879" y1="-13.927655" x2="-27.571982" y2="-15.772218" />
      <line x1="-23.369879" y1="-10.333633" x2="-23.369879" y2="-13.927655" />
      <line x1="-14.283557" y1="-6.165383" x2="-20.647518" y2="-8.958919" />
      <line x1="-14.283557" y1="-6.165383" x2="-14.283557" y2="-9.939107" />
      <line x1="-20.647518" y1="-8.958919" x2="-20.647518" y2="-12.732643" />
      <line x1="-14.283557" y1="-9.939107" x2="-20.647518" y2="-12.732643" />
      <line x1="-34.718943" y1="-13.518427" x2="-12.374369" y2="-23.326842" />
      <line x1="-18.596908" y1="-24.908212" x2="-29.910617" y2="-19.941926" />
      <line x1="-29.910617" y1="-19.941926" x2="-29.910617" y2="-19.386486" />
      <line x1="7.919596" y1="-7.692843" x2="7.919596" y2="-6.202957" />
      <line x1="-0.565685" y1="-11.417557" x2="-0.565685" y2="-9.927671" />
      <line x1="-9.050967" y1="-15.142272" x2="-9.050967" y2="-13.652386" />
      <line x1="-17.536248" y1="-18.866986" x2="-17.536248" y2="-17.3771" />
      <line x1="15.202796" y1="7.153739" x2="34.718943" y2="-1.413104" />
      <path d="M 15.202796,7.153739 A 4.0,1.7558472977795732 0.0 0,1 9.545942,7.153739" />
      <path d="M 34.718943,-1.413104 A 4.0,1.7558472977795732 180.0 0,0 35.890516,-2.654676" />
      <path d="M 35.890516,-2.654676 A 4.0,1.7558472977795732 180.0 0,0 34.718943,-3.896248" />
      <line x1="9.545942" y1="7.153739" x2="-34.718943" y2="-12.276855" />
      <line x1="34.718943" y1="-3.896248" x2="-9.545942" y2="-23.326842" />
      <path d="M -34.718943,-14.759998 A 4.0,1.7558472977795732 180.0 0,0 -35.890516,-13.518427" />
      <path d="M -35.890516,-13.518427 A 4.0,1.7558472977795732 180.0 0,0 -34.718943,-12.276855" />
      <path d="M -15.202796,-23.326842 A 4.0,1.7558472977795732 0.0 0,1 -9.545942,-23.326842" />
      <line x1="-34.718943" y1="-14.759998" x2="-15.202796" y2="-23.326842" />
      <line x1="20.011122" y1="-0.527668" x2="18.596908" y2="-1.148454" />
      <line x1="28.496403" y1="-4.252382" x2="20.011122" y2="-0.527668" />
      <line x1="20.011122" y1="-0.527668" x2="20.011122" y2="0.387174" />
      <line x1="4.808326" y1="-0.316927" x2="6.22254" y2="-0.937713" />
      <line x1="4.808326" y1="2.215225" x2="4.808326" y2="-0.316927" />
      <line x1="4.808326" y1="-0.316927" x2="-0.141421" y2="-2.489678" />
      <line x1="-24.784093" y1="-13.30687" x2="-23.369879" y2="-13.927655" />
      <line x1="-24.784093" y1="-13.30687" x2="-29.380287" y2="-15.324423" />
      <line x1="-24.784093" y1="-10.954418" x2="-24.784093" y2="-13.30687" />
      <line x1="-15.697771" y1="-9.318321" x2="-14.283557" y2="-9.939107" />
      <line x1="-15.697771" y1="-6.786169" x2="-15.697771" y2="-9.318321" />
      <line x1="-15.697771" y1="-9.318321" x2="-20.647518" y2="-11.491071" />
      <line x1="-18.596908" y1="-26.149784" x2="-31.32483" y2="-20.562712" />
      <line x1="-29.910617" y1="-19.941926" x2="-31.32483" y2="-20.562712" />
      <line x1="-18.596908" y1="-26.149784" x2="-18.596908" y2="-24.352772" />
      <line x1="-18.596908" y1="-24.352772" x2="-31.32483" y2="-18.7657" />
      <line x1="-31.32483" y1="-20.562712" x2="-31.32483" y2="-18.7657" />
      <path d="M 35.890516,-11.639733 A 4.0,1.7558472977795732 180.0 0,0 34.718943,-12.881305" />
      <line x1="34.718943" y1="-12.881305" x2="-9.545942" y2="-32.311899" />
      <path d="M -34.718943,-23.745056 A 4.0,1.7558472977795732 180.0 0,0 -35.890516,-22.503484" />
      <path d="M -15.202796,-32.311899 A 4.0,1.7558472977795732 0.0 0,1 -9.545942,-32.311899" />
      <line x1="-34.718943" y1="-23.745056" x2="-15.202796" y2="-32.311899" />
      <path d="M 34.718943,-4.704903 A 4.0,1.7558472977795732 0.0 0,1 35.822405,-3.785975" />
      <line x1="35.822405" y1="-4.684481" x2="35.822405" y2="-3.785975" />
      <path d="M 34.718943,-5.603408 A 4.0,1.7558472977795732 0.0 0,1 35.822405,-4.684481" />
      <line x1="34.718943" y1="-4.704903" x2="-9.545942" y2="-24.135497" />
      <path d="M -35.822405,-15.548232 A 4.0,1.7558472977795732 0.0 0,1 -34.718943,-16.467159" />
      <line x1="-35.822405" y1="-15.548232" x2="-35.822405" y2="-14.649726" />
      <path d="M -35.822405,-14.649726 A 4.0,1.7558472977795732 0.0 0,1 -34.718943,-15.568654" />
      <path d="M -15.202796,-25.034003 A 4.0,1.7558472977795732 0.0 0,1 -13.109384,-25.518381" />
      <line x1="-13.109384" y1="-25.518381" x2="-13.109384" y2="-24.619875" />
      <path d="M -15.202796,-24.135497 A 4.0,1.7558472977795732 0.0 0,1 -13.109384,-24.619875" />
      <path d="M -11.639353,-24.619875 A 4.0,1.7558472977795732 0.0 0,1 -9.545942,-24.135497" />
      <line x1="-11.639353" y1="-25.518381" x2="-11.639353" y2="-24.619875" />
      <path d="M -11.639353,-25.518381 A 4.0,1.7558472977795732 0.0 0,1 -9.545942,-25.034003" />
      <line x1="-15.202796" y1="-24.135497" x2="-34.718943" y2="-15.568654" />
      <line x1="-15.202796" y1="-25.034003" x2="-34.718943" y2="-16.467159" />
      <line x1="34.718943" y1="-5.603408" x2="-9.545942" y2="-25.034003" />
      <path d="M -28.064415,-16.439511 A 1.175,0.5157801437227496 0.0 0,1 -27.462825,-15.989318" />
      <path d="M -27.462825,-15.989318 A 1.175,0.5157801437227496 0.0 0,1 -29.66341,-15.737613" />
      <path d="M 27.806974,-5.490278 A 1.175,0.5157801437227496 0.0 0,1 28.064415,-5.57576" />
      <path d="M 29.66341,-4.873862 A 1.175,0.5157801437227496 0.0 0,1 27.462825,-5.125567" />
      <path d="M 27.462825,-5.125567 A 1.175,0.5157801437227496 0.0 0,1 27.806974,-5.490278" />
      <path d="M -11.348783,-22.876649 A 1.175,0.5157801437227496 0.0 0,1 -13.399955,-22.876649" />
      <line x1="35.822405" y1="-4.684481" x2="-11.639353" y2="-25.518381" />
      <line x1="-35.822405" y1="-15.548232" x2="-13.109384" y2="-25.518381" />
      <line x1="34.718943" y1="-4.704903" x2="34.718943" y2="-3.896248" />
      <line x1="34.718943" y1="-12.881305" x2="34.718943" y2="-5.603408" />
      <line x1="-9.545942" y1="-24.135497" x2="-9.545942" y2="-23.326842" />
      <line x1="-34.718943" y1="-23.745056" x2="-34.718943" y2="-16.467159" />
      <line x1="-34.718943" y1="-15.568654" x2="-34.718943" y2="-14.759998" />
      <line x1="-15.202796" y1="-32.311899" x2="-15.202796" y2="-25.034003" />
      <line x1="-15.202796" y1="-24.135497" x2="-15.202796" y2="-23.326842" />
      <line x1="-9.545942" y1="-32.311899" x2="-9.545942" y2="-25.034003" />
      <line x1="13.549369" y1="-0.098019" x2="13.549369" y2="2.01347" />
      <line x1="11.199369" y1="-0.098019" x2="11.199369" y2="2.01347" />
      <line x1="14.974369" y1="-2.074731" x2="14.974369" y2="-0.098019" />
      <line x1="9.774369" y1="-2.074731" x2="9.774369" y2="-0.098019" />
      <line x1="35.890516" y1="-11.639733" x2="35.890516" y2="-2.654676" />
      <line x1="-35.890516" y1="-22.503484" x2="-35.890516" y2="-13.518427" />
      <line x1="-27.462825" y1="-16.703586" x2="-27.462825" y2="-15.989318" />
      <line x1="27.462825" y1="-5.839835" x2="27.462825" y2="-5.125567" />
    </g>
    <g fill="none" stroke="rgb(158,173,183)" stroke-width="0.22" id="base_hidden" stroke-dasharray="1.397 0.6985">
      <path d="M 13.549369,-0.098019 A 1.175,0.5157801437227496 0.0 0,1 11.199369,-0.098019" />
      <path d="M 13.549369,0.920086 A 2.6,1.1413007435567226 0.0 0,1 11.199369,0.920086" />
      <path d="M 14.974369,-2.074731 A 2.6,1.1413007435567226 0.0 0,1 9.774369,-2.074731" />
      <line x1="12.374369" y1="0.594647" x2="14.974369" y2="-0.546653" />
      <line x1="27.247802" y1="-5.934222" x2="34.718943" y2="-9.213768" />
      <line x1="34.718943" y1="-9.213768" x2="-12.374369" y2="-29.885934" />
      <line x1="12.374369" y1="0.594647" x2="9.774369" y2="-0.546653" />
      <line x1="-27.247802" y1="-16.797973" x2="-34.718943" y2="-20.077519" />
      <line x1="-34.718943" y1="-20.077519" x2="-12.374369" y2="-29.885934" />
      <line x1="15.58054" y1="-11.055704" x2="17.536248" y2="-11.914186" />
      <line x1="17.277596" y1="-10.310761" x2="19.233304" y2="-11.169243" />
      <line x1="17.536248" y1="-11.914186" x2="19.233304" y2="-11.169243" />
      <line x1="7.095258" y1="-14.780419" x2="9.050967" y2="-15.6389" />
      <line x1="8.792315" y1="-14.035476" x2="10.748023" y2="-14.893957" />
      <line x1="9.050967" y1="-15.6389" x2="10.748023" y2="-14.893957" />
      <path d="M -30.476302,-20.88454 A 2.6,1.1413007435567226 0.0 0,1 -27.345591,-21.067874" />
      <path d="M -26.654811,-20.815661 A 2.6,1.1413007435567226 0.0 0,1 -26.037825,-20.077519" />
      <path d="M -26.037825,-20.077519 A 2.6,1.1413007435567226 0.0 0,1 -31.237825,-20.077519" />
      <path d="M -31.237825,-20.077519 A 2.6,1.1413007435567226 0.0 0,1 -30.476302,-20.88454" />
      <line x1="-1.390023" y1="-18.505134" x2="0.565685" y2="-19.363615" />
      <line x1="0.307033" y1="-17.760191" x2="2.262742" y2="-18.618672" />
      <line x1="0.565685" y1="-19.363615" x2="2.262742" y2="-18.618672" />
      <line x1="-9.875304" y1="-22.229848" x2="-7.919596" y2="-23.08833" />
      <line x1="-7.919596" y1="-23.08833" x2="-6.22254" y2="-22.343387" />
      <line x1="-8.178248" y1="-21.484905" x2="-6.22254" y2="-22.343387" />
      <path d="M 26.799347,-10.020789 A 2.6,1.1413007435567226 0.0 0,1 31.237825,-9.213768" />
      <path d="M 31.237825,-9.213768 A 2.6,1.1413007435567226 0.0 0,1 26.037825,-9.213768" />
      <path d="M 26.037825,-9.213768 A 2.6,1.1413007435567226 0.0 0,1 26.799347,-10.020789" />
      <path d="M -14.212846,-28.023576 A 2.6,1.1413007435567226 0.0 0,1 -9.774369,-27.216555" />
      <path d="M -9.774369,-27.216555 A 2.6,1.1413007435567226 0.0 0,1 -14.974369,-27.216555" />
      <path d="M -14.974369,-27.216555 A 2.6,1.1413007435567226 0.0 0,1 -14.212846,-28.023576" />
      <line x1="12.374369" y1="0.594647" x2="12.374369" y2="2.52925" />
      <line x1="34.718943" y1="-9.213768" x2="34.718943" y2="-2.654676" />
      <line x1="28.496403" y1="-5.493954" x2="27.476759" y2="-5.046369" />
      <line x1="28.496403" y1="-5.493954" x2="28.496403" y2="-4.613536" />
      <line x1="-12.374369" y1="-29.885934" x2="-12.374369" y2="-23.326842" />
      <line x1="-34.718943" y1="-20.077519" x2="-34.718943" y2="-13.518427" />
      <line x1="-29.380287" y1="-15.589555" x2="-29.380287" y2="-16.565995" />
      <line x1="-27.571982" y1="-15.772218" x2="-29.380287" y2="-16.565995" />
      <line x1="-17.182695" y1="-25.528998" x2="-18.596908" y2="-24.908212" />
      <line x1="-17.182695" y1="-25.528998" x2="-17.182695" y2="-23.731986" />
      <line x1="-17.182695" y1="-23.731986" x2="-29.910617" y2="-18.144914" />
      <line x1="-29.910617" y1="-19.386486" x2="-29.910617" y2="-18.144914" />
      <line x1="6.22254" y1="-9.373865" x2="6.22254" y2="-6.9479" />
      <line x1="7.919596" y1="-8.628922" x2="7.919596" y2="-7.692843" />
      <line x1="6.22254" y1="-9.373865" x2="7.919596" y2="-8.628922" />
      <line x1="17.536248" y1="-14.340151" x2="17.536248" y2="-11.914186" />
      <line x1="6.22254" y1="-9.373865" x2="17.536248" y2="-14.340151" />
      <line x1="19.233304" y1="-13.595208" x2="19.233304" y2="-11.169243" />
      <line x1="7.919596" y1="-8.628922" x2="19.233304" y2="-13.595208" />
      <line x1="17.536248" y1="-14.340151" x2="19.233304" y2="-13.595208" />
      <line x1="-2.262742" y1="-13.09858" x2="-2.262742" y2="-10.672614" />
      <line x1="-0.565685" y1="-12.353637" x2="-0.565685" y2="-11.417557" />
      <line x1="-2.262742" y1="-13.09858" x2="-0.565685" y2="-12.353637" />
      <line x1="9.050967" y1="-18.064866" x2="9.050967" y2="-15.6389" />
      <line x1="-2.262742" y1="-13.09858" x2="9.050967" y2="-18.064866" />
      <line x1="10.748023" y1="-17.319923" x2="10.748023" y2="-14.893957" />
      <line x1="-0.565685" y1="-12.353637" x2="10.748023" y2="-17.319923" />
      <line x1="9.050967" y1="-18.064866" x2="10.748023" y2="-17.319923" />
      <path d="M -30.476302,-18.907827 A 2.6,1.1413007435567226 0.0 0,1 -26.037825,-18.100806" />
      <path d="M -26.037825,-18.100806 A 2.6,1.1413007435567226 0.0 0,1 -31.237825,-18.100806" />
      <path d="M -31.237825,-18.100806 A 2.6,1.1413007435567226 0.0 0,1 -30.476302,-18.907827" />
      <line x1="-10.748023" y1="-16.823294" x2="-10.748023" y2="-14.397329" />
      <line x1="-9.050967" y1="-16.078351" x2="-9.050967" y2="-15.142272" />
      <line x1="-10.748023" y1="-16.823294" x2="-9.050967" y2="-16.078351" />
      <line x1="0.565685" y1="-21.78958" x2="0.565685" y2="-19.363615" />
      <line x1="-10.748023" y1="-16.823294" x2="0.565685" y2="-21.78958" />
      <line x1="2.262742" y1="-21.044637" x2="2.262742" y2="-18.618672" />
      <line x1="-9.050967" y1="-16.078351" x2="2.262742" y2="-21.044637" />
      <line x1="0.565685" y1="-21.78958" x2="2.262742" y2="-21.044637" />
      <line x1="-19.233304" y1="-20.548009" x2="-19.233304" y2="-18.122043" />
      <line x1="-17.536248" y1="-19.803066" x2="-17.536248" y2="-18.866986" />
      <line x1="-19.233304" y1="-20.548009" x2="-17.536248" y2="-19.803066" />
      <line x1="-7.919596" y1="-25.514295" x2="-7.919596" y2="-23.08833" />
      <line x1="-19.233304" y1="-20.548009" x2="-7.919596" y2="-25.514295" />
      <line x1="-6.22254" y1="-24.769352" x2="-6.22254" y2="-22.343387" />
      <line x1="-7.919596" y1="-25.514295" x2="-6.22254" y2="-24.769352" />
      <line x1="-17.536248" y1="-19.803066" x2="-6.22254" y2="-24.769352" />
      <path d="M 26.799347,-8.044077 A 2.6,1.1413007435567226 0.0 0,1 31.237825,-7.237055" />
      <path d="M 31.237825,-7.237055 A 2.6,1.1413007435567226 0.0 0,1 26.037825,-7.237055" />
      <path d="M 26.037825,-7.237055 A 2.6,1.1413007435567226 0.0 0,1 26.799347,-8.044077" />
      <path d="M -14.212846,-26.046864 A 2.6,1.1413007435567226 0.0 0,1 -9.774369,-25.239842" />
      <path d="M -9.774369,-25.239842 A 2.6,1.1413007435567226 0.0 0,1 -14.974369,-25.239842" />
      <path d="M -14.974369,-25.239842 A 2.6,1.1413007435567226 0.0 0,1 -14.212846,-26.046864" />
      <line x1="29.910617" y1="-4.873168" x2="28.496403" y2="-5.493954" />
      <line x1="29.910617" y1="-4.873168" x2="28.496403" y2="-4.252382" />
      <line x1="29.910617" y1="-2.716755" x2="28.496403" y2="-3.33754" />
      <line x1="29.910617" y1="-4.873168" x2="29.910617" y2="-2.716755" />
      <line x1="20.011122" y1="1.628746" x2="18.596908" y2="1.00796" />
      <line x1="29.910617" y1="-2.716755" x2="20.011122" y2="1.628746" />
      <line x1="20.011122" y1="0.387174" x2="20.011122" y2="1.628746" />
      <line x1="5.303301" y1="3.239522" x2="6.22254" y2="2.836011" />
      <line x1="-1.06066" y1="0.445986" x2="-0.141421" y2="0.042475" />
      <line x1="5.303301" y1="3.239522" x2="-1.06066" y2="0.445986" />
      <line x1="4.808326" y1="3.366946" x2="4.808326" y2="2.215225" />
      <line x1="4.808326" y1="3.366946" x2="5.303301" y2="3.149671" />
      <line x1="5.303301" y1="3.239522" x2="5.303301" y2="3.149671" />
      <line x1="-1.555635" y1="-3.110463" x2="-0.141421" y2="-3.731249" />
      <line x1="-1.555635" y1="0.57341" x2="-1.555635" y2="-3.110463" />
      <line x1="-1.555635" y1="0.57341" x2="-1.06066" y2="0.356135" />
      <line x1="-1.06066" y1="0.445986" x2="-1.06066" y2="0.356135" />
      <line x1="-0.141421" y1="-2.489678" x2="-1.555635" y2="-3.110463" />
      <line x1="-24.784093" y1="-9.712847" x2="-23.369879" y2="-10.333633" />
      <line x1="-30.7945" y1="-12.351186" x2="-29.380287" y2="-12.971972" />
      <line x1="-24.784093" y1="-9.712847" x2="-30.7945" y2="-12.351186" />
      <line x1="-30.7945" y1="-15.945209" x2="-29.380287" y2="-16.565995" />
      <line x1="-30.7945" y1="-12.351186" x2="-30.7945" y2="-15.945209" />
      <line x1="-29.380287" y1="-15.324423" x2="-30.7945" y2="-15.945209" />
      <line x1="-24.784093" y1="-9.712847" x2="-24.784093" y2="-10.954418" />
      <line x1="-15.202796" y1="-5.761872" x2="-14.283557" y2="-6.165383" />
      <line x1="-21.566757" y1="-8.555408" x2="-20.647518" y2="-8.958919" />
      <line x1="-15.202796" y1="-5.761872" x2="-21.566757" y2="-8.555408" />
      <line x1="-15.697771" y1="-5.634448" x2="-15.697771" y2="-6.786169" />
      <line x1="-15.697771" y1="-5.634448" x2="-15.202796" y2="-5.851723" />
      <line x1="-15.202796" y1="-5.761872" x2="-15.202796" y2="-5.851723" />
      <line x1="-22.061732" y1="-12.111857" x2="-20.647518" y2="-12.732643" />
      <line x1="-22.061732" y1="-8.427984" x2="-22.061732" y2="-12.111857" />
      <line x1="-22.061732" y1="-8.427984" x2="-21.566757" y2="-8.645259" />
      <line x1="-21.566757" y1="-8.555408" x2="-21.566757" y2="-8.645259" />
      <line x1="-20.647518" y1="-11.491071" x2="-22.061732" y2="-12.111857" />
      <line x1="-17.182695" y1="-25.528998" x2="-18.596908" y2="-26.149784" />
      <line x1="-17.182695" y1="-23.731986" x2="-18.596908" y2="-24.352772" />
      <line x1="-29.910617" y1="-18.144914" x2="-31.32483" y2="-18.7657" />
      <line x1="15.202796" y1="-1.831318" x2="34.718943" y2="-10.398162" />
      <path d="M 15.202796,-1.831318 A 4.0,1.7558472977795732 0.0 0,1 9.545942,-1.831318" />
      <path d="M 34.718943,-10.398162 A 4.0,1.7558472977795732 180.0 0,0 35.890516,-11.639733" />
      <line x1="9.545942" y1="-1.831318" x2="-34.718943" y2="-21.261912" />
      <path d="M -35.890516,-22.503484 A 4.0,1.7558472977795732 180.0 0,0 -34.718943,-21.261912" />
      <path d="M -29.468675,-18.465518 A 1.175,0.5157801437227496 0.0 0,1 -27.462825,-18.100806" />
      <path d="M -27.462825,-18.100806 A 1.1750000000000005,0.5157801437227498 0.0 0,1 -29.812825,-18.100806" />
      <path d="M -29.812825,-18.100806 A 1.175,0.5157801437227496 0.0 0,1 -29.468675,-18.465518" />
      <path d="M 27.806974,-7.601767 A 1.175,0.5157801437227496 0.0 0,1 29.812825,-7.237055" />
      <path d="M 29.812825,-7.237055 A 1.1750000000000005,0.5157801437227498 0.0 0,1 27.462825,-7.237055" />
      <path d="M 27.462825,-7.237055 A 1.175,0.5157801437227496 0.0 0,1 27.806974,-7.601767" />
      <path d="M -13.205219,-25.604554 A 1.175,0.5157801437227496 0.0 0,1 -11.199369,-25.239842" />
      <path d="M -11.199369,-25.239842 A 1.175,0.5157801437227496 0.0 0,1 -13.549369,-25.239842" />
      <path d="M -13.549369,-25.239842 A 1.175,0.5157801437227496 0.0 0,1 -13.205219,-25.604554" />
      <line x1="34.718943" y1="-2.22176" x2="15.202796" y2="6.345084" />
      <path d="M 15.202796,5.446578 A 4.0,1.7558472977795732 0.0 0,1 13.109384,5.930956" />
      <line x1="13.109384" y1="5.930956" x2="13.109384" y2="6.829462" />
      <path d="M 15.202796,6.345084 A 4.0,1.7558472977795732 0.0 0,1 13.109384,6.829462" />
      <path d="M 11.639353,6.829462 A 4.0,1.7558472977795732 0.0 0,1 9.545942,6.345084" />
      <line x1="11.639353" y1="5.930956" x2="11.639353" y2="6.829462" />
      <path d="M 11.639353,5.930956 A 4.0,1.7558472977795732 0.0 0,1 9.545942,5.446578" />
      <path d="M 35.822405,-4.039193 A 4.0,1.7558472977795732 0.0 0,1 34.718943,-3.120265" />
      <line x1="35.822405" y1="-4.039193" x2="35.822405" y2="-3.140687" />
      <path d="M 35.822405,-3.140687 A 4.0,1.7558472977795732 0.0 0,1 34.718943,-2.22176" />
      <line x1="9.545942" y1="6.345084" x2="-34.718943" y2="-13.08551" />
      <path d="M -34.718943,-13.08551 A 4.0,1.7558472977795732 0.0 0,1 -35.822405,-14.004438" />
      <line x1="-35.822405" y1="-14.902944" x2="-35.822405" y2="-14.004438" />
      <path d="M -34.718943,-13.984016 A 4.0,1.7558472977795732 0.0 0,1 -35.822405,-14.902944" />
      <line x1="34.718943" y1="-3.120265" x2="15.202796" y2="5.446578" />
      <line x1="-35.822405" y1="-14.004438" x2="11.639353" y2="6.829462" />
      <line x1="11.639353" y1="5.930956" x2="5.303301" y2="3.149671" />
      <line x1="-1.06066" y1="0.356135" x2="-15.202796" y2="-5.851723" />
      <line x1="-21.566757" y1="-8.645259" x2="-35.822405" y2="-14.902944" />
      <line x1="9.545942" y1="5.446578" x2="4.808326" y2="3.366946" />
      <line x1="-22.061732" y1="-8.427984" x2="-34.718943" y2="-13.984016" />
      <line x1="-1.555635" y1="0.57341" x2="-15.697771" y2="-5.634448" />
      <path d="M -29.468675,-16.354029 A 1.175,0.5157801437227496 0.0 0,1 -28.064415,-16.439511" />
      <path d="M -29.66341,-15.737613 A 1.175,0.5157801437227496 0.0 0,1 -29.812825,-15.989318" />
      <path d="M -29.812825,-15.989318 A 1.175,0.5157801437227496 0.0 0,1 -29.468675,-16.354029" />
      <path d="M 28.064415,-5.57576 A 1.175,0.5157801437227496 0.0 0,1 29.812825,-5.125567" />
      <path d="M 29.812825,-5.125567 A 1.175,0.5157801437227496 0.0 0,1 29.66341,-4.873862" />
      <path d="M -13.205219,-23.493066 A 1.175,0.5157801437227496 0.0 0,1 -11.199369,-23.128354" />
      <path d="M -11.199369,-23.128354 A 1.175,0.5157801437227496 0.0 0,1 -11.348783,-22.876649" />
      <path d="M -13.399955,-22.876649 A 1.175,0.5157801437227496 0.0 0,1 -13.549369,-23.128354" />
      <path d="M -13.549369,-23.128354 A 1.175,0.5157801437227496 0.0 0,1 -13.205219,-23.493066" />
      <line x1="13.109384" y1="6.829462" x2="35.822405" y2="-3.140687" />
      <line x1="13.109384" y1="5.930956" x2="35.822405" y2="-4.039193" />
      <line x1="-11.639353" y1="-24.619875" x2="35.822405" y2="-3.785975" />
      <line x1="-35.822405" y1="-14.649726" x2="-13.109384" y2="-24.619875" />
      <line x1="-26.037825" y1="-20.077519" x2="-26.037825" y2="-18.100806" />
      <line x1="-31.237825" y1="-20.077519" x2="-31.237825" y2="-18.100806" />
      <line x1="31.237825" y1="-9.213768" x2="31.237825" y2="-7.237055" />
      <line x1="26.037825" y1="-9.213768" x2="26.037825" y2="-7.237055" />
      <line x1="-9.774369" y1="-27.216555" x2="-9.774369" y2="-25.239842" />
      <line x1="-14.974369" y1="-27.216555" x2="-14.974369" y2="-25.239842" />
      <line x1="-27.462825" y1="-18.100806" x2="-27.462825" y2="-16.703586" />
      <line x1="-29.812825" y1="-18.100806" x2="-29.812825" y2="-15.989318" />
      <line x1="29.812825" y1="-7.237055" x2="29.812825" y2="-5.125567" />
      <line x1="27.462825" y1="-7.237055" x2="27.462825" y2="-5.839835" />
      <line x1="-11.199369" y1="-25.239842" x2="-11.199369" y2="-23.128354" />
      <line x1="-13.549369" y1="-25.239842" x2="-13.549369" y2="-23.128354" />
      <line x1="34.718943" y1="-2.22176" x2="34.718943" y2="-1.413104" />
      <line x1="15.202796" y1="6.345084" x2="15.202796" y2="7.153739" />
      <line x1="15.202796" y1="-1.831318" x2="15.202796" y2="5.446578" />
      <line x1="9.545942" y1="6.345084" x2="9.545942" y2="7.153739" />
      <line x1="9.545942" y1="-1.831318" x2="9.545942" y2="5.446578" />
      <line x1="34.718943" y1="-10.398162" x2="34.718943" y2="-3.120265" />
      <line x1="-34.718943" y1="-13.08551" x2="-34.718943" y2="-12.276855" />
      <line x1="-34.718943" y1="-21.261912" x2="-34.718943" y2="-13.984016" />
    </g>
    <g fill="none" stroke="rgb(30,107,45)" stroke-width="0.4" id="pcb_proxy_visible">
      <line x1="12.374369" y1="3.332639" x2="33.587572" y2="-5.979147" />
      <line x1="33.587572" y1="-7.237055" x2="33.587572" y2="-5.979147" />
      <line x1="-33.587572" y1="-18.100806" x2="-33.587572" y2="-16.842898" />
      <line x1="12.374369" y1="3.332639" x2="-33.587572" y2="-16.842898" />
      <line x1="33.587572" y1="-5.979147" x2="-12.374369" y2="-26.154684" />
      <line x1="-33.587572" y1="-16.842898" x2="-12.374369" y2="-26.154684" />
      <path d="M 11.402097,0.733099 A 1.375,0.6035725086117283 0.0 0,1 13.749369,1.159889" />
      <path d="M 13.749369,1.159889 A 1.375,0.6035725086117283 0.0 0,1 10.999369,1.159889" />
      <path d="M 10.999369,1.159889 A 1.375,0.6035725086117283 0.0 0,1 11.402097,0.733099" />
      <path d="M -29.610096,-17.269688 A 1.375,0.6035725086117283 0.0 0,1 -27.262825,-16.842898" />
      <path d="M -27.262825,-16.842898 A 1.375,0.6035725086117283 0.0 0,1 -30.012825,-16.842898" />
      <path d="M -30.012825,-16.842898 A 1.375,0.6035725086117283 0.0 0,1 -29.610096,-17.269688" />
      <path d="M 27.665553,-6.405937 A 1.375,0.6035725086117283 0.0 0,1 30.012825,-5.979147" />
      <path d="M 30.012825,-5.979147 A 1.375,0.6035725086117283 0.0 0,1 27.262825,-5.979147" />
      <path d="M 27.262825,-5.979147 A 1.375,0.6035725086117283 0.0 0,1 27.665553,-6.405937" />
      <path d="M -13.34664,-24.408725 A 1.375,0.6035725086117283 0.0 0,1 -10.999369,-23.981934" />
      <path d="M -10.999369,-23.981934 A 1.375,0.6035725086117283 0.0 0,1 -13.749369,-23.981934" />
      <path d="M -13.749369,-23.981934 A 1.375,0.6035725086117283 0.0 0,1 -13.34664,-24.408725" />
      <line x1="33.587572" y1="-7.237055" x2="-12.374369" y2="-27.412592" />
      <line x1="-12.374369" y1="-27.412592" x2="-12.374369" y2="-26.154684" />
      <line x1="-33.587572" y1="-18.100806" x2="-12.374369" y2="-27.412592" />
    </g>
    <g fill="none" stroke="rgb(158,183,158)" stroke-width="0.22" id="pcb_proxy_hidden" stroke-dasharray="1.397 0.6985">
      <line x1="12.374369" y1="2.074731" x2="12.374369" y2="3.332639" />
      <line x1="12.374369" y1="2.074731" x2="33.587572" y2="-7.237055" />
      <line x1="12.374369" y1="2.074731" x2="-33.587572" y2="-18.100806" />
      <path d="M 11.402097,-0.524809 A 1.375,0.6035725086117283 0.0 0,1 13.749369,-0.098019" />
      <path d="M 13.749369,-0.098019 A 1.375,0.6035725086117283 0.0 0,1 10.999369,-0.098019" />
      <path d="M 10.999369,-0.098019 A 1.375,0.6035725086117283 0.0 0,1 11.402097,-0.524809" />
      <path d="M -29.610096,-18.527596 A 1.375,0.6035725086117283 0.0 0,1 -27.262825,-18.100806" />
      <path d="M -27.262825,-18.100806 A 1.375,0.6035725086117283 0.0 0,1 -30.012825,-18.100806" />
      <path d="M -30.012825,-18.100806 A 1.375,0.6035725086117283 0.0 0,1 -29.610096,-18.527596" />
      <path d="M 27.665553,-7.663845 A 1.375,0.6035725086117283 0.0 0,1 30.012825,-7.237055" />
      <path d="M 30.012825,-7.237055 A 1.375,0.6035725086117283 0.0 0,1 27.262825,-7.237055" />
      <path d="M 27.262825,-7.237055 A 1.375,0.6035725086117283 0.0 0,1 27.665553,-7.663845" />
      <path d="M -13.34664,-25.666633 A 1.375,0.6035725086117283 0.0 0,1 -10.999369,-25.239842" />
      <path d="M -10.999369,-25.239842 A 1.375,0.6035725086117283 0.0 0,1 -13.749369,-25.239842" />
      <path d="M -13.749369,-25.239842 A 1.375,0.6035725086117283 0.0 0,1 -13.34664,-25.666633" />
      <line x1="13.749369" y1="-0.098019" x2="13.749369" y2="1.159889" />
      <line x1="10.999369" y1="-0.098019" x2="10.999369" y2="1.159889" />
      <line x1="-27.262825" y1="-18.100806" x2="-27.262825" y2="-16.842898" />
      <line x1="-30.012825" y1="-18.100806" x2="-30.012825" y2="-16.842898" />
      <line x1="30.012825" y1="-7.237055" x2="30.012825" y2="-5.979147" />
      <line x1="27.262825" y1="-7.237055" x2="27.262825" y2="-5.979147" />
      <line x1="-10.999369" y1="-25.239842" x2="-10.999369" y2="-23.981934" />
      <line x1="-13.749369" y1="-25.239842" x2="-13.749369" y2="-23.981934" />
    </g>
    <g fill="none" stroke="rgb(127,45,45)" stroke-width="0.4" id="lid_visible">
      <line x1="40.375797" y1="9.475151" x2="40.375797" y2="13.518427" />
      <line x1="38.6361" y1="14.282087" x2="40.375797" y2="13.518427" />
      <line x1="15.344217" y1="26.303346" x2="37.405949" y2="16.619088" />
      <line x1="9.40452" y1="26.303346" x2="-37.405949" y2="5.755338" />
      <line x1="-38.6361" y1="3.418337" x2="-40.375797" y2="2.654676" />
      <line x1="-40.375797" y1="-1.3886" x2="-40.375797" y2="2.654676" />
      <line x1="40.375797" y1="9.475151" x2="-12.374369" y2="-13.680158" />
      <line x1="-40.375797" y1="-1.3886" x2="-12.374369" y2="-13.680158" />
      <line x1="40.375797" y1="13.518427" x2="37.405949" y2="12.214777" />
      <line x1="37.405949" y1="12.214777" x2="37.405949" y2="14.011788" />
      <line x1="37.405949" y1="14.011788" x2="-9.40452" y2="-6.536221" />
      <line x1="-9.40452" y1="-8.333232" x2="-9.40452" y2="-6.536221" />
      <line x1="-9.40452" y1="-8.333232" x2="-12.374369" y2="-9.636882" />
      <line x1="-12.374369" y1="-13.680158" x2="-12.374369" y2="-9.636882" />
      <path d="M 38.6361,13.518427 A 4.2,1.8436396626685518 180.0 0,0 37.405949,12.214777" />
      <path d="M 37.405949,16.619088 A 4.2,1.8436396626685518 180.0 0,0 38.6361,15.315438" />
      <path d="M 38.6361,15.315438 A 4.2,1.8436396626685518 180.0 0,0 37.405949,14.011788" />
      <path d="M 15.344217,26.303346 A 4.2,1.8436396626685518 0.0 0,1 9.40452,26.303346" />
      <path d="M -37.405949,3.148037 A 4.2,1.8436396626685518 180.0 0,0 -38.6361,4.451687" />
      <path d="M -38.6361,4.451687 A 4.2,1.8436396626685518 180.0 0,0 -37.405949,5.755338" />
      <path d="M -15.344217,-6.536221 A 4.2,1.8436396626685518 0.0 0,1 -9.40452,-6.536221" />
      <line x1="-37.405949" y1="3.148037" x2="-15.344217" y2="-6.536221" />
      <path d="M -1.343503,11.901117 A 1.2,0.526754189333872 0.0 0,1 0.705025,12.273588" />
      <path d="M 0.705025,12.273588 A 1.2,0.526754189333872 0.0 0,1 -1.694975,12.273588" />
      <path d="M -1.694975,12.273588 A 1.2,0.526754189333872 0.0 0,1 -1.343503,11.901117" />
      <path d="M 4.596194,11.901117 A 1.2,0.526754189333872 0.0 0,1 6.644722,12.273588" />
      <path d="M 6.644722,12.273588 A 1.2,0.526754189333872 0.0 0,1 4.244722,12.273588" />
      <path d="M 4.244722,12.273588 A 1.2,0.526754189333872 0.0 0,1 4.596194,11.901117" />
      <path d="M 1.626346,10.597466 A 1.2,0.526754189333872 0.0 0,1 3.674874,10.969938" />
      <path d="M 3.674874,10.969938 A 1.2,0.526754189333872 0.0 0,1 1.274874,10.969938" />
      <path d="M 1.274874,10.969938 A 1.2,0.526754189333872 0.0 0,1 1.626346,10.597466" />
      <path d="M 4.596194,9.293816 A 1.2,0.526754189333872 0.0 0,1 6.644722,9.666288" />
      <path d="M 6.644722,9.666288 A 1.2,0.526754189333872 0.0 0,1 4.244722,9.666288" />
      <path d="M 4.244722,9.666288 A 1.2,0.526754189333872 0.0 0,1 4.596194,9.293816" />
      <path d="M -1.343503,9.293816 A 1.2,0.526754189333872 0.0 0,1 0.705025,9.666288" />
      <path d="M 0.705025,9.666288 A 1.2,0.526754189333872 0.0 0,1 -1.694975,9.666288" />
      <path d="M -1.694975,9.666288 A 1.2,0.526754189333872 0.0 0,1 -1.343503,9.293816" />
      <line x1="-12.551145" y1="-0.747393" x2="24.218407" y2="15.393037" />
      <line x1="-12.551145" y1="-0.747393" x2="-7.954951" y2="-2.764947" />
      <line x1="24.218407" y1="15.393037" x2="28.814601" y2="13.375483" />
      <line x1="-7.954951" y1="-2.764947" x2="28.814601" y2="13.375483" />
      <path d="M -37.405949,1.351026 A 4.2,1.8436396626685518 180.0 0,0 -38.6361,2.654676" />
      <line x1="-37.405949" y1="1.351026" x2="-37.405949" y2="3.148037" />
      <line x1="-40.375797" y1="2.654676" x2="-37.405949" y2="1.351026" />
      <line x1="-15.344217" y1="-8.333232" x2="-12.374369" y2="-9.636882" />
      <line x1="-15.344217" y1="-8.333232" x2="-15.344217" y2="-6.536221" />
      <path d="M -15.344217,-8.333232 A 4.2,1.8436396626685518 0.0 0,1 -9.40452,-8.333232" />
      <line x1="24.218407" y1="13.64095" x2="24.218407" y2="15.393037" />
      <line x1="-10.55543" y1="-1.623436" x2="24.218407" y2="13.64095" />
      <line x1="24.218407" y1="13.64095" x2="26.818885" y2="12.49944" />
      <line x1="38.6361" y1="13.518427" x2="38.6361" y2="15.315438" />
      <line x1="-38.6361" y1="2.654676" x2="-38.6361" y2="4.451687" />
    </g>
    <g fill="none" stroke="rgb(191,158,158)" stroke-width="0.22" id="lid_hidden" stroke-dasharray="1.397 0.6985">
      <line x1="12.374369" y1="21.766709" x2="12.374369" y2="25.809985" />
      <line x1="12.374369" y1="21.766709" x2="40.375797" y2="9.475151" />
      <line x1="37.405949" y1="14.822077" x2="38.6361" y2="14.282087" />
      <line x1="37.405949" y1="14.822077" x2="37.405949" y2="16.619088" />
      <line x1="15.344217" y1="24.506335" x2="15.344217" y2="26.303346" />
      <line x1="12.374369" y1="25.809985" x2="15.344217" y2="24.506335" />
      <line x1="12.374369" y1="21.766709" x2="-40.375797" y2="-1.3886" />
      <line x1="12.374369" y1="25.809985" x2="9.40452" y2="24.506335" />
      <line x1="9.40452" y1="24.506335" x2="9.40452" y2="26.303346" />
      <line x1="-37.405949" y1="3.958326" x2="-37.405949" y2="5.755338" />
      <line x1="-37.405949" y1="3.958326" x2="-38.6361" y2="3.418337" />
      <line x1="-37.830213" y1="-1.3886" x2="12.374369" y2="20.649295" />
      <line x1="-37.830213" y1="-1.3886" x2="-12.374369" y2="-12.562744" />
      <line x1="-12.374369" y1="-12.562744" x2="37.830213" y2="9.475151" />
      <line x1="12.374369" y1="20.649295" x2="37.830213" y2="9.475151" />
      <path d="M 37.405949,14.822077 A 4.2,1.8436396626685518 180.0 0,0 38.6361,13.518427" />
      <path d="M 15.344217,24.506335 A 4.2,1.8436396626685518 0.0 0,1 9.40452,24.506335" />
      <path d="M -38.6361,2.654676 A 4.2,1.8436396626685518 180.0 0,0 -37.405949,3.958326" />
      <line x1="-37.830213" y1="-1.3886" x2="-37.830213" y2="2.699601" />
      <line x1="12.374369" y1="24.737496" x2="-37.830213" y2="2.699601" />
      <line x1="12.374369" y1="20.649295" x2="12.374369" y2="24.737496" />
      <line x1="-2.687006" y1="17.137771" x2="-22.768838" y2="8.322613" />
      <line x1="-22.768838" y1="7.693659" x2="-22.768838" y2="8.322613" />
      <line x1="-2.687006" y1="16.508817" x2="-22.768838" y2="7.693659" />
      <line x1="-2.687006" y1="16.508817" x2="-2.687006" y2="17.137771" />
      <line x1="-37.830213" y1="2.699601" x2="-12.374369" y2="-8.474543" />
      <line x1="-12.374369" y1="-12.562744" x2="-12.374369" y2="-8.474543" />
      <line x1="-30.19346" y1="-2.269952" x2="-30.19346" y2="-1.640998" />
      <line x1="-30.19346" y1="-2.269952" x2="-20.011122" y2="-6.73961" />
      <line x1="-20.011122" y1="-6.73961" x2="-20.011122" y2="-6.110656" />
      <line x1="-30.19346" y1="-1.640998" x2="-20.011122" y2="-6.110656" />
      <line x1="37.830213" y1="13.563352" x2="-12.374369" y2="-8.474543" />
      <line x1="37.830213" y1="9.475151" x2="37.830213" y2="13.563352" />
      <line x1="22.768838" y1="5.963627" x2="2.687006" y2="-2.85153" />
      <line x1="2.687006" y1="-3.480484" x2="2.687006" y2="-2.85153" />
      <line x1="22.768838" y1="5.334673" x2="2.687006" y2="-3.480484" />
      <line x1="22.768838" y1="5.334673" x2="22.768838" y2="5.963627" />
      <line x1="12.374369" y1="24.737496" x2="37.830213" y2="13.563352" />
      <line x1="20.011122" y1="19.767943" x2="20.011122" y2="20.396897" />
      <line x1="20.011122" y1="19.767943" x2="30.19346" y2="15.298285" />
      <line x1="30.19346" y1="15.298285" x2="30.19346" y2="15.927239" />
      <line x1="20.011122" y1="20.396897" x2="30.19346" y2="15.927239" />
      <path d="M -1.343503,10.14903 A 1.2,0.526754189333872 0.0 0,1 0.705025,10.521502" />
      <path d="M 0.705025,10.521502 A 1.2,0.526754189333872 0.0 0,1 -1.694975,10.521502" />
      <path d="M -1.694975,10.521502 A 1.2,0.526754189333872 0.0 0,1 -1.343503,10.14903" />
      <path d="M 4.596194,10.14903 A 1.2,0.526754189333872 0.0 0,1 6.644722,10.521502" />
      <path d="M 6.644722,10.521502 A 1.2,0.526754189333872 0.0 0,1 4.244722,10.521502" />
      <path d="M 4.244722,10.521502 A 1.2,0.526754189333872 0.0 0,1 4.596194,10.14903" />
      <path d="M 1.626346,8.84538 A 1.2,0.526754189333872 0.0 0,1 3.674874,9.217852" />
      <path d="M 3.674874,9.217852 A 1.2,0.526754189333872 0.0 0,1 1.274874,9.217852" />
      <path d="M 1.274874,9.217852 A 1.2,0.526754189333872 0.0 0,1 1.626346,8.84538" />
      <path d="M 4.596194,7.54173 A 1.2,0.526754189333872 0.0 0,1 6.644722,7.914202" />
      <path d="M 6.644722,7.914202 A 1.2,0.526754189333872 0.0 0,1 4.244722,7.914202" />
      <path d="M 4.244722,7.914202 A 1.2,0.526754189333872 0.0 0,1 4.596194,7.54173" />
      <path d="M -1.343503,7.54173 A 1.2,0.526754189333872 0.0 0,1 0.705025,7.914202" />
      <path d="M 0.705025,7.914202 A 1.2,0.526754189333872 0.0 0,1 -1.694975,7.914202" />
      <path d="M -1.694975,7.914202 A 1.2,0.526754189333872 0.0 0,1 -1.343503,7.54173" />
      <line x1="-12.551145" y1="-2.49948" x2="-12.551145" y2="-0.747393" />
      <line x1="-12.551145" y1="-2.49948" x2="-10.55543" y2="-1.623436" />
      <line x1="-7.954951" y1="-4.517033" x2="-7.954951" y2="-2.764947" />
      <line x1="-12.551145" y1="-2.49948" x2="-7.954951" y2="-4.517033" />
      <line x1="28.814601" y1="11.623397" x2="28.814601" y2="13.375483" />
      <line x1="26.818885" y1="12.49944" x2="28.814601" y2="11.623397" />
      <line x1="-7.954951" y1="-4.517033" x2="28.814601" y2="11.623397" />
      <line x1="-2.687006" y1="17.137771" x2="-2.085965" y2="16.873937" />
      <line x1="-2.085965" y1="16.873937" x2="-22.167798" y2="8.058779" />
      <line x1="-22.768838" y1="8.322613" x2="-22.167798" y2="8.058779" />
      <line x1="-22.167798" y1="7.429825" x2="-22.167798" y2="8.058779" />
      <line x1="-22.768838" y1="7.693659" x2="-22.167798" y2="7.429825" />
      <line x1="-2.687006" y1="16.508817" x2="-2.085965" y2="16.244983" />
      <line x1="-2.085965" y1="16.244983" x2="-22.167798" y2="7.429825" />
      <line x1="-2.085965" y1="16.244983" x2="-2.085965" y2="16.873937" />
      <line x1="-29.592419" y1="-2.006118" x2="-30.19346" y2="-2.269952" />
      <line x1="-29.592419" y1="-1.377164" x2="-30.19346" y2="-1.640998" />
      <line x1="-29.592419" y1="-2.006118" x2="-29.592419" y2="-1.377164" />
      <line x1="-29.592419" y1="-2.006118" x2="-19.410081" y2="-6.475776" />
      <line x1="-19.410081" y1="-6.475776" x2="-20.011122" y2="-6.73961" />
      <line x1="-19.410081" y1="-5.846822" x2="-20.011122" y2="-6.110656" />
      <line x1="-19.410081" y1="-6.475776" x2="-19.410081" y2="-5.846822" />
      <line x1="-29.592419" y1="-1.377164" x2="-19.410081" y2="-5.846822" />
      <line x1="22.167798" y1="6.227461" x2="22.768838" y2="5.963627" />
      <line x1="2.085965" y1="-2.587696" x2="2.687006" y2="-2.85153" />
      <line x1="22.167798" y1="6.227461" x2="2.085965" y2="-2.587696" />
      <line x1="2.085965" y1="-3.21665" x2="2.085965" y2="-2.587696" />
      <line x1="2.085965" y1="-3.21665" x2="2.687006" y2="-3.480484" />
      <line x1="22.167798" y1="5.598507" x2="22.768838" y2="5.334673" />
      <line x1="22.167798" y1="5.598507" x2="2.085965" y2="-3.21665" />
      <line x1="22.167798" y1="5.598507" x2="22.167798" y2="6.227461" />
      <line x1="20.011122" y1="19.767943" x2="19.410081" y2="19.504109" />
      <line x1="19.410081" y1="19.504109" x2="19.410081" y2="20.133063" />
      <line x1="20.011122" y1="20.396897" x2="19.410081" y2="20.133063" />
      <line x1="30.19346" y1="15.298285" x2="29.592419" y2="15.034451" />
      <line x1="19.410081" y1="19.504109" x2="29.592419" y2="15.034451" />
      <line x1="29.592419" y1="15.034451" x2="29.592419" y2="15.663405" />
      <line x1="30.19346" y1="15.927239" x2="29.592419" y2="15.663405" />
      <line x1="19.410081" y1="20.133063" x2="29.592419" y2="15.663405" />
      <line x1="0.705025" y1="10.521502" x2="0.705025" y2="12.273588" />
      <line x1="-1.694975" y1="10.521502" x2="-1.694975" y2="12.273588" />
      <line x1="6.644722" y1="10.521502" x2="6.644722" y2="12.273588" />
      <line x1="4.244722" y1="10.521502" x2="4.244722" y2="12.273588" />
      <line x1="3.674874" y1="9.217852" x2="3.674874" y2="10.969938" />
      <line x1="1.274874" y1="9.217852" x2="1.274874" y2="10.969938" />
      <line x1="6.644722" y1="7.914202" x2="6.644722" y2="9.666288" />
      <line x1="4.244722" y1="7.914202" x2="4.244722" y2="9.666288" />
      <line x1="0.705025" y1="7.914202" x2="0.705025" y2="9.666288" />
      <line x1="-1.694975" y1="7.914202" x2="-1.694975" y2="9.666288" />
    </g>
  </g>
</svg>