<?xml version='1.0' encoding='utf-8'?>
<svg width="91.131493mm" height="61.26024mm" viewBox="-45.565747 -27.584415 91.131493 61.26024" version="1.1" xmlns="http://www.w3.org/2000/svg">
  <g transform="scale(1,-1)" stroke-linecap="round">
    <g fill="none" stroke="rgb(30,56,76)" stroke-width="0.4" id="base_visible">
      <path d="M 11.543518,12.493331 A 1.175,0.5847234564324599 0.0 0,1 13.549369,12.906793" />
      <path d="M 11.199369,12.906793 A 1.175,0.5847234564324599 0.0 0,1 11.543518,12.493331" />
      <path d="M 11.543518,14.531687 A 1.175,0.5847234564324599 0.0 0,1 13.549369,14.945149" />
      <path d="M 13.549369,14.945149 A 1.175,0.5847234564324599 0.0 0,1 11.199369,14.945149" />
      <path d="M 11.199369,14.945149 A 1.175,0.5847234564324599 0.0 0,1 11.543518,14.531687" />
      <path d="M 10.535891,11.991899 A 2.6,1.2938561589143793 0.0 0,1 14.974369,12.906793" />
      <path d="M 14.974369,12.906793 A 2.6,1.2938561589143793 0.0 0,1 13.549369,14.060987" />
      <path d="M 11.199369,14.060987 A 2.6,1.2938561589143793 0.0 0,1 9.774369,12.906793" />
      <path d="M 9.774369,12.906793 A 2.6,1.2938561589143793 0.0 0,1 10.535891,11.991899" />
      <path d="M 10.535891,10.083651 A 2.6,1.2938561589143793 0.0 0,1 14.974369,10.998545" />
      <path d="M 9.774369,10.998545 A 2.6,1.2938561589143793 0.0 0,1 10.535891,10.083651" />
      <line x1="14.974369" y1="12.730879" x2="26.439653" y2="7.025329" />
      <line x1="9.774369" y1="12.730879" x2="-26.439653" y2="-5.290558" />
      <line x1="6.22254" y1="5.47399" x2="7.919596" y2="6.318508" />
      <line x1="6.22254" y1="5.47399" x2="14.772392" y2="1.219268" />
      <line x1="7.919596" y1="6.318508" x2="16.469448" y2="2.063786" />
      <line x1="-2.262742" y1="1.251401" x2="-0.565685" y2="2.095919" />
      <line x1="-2.262742" y1="1.251401" x2="6.28711" y2="-3.003322" />
      <line x1="-0.565685" y1="2.095919" x2="7.984166" y2="-2.158804" />
      <path d="M -27.06841,-10.442193 A 2.6,1.2938561589143793 0.0 0,1 -26.723913,-10.286387" />
      <line x1="-10.748023" y1="-2.971189" x2="-9.050967" y2="-2.126671" />
      <line x1="-10.748023" y1="-2.971189" x2="-2.198171" y2="-7.225912" />
      <line x1="-9.050967" y1="-2.126671" x2="-0.501115" y2="-6.381394" />
      <line x1="-19.233304" y1="-7.193779" x2="-17.536248" y2="-6.349261" />
      <line x1="-19.233304" y1="-7.193779" x2="-10.683453" y2="-11.448502" />
      <line x1="-17.536248" y1="-6.349261" x2="-8.986396" y2="-10.603984" />
      <line x1="12.374369" y1="15.529872" x2="12.374369" y2="20.530125" />
      <line x1="32.975935" y1="10.278024" x2="12.374369" y2="20.530125" />
      <line x1="28.008361" y1="7.805976" x2="18.596908" y2="12.489463" />
      <line x1="28.496403" y1="8.048844" x2="28.496403" y2="9.644833" />
      <line x1="28.496403" y1="9.644833" x2="18.596908" y2="14.571188" />
      <line x1="18.596908" y1="12.489463" x2="18.596908" y2="14.571188" />
      <line x1="-11.310168" y1="-13.495149" x2="-12.374369" y2="-14.024735" />
      <line x1="12.374369" y1="20.530125" x2="-32.975935" y2="-2.037863" />
      <line x1="6.22254" y1="16.341147" x2="-0.141421" y2="13.174204" />
      <line x1="6.22254" y1="16.341147" x2="6.22254" y2="12.698128" />
      <line x1="-0.141421" y1="13.174204" x2="-0.141421" y2="9.531186" />
      <line x1="6.22254" y1="12.698128" x2="-0.141421" y2="9.531186" />
      <line x1="-14.283557" y1="6.136555" x2="-20.647518" y2="2.969612" />
      <line x1="-14.283557" y1="6.136555" x2="-14.283557" y2="2.493536" />
      <line x1="-20.647518" y1="2.969612" x2="-20.647518" y2="-0.673406" />
      <line x1="-14.283557" y1="2.493536" x2="-20.647518" y2="-0.673406" />
      <line x1="-23.369879" y1="1.441388" x2="-29.380287" y2="-1.549614" />
      <line x1="-29.380287" y1="-1.549614" x2="-29.380287" y2="-3.82719" />
      <line x1="-23.369879" y1="-2.028154" x2="-28.182662" y2="-4.423173" />
      <line x1="-23.369879" y1="1.441388" x2="-23.369879" y2="-2.028154" />
      <line x1="-12.374369" y1="-14.024735" x2="-13.438569" y2="-13.495149" />
      <line x1="-18.596908" y1="-14.657926" x2="-29.910617" y2="-9.027806" />
      <line x1="-29.910617" y1="-9.027806" x2="-29.910617" y2="-8.700566" />
      <line x1="7.919596" y1="4.629472" x2="7.919596" y2="6.318508" />
      <line x1="-0.565685" y1="0.406883" x2="-0.565685" y2="2.095919" />
      <line x1="-9.050967" y1="-3.815707" x2="-9.050967" y2="-2.126671" />
      <line x1="-17.536248" y1="-8.038297" x2="-17.536248" y2="-6.349261" />
      <path d="M 35.880307,9.552764 A 4.0,1.9905479367913528 0.0 0,1 35.751383,9.93107" />
      <path d="M -35.751383,-2.384817 A 4.0,1.9905479367913528 0.0 0,1 -35.880307,-2.763123" />
      <path d="M 13.438569,21.041402 A 4.0,1.9905479367913528 0.0 0,1 11.310168,21.041402" />
      <line x1="20.011122" y1="13.193228" x2="18.596908" y2="12.489463" />
      <line x1="28.496403" y1="8.970638" x2="20.011122" y2="13.193228" />
      <line x1="20.011122" y1="13.193228" x2="20.011122" y2="13.867423" />
      <line x1="4.808326" y1="13.401893" x2="6.22254" y2="12.698128" />
      <line x1="4.808326" y1="15.637382" x2="4.808326" y2="13.401893" />
      <line x1="4.808326" y1="13.401893" x2="-0.141421" y2="10.938716" />
      <line x1="-15.697771" y1="3.197301" x2="-14.283557" y2="2.493536" />
      <line x1="-15.697771" y1="5.43279" x2="-15.697771" y2="3.197301" />
      <line x1="-15.697771" y1="3.197301" x2="-20.647518" y2="0.734123" />
      <line x1="-24.784093" y1="-1.324389" x2="-23.369879" y2="-2.028154" />
      <line x1="-24.784093" y1="-1.324389" x2="-29.380287" y2="-3.611625" />
      <line x1="-24.784093" y1="0.737623" x2="-24.784093" y2="-1.324389" />
      <line x1="-18.596908" y1="-16.065456" x2="-31.32483" y2="-9.731571" />
      <line x1="-29.910617" y1="-9.027806" x2="-31.32483" y2="-9.731571" />
      <line x1="-18.596908" y1="-16.065456" x2="-18.596908" y2="-14.330685" />
      <line x1="-18.596908" y1="-14.330685" x2="-31.32483" y2="-7.996801" />
      <line x1="-31.32483" y1="-9.731571" x2="-31.32483" y2="-7.996801" />
      <path d="M 35.890516,1.170477 A 4.0,1.9905479367913528 180.0 0,0 34.718943,-0.237052" />
      <line x1="34.718943" y1="-0.237052" x2="-9.545942" y2="-22.264896" />
      <path d="M -34.718943,-12.55294 A 4.0,1.9905479367913528 180.0 0,0 -35.890516,-11.14541" />
      <path d="M -15.202796,-22.264896 A 4.0,1.9905479367913528 0.0 0,1 -9.545942,-22.264896" />
      <line x1="-34.718943" y1="-12.55294" x2="-15.202796" y2="-22.264896" />
      <line x1="12.374369" y1="22.847914" x2="12.374369" y2="22.874185" />
      <line x1="12.374369" y1="22.874185" x2="12.427513" y2="22.847738" />
      <line x1="35.890163" y1="11.171856" x2="37.512015" y2="10.364763" />
      <line x1="35.880307" y1="10.309376" x2="36.640511" y2="9.93107" />
      <line x1="-12.374369" y1="-14.460547" x2="-9.879352" y2="-13.218934" />
      <line x1="-9.879352" y1="-13.218934" x2="-9.879352" y2="-13.132196" />
      <line x1="35.016999" y1="9.12315" x2="35.016999" y2="9.209889" />
      <line x1="35.016999" y1="9.12315" x2="37.512015" y2="10.364763" />
      <line x1="-37.512015" y1="-1.951124" x2="-35.016999" y2="-3.192737" />
      <line x1="-35.016999" y1="-3.192737" x2="-35.016999" y2="-3.105998" />
      <line x1="-14.869385" y1="-13.218934" x2="-14.869385" y2="-13.132196" />
      <line x1="-14.869385" y1="-13.218934" x2="-12.374369" y2="-14.460547" />
      <line x1="-36.640511" y1="-2.384817" x2="-35.880307" y2="-2.006511" />
      <line x1="-37.512015" y1="-1.951124" x2="-35.890163" y2="-1.144031" />
      <line x1="12.321224" y1="22.847738" x2="12.374369" y2="22.874185" />
      <line x1="12.374369" y1="23.384415" x2="13.667128" y2="22.74109" />
      <line x1="35.675852" y1="11.788735" x2="38.53732" y2="10.364763" />
      <line x1="38.53732" y1="10.364763" x2="-12.374369" y2="-14.970776" />
      <line x1="12.374369" y1="23.384415" x2="11.081609" y2="22.74109" />
      <line x1="-35.675852" y1="-0.527152" x2="-38.53732" y2="-1.951124" />
      <line x1="-38.53732" y1="-1.951124" x2="-12.374369" y2="-14.970776" />
      <path d="M -35.016999,-3.192737 A 4.0,1.9905479367913528 0.0 0,1 -34.718943,-3.358654" />
      <line x1="-15.202796" y1="-13.070611" x2="-34.718943" y2="-3.358654" />
      <path d="M -15.202796,-13.070611 A 4.0,1.9905479367913528 0.0 0,1 -14.869385,-13.218934" />
      <path d="M -9.879352,-13.218934 A 4.0,1.9905479367913528 0.0 0,1 -9.545942,-13.070611" />
      <line x1="34.718943" y1="8.957233" x2="-9.545942" y2="-13.070611" />
      <path d="M 34.718943,8.957233 A 4.0,1.9905479367913528 0.0 0,1 35.016999,9.12315" />
      <path d="M 15.202796,22.264896 A 4.0,1.9905479367913528 0.0 0,1 9.545942,22.264896" />
      <path d="M 35.016999,9.209889 A 4.0,1.9905479367913528 0.0 0,1 35.890516,10.451501" />
      <path d="M -14.869385,-13.132196 A 4.0,1.9905479367913528 0.0 0,1 -9.879352,-13.132196" />
      <path d="M -35.890516,-1.864386 A 4.0,1.9905479367913528 0.0 0,1 -35.016999,-3.105998" />
      <line x1="12.374369" y1="21.570988" x2="-34.02174" y2="-1.517432" />
      <line x1="34.02174" y1="10.798455" x2="12.374369" y2="21.570988" />
      <path d="M 34.718943,12.55294 A 4.0,1.9905479367913528 180.0 0,0 35.890516,11.14541" />
      <path d="M 35.890516,11.14541 A 4.0,1.9905479367913528 180.0 0,0 34.718943,9.73788" />
      <line x1="38.53732" y1="9.497377" x2="-12.374369" y2="-15.838162" />
      <line x1="-38.53732" y1="-2.81851" x2="-12.374369" y2="-15.838162" />
      <path d="M -15.202796,-12.289964 A 4.0,1.9905479367913528 0.0 0,1 -9.545942,-12.289964" />
      <path d="M -34.718943,-2.578007 A 4.0,1.9905479367913528 180.0 0,0 -35.890516,-1.170477" />
      <path d="M -35.890516,-1.170477 A 4.0,1.9905479367913528 180.0 0,0 -34.718943,0.237052" />
      <line x1="38.53732" y1="9.497377" x2="38.53732" y2="10.364763" />
      <line x1="-12.374369" y1="-15.838162" x2="-12.374369" y2="-14.970776" />
      <line x1="-38.53732" y1="-2.81851" x2="-38.53732" y2="-1.951124" />
      <line x1="15.202796" y1="22.264896" x2="34.718943" y2="12.55294" />
      <line x1="9.545942" y1="22.264896" x2="-34.718943" y2="0.237052" />
      <line x1="-34.718943" y1="-2.578007" x2="-15.202796" y2="-12.289964" />
      <line x1="34.718943" y1="9.73788" x2="-9.545942" y2="-12.289964" />
      <line x1="-34.718943" y1="-1.170477" x2="12.374369" y2="22.264896" />
      <line x1="-34.718943" y1="-1.170477" x2="-12.374369" y2="-12.289964" />
      <line x1="-12.374369" y1="-12.289964" x2="34.718943" y2="11.14541" />
      <line x1="12.374369" y1="22.264896" x2="34.718943" y2="11.14541" />
      <line x1="12.374369" y1="21.570988" x2="12.374369" y2="22.264896" />
      <line x1="34.718943" y1="-0.237052" x2="34.718943" y2="7.597212" />
      <line x1="-15.202796" y1="-22.264896" x2="-15.202796" y2="-14.430632" />
      <line x1="-9.545942" y1="-22.264896" x2="-9.545942" y2="-14.430632" />
      <line x1="-34.718943" y1="-12.55294" x2="-34.718943" y2="-4.718675" />
      <line x1="34.718943" y1="8.957233" x2="34.718943" y2="9.73788" />
      <line x1="-15.202796" y1="-13.070611" x2="-15.202796" y2="-12.289964" />
      <line x1="-9.545942" y1="-13.070611" x2="-9.545942" y2="-12.289964" />
      <line x1="-34.718943" y1="-3.358654" x2="-34.718943" y2="-2.578007" />
      <line x1="13.549369" y1="12.906793" x2="13.549369" y2="14.945149" />
      <line x1="11.199369" y1="12.906793" x2="11.199369" y2="14.945149" />
      <line x1="14.974369" y1="10.998545" x2="14.974369" y2="12.906793" />
      <line x1="9.774369" y1="10.998545" x2="9.774369" y2="12.906793" />
      <line x1="35.890516" y1="1.170477" x2="35.890516" y2="8.18023" />
      <line x1="-35.890516" y1="-11.14541" x2="-35.890516" y2="-4.135657" />
      <line x1="35.890516" y1="10.451501" x2="35.890516" y2="11.14541" />
      <line x1="-35.890516" y1="-1.864386" x2="-35.890516" y2="-1.170477" />
    </g>
    <g fill="none" stroke="rgb(158,173,183)" stroke-width="0.22" id="base_hidden" stroke-dasharray="1.397 0.6985">
      <path d="M 13.549369,12.906793 A 1.175,0.5847234564324599 0.0 0,1 11.199369,12.906793" />
      <path d="M 13.549369,14.060987 A 2.6,1.2938561589143793 0.0 0,1 11.199369,14.060987" />
      <path d="M 14.974369,10.998545 A 2.6,1.2938561589143793 0.0 0,1 9.774369,10.998545" />
      <line x1="12.374369" y1="14.024735" x2="14.974369" y2="12.730879" />
      <line x1="26.439653" y1="7.025329" x2="34.718943" y2="2.905248" />
      <line x1="34.718943" y1="2.905248" x2="-12.374369" y2="-20.530125" />
      <line x1="12.374369" y1="14.024735" x2="9.774369" y2="12.730879" />
      <line x1="-26.439653" y1="-5.290558" x2="-34.718943" y2="-9.410639" />
      <line x1="-34.718943" y1="-9.410639" x2="-12.374369" y2="-20.530125" />
      <line x1="14.772392" y1="1.219268" x2="17.536248" y2="-0.156129" />
      <line x1="16.469448" y1="2.063786" x2="19.233304" y2="0.688389" />
      <line x1="17.536248" y1="-0.156129" x2="19.233304" y2="0.688389" />
      <line x1="6.28711" y1="-3.003322" x2="9.050967" y2="-4.378719" />
      <line x1="7.984166" y1="-2.158804" x2="10.748023" y2="-3.534201" />
      <line x1="9.050967" y1="-4.378719" x2="10.748023" y2="-3.534201" />
      <path d="M -30.476302,-10.325533 A 2.6,1.2938561589143793 0.0 0,1 -27.06841,-10.442193" />
      <path d="M -26.723913,-10.286387 A 2.6,1.2938561589143793 0.0 0,1 -26.037825,-9.410639" />
      <path d="M -26.037825,-9.410639 A 2.6,1.2938561589143793 0.0 0,1 -31.237825,-9.410639" />
      <path d="M -31.237825,-9.410639 A 2.6,1.2938561589143793 0.0 0,1 -30.476302,-10.325533" />
      <line x1="-2.198171" y1="-7.225912" x2="0.565685" y2="-8.601309" />
      <line x1="-0.501115" y1="-6.381394" x2="2.262742" y2="-7.756791" />
      <line x1="0.565685" y1="-8.601309" x2="2.262742" y2="-7.756791" />
      <line x1="-10.683453" y1="-11.448502" x2="-7.919596" y2="-12.823899" />
      <line x1="-7.919596" y1="-12.823899" x2="-6.22254" y2="-11.979381" />
      <line x1="-8.986396" y1="-10.603984" x2="-6.22254" y2="-11.979381" />
      <path d="M 26.799347,1.990354 A 2.6,1.2938561589143793 0.0 0,1 31.237825,2.905248" />
      <path d="M 31.237825,2.905248 A 2.6,1.2938561589143793 0.0 0,1 26.037825,2.905248" />
      <path d="M 26.037825,2.905248 A 2.6,1.2938561589143793 0.0 0,1 26.799347,1.990354" />
      <path d="M -14.212846,-18.41883 A 2.6,1.2938561589143793 0.0 0,1 -9.774369,-17.503936" />
      <path d="M -9.774369,-17.503936 A 2.6,1.2938561589143793 0.0 0,1 -14.974369,-17.503936" />
      <path d="M -14.974369,-17.503936 A 2.6,1.2938561589143793 0.0 0,1 -14.212846,-18.41883" />
      <line x1="12.374369" y1="14.024735" x2="12.374369" y2="15.529872" />
      <line x1="34.718943" y1="9.410639" x2="32.975935" y2="10.278024" />
      <line x1="34.718943" y1="2.905248" x2="34.718943" y2="9.410639" />
      <line x1="28.496403" y1="7.563108" x2="28.008361" y2="7.805976" />
      <line x1="28.496403" y1="7.563108" x2="28.496403" y2="8.048844" />
      <line x1="-12.374369" y1="-20.530125" x2="-12.374369" y2="-14.024735" />
      <line x1="34.718943" y1="9.410639" x2="-11.310168" y2="-13.495149" />
      <line x1="-34.718943" y1="-9.410639" x2="-34.718943" y2="-2.905248" />
      <line x1="-32.975935" y1="-2.037863" x2="-34.718943" y2="-2.905248" />
      <line x1="-29.380287" y1="-3.82719" x2="-29.380287" y2="-5.019155" />
      <line x1="-28.182662" y1="-4.423173" x2="-29.380287" y2="-5.019155" />
      <line x1="-13.438569" y1="-13.495149" x2="-34.718943" y2="-2.905248" />
      <line x1="-17.182695" y1="-15.361691" x2="-18.596908" y2="-14.657926" />
      <line x1="-17.182695" y1="-15.361691" x2="-17.182695" y2="-13.62692" />
      <line x1="-17.182695" y1="-13.62692" x2="-29.910617" y2="-7.293036" />
      <line x1="-29.910617" y1="-8.700566" x2="-29.910617" y2="-7.293036" />
      <line x1="6.22254" y1="3.73922" x2="6.22254" y2="5.47399" />
      <line x1="7.919596" y1="4.583738" x2="7.919596" y2="4.629472" />
      <line x1="6.22254" y1="3.73922" x2="7.919596" y2="4.583738" />
      <line x1="17.536248" y1="-1.8909" x2="17.536248" y2="-0.156129" />
      <line x1="6.22254" y1="3.73922" x2="17.536248" y2="-1.8909" />
      <line x1="19.233304" y1="-1.046382" x2="19.233304" y2="0.688389" />
      <line x1="7.919596" y1="4.583738" x2="19.233304" y2="-1.046382" />
      <line x1="17.536248" y1="-1.8909" x2="19.233304" y2="-1.046382" />
      <line x1="-2.262742" y1="-0.48337" x2="-2.262742" y2="1.251401" />
      <line x1="-0.565685" y1="0.361148" x2="-0.565685" y2="0.406883" />
      <line x1="-2.262742" y1="-0.48337" x2="-0.565685" y2="0.361148" />
      <line x1="9.050967" y1="-6.11349" x2="9.050967" y2="-4.378719" />
      <line x1="-2.262742" y1="-0.48337" x2="9.050967" y2="-6.11349" />
      <line x1="10.748023" y1="-5.268972" x2="10.748023" y2="-3.534201" />
      <line x1="-0.565685" y1="0.361148" x2="10.748023" y2="-5.268972" />
      <line x1="9.050967" y1="-6.11349" x2="10.748023" y2="-5.268972" />
      <path d="M -30.476302,-8.417285 A 2.6,1.2938561589143793 0.0 0,1 -26.037825,-7.502391" />
      <path d="M -26.037825,-7.502391 A 2.6,1.2938561589143793 0.0 0,1 -31.237825,-7.502391" />
      <path d="M -31.237825,-7.502391 A 2.6,1.2938561589143793 0.0 0,1 -30.476302,-8.417285" />
      <line x1="-10.748023" y1="-4.70596" x2="-10.748023" y2="-2.971189" />
      <line x1="-9.050967" y1="-3.861442" x2="-9.050967" y2="-3.815707" />
      <line x1="-10.748023" y1="-4.70596" x2="-9.050967" y2="-3.861442" />
      <line x1="0.565685" y1="-10.33608" x2="0.565685" y2="-8.601309" />
      <line x1="-10.748023" y1="-4.70596" x2="0.565685" y2="-10.33608" />
      <line x1="2.262742" y1="-9.491562" x2="2.262742" y2="-7.756791" />
      <line x1="-9.050967" y1="-3.861442" x2="2.262742" y2="-9.491562" />
      <line x1="0.565685" y1="-10.33608" x2="2.262742" y2="-9.491562" />
      <line x1="-19.233304" y1="-8.92855" x2="-19.233304" y2="-7.193779" />
      <line x1="-17.536248" y1="-8.084032" x2="-17.536248" y2="-8.038297" />
      <line x1="-19.233304" y1="-8.92855" x2="-17.536248" y2="-8.084032" />
      <line x1="-7.919596" y1="-14.55867" x2="-7.919596" y2="-12.823899" />
      <line x1="-19.233304" y1="-8.92855" x2="-7.919596" y2="-14.55867" />
      <line x1="-6.22254" y1="-13.714152" x2="-6.22254" y2="-11.979381" />
      <line x1="-7.919596" y1="-14.55867" x2="-6.22254" y2="-13.714152" />
      <line x1="-17.536248" y1="-8.084032" x2="-6.22254" y2="-13.714152" />
      <path d="M 26.799347,3.898602 A 2.6,1.2938561589143793 0.0 0,1 31.237825,4.813496" />
      <path d="M 31.237825,4.813496 A 2.6,1.2938561589143793 0.0 0,1 26.037825,4.813496" />
      <path d="M 26.037825,4.813496 A 2.6,1.2938561589143793 0.0 0,1 26.799347,3.898602" />
      <path d="M -14.212846,-16.510583 A 2.6,1.2938561589143793 0.0 0,1 -9.774369,-15.595688" />
      <path d="M -9.774369,-15.595688 A 2.6,1.2938561589143793 0.0 0,1 -14.974369,-15.595688" />
      <path d="M -14.974369,-15.595688 A 2.6,1.2938561589143793 0.0 0,1 -14.212846,-16.510583" />
      <line x1="14.869385" y1="20.678449" x2="35.016999" y2="10.652251" />
      <path d="M 35.016999,8.169026 A 4.0,1.9905479367913528 0.0 0,1 35.890516,9.410639" />
      <path d="M 35.890516,9.410639 A 4.0,1.9905479367913528 0.0 0,1 35.880307,9.552764" />
      <path d="M 35.751383,9.93107 A 4.0,1.9905479367913528 0.0 0,1 35.016999,10.652251" />
      <line x1="35.016999" y1="8.169026" x2="-9.879352" y2="-14.173058" />
      <path d="M -14.869385,-14.173058 A 4.0,1.9905479367913528 0.0 0,1 -9.879352,-14.173058" />
      <line x1="-35.016999" y1="-4.146861" x2="-14.869385" y2="-14.173058" />
      <path d="M -35.016999,-1.663636 A 4.0,1.9905479367913528 0.0 0,1 -35.751383,-2.384817" />
      <path d="M -35.880307,-2.763123 A 4.0,1.9905479367913528 0.0 0,1 -35.890516,-2.905248" />
      <path d="M -35.890516,-2.905248 A 4.0,1.9905479367913528 0.0 0,1 -35.016999,-4.146861" />
      <line x1="9.879352" y1="20.678449" x2="-35.016999" y2="-1.663636" />
      <path d="M 14.869385,20.678449 A 4.0,1.9905479367913528 0.0 0,1 13.438569,21.041402" />
      <path d="M 11.310168,21.041402 A 4.0,1.9905479367913528 0.0 0,1 9.879352,20.678449" />
      <line x1="29.910617" y1="8.266873" x2="28.496403" y2="7.563108" />
      <line x1="29.910617" y1="8.266873" x2="28.496403" y2="8.970638" />
      <line x1="29.910617" y1="10.348598" x2="28.496403" y2="9.644833" />
      <line x1="29.910617" y1="8.266873" x2="29.910617" y2="10.348598" />
      <line x1="20.011122" y1="15.274953" x2="18.596908" y2="14.571188" />
      <line x1="29.910617" y1="10.348598" x2="20.011122" y2="15.274953" />
      <line x1="20.011122" y1="13.867423" x2="20.011122" y2="15.274953" />
      <line x1="4.808326" y1="17.044912" x2="6.22254" y2="16.341147" />
      <line x1="-1.555635" y1="13.877969" x2="-0.141421" y2="13.174204" />
      <line x1="4.808326" y1="17.044912" x2="-1.555635" y2="13.877969" />
      <line x1="4.808326" y1="17.044912" x2="4.808326" y2="15.637382" />
      <line x1="-1.555635" y1="10.234951" x2="-0.141421" y2="9.531186" />
      <line x1="-1.555635" y1="13.877969" x2="-1.555635" y2="10.234951" />
      <line x1="-0.141421" y1="10.938716" x2="-1.555635" y2="10.234951" />
      <line x1="-15.697771" y1="6.84032" x2="-14.283557" y2="6.136555" />
      <line x1="-22.061732" y1="3.673377" x2="-20.647518" y2="2.969612" />
      <line x1="-15.697771" y1="6.84032" x2="-22.061732" y2="3.673377" />
      <line x1="-15.697771" y1="6.84032" x2="-15.697771" y2="5.43279" />
      <line x1="-22.061732" y1="0.030358" x2="-20.647518" y2="-0.673406" />
      <line x1="-22.061732" y1="3.673377" x2="-22.061732" y2="0.030358" />
      <line x1="-20.647518" y1="0.734123" x2="-22.061732" y2="0.030358" />
      <line x1="-24.784093" y1="2.145153" x2="-23.369879" y2="1.441388" />
      <line x1="-30.7945" y1="-0.845849" x2="-29.380287" y2="-1.549614" />
      <line x1="-24.784093" y1="2.145153" x2="-30.7945" y2="-0.845849" />
      <line x1="-30.7945" y1="-4.31539" x2="-29.380287" y2="-5.019155" />
      <line x1="-30.7945" y1="-0.845849" x2="-30.7945" y2="-4.31539" />
      <line x1="-29.380287" y1="-3.611625" x2="-30.7945" y2="-4.31539" />
      <line x1="-24.784093" y1="2.145153" x2="-24.784093" y2="0.737623" />
      <line x1="-17.182695" y1="-15.361691" x2="-18.596908" y2="-16.065456" />
      <line x1="-17.182695" y1="-13.62692" x2="-18.596908" y2="-14.330685" />
      <line x1="-29.910617" y1="-7.293036" x2="-31.32483" y2="-7.996801" />
      <line x1="15.202796" y1="12.289964" x2="34.718943" y2="2.578007" />
      <path d="M 15.202796,12.289964 A 4.0,1.9905479367913528 0.0 0,1 9.545942,12.289964" />
      <path d="M 34.718943,2.578007 A 4.0,1.9905479367913528 180.0 0,0 35.890516,1.170477" />
      <line x1="9.545942" y1="12.289964" x2="-34.718943" y2="-9.73788" />
      <path d="M -35.890516,-11.14541 A 4.0,1.9905479367913528 180.0 0,0 -34.718943,-9.73788" />
      <path d="M -29.468675,-7.915853 A 1.175,0.5847234564324599 0.0 0,1 -27.462825,-7.502391" />
      <path d="M -27.462825,-7.502391 A 1.1750000000000005,0.5847234564324602 0.0 0,1 -29.812825,-7.502391" />
      <path d="M -29.812825,-7.502391 A 1.175,0.5847234564324599 0.0 0,1 -29.468675,-7.915853" />
      <path d="M 27.806974,4.400034 A 1.175,0.5847234564324599 0.0 0,1 29.812825,4.813496" />
      <path d="M 29.812825,4.813496 A 1.1750000000000005,0.5847234564324602 0.0 0,1 27.462825,4.813496" />
      <path d="M 27.462825,4.813496 A 1.175,0.5847234564324599 0.0 0,1 27.806974,4.400034" />
      <path d="M -13.205219,-16.00915 A 1.175,0.5847234564324599 0.0 0,1 -11.199369,-15.595688" />
      <path d="M -11.199369,-15.595688 A 1.175,0.5847234564324599 0.0 0,1 -13.549369,-15.595688" />
      <path d="M -13.549369,-15.595688 A 1.175,0.5847234564324599 0.0 0,1 -13.205219,-16.00915" />
      <line x1="12.374369" y1="22.0068" x2="12.374369" y2="22.847914" />
      <line x1="12.427513" y1="22.847738" x2="14.869385" y2="21.632573" />
      <line x1="14.869385" y1="21.632573" x2="14.869385" y2="21.719311" />
      <line x1="14.869385" y1="21.719311" x2="35.016999" y2="11.693114" />
      <line x1="35.016999" y1="11.606375" x2="35.016999" y2="11.693114" />
      <line x1="35.016999" y1="11.606375" x2="35.890163" y2="11.171856" />
      <line x1="37.512015" y1="9.497377" x2="37.512015" y2="10.364763" />
      <line x1="35.016999" y1="10.73899" x2="35.880307" y2="10.309376" />
      <line x1="36.640511" y1="9.93107" x2="37.512015" y2="9.497377" />
      <line x1="35.016999" y1="10.652251" x2="35.016999" y2="10.73899" />
      <line x1="14.869385" y1="20.678449" x2="14.869385" y2="20.765187" />
      <line x1="12.374369" y1="22.0068" x2="14.869385" y2="20.765187" />
      <path d="M 35.016999,10.73899 A 4.0,1.9905479367913528 0.0 0,1 34.718943,10.904907" />
      <line x1="35.016999" y1="8.169026" x2="35.016999" y2="8.255765" />
      <path d="M 34.718943,8.089847 A 4.0,1.9905479367913528 0.0 0,1 35.016999,8.255765" />
      <line x1="-9.879352" y1="-14.173058" x2="-9.879352" y2="-14.08632" />
      <line x1="-12.374369" y1="-15.327932" x2="-9.879352" y2="-14.08632" />
      <line x1="-12.374369" y1="-15.327932" x2="-12.374369" y2="-14.460547" />
      <line x1="35.016999" y1="9.209889" x2="-9.879352" y2="-13.132196" />
      <line x1="35.016999" y1="8.255765" x2="37.512015" y2="9.497377" />
      <path d="M -15.202796,-13.937996 A 4.0,1.9905479367913528 0.0 0,1 -14.869385,-14.08632" />
      <line x1="-14.869385" y1="-14.173058" x2="-14.869385" y2="-14.08632" />
      <path d="M -9.879352,-14.08632 A 4.0,1.9905479367913528 0.0 0,1 -9.545942,-13.937996" />
      <line x1="-37.512015" y1="-2.81851" x2="-37.512015" y2="-1.951124" />
      <line x1="-35.016999" y1="-3.105998" x2="-14.869385" y2="-13.132196" />
      <line x1="-14.869385" y1="-14.08632" x2="-12.374369" y2="-15.327932" />
      <line x1="-35.016999" y1="-4.146861" x2="-35.016999" y2="-4.060122" />
      <line x1="-37.512015" y1="-2.81851" x2="-35.016999" y2="-4.060122" />
      <path d="M -35.016999,-4.060122 A 4.0,1.9905479367913528 0.0 0,1 -34.718943,-4.22604" />
      <line x1="-35.016999" y1="-1.663636" x2="-35.016999" y2="-1.576897" />
      <path d="M -34.718943,-1.41098 A 4.0,1.9905479367913528 0.0 0,1 -35.016999,-1.576897" />
      <line x1="-37.512015" y1="-2.81851" x2="-36.640511" y2="-2.384817" />
      <line x1="-35.880307" y1="-2.006511" x2="-35.016999" y2="-1.576897" />
      <line x1="-35.890163" y1="-1.144031" x2="-35.016999" y2="-0.709512" />
      <line x1="-35.016999" y1="-0.709512" x2="-35.016999" y2="-0.622773" />
      <line x1="9.879352" y1="21.719311" x2="-35.016999" y2="-0.622773" />
      <line x1="9.879352" y1="21.632573" x2="9.879352" y2="21.719311" />
      <line x1="9.879352" y1="21.632573" x2="12.321224" y2="22.847738" />
      <line x1="9.879352" y1="20.765187" x2="12.374369" y2="22.0068" />
      <line x1="9.879352" y1="20.678449" x2="9.879352" y2="20.765187" />
      <path d="M 15.202796,20.616864 A 4.0,1.9905479367913528 0.0 0,1 14.869385,20.765187" />
      <path d="M 9.879352,20.765187 A 4.0,1.9905479367913528 0.0 0,1 9.545942,20.616864" />
      <line x1="34.718943" y1="10.904907" x2="15.202796" y2="20.616864" />
      <line x1="9.545942" y1="20.616864" x2="-34.718943" y2="-1.41098" />
      <line x1="-15.202796" y1="-13.937996" x2="-34.718943" y2="-4.22604" />
      <line x1="34.718943" y1="8.089847" x2="-9.545942" y2="-13.937996" />
      <path d="M -29.468675,-5.877497 A 1.175,0.5847234564324599 0.0 0,1 -27.462825,-5.464035" />
      <path d="M -27.462825,-5.464035 A 1.1750000000000005,0.5847234564324602 0.0 0,1 -29.812825,-5.464035" />
      <path d="M -29.812825,-5.464035 A 1.175,0.5847234564324599 0.0 0,1 -29.468675,-5.877497" />
      <path d="M 27.806974,6.43839 A 1.175,0.5847234564324599 0.0 0,1 29.812825,6.851852" />
      <path d="M 29.812825,6.851852 A 1.1750000000000005,0.5847234564324602 0.0 0,1 27.462825,6.851852" />
      <path d="M 27.462825,6.851852 A 1.175,0.5847234564324599 0.0 0,1 27.806974,6.43839" />
      <path d="M -13.205219,-13.970794 A 1.175,0.5847234564324599 0.0 0,1 -11.199369,-13.557332" />
      <path d="M -11.199369,-13.557332 A 1.175,0.5847234564324599 0.0 0,1 -13.549369,-13.557332" />
      <path d="M -13.549369,-13.557332 A 1.175,0.5847234564324599 0.0 0,1 -13.205219,-13.970794" />
      <line x1="13.667128" y1="22.74109" x2="35.675852" y2="11.788735" />
      <line x1="11.081609" y1="22.74109" x2="-35.675852" y2="-0.527152" />
      <line x1="34.718943" y1="11.772293" x2="15.202796" y2="21.484249" />
      <path d="M 15.202796,21.484249 A 4.0,1.9905479367913528 0.0 0,1 14.869385,21.632573" />
      <path d="M 9.879352,21.632573 A 4.0,1.9905479367913528 0.0 0,1 9.545942,21.484249" />
      <line x1="9.545942" y1="21.484249" x2="-34.718943" y2="-0.543594" />
      <path d="M -34.718943,-0.543594 A 4.0,1.9905479367913528 0.0 0,1 -35.016999,-0.709512" />
      <path d="M 35.016999,11.606375 A 4.0,1.9905479367913528 0.0 0,1 34.718943,11.772293" />
      <path d="M 14.869385,21.719311 A 4.0,1.9905479367913528 0.0 0,1 9.879352,21.719311" />
      <path d="M 35.890516,10.451501 A 4.0,1.9905479367913528 0.0 0,1 35.016999,11.693114" />
      <path d="M -35.016999,-0.622773 A 4.0,1.9905479367913528 0.0 0,1 -35.890516,-1.864386" />
      <line x1="-34.02174" y1="-1.517432" x2="-34.718943" y2="-1.864386" />
      <line x1="-12.374369" y1="-12.983872" x2="-34.718943" y2="-1.864386" />
      <line x1="34.718943" y1="10.451501" x2="-12.374369" y2="-12.983872" />
      <line x1="34.718943" y1="10.451501" x2="34.02174" y2="10.798455" />
      <line x1="12.374369" y1="22.517029" x2="38.53732" y2="9.497377" />
      <line x1="12.374369" y1="22.517029" x2="-38.53732" y2="-2.81851" />
      <line x1="12.374369" y1="22.517029" x2="12.374369" y2="23.384415" />
      <line x1="-34.718943" y1="-1.864386" x2="-34.718943" y2="-1.170477" />
      <line x1="-12.374369" y1="-12.983872" x2="-12.374369" y2="-12.289964" />
      <line x1="34.718943" y1="10.451501" x2="34.718943" y2="11.14541" />
      <line x1="-26.037825" y1="-9.410639" x2="-26.037825" y2="-7.502391" />
      <line x1="-31.237825" y1="-9.410639" x2="-31.237825" y2="-7.502391" />
      <line x1="31.237825" y1="2.905248" x2="31.237825" y2="4.813496" />
      <line x1="26.037825" y1="2.905248" x2="26.037825" y2="4.813496" />
      <line x1="-9.774369" y1="-17.503936" x2="-9.774369" y2="-15.595688" />
      <line x1="-14.974369" y1="-17.503936" x2="-14.974369" y2="-15.595688" />
      <line x1="35.890516" y1="8.18023" x2="35.890516" y2="9.410639" />
      <line x1="-35.890516" y1="-4.135657" x2="-35.890516" y2="-2.905248" />
      <line x1="-27.462825" y1="-7.502391" x2="-27.462825" y2="-5.464035" />
      <line x1="-29.812825" y1="-7.502391" x2="-29.812825" y2="-5.464035" />
      <line x1="29.812825" y1="4.813496" x2="29.812825" y2="6.851852" />
      <line x1="27.462825" y1="4.813496" x2="27.462825" y2="6.851852" />
      <line x1="-11.199369" y1="-15.595688" x2="-11.199369" y2="-13.557332" />
      <line x1="-13.549369" y1="-15.595688" x2="-13.549369" y2="-13.557332" />
      <line x1="34.718943" y1="2.578007" x2="34.718943" y2="10.904907" />
      <line x1="34.718943" y1="7.597212" x2="34.718943" y2="8.089847" />
      <line x1="-15.202796" y1="-14.430632" x2="-15.202796" y2="-13.937996" />
      <line x1="-9.545942" y1="-14.430632" x2="-9.545942" y2="-13.937996" />
      <line x1="-34.718943" y1="-4.718675" x2="-34.718943" y2="-4.22604" />
      <line x1="-34.718943" y1="-9.73788" x2="-34.718943" y2="-1.41098" />
      <line x1="15.202796" y1="12.289964" x2="15.202796" y2="20.616864" />
      <line x1="9.545942" y1="12.289964" x2="9.545942" y2="20.616864" />
      <line x1="15.202796" y1="21.484249" x2="15.202796" y2="22.264896" />
      <line x1="9.545942" y1="21.484249" x2="9.545942" y2="22.264896" />
      <line x1="34.718943" y1="11.772293" x2="34.718943" y2="12.55294" />
      <line x1="-34.718943" y1="-0.543594" x2="-34.718943" y2="0.237052" />
    </g>
    <g fill="none" stroke="rgb(127,45,45)" stroke-width="0.4" id="lid_visible">
      <line x1="41.365747" y1="-2.732757" x2="41.365747" y2="1.170477" />
      <line x1="39.460364" y1="2.118666" x2="41.365747" y2="1.170477" />
      <line x1="15.62706" y1="15.713771" x2="38.113056" y2="4.523908" />
      <line x1="9.121677" y1="15.713771" x2="-38.113056" y2="-7.791979" />
      <line x1="-39.460364" y1="-10.197221" x2="-41.365747" y2="-11.14541" />
      <line x1="-41.365747" y1="-15.048644" x2="-41.365747" y2="-11.14541" />
      <line x1="41.365747" y1="-2.732757" x2="-12.374369" y2="-29.475826" />
      <line x1="-41.365747" y1="-15.048644" x2="-12.374369" y2="-29.475826" />
      <line x1="41.365747" y1="1.170477" x2="38.113056" y2="-0.448182" />
      <line x1="38.113056" y1="-0.448182" x2="38.113056" y2="1.286589" />
      <line x1="38.113056" y1="1.286589" x2="-9.121677" y2="-22.219161" />
      <line x1="-9.121677" y1="-23.953932" x2="-9.121677" y2="-22.219161" />
      <line x1="-9.121677" y1="-23.953932" x2="-12.374369" y2="-25.572591" />
      <line x1="-12.374369" y1="-29.475826" x2="-12.374369" y2="-25.572591" />
      <path d="M 39.460364,1.170477 A 4.6,2.2891301273100555 180.0 0,0 38.113056,-0.448182" />
      <path d="M 38.113056,4.523908 A 4.6,2.2891301273100555 180.0 0,0 39.460364,2.905248" />
      <path d="M 39.460364,2.905248 A 4.6,2.2891301273100555 180.0 0,0 38.113056,1.286589" />
      <path d="M 15.62706,15.713771 A 4.6,2.2891301273100555 0.0 0,1 9.121677,15.713771" />
      <path d="M -38.113056,-11.029298 A 4.6,2.2891301273100555 180.0 0,0 -39.460364,-9.410639" />
      <path d="M -39.460364,-9.410639 A 4.6,2.2891301273100555 180.0 0,0 -38.113056,-7.791979" />
      <path d="M -15.62706,-22.219161 A 4.6,2.2891301273100555 0.0 0,1 -9.121677,-22.219161" />
      <line x1="-38.113056" y1="-11.029298" x2="-15.62706" y2="-22.219161" />
      <path d="M -1.343503,-0.965459 A 1.2,0.5971643810374058 0.0 0,1 0.705025,-0.5432" />
      <path d="M 0.705025,-0.5432 A 1.2,0.5971643810374058 0.0 0,1 -1.694975,-0.5432" />
      <path d="M -1.694975,-0.5432 A 1.2,0.5971643810374058 0.0 0,1 -1.343503,-0.965459" />
      <path d="M 4.596194,-0.965459 A 1.2,0.5971643810374058 0.0 0,1 6.644722,-0.5432" />
      <path d="M 6.644722,-0.5432 A 1.2,0.5971643810374058 0.0 0,1 4.244722,-0.5432" />
      <path d="M 4.244722,-0.5432 A 1.2,0.5971643810374058 0.0 0,1 4.596194,-0.965459" />
      <path d="M 1.626346,-2.443366 A 1.2,0.5971643810374058 0.0 0,1 3.674874,-2.021107" />
      <path d="M 3.674874,-2.021107 A 1.2,0.5971643810374058 0.0 0,1 1.274874,-2.021107" />
      <path d="M 1.274874,-2.021107 A 1.2,0.5971643810374058 0.0 0,1 1.626346,-2.443366" />
      <path d="M 4.596194,-3.921272 A 1.2,0.5971643810374058 0.0 0,1 6.644722,-3.499013" />
      <path d="M 6.644722,-3.499013 A 1.2,0.5971643810374058 0.0 0,1 4.244722,-3.499013" />
      <path d="M 4.244722,-3.499013 A 1.2,0.5971643810374058 0.0 0,1 4.596194,-3.921272" />
      <path d="M -1.343503,-3.921272 A 1.2,0.5971643810374058 0.0 0,1 0.705025,-3.499013" />
      <path d="M 0.705025,-3.499013 A 1.2,0.5971643810374058 0.0 0,1 -1.694975,-3.499013" />
      <path d="M -1.694975,-3.499013 A 1.2,0.5971643810374058 0.0 0,1 -1.343503,-3.921272" />
      <line x1="-12.551145" y1="-15.30467" x2="24.218407" y2="2.993219" />
      <line x1="-12.551145" y1="-15.30467" x2="-7.954951" y2="-17.591907" />
      <line x1="24.218407" y1="2.993219" x2="28.814601" y2="0.705983" />
      <line x1="-7.954951" y1="-17.591907" x2="28.814601" y2="0.705983" />
      <path d="M -38.113056,-12.764069 A 4.6,2.2891301273100555 180.0 0,0 -39.460364,-11.14541" />
      <line x1="-38.113056" y1="-12.764069" x2="-38.113056" y2="-11.029298" />
      <line x1="-41.365747" y1="-11.14541" x2="-38.113056" y2="-12.764069" />
      <line x1="-15.62706" y1="-23.953932" x2="-12.374369" y2="-25.572591" />
      <line x1="-15.62706" y1="-23.953932" x2="-15.62706" y2="-22.219161" />
      <path d="M -15.62706,-23.953932 A 4.6,2.2891301273100555 0.0 0,1 -9.121677,-23.953932" />
      <line x1="24.218407" y1="1.301817" x2="24.218407" y2="2.993219" />
      <line x1="-10.851712" y1="-16.150371" x2="24.218407" y2="1.301817" />
      <line x1="24.218407" y1="1.301817" x2="27.115168" y2="-0.139718" />
      <line x1="39.460364" y1="1.170477" x2="39.460364" y2="2.905248" />
      <line x1="-39.460364" y1="-11.14541" x2="-39.460364" y2="-9.410639" />
    </g>
    <g fill="none" stroke="rgb(191,158,158)" stroke-width="0.22" id="lid_hidden" stroke-dasharray="1.397 0.6985">
      <line x1="12.374369" y1="11.694425" x2="12.374369" y2="15.597659" />
      <line x1="12.374369" y1="11.694425" x2="41.365747" y2="-2.732757" />
      <line x1="38.113056" y1="2.789137" x2="39.460364" y2="2.118666" />
      <line x1="38.113056" y1="2.789137" x2="38.113056" y2="4.523908" />
      <line x1="15.62706" y1="13.979" x2="15.62706" y2="15.713771" />
      <line x1="12.374369" y1="15.597659" x2="15.62706" y2="13.979" />
      <line x1="12.374369" y1="11.694425" x2="-41.365747" y2="-15.048644" />
      <line x1="12.374369" y1="15.597659" x2="9.121677" y2="13.979" />
      <line x1="9.121677" y1="13.979" x2="9.121677" y2="15.713771" />
      <line x1="-38.113056" y1="-9.52675" x2="-38.113056" y2="-7.791979" />
      <line x1="-38.113056" y1="-9.52675" x2="-39.460364" y2="-10.197221" />
      <line x1="-38.820162" y1="-15.048644" x2="12.374369" y2="10.427648" />
      <line x1="-38.820162" y1="-15.048644" x2="-12.374369" y2="-28.209049" />
      <line x1="-12.374369" y1="-28.209049" x2="38.820162" y2="-2.732757" />
      <line x1="12.374369" y1="10.427648" x2="38.820162" y2="-2.732757" />
      <path d="M 38.113056,2.789137 A 4.6,2.2891301273100555 180.0 0,0 39.460364,1.170477" />
      <path d="M 15.62706,13.979 A 4.6,2.2891301273100555 0.0 0,1 9.121677,13.979" />
      <path d="M -39.460364,-11.14541 A 4.6,2.2891301273100555 180.0 0,0 -38.113056,-9.52675" />
      <line x1="-38.820162" y1="-15.048644" x2="-38.820162" y2="-11.10204" />
      <line x1="12.374369" y1="14.374252" x2="-38.820162" y2="-11.10204" />
      <line x1="12.374369" y1="10.427648" x2="12.374369" y2="14.374252" />
      <line x1="-2.983991" y1="4.909855" x2="-23.461803" y2="-5.280662" />
      <line x1="-23.461803" y1="-6.148047" x2="-23.461803" y2="-5.280662" />
      <line x1="-2.983991" y1="4.042469" x2="-23.461803" y2="-6.148047" />
      <line x1="-2.983991" y1="4.042469" x2="-2.983991" y2="4.909855" />
      <line x1="-38.820162" y1="-11.10204" x2="-12.374369" y2="-24.262445" />
      <line x1="-12.374369" y1="-28.209049" x2="-12.374369" y2="-24.262445" />
      <line x1="-30.886424" y1="-17.739057" x2="-30.886424" y2="-16.871671" />
      <line x1="-30.886424" y1="-17.739057" x2="-20.308107" y2="-23.003219" />
      <line x1="-20.308107" y1="-23.003219" x2="-20.308107" y2="-22.135833" />
      <line x1="-30.886424" y1="-16.871671" x2="-20.308107" y2="-22.135833" />
      <line x1="38.820162" y1="1.213847" x2="-12.374369" y2="-24.262445" />
      <line x1="38.820162" y1="-2.732757" x2="38.820162" y2="1.213847" />
      <line x1="23.461803" y1="-8.25055" x2="2.983991" y2="-18.441067" />
      <line x1="2.983991" y1="-19.308452" x2="2.983991" y2="-18.441067" />
      <line x1="23.461803" y1="-9.117936" x2="2.983991" y2="-19.308452" />
      <line x1="23.461803" y1="-9.117936" x2="23.461803" y2="-8.25055" />
      <line x1="12.374369" y1="14.374252" x2="38.820162" y2="1.213847" />
      <line x1="20.308107" y1="7.737235" x2="20.308107" y2="8.604621" />
      <line x1="20.308107" y1="7.737235" x2="30.886424" y2="2.473073" />
      <line x1="30.886424" y1="2.473073" x2="30.886424" y2="3.340459" />
      <line x1="20.308107" y1="8.604621" x2="30.886424" y2="3.340459" />
      <path d="M -1.343503,-2.656861 A 1.2,0.5971643810374058 0.0 0,1 0.705025,-2.234602" />
      <path d="M 0.705025,-2.234602 A 1.2,0.5971643810374058 0.0 0,1 -1.694975,-2.234602" />
      <path d="M -1.694975,-2.234602 A 1.2,0.5971643810374058 0.0 0,1 -1.343503,-2.656861" />
      <path d="M 4.596194,-2.656861 A 1.2,0.5971643810374058 0.0 0,1 6.644722,-2.234602" />
      <path d="M 6.644722,-2.234602 A 1.2,0.5971643810374058 0.0 0,1 4.244722,-2.234602" />
      <path d="M 4.244722,-2.234602 A 1.2,0.5971643810374058 0.0 0,1 4.596194,-2.656861" />
      <path d="M 1.626346,-4.134767 A 1.2,0.5971643810374058 0.0 0,1 3.674874,-3.712508" />
      <path d="M 3.674874,-3.712508 A 1.2,0.5971643810374058 0.0 0,1 1.274874,-3.712508" />
      <path d="M 1.274874,-3.712508 A 1.2,0.5971643810374058 0.0 0,1 1.626346,-4.134767" />
      <path d="M 4.596194,-5.612674 A 1.2,0.5971643810374058 0.0 0,1 6.644722,-5.190415" />
      <path d="M 6.644722,-5.190415 A 1.2,0.5971643810374058 0.0 0,1 4.244722,-5.190415" />
      <path d="M 4.244722,-5.190415 A 1.2,0.5971643810374058 0.0 0,1 4.596194,-5.612674" />
      <path d="M -1.343503,-5.612674 A 1.2,0.5971643810374058 0.0 0,1 0.705025,-5.190415" />
      <path d="M 0.705025,-5.190415 A 1.2,0.5971643810374058 0.0 0,1 -1.694975,-5.190415" />
      <path d="M -1.694975,-5.190415 A 1.2,0.5971643810374058 0.0 0,1 -1.343503,-5.612674" />
      <line x1="-12.551145" y1="-16.996072" x2="-12.551145" y2="-15.30467" />
      <line x1="-12.551145" y1="-16.996072" x2="-10.851712" y2="-16.150371" />
      <line x1="-7.954951" y1="-19.283308" x2="-7.954951" y2="-17.591907" />
      <line x1="-12.551145" y1="-16.996072" x2="-7.954951" y2="-19.283308" />
      <line x1="28.814601" y1="-0.985419" x2="28.814601" y2="0.705983" />
      <line x1="27.115168" y1="-0.139718" x2="28.814601" y2="-0.985419" />
      <line x1="-7.954951" y1="-19.283308" x2="28.814601" y2="-0.985419" />
      <line x1="-2.983991" y1="4.909855" x2="-2.38295" y2="4.610755" />
      <line x1="-2.38295" y1="4.610755" x2="-22.860762" y2="-5.579762" />
      <line x1="-23.461803" y1="-5.280662" x2="-22.860762" y2="-5.579762" />
      <line x1="-22.860762" y1="-6.447148" x2="-22.860762" y2="-5.579762" />
      <line x1="-23.461803" y1="-6.148047" x2="-22.860762" y2="-6.447148" />
      <line x1="-2.983991" y1="4.042469" x2="-2.38295" y2="3.743369" />
      <line x1="-2.38295" y1="3.743369" x2="-22.860762" y2="-6.447148" />
      <line x1="-2.38295" y1="3.743369" x2="-2.38295" y2="4.610755" />
      <line x1="-30.285383" y1="-17.439956" x2="-30.886424" y2="-17.739057" />
      <line x1="-30.285383" y1="-16.572571" x2="-30.886424" y2="-16.871671" />
      <line x1="-30.285383" y1="-17.439956" x2="-30.285383" y2="-16.572571" />
      <line x1="-30.285383" y1="-17.439956" x2="-19.707066" y2="-22.704118" />
      <line x1="-19.707066" y1="-22.704118" x2="-20.308107" y2="-23.003219" />
      <line x1="-19.707066" y1="-21.836733" x2="-20.308107" y2="-22.135833" />
      <line x1="-19.707066" y1="-22.704118" x2="-19.707066" y2="-21.836733" />
      <line x1="-30.285383" y1="-16.572571" x2="-19.707066" y2="-21.836733" />
      <line x1="22.860762" y1="-7.95145" x2="23.461803" y2="-8.25055" />
      <line x1="2.38295" y1="-18.141967" x2="2.983991" y2="-18.441067" />
      <line x1="22.860762" y1="-7.95145" x2="2.38295" y2="-18.141967" />
      <line x1="2.38295" y1="-19.009352" x2="2.38295" y2="-18.141967" />
      <line x1="2.38295" y1="-19.009352" x2="2.983991" y2="-19.308452" />
      <line x1="22.860762" y1="-8.818835" x2="23.461803" y2="-9.117936" />
      <line x1="22.860762" y1="-8.818835" x2="2.38295" y2="-19.009352" />
      <line x1="22.860762" y1="-8.818835" x2="22.860762" y2="-7.95145" />
      <line x1="20.308107" y1="7.737235" x2="19.707066" y2="7.438135" />
      <line x1="19.707066" y1="7.438135" x2="19.707066" y2="8.305521" />
      <line x1="20.308107" y1="8.604621" x2="19.707066" y2="8.305521" />
      <line x1="30.886424" y1="2.473073" x2="30.285383" y2="2.173973" />
      <line x1="19.707066" y1="7.438135" x2="30.285383" y2="2.173973" />
      <line x1="30.285383" y1="2.173973" x2="30.285383" y2="3.041359" />
      <line x1="30.886424" y1="3.340459" x2="30.285383" y2="3.041359" />
      <line x1="19.707066" y1="8.305521" x2="30.285383" y2="3.041359" />
      <line x1="0.705025" y1="-2.234602" x2="0.705025" y2="-0.5432" />
      <line x1="-1.694975" y1="-2.234602" x2="-1.694975" y2="-0.5432" />
      <line x1="6.644722" y1="-2.234602" x2="6.644722" y2="-0.5432" />
      <line x1="4.244722" y1="-2.234602" x2="4.244722" y2="-0.5432" />
      <line x1="3.674874" y1="-3.712508" x2="3.674874" y2="-2.021107" />
      <line x1="1.274874" y1="-3.712508" x2="1.274874" y2="-2.021107" />
      <line x1="6.644722" y1="-5.190415" x2="6.644722" y2="-3.499013" />
      <line x1="4.244722" y1="-5.190415" x2="4.244722" y2="-3.499013" />
      <line x1="0.705025" y1="-5.190415" x2="0.705025" y2="-3.499013" />
      <line x1="-1.694975" y1="-5.190415" x2="-1.694975" y2="-3.499013" />
    </g>
  </g>
</svg>