<?xml version='1.0' encoding='utf-8'?>
<svg width="91.131493mm" height="68.431331mm" viewBox="-45.565747 -31.405156 91.131493 68.431331" version="1.1" xmlns="http://www.w3.org/2000/svg">
  <g transform="scale(1,-1)" stroke-linecap="round">
    <g fill="none" stroke="rgb(30,56,76)" stroke-width="0.4" id="base_visible">
      <path d="M 11.543518,-0.46273 A 1.175,0.5157801437227496 0.0 0,1 13.549369,-0.098019" />
      <path d="M 11.199369,-0.098019 A 1.175,0.5157801437227496 0.0 0,1 11.543518,-0.46273" />
      <path d="M 11.543518,1.648758 A 1.175,0.5157801437227496 0.0 0,1 13.549369,2.01347" />
      <path d="M 13.549369,2.01347 A 1.175,0.5157801437227496 0.0 0,1 11.199369,2.01347" />
      <path d="M 11.199369,2.01347 A 1.175,0.5157801437227496 0.0 0,1 11.543518,1.648758" />
      <path d="M 10.535891,-0.90504 A 2.6,1.1413007435567226 0.0 0,1 14.974369,-0.098019" />
      <path d="M 14.974369,-0.098019 A 2.6,1.1413007435567226 0.0 0,1 13.549369,0.920086" />
      <path d="M 11.199369,0.920086 A 2.6,1.1413007435567226 0.0 0,1 9.774369,-0.098019" />
      <path d="M 9.774369,-0.098019 A 2.6,1.1413007435567226 0.0 0,1 10.535891,-0.90504" />
      <path d="M 10.535891,-2.881753 A 2.6,1.1413007435567226 0.0 0,1 14.974369,-2.074731" />
      <path d="M 9.774369,-2.074731 A 2.6,1.1413007435567226 0.0 0,1 10.535891,-2.881753" />
      <line x1="14.974369" y1="-0.546653" x2="27.247802" y2="-5.934222" />
      <line x1="9.774369" y1="-0.546653" x2="-27.247802" y2="-16.797973" />
      <line x1="6.22254" y1="-6.9479" x2="7.919596" y2="-6.202957" />
      <line x1="6.22254" y1="-6.9479" x2="15.58054" y2="-11.055704" />
      <line x1="7.919596" y1="-6.202957" x2="17.277596" y2="-10.310761" />
      <line x1="-2.262742" y1="-10.672614" x2="-0.565685" y2="-9.927671" />
      <line x1="-2.262742" y1="-10.672614" x2="7.095258" y2="-14.780419" />
      <line x1="-0.565685" y1="-9.927671" x2="8.792315" y2="-14.035476" />
      <path d="M -27.345591,-21.067874 A 2.6,1.1413007435567226 0.0 0,1 -26.654811,-20.815661" />
      <line x1="-10.748023" y1="-14.397329" x2="-9.050967" y2="-13.652386" />
      <line x1="-10.748023" y1="-14.397329" x2="-1.390023" y2="-18.505134" />
      <line x1="-9.050967" y1="-13.652386" x2="0.307033" y2="-17.760191" />
      <line x1="-19.233304" y1="-18.122043" x2="-17.536248" y2="-17.3771" />
      <line x1="-19.233304" y1="-18.122043" x2="-9.875304" y2="-22.229848" />
      <line x1="-17.536248" y1="-17.3771" x2="-8.178248" y2="-21.484905" />
      <line x1="12.374369" y1="2.52925" x2="12.374369" y2="5.356728" />
      <line x1="32.672055" y1="-3.553182" x2="12.374369" y2="5.356728" />
      <line x1="27.476759" y1="-5.046369" x2="18.596908" y2="-1.148454" />
      <line x1="28.496403" y1="-4.613536" x2="28.496403" y2="-3.33754" />
      <line x1="28.496403" y1="-3.33754" x2="18.596908" y2="1.00796" />
      <line x1="18.596908" y1="-1.148454" x2="18.596908" y2="1.00796" />
      <line x1="-10.740985" y1="-24.40686" x2="-12.374369" y2="-25.123853" />
      <line x1="-29.380287" y1="-12.971972" x2="-32.672055" y2="-14.416933" />
      <line x1="-29.380287" y1="-12.971972" x2="-29.380287" y2="-15.589555" />
      <line x1="-23.369879" y1="-13.927655" x2="-27.571982" y2="-15.772218" />
      <line x1="-23.369879" y1="-10.333633" x2="-23.369879" y2="-13.927655" />
      <line x1="-20.647518" y1="-9.13862" x2="-23.369879" y2="-10.333633" />
      <line x1="-20.647518" y1="-9.13862" x2="-20.647518" y2="-12.732643" />
      <line x1="-14.283557" y1="-9.939107" x2="-20.647518" y2="-12.732643" />
      <line x1="-14.283557" y1="-6.345084" x2="-14.283557" y2="-9.939107" />
      <line x1="-0.141421" y1="-0.137226" x2="-14.283557" y2="-6.345084" />
      <line x1="-0.141421" y1="-0.137226" x2="-0.141421" y2="-3.731249" />
      <line x1="6.22254" y1="-0.937713" x2="-0.141421" y2="-3.731249" />
      <line x1="6.22254" y1="2.65631" x2="6.22254" y2="-0.937713" />
      <line x1="12.374369" y1="5.356728" x2="6.22254" y2="2.65631" />
      <line x1="-12.374369" y1="-25.123853" x2="-14.007752" y2="-24.40686" />
      <line x1="-18.596908" y1="-24.908212" x2="-29.910617" y2="-19.941926" />
      <line x1="-29.910617" y1="-19.941926" x2="-29.910617" y2="-19.386486" />
      <line x1="7.919596" y1="-7.692843" x2="7.919596" y2="-6.202957" />
      <line x1="-0.565685" y1="-11.417557" x2="-0.565685" y2="-9.927671" />
      <line x1="-9.050967" y1="-15.142272" x2="-9.050967" y2="-13.652386" />
      <line x1="-17.536248" y1="-18.866986" x2="-17.536248" y2="-17.3771" />
      <path d="M 35.84724,-4.194104 A 4.0,1.7558472977795732 0.0 0,1 35.697311,-3.912584" />
      <path d="M -35.697311,-14.776335 A 4.0,1.7558472977795732 0.0 0,1 -35.84724,-15.057855" />
      <line x1="-30.60842" y1="-12.432869" x2="-29.380287" y2="-12.971972" />
      <line x1="4.994407" y1="3.195413" x2="6.22254" y2="2.65631" />
      <path d="M 14.007752,5.717941 A 4.0,1.7558472977795732 0.0 0,1 10.740985,5.717941" />
      <line x1="20.011122" y1="-0.527668" x2="18.596908" y2="-1.148454" />
      <line x1="28.496403" y1="-4.252382" x2="20.011122" y2="-0.527668" />
      <line x1="20.011122" y1="-0.527668" x2="20.011122" y2="0.387174" />
      <line x1="-24.784093" y1="-13.30687" x2="-23.369879" y2="-13.927655" />
      <line x1="-24.784093" y1="-13.30687" x2="-29.380287" y2="-15.324423" />
      <line x1="-24.598012" y1="-9.794529" x2="-23.369879" y2="-10.333633" />
      <line x1="-24.784093" y1="-9.876211" x2="-24.784093" y2="-13.30687" />
      <line x1="-21.875651" y1="-8.599516" x2="-20.647518" y2="-9.13862" />
      <line x1="-15.697771" y1="-9.318321" x2="-14.283557" y2="-9.939107" />
      <line x1="-15.697771" y1="-9.318321" x2="-20.647518" y2="-11.491071" />
      <line x1="-15.51169" y1="-5.805981" x2="-14.283557" y2="-6.345084" />
      <line x1="-15.697771" y1="-5.887663" x2="-15.697771" y2="-9.318321" />
      <line x1="-1.369554" y1="0.401877" x2="-0.141421" y2="-0.137226" />
      <line x1="4.808326" y1="-0.316927" x2="6.22254" y2="-0.937713" />
      <line x1="4.808326" y1="-0.316927" x2="-0.141421" y2="-2.489678" />
      <line x1="4.808326" y1="3.113731" x2="4.808326" y2="-0.316927" />
      <line x1="-18.596908" y1="-26.149784" x2="-31.32483" y2="-20.562712" />
      <line x1="-29.910617" y1="-19.941926" x2="-31.32483" y2="-20.562712" />
      <line x1="-18.596908" y1="-26.149784" x2="-18.596908" y2="-24.352772" />
      <line x1="-18.596908" y1="-24.352772" x2="-31.32483" y2="-18.7657" />
      <line x1="-31.32483" y1="-20.562712" x2="-31.32483" y2="-18.7657" />
      <path d="M 35.890516,-11.639733 A 4.0,1.7558472977795732 180.0 0,0 34.718943,-12.881305" />
      <line x1="34.718943" y1="-12.881305" x2="-9.545942" y2="-32.311899" />
      <path d="M -34.718943,-23.745056 A 4.0,1.7558472977795732 180.0 0,0 -35.890516,-22.503484" />
      <path d="M -15.202796,-32.311899 A 4.0,1.7558472977795732 0.0 0,1 -9.545942,-32.311899" />
      <line x1="-34.718943" y1="-23.745056" x2="-15.202796" y2="-32.311899" />
      <line x1="35.890516" y1="-2.751555" x2="37.512015" y2="-3.463331" />
      <line x1="35.84724" y1="-3.631064" x2="36.488571" y2="-3.912584" />
      <line x1="-12.374369" y1="-25.361549" x2="-9.879352" y2="-24.266332" />
      <line x1="-9.879352" y1="-24.266332" x2="-9.879352" y2="-24.176482" />
      <line x1="35.016999" y1="-4.558548" x2="35.016999" y2="-4.468697" />
      <line x1="35.016999" y1="-4.558548" x2="37.512015" y2="-3.463331" />
      <line x1="-37.512015" y1="-14.327082" x2="-35.016999" y2="-15.422299" />
      <line x1="-35.016999" y1="-15.422299" x2="-35.016999" y2="-15.332448" />
      <line x1="-14.869385" y1="-24.266332" x2="-14.869385" y2="-24.176482" />
      <line x1="-14.869385" y1="-24.266332" x2="-12.374369" y2="-25.361549" />
      <line x1="-36.488571" y1="-14.776335" x2="-35.84724" y2="-14.494815" />
      <line x1="-37.512015" y1="-14.327082" x2="-35.890516" y2="-13.615306" />
      <line x1="-38.53732" y1="-15.225588" x2="-12.374369" y2="-26.710124" />
      <line x1="38.53732" y1="-4.361837" x2="-12.374369" y2="-26.710124" />
      <line x1="-38.53732" y1="-15.225588" x2="-38.53732" y2="-14.327082" />
      <line x1="12.374369" y1="8.021206" x2="11.465031" y2="7.622041" />
      <line x1="-35.785783" y1="-13.119262" x2="-38.53732" y2="-14.327082" />
      <path d="M -28.064415,-16.439511 A 1.175,0.5157801437227496 0.0 0,1 -27.462825,-15.989318" />
      <path d="M -27.462825,-15.989318 A 1.175,0.5157801437227496 0.0 0,1 -29.66341,-15.737613" />
      <path d="M 27.806974,-5.490278 A 1.175,0.5157801437227496 0.0 0,1 28.064415,-5.57576" />
      <path d="M 29.66341,-4.873862 A 1.175,0.5157801437227496 0.0 0,1 27.462825,-5.125567" />
      <path d="M 27.462825,-5.125567 A 1.175,0.5157801437227496 0.0 0,1 27.806974,-5.490278" />
      <path d="M -11.348783,-22.876649 A 1.175,0.5157801437227496 0.0 0,1 -13.399955,-22.876649" />
      <line x1="12.374369" y1="8.021206" x2="13.283706" y2="7.622041" />
      <line x1="35.785783" y1="-2.255512" x2="38.53732" y2="-3.463331" />
      <line x1="38.53732" y1="-3.463331" x2="-12.374369" y2="-25.811619" />
      <line x1="-38.53732" y1="-14.327082" x2="-12.374369" y2="-25.811619" />
      <path d="M -35.016999,-15.422299 A 4.0,1.7558472977795732 0.0 0,1 -34.718943,-15.568654" />
      <line x1="-15.202796" y1="-24.135497" x2="-34.718943" y2="-15.568654" />
      <path d="M -15.202796,-24.135497 A 4.0,1.7558472977795732 0.0 0,1 -14.869385,-24.266332" />
      <path d="M -9.879352,-24.266332 A 4.0,1.7558472977795732 0.0 0,1 -9.545942,-24.135497" />
      <line x1="34.718943" y1="-4.704903" x2="-9.545942" y2="-24.135497" />
      <path d="M 34.718943,-4.704903 A 4.0,1.7558472977795732 0.0 0,1 35.016999,-4.558548" />
      <path d="M 15.202796,7.153739 A 4.0,1.7558472977795732 0.0 0,1 9.545942,7.153739" />
      <path d="M 35.016999,-4.468697 A 4.0,1.7558472977795732 0.0 0,1 35.890516,-3.373481" />
      <path d="M -14.869385,-24.176482 A 4.0,1.7558472977795732 0.0 0,1 -9.879352,-24.176482" />
      <path d="M -35.890516,-14.237231 A 4.0,1.7558472977795732 0.0 0,1 -35.016999,-15.332448" />
      <line x1="12.374369" y1="6.434935" x2="-33.900188" y2="-13.877829" />
      <line x1="33.900188" y1="-3.014078" x2="12.374369" y2="6.434935" />
      <path d="M 34.718943,-1.413104 A 4.0,1.7558472977795732 180.0 0,0 35.890516,-2.654676" />
      <path d="M 35.890516,-2.654676 A 4.0,1.7558472977795732 180.0 0,0 34.718943,-3.896248" />
      <path d="M -15.202796,-23.326842 A 4.0,1.7558472977795732 0.0 0,1 -9.545942,-23.326842" />
      <path d="M -34.718943,-14.759998 A 4.0,1.7558472977795732 180.0 0,0 -35.890516,-13.518427" />
      <path d="M -35.890516,-13.518427 A 4.0,1.7558472977795732 180.0 0,0 -34.718943,-12.276855" />
      <line x1="-12.374369" y1="-26.710124" x2="-12.374369" y2="-25.811619" />
      <line x1="38.53732" y1="-4.361837" x2="38.53732" y2="-3.463331" />
      <line x1="15.202796" y1="7.153739" x2="34.718943" y2="-1.413104" />
      <line x1="9.545942" y1="7.153739" x2="-34.718943" y2="-12.276855" />
      <line x1="-34.718943" y1="-14.759998" x2="-15.202796" y2="-23.326842" />
      <line x1="34.718943" y1="-3.896248" x2="-9.545942" y2="-23.326842" />
      <line x1="-34.718943" y1="-13.518427" x2="12.374369" y2="7.153739" />
      <line x1="-34.718943" y1="-13.518427" x2="-12.374369" y2="-23.326842" />
      <line x1="-12.374369" y1="-23.326842" x2="34.718943" y2="-2.654676" />
      <line x1="12.374369" y1="7.153739" x2="34.718943" y2="-2.654676" />
      <line x1="12.374369" y1="6.434935" x2="12.374369" y2="7.153739" />
      <line x1="34.718943" y1="-12.881305" x2="34.718943" y2="-6.037958" />
      <line x1="-15.202796" y1="-32.311899" x2="-15.202796" y2="-25.468553" />
      <line x1="-9.545942" y1="-32.311899" x2="-9.545942" y2="-25.468553" />
      <line x1="-34.718943" y1="-23.745056" x2="-34.718943" y2="-16.901709" />
      <line x1="34.718943" y1="-4.704903" x2="34.718943" y2="-3.896248" />
      <line x1="-15.202796" y1="-24.135497" x2="-15.202796" y2="-23.326842" />
      <line x1="-9.545942" y1="-24.135497" x2="-9.545942" y2="-23.326842" />
      <line x1="-34.718943" y1="-15.568654" x2="-34.718943" y2="-14.759998" />
      <line x1="13.549369" y1="-0.098019" x2="13.549369" y2="2.01347" />
      <line x1="11.199369" y1="-0.098019" x2="11.199369" y2="2.01347" />
      <line x1="14.974369" y1="-2.074731" x2="14.974369" y2="-0.098019" />
      <line x1="9.774369" y1="-2.074731" x2="9.774369" y2="-0.098019" />
      <line x1="35.890516" y1="-11.639733" x2="35.890516" y2="-5.523683" />
      <line x1="-35.890516" y1="-22.503484" x2="-35.890516" y2="-16.387434" />
      <line x1="-27.462825" y1="-16.703586" x2="-27.462825" y2="-15.989318" />
      <line x1="27.462825" y1="-5.839835" x2="27.462825" y2="-5.125567" />
      <line x1="-11.199369" y1="-24.608073" x2="-11.199369" y2="-24.482458" />
      <line x1="-13.549369" y1="-24.608073" x2="-13.549369" y2="-24.482458" />
      <line x1="35.890516" y1="-3.373481" x2="35.890516" y2="-2.654676" />
      <line x1="-35.890516" y1="-14.237231" x2="-35.890516" y2="-13.518427" />
    </g>
    <g fill="none" stroke="rgb(158,173,183)" stroke-width="0.22" id="base_hidden" stroke-dasharray="1.397 0.6985">
      <path d="M 13.549369,-0.098019 A 1.175,0.5157801437227496 0.0 0,1 11.199369,-0.098019" />
      <path d="M 13.549369,0.920086 A 2.6,1.1413007435567226 0.0 0,1 11.199369,0.920086" />
      <path d="M 14.974369,-2.074731 A 2.6,1.1413007435567226 0.0 0,1 9.774369,-2.074731" />
      <line x1="12.374369" y1="0.594647" x2="14.974369" y2="-0.546653" />
      <line x1="27.247802" y1="-5.934222" x2="34.718943" y2="-9.213768" />
      <line x1="34.718943" y1="-9.213768" x2="-12.374369" y2="-29.885934" />
      <line x1="12.374369" y1="0.594647" x2="9.774369" y2="-0.546653" />
      <line x1="-27.247802" y1="-16.797973" x2="-34.718943" y2="-20.077519" />
      <line x1="-34.718943" y1="-20.077519" x2="-12.374369" y2="-29.885934" />
      <line x1="15.58054" y1="-11.055704" x2="17.536248" y2="-11.914186" />
      <line x1="17.277596" y1="-10.310761" x2="19.233304" y2="-11.169243" />
      <line x1="17.536248" y1="-11.914186" x2="19.233304" y2="-11.169243" />
      <line x1="7.095258" y1="-14.780419" x2="9.050967" y2="-15.6389" />
      <line x1="8.792315" y1="-14.035476" x2="10.748023" y2="-14.893957" />
      <line x1="9.050967" y1="-15.6389" x2="10.748023" y2="-14.893957" />
      <path d="M -30.476302,-20.88454 A 2.6,1.1413007435567226 0.0 0,1 -27.345591,-21.067874" />
      <path d="M -26.654811,-20.815661 A 2.6,1.1413007435567226 0.0 0,1 -26.037825,-20.077519" />
      <path d="M -26.037825,-20.077519 A 2.6,1.1413007435567226 0.0 0,1 -31.237825,-20.077519" />
      <path d="M -31.237825,-20.077519 A 2.6,1.1413007435567226 0.0 0,1 -30.476302,-20.88454" />
      <line x1="-1.390023" y1="-18.505134" x2="0.565685" y2="-19.363615" />
      <line x1="0.307033" y1="-17.760191" x2="2.262742" y2="-18.618672" />
      <line x1="0.565685" y1="-19.363615" x2="2.262742" y2="-18.618672" />
      <line x1="-9.875304" y1="-22.229848" x2="-7.919596" y2="-23.08833" />
      <line x1="-7.919596" y1="-23.08833" x2="-6.22254" y2="-22.343387" />
      <line x1="-8.178248" y1="-21.484905" x2="-6.22254" y2="-22.343387" />
      <path d="M 26.799347,-10.020789 A 2.6,1.1413007435567226 0.0 0,1 31.237825,-9.213768" />
      <path d="M 31.237825,-9.213768 A 2.6,1.1413007435567226 0.0 0,1 26.037825,-9.213768" />
      <path d="M 26.037825,-9.213768 A 2.6,1.1413007435567226 0.0 0,1 26.799347,-10.020789" />
      <path d="M -14.212846,-28.023576 A 2.6,1.1413007435567226 0.0 0,1 -9.774369,-27.216555" />
      <path d="M -9.774369,-27.216555 A 2.6,1.1413007435567226 0.0 0,1 -14.974369,-27.216555" />
      <path d="M -14.974369,-27.216555 A 2.6,1.1413007435567226 0.0 0,1 -14.212846,-28.023576" />
      <line x1="12.374369" y1="0.594647" x2="12.374369" y2="2.52925" />
      <line x1="34.718943" y1="-4.451687" x2="32.672055" y2="-3.553182" />
      <line x1="34.718943" y1="-9.213768" x2="34.718943" y2="-4.451687" />
      <line x1="28.496403" y1="-5.493954" x2="27.476759" y2="-5.046369" />
      <line x1="28.496403" y1="-5.493954" x2="28.496403" y2="-4.613536" />
      <line x1="-12.374369" y1="-29.885934" x2="-12.374369" y2="-25.123853" />
      <line x1="34.718943" y1="-4.451687" x2="-10.740985" y2="-24.40686" />
      <line x1="-34.718943" y1="-20.077519" x2="-34.718943" y2="-15.315438" />
      <line x1="-32.672055" y1="-14.416933" x2="-34.718943" y2="-15.315438" />
      <line x1="-29.380287" y1="-15.589555" x2="-29.380287" y2="-16.565995" />
      <line x1="-27.571982" y1="-15.772218" x2="-29.380287" y2="-16.565995" />
      <line x1="-14.007752" y1="-24.40686" x2="-34.718943" y2="-15.315438" />
      <line x1="-17.182695" y1="-25.528998" x2="-18.596908" y2="-24.908212" />
      <line x1="-17.182695" y1="-25.528998" x2="-17.182695" y2="-23.731986" />
      <line x1="-17.182695" y1="-23.731986" x2="-29.910617" y2="-18.144914" />
      <line x1="-29.910617" y1="-19.386486" x2="-29.910617" y2="-18.144914" />
      <line x1="6.22254" y1="-9.373865" x2="6.22254" y2="-6.9479" />
      <line x1="7.919596" y1="-8.628922" x2="7.919596" y2="-7.692843" />
      <line x1="6.22254" y1="-9.373865" x2="7.919596" y2="-8.628922" />
      <line x1="17.536248" y1="-14.340151" x2="17.536248" y2="-11.914186" />
      <line x1="6.22254" y1="-9.373865" x2="17.536248" y2="-14.340151" />
      <line x1="19.233304" y1="-13.595208" x2="19.233304" y2="-11.169243" />
      <line x1="7.919596" y1="-8.628922" x2="19.233304" y2="-13.595208" />
      <line x1="17.536248" y1="-14.340151" x2="19.233304" y2="-13.595208" />
      <line x1="-2.262742" y1="-13.09858" x2="-2.262742" y2="-10.672614" />
      <line x1="-0.565685" y1="-12.353637" x2="-0.565685" y2="-11.417557" />
      <line x1="-2.262742" y1="-13.09858" x2="-0.565685" y2="-12.353637" />
      <line x1="9.050967" y1="-18.064866" x2="9.050967" y2="-15.6389" />
      <line x1="-2.262742" y1="-13.09858" x2="9.050967" y2="-18.064866" />
      <line x1="10.748023" y1="-17.319923" x2="10.748023" y2="-14.893957" />
      <line x1="-0.565685" y1="-12.353637" x2="10.748023" y2="-17.319923" />
      <line x1="9.050967" y1="-18.064866" x2="10.748023" y2="-17.319923" />
      <path d="M -30.476302,-18.907827 A 2.6,1.1413007435567226 0.0 0,1 -26.037825,-18.100806" />
      <path d="M -26.037825,-18.100806 A 2.6,1.1413007435567226 0.0 0,1 -31.237825,-18.100806" />
      <path d="M -31.237825,-18.100806 A 2.6,1.1413007435567226 0.0 0,1 -30.476302,-18.907827" />
      <line x1="-10.748023" y1="-16.823294" x2="-10.748023" y2="-14.397329" />
      <line x1="-9.050967" y1="-16.078351" x2="-9.050967" y2="-15.142272" />
      <line x1="-10.748023" y1="-16.823294" x2="-9.050967" y2="-16.078351" />
      <line x1="0.565685" y1="-21.78958" x2="0.565685" y2="-19.363615" />
      <line x1="-10.748023" y1="-16.823294" x2="0.565685" y2="-21.78958" />
      <line x1="2.262742" y1="-21.044637" x2="2.262742" y2="-18.618672" />
      <line x1="-9.050967" y1="-16.078351" x2="2.262742" y2="-21.044637" />
      <line x1="0.565685" y1="-21.78958" x2="2.262742" y2="-21.044637" />
      <line x1="-19.233304" y1="-20.548009" x2="-19.233304" y2="-18.122043" />
      <line x1="-17.536248" y1="-19.803066" x2="-17.536248" y2="-18.866986" />
      <line x1="-19.233304" y1="-20.548009" x2="-17.536248" y2="-19.803066" />
      <line x1="-7.919596" y1="-25.514295" x2="-7.919596" y2="-23.08833" />
      <line x1="-19.233304" y1="-20.548009" x2="-7.919596" y2="-25.514295" />
      <line x1="-6.22254" y1="-24.769352" x2="-6.22254" y2="-22.343387" />
      <line x1="-7.919596" y1="-25.514295" x2="-6.22254" y2="-24.769352" />
      <line x1="-17.536248" y1="-19.803066" x2="-6.22254" y2="-24.769352" />
      <path d="M 26.799347,-8.044077 A 2.6,1.1413007435567226 0.0 0,1 31.237825,-7.237055" />
      <path d="M 31.237825,-7.237055 A 2.6,1.1413007435567226 0.0 0,1 26.037825,-7.237055" />
      <path d="M 26.037825,-7.237055 A 2.6,1.1413007435567226 0.0 0,1 26.799347,-8.044077" />
      <path d="M -14.212846,-26.046864 A 2.6,1.1413007435567226 0.0 0,1 -9.774369,-25.239842" />
      <path d="M -9.774369,-25.239842 A 2.6,1.1413007435567226 0.0 0,1 -14.974369,-25.239842" />
      <path d="M -14.974369,-25.239842 A 2.6,1.1413007435567226 0.0 0,1 -14.212846,-26.046864" />
      <line x1="14.869385" y1="5.487563" x2="35.016999" y2="-3.356471" />
      <path d="M 35.016999,-5.546904 A 4.0,1.7558472977795732 0.0 0,1 35.890516,-4.451687" />
      <path d="M 35.890516,-4.451687 A 4.0,1.7558472977795732 0.0 0,1 35.84724,-4.194104" />
      <path d="M 35.697311,-3.912584 A 4.0,1.7558472977795732 0.0 0,1 35.016999,-3.356471" />
      <line x1="35.016999" y1="-5.546904" x2="-9.879352" y2="-25.254688" />
      <path d="M -14.869385,-25.254688 A 4.0,1.7558472977795732 0.0 0,1 -9.879352,-25.254688" />
      <line x1="-35.016999" y1="-16.410655" x2="-14.869385" y2="-25.254688" />
      <path d="M -35.016999,-14.220221 A 4.0,1.7558472977795732 0.0 0,1 -35.697311,-14.776335" />
      <path d="M -35.84724,-15.057855 A 4.0,1.7558472977795732 0.0 0,1 -35.890516,-15.315438" />
      <path d="M -35.890516,-15.315438 A 4.0,1.7558472977795732 0.0 0,1 -35.016999,-16.410655" />
      <line x1="-30.776823" y1="-12.358946" x2="-35.016999" y2="-14.220221" />
      <line x1="-30.776823" y1="-12.358946" x2="-30.60842" y2="-12.432869" />
      <line x1="4.826004" y1="3.269336" x2="4.994407" y2="3.195413" />
      <line x1="9.879352" y1="5.487563" x2="4.826004" y2="3.269336" />
      <path d="M 14.869385,5.487563 A 4.0,1.7558472977795732 0.0 0,1 14.007752,5.717941" />
      <path d="M 10.740985,5.717941 A 4.0,1.7558472977795732 0.0 0,1 9.879352,5.487563" />
      <line x1="29.910617" y1="-4.873168" x2="28.496403" y2="-5.493954" />
      <line x1="29.910617" y1="-4.873168" x2="28.496403" y2="-4.252382" />
      <line x1="29.910617" y1="-2.716755" x2="28.496403" y2="-3.33754" />
      <line x1="29.910617" y1="-4.873168" x2="29.910617" y2="-2.716755" />
      <line x1="20.011122" y1="1.628746" x2="18.596908" y2="1.00796" />
      <line x1="29.910617" y1="-2.716755" x2="20.011122" y2="1.628746" />
      <line x1="20.011122" y1="0.387174" x2="20.011122" y2="1.628746" />
      <line x1="-30.7945" y1="-12.351186" x2="-30.776823" y2="-12.358946" />
      <line x1="-30.7945" y1="-15.945209" x2="-29.380287" y2="-16.565995" />
      <line x1="-30.7945" y1="-12.351186" x2="-30.7945" y2="-15.945209" />
      <line x1="-29.380287" y1="-15.324423" x2="-30.7945" y2="-15.945209" />
      <line x1="-24.784093" y1="-9.712847" x2="-24.766415" y2="-9.720607" />
      <line x1="-24.766415" y1="-9.720607" x2="-24.598012" y2="-9.794529" />
      <line x1="-24.784093" y1="-9.712847" x2="-24.784093" y2="-9.876211" />
      <line x1="-22.044054" y1="-8.525594" x2="-24.766415" y2="-9.720607" />
      <line x1="-22.044054" y1="-8.525594" x2="-21.875651" y2="-8.599516" />
      <line x1="-22.556706" y1="-8.120858" x2="-22.044054" y2="-8.345893" />
      <line x1="-22.044054" y1="-8.345893" x2="-22.044054" y2="-8.525594" />
      <line x1="-22.061732" y1="-12.111857" x2="-20.647518" y2="-12.732643" />
      <line x1="-22.061732" y1="-8.427984" x2="-22.061732" y2="-12.111857" />
      <line x1="-22.556706" y1="-8.210709" x2="-22.061732" y2="-8.427984" />
      <line x1="-22.556706" y1="-8.120858" x2="-22.556706" y2="-8.210709" />
      <line x1="-20.647518" y1="-11.491071" x2="-22.061732" y2="-12.111857" />
      <line x1="-16.192745" y1="-5.327322" x2="-15.680093" y2="-5.552357" />
      <line x1="-15.680093" y1="-5.552357" x2="-15.680093" y2="-5.732058" />
      <line x1="-15.680093" y1="-5.732058" x2="-15.51169" y2="-5.805981" />
      <line x1="-15.697771" y1="-5.634448" x2="-15.697771" y2="-5.887663" />
      <line x1="-16.192745" y1="-5.417173" x2="-15.697771" y2="-5.634448" />
      <line x1="-16.192745" y1="-5.327322" x2="-16.192745" y2="-5.417173" />
      <line x1="-1.537957" y1="0.4758" x2="-15.680093" y2="-5.732058" />
      <line x1="-1.537957" y1="0.4758" x2="-1.369554" y2="0.401877" />
      <line x1="-2.05061" y1="0.880536" x2="-1.537957" y2="0.655501" />
      <line x1="-1.537957" y1="0.655501" x2="-1.537957" y2="0.4758" />
      <line x1="-1.555635" y1="-3.110463" x2="-0.141421" y2="-3.731249" />
      <line x1="-1.555635" y1="0.57341" x2="-1.555635" y2="-3.110463" />
      <line x1="-2.05061" y1="0.790685" x2="-1.555635" y2="0.57341" />
      <line x1="-2.05061" y1="0.880536" x2="-2.05061" y2="0.790685" />
      <line x1="-0.141421" y1="-2.489678" x2="-1.555635" y2="-3.110463" />
      <line x1="4.313351" y1="3.674072" x2="4.826004" y2="3.449037" />
      <line x1="4.826004" y1="3.449037" x2="4.826004" y2="3.269336" />
      <line x1="4.808326" y1="3.366946" x2="4.808326" y2="3.113731" />
      <line x1="4.313351" y1="3.584221" x2="4.808326" y2="3.366946" />
      <line x1="4.313351" y1="3.674072" x2="4.313351" y2="3.584221" />
      <line x1="-17.182695" y1="-25.528998" x2="-18.596908" y2="-26.149784" />
      <line x1="-17.182695" y1="-23.731986" x2="-18.596908" y2="-24.352772" />
      <line x1="-29.910617" y1="-18.144914" x2="-31.32483" y2="-18.7657" />
      <line x1="15.202796" y1="-1.831318" x2="34.718943" y2="-10.398162" />
      <path d="M 15.202796,-1.831318 A 4.0,1.7558472977795732 0.0 0,1 9.545942,-1.831318" />
      <path d="M 34.718943,-10.398162 A 4.0,1.7558472977795732 180.0 0,0 35.890516,-11.639733" />
      <line x1="9.545942" y1="-1.831318" x2="-34.718943" y2="-21.261912" />
      <path d="M -35.890516,-22.503484 A 4.0,1.7558472977795732 180.0 0,0 -34.718943,-21.261912" />
      <path d="M -29.468675,-18.465518 A 1.175,0.5157801437227496 0.0 0,1 -27.462825,-18.100806" />
      <path d="M -27.462825,-18.100806 A 1.1750000000000005,0.5157801437227498 0.0 0,1 -29.812825,-18.100806" />
      <path d="M -29.812825,-18.100806 A 1.175,0.5157801437227496 0.0 0,1 -29.468675,-18.465518" />
      <path d="M 27.806974,-7.601767 A 1.175,0.5157801437227496 0.0 0,1 29.812825,-7.237055" />
      <path d="M 29.812825,-7.237055 A 1.1750000000000005,0.5157801437227498 0.0 0,1 27.462825,-7.237055" />
      <path d="M 27.462825,-7.237055 A 1.175,0.5157801437227496 0.0 0,1 27.806974,-7.601767" />
      <path d="M -13.205219,-25.604554 A 1.175,0.5157801437227496 0.0 0,1 -11.199369,-25.239842" />
      <path d="M -11.199369,-25.239842 A 1.175,0.5157801437227496 0.0 0,1 -13.549369,-25.239842" />
      <path d="M -13.549369,-25.239842 A 1.175,0.5157801437227496 0.0 0,1 -13.205219,-25.604554" />
      <line x1="12.374369" y1="6.67263" x2="12.374369" y2="7.571136" />
      <line x1="12.374369" y1="7.571136" x2="14.869385" y2="6.475919" />
      <line x1="14.869385" y1="6.475919" x2="14.869385" y2="6.56577" />
      <line x1="14.869385" y1="6.56577" x2="35.016999" y2="-2.278264" />
      <line x1="35.016999" y1="-2.368114" x2="35.016999" y2="-2.278264" />
      <line x1="35.016999" y1="-2.368114" x2="35.890516" y2="-2.751555" />
      <line x1="37.512015" y1="-4.361837" x2="37.512015" y2="-3.463331" />
      <line x1="35.016999" y1="-3.26662" x2="35.84724" y2="-3.631064" />
      <line x1="36.488571" y1="-3.912584" x2="37.512015" y2="-4.361837" />
      <line x1="35.016999" y1="-3.356471" x2="35.016999" y2="-3.26662" />
      <line x1="14.869385" y1="5.487563" x2="14.869385" y2="5.577413" />
      <line x1="12.374369" y1="6.67263" x2="14.869385" y2="5.577413" />
      <path d="M 35.016999,-3.26662 A 4.0,1.7558472977795732 0.0 0,1 34.718943,-3.120265" />
      <line x1="35.016999" y1="-5.546904" x2="35.016999" y2="-5.457054" />
      <path d="M 34.718943,-5.603408 A 4.0,1.7558472977795732 0.0 0,1 35.016999,-5.457054" />
      <line x1="-9.879352" y1="-25.254688" x2="-9.879352" y2="-25.164838" />
      <line x1="-12.374369" y1="-26.260055" x2="-9.879352" y2="-25.164838" />
      <line x1="-12.374369" y1="-26.260055" x2="-12.374369" y2="-25.361549" />
      <line x1="35.016999" y1="-4.468697" x2="-9.879352" y2="-24.176482" />
      <line x1="35.016999" y1="-5.457054" x2="37.512015" y2="-4.361837" />
      <path d="M -15.202796,-25.034003 A 4.0,1.7558472977795732 0.0 0,1 -14.869385,-25.164838" />
      <line x1="-14.869385" y1="-25.254688" x2="-14.869385" y2="-25.164838" />
      <path d="M -9.879352,-25.164838 A 4.0,1.7558472977795732 0.0 0,1 -9.545942,-25.034003" />
      <line x1="-37.512015" y1="-15.225588" x2="-37.512015" y2="-14.327082" />
      <line x1="-35.016999" y1="-15.332448" x2="-14.869385" y2="-24.176482" />
      <line x1="-14.869385" y1="-25.164838" x2="-12.374369" y2="-26.260055" />
      <line x1="-35.016999" y1="-16.410655" x2="-35.016999" y2="-16.320805" />
      <line x1="-37.512015" y1="-15.225588" x2="-35.016999" y2="-16.320805" />
      <path d="M -35.016999,-16.320805 A 4.0,1.7558472977795732 0.0 0,1 -34.718943,-16.467159" />
      <line x1="-35.016999" y1="-14.220221" x2="-35.016999" y2="-14.130371" />
      <path d="M -34.718943,-13.984016 A 4.0,1.7558472977795732 0.0 0,1 -35.016999,-14.130371" />
      <line x1="4.826004" y1="3.449037" x2="-1.537957" y2="0.655501" />
      <line x1="-15.680093" y1="-5.552357" x2="-22.044054" y2="-8.345893" />
      <line x1="-24.766415" y1="-9.720607" x2="-30.776823" y2="-12.358946" />
      <line x1="-37.512015" y1="-15.225588" x2="-36.488571" y2="-14.776335" />
      <line x1="-35.84724" y1="-14.494815" x2="-35.016999" y2="-14.130371" />
      <line x1="-35.890516" y1="-13.615306" x2="-35.016999" y2="-13.231865" />
      <line x1="-35.016999" y1="-13.231865" x2="-35.016999" y2="-13.142015" />
      <line x1="9.879352" y1="6.56577" x2="-35.016999" y2="-13.142015" />
      <line x1="9.879352" y1="6.475919" x2="9.879352" y2="6.56577" />
      <line x1="9.879352" y1="6.475919" x2="12.374369" y2="7.571136" />
      <line x1="9.879352" y1="5.577413" x2="12.374369" y2="6.67263" />
      <line x1="9.879352" y1="5.487563" x2="9.879352" y2="5.577413" />
      <path d="M 15.202796,5.446578 A 4.0,1.7558472977795732 0.0 0,1 14.869385,5.577413" />
      <path d="M 9.879352,5.577413 A 4.0,1.7558472977795732 0.0 0,1 9.545942,5.446578" />
      <line x1="34.718943" y1="-3.120265" x2="15.202796" y2="5.446578" />
      <line x1="-24.784093" y1="-9.712847" x2="-30.7945" y2="-12.351186" />
      <line x1="9.545942" y1="5.446578" x2="4.808326" y2="3.366946" />
      <line x1="-22.061732" y1="-8.427984" x2="-34.718943" y2="-13.984016" />
      <line x1="-1.555635" y1="0.57341" x2="-15.697771" y2="-5.634448" />
      <line x1="-16.192745" y1="-5.327322" x2="-22.556706" y2="-8.120858" />
      <line x1="-22.556706" y1="-8.210709" x2="-38.53732" y2="-15.225588" />
      <line x1="-15.202796" y1="-25.034003" x2="-34.718943" y2="-16.467159" />
      <line x1="34.718943" y1="-5.603408" x2="-9.545942" y2="-25.034003" />
      <line x1="12.374369" y1="7.1227" x2="4.313351" y2="3.584221" />
      <line x1="12.374369" y1="7.1227" x2="38.53732" y2="-4.361837" />
      <line x1="4.313351" y1="3.674072" x2="-2.05061" y2="0.880536" />
      <line x1="-2.05061" y1="0.790685" x2="-16.192745" y2="-5.417173" />
      <line x1="11.465031" y1="7.622041" x2="-35.785783" y2="-13.119262" />
      <line x1="12.374369" y1="7.1227" x2="12.374369" y2="8.021206" />
      <path d="M -29.468675,-16.354029 A 1.175,0.5157801437227496 0.0 0,1 -28.064415,-16.439511" />
      <path d="M -29.66341,-15.737613 A 1.175,0.5157801437227496 0.0 0,1 -29.812825,-15.989318" />
      <path d="M -29.812825,-15.989318 A 1.175,0.5157801437227496 0.0 0,1 -29.468675,-16.354029" />
      <path d="M 28.064415,-5.57576 A 1.175,0.5157801437227496 0.0 0,1 29.812825,-5.125567" />
      <path d="M 29.812825,-5.125567 A 1.175,0.5157801437227496 0.0 0,1 29.66341,-4.873862" />
      <path d="M -13.205219,-23.493066 A 1.175,0.5157801437227496 0.0 0,1 -11.199369,-23.128354" />
      <path d="M -11.199369,-23.128354 A 1.175,0.5157801437227496 0.0 0,1 -11.348783,-22.876649" />
      <path d="M -13.399955,-22.876649 A 1.175,0.5157801437227496 0.0 0,1 -13.549369,-23.128354" />
      <path d="M -13.549369,-23.128354 A 1.175,0.5157801437227496 0.0 0,1 -13.205219,-23.493066" />
      <line x1="13.283706" y1="7.622041" x2="35.785783" y2="-2.255512" />
      <line x1="34.718943" y1="-2.22176" x2="15.202796" y2="6.345084" />
      <path d="M 15.202796,6.345084 A 4.0,1.7558472977795732 0.0 0,1 14.869385,6.475919" />
      <path d="M 9.879352,6.475919 A 4.0,1.7558472977795732 0.0 0,1 9.545942,6.345084" />
      <line x1="9.545942" y1="6.345084" x2="-34.718943" y2="-13.08551" />
      <path d="M -34.718943,-13.08551 A 4.0,1.7558472977795732 0.0 0,1 -35.016999,-13.231865" />
      <path d="M 35.016999,-2.368114 A 4.0,1.7558472977795732 0.0 0,1 34.718943,-2.22176" />
      <path d="M 14.869385,6.56577 A 4.0,1.7558472977795732 0.0 0,1 9.879352,6.56577" />
      <path d="M 35.890516,-3.373481 A 4.0,1.7558472977795732 0.0 0,1 35.016999,-2.278264" />
      <path d="M -35.016999,-13.142015 A 4.0,1.7558472977795732 0.0 0,1 -35.890516,-14.237231" />
      <line x1="-33.900188" y1="-13.877829" x2="-34.718943" y2="-14.237231" />
      <line x1="-12.374369" y1="-24.045647" x2="-34.718943" y2="-14.237231" />
      <line x1="34.718943" y1="-3.373481" x2="-12.374369" y2="-24.045647" />
      <line x1="34.718943" y1="-3.373481" x2="33.900188" y2="-3.014078" />
      <line x1="-34.718943" y1="-14.237231" x2="-34.718943" y2="-13.518427" />
      <line x1="-12.374369" y1="-24.045647" x2="-12.374369" y2="-23.326842" />
      <line x1="34.718943" y1="-3.373481" x2="34.718943" y2="-2.654676" />
      <line x1="-26.037825" y1="-20.077519" x2="-26.037825" y2="-18.100806" />
      <line x1="-31.237825" y1="-20.077519" x2="-31.237825" y2="-18.100806" />
      <line x1="31.237825" y1="-9.213768" x2="31.237825" y2="-7.237055" />
      <line x1="26.037825" y1="-9.213768" x2="26.037825" y2="-7.237055" />
      <line x1="-9.774369" y1="-27.216555" x2="-9.774369" y2="-25.239842" />
      <line x1="-14.974369" y1="-27.216555" x2="-14.974369" y2="-25.239842" />
      <line x1="35.890516" y1="-5.523683" x2="35.890516" y2="-4.451687" />
      <line x1="-35.890516" y1="-16.387434" x2="-35.890516" y2="-15.315438" />
      <line x1="-27.462825" y1="-18.100806" x2="-27.462825" y2="-16.703586" />
      <line x1="-29.812825" y1="-18.100806" x2="-29.812825" y2="-15.989318" />
      <line x1="29.812825" y1="-7.237055" x2="29.812825" y2="-5.125567" />
      <line x1="27.462825" y1="-7.237055" x2="27.462825" y2="-5.839835" />
      <line x1="-11.199369" y1="-25.239842" x2="-11.199369" y2="-24.608073" />
      <line x1="-11.199369" y1="-24.482458" x2="-11.199369" y2="-23.128354" />
      <line x1="-13.549369" y1="-25.239842" x2="-13.549369" y2="-24.608073" />
      <line x1="-13.549369" y1="-24.482458" x2="-13.549369" y2="-23.128354" />
      <line x1="34.718943" y1="-10.398162" x2="34.718943" y2="-3.120265" />
      <line x1="34.718943" y1="-6.037958" x2="34.718943" y2="-5.603408" />
      <line x1="-15.202796" y1="-25.468553" x2="-15.202796" y2="-25.034003" />
      <line x1="-9.545942" y1="-25.468553" x2="-9.545942" y2="-25.034003" />
      <line x1="-34.718943" y1="-16.901709" x2="-34.718943" y2="-16.467159" />
      <line x1="-34.718943" y1="-21.261912" x2="-34.718943" y2="-13.984016" />
      <line x1="15.202796" y1="-1.831318" x2="15.202796" y2="5.446578" />
      <line x1="9.545942" y1="-1.831318" x2="9.545942" y2="5.446578" />
      <line x1="15.202796" y1="6.345084" x2="15.202796" y2="7.153739" />
      <line x1="9.545942" y1="6.345084" x2="9.545942" y2="7.153739" />
      <line x1="34.718943" y1="-2.22176" x2="34.718943" y2="-1.413104" />
      <line x1="-34.718943" y1="-13.08551" x2="-34.718943" y2="-12.276855" />
    </g>
    <g fill="none" stroke="rgb(30,107,45)" stroke-width="0.4" id="pcb_proxy_visible">
      <line x1="12.374369" y1="3.332639" x2="33.587572" y2="-5.979147" />
      <line x1="33.587572" y1="-7.237055" x2="33.587572" y2="-5.979147" />
      <line x1="-33.587572" y1="-18.100806" x2="-33.587572" y2="-16.842898" />
      <line x1="12.374369" y1="3.332639" x2="-33.587572" y2="-16.842898" />
      <line x1="33.587572" y1="-5.979147" x2="-12.374369" y2="-26.154684" />
      <line x1="-33.587572" y1="-16.842898" x2="-12.374369" y2="-26.154684" />
      <path d="M 11.402097,0.733099 A 1.375,0.6035725086117283 0.0 0,1 13.749369,1.159889" />
      <path d="M 13.749369,1.159889 A 1.375,0.6035725086117283 0.0 0,1 10.999369,1.159889" />
      <path d="M 10.999369,1.159889 A 1.375,0.6035725086117283 0.0 0,1 11.402097,0.733099" />
      <path d="M -29.610096,-17.269688 A 1.375,0.6035725086117283 0.0 0,1 -27.262825,-16.842898" />
      <path d="M -27.262825,-16.842898 A 1.375,0.6035725086117283 0.0 0,1 -30.012825,-16.842898" />
      <path d="M -30.012825,-16.842898 A 1.375,0.6035725086117283 0.0 0,1 -29.610096,-17.269688" />
      <path d="M 27.665553,-6.405937 A 1.375,0.6035725086117283 0.0 0,1 30.012825,-5.979147" />
      <path d="M 30.012825,-5.979147 A 1.375,0.6035725086117283 0.0 0,1 27.262825,-5.979147" />
      <path d="M 27.262825,-5.979147 A 1.375,0.6035725086117283 0.0 0,1 27.665553,-6.405937" />
      <path d="M -13.34664,-24.408725 A 1.375,0.6035725086117283 0.0 0,1 -10.999369,-23.981934" />
      <path d="M -10.999369,-23.981934 A 1.375,0.6035725086117283 0.0 0,1 -13.749369,-23.981934" />
      <path d="M -13.749369,-23.981934 A 1.375,0.6035725086117283 0.0 0,1 -13.34664,-24.408725" />
      <line x1="33.587572" y1="-7.237055" x2="-12.374369" y2="-27.412592" />
      <line x1="-12.374369" y1="-27.412592" x2="-12.374369" y2="-26.154684" />
      <line x1="-33.587572" y1="-18.100806" x2="-12.374369" y2="-27.412592" />
    </g>
    <g fill="none" stroke="rgb(158,183,158)" stroke-width="0.22" id="pcb_proxy_hidden" stroke-dasharray="1.397 0.6985">
      <line x1="12.374369" y1="2.074731" x2="12.374369" y2="3.332639" />
      <line x1="12.374369" y1="2.074731" x2="33.587572" y2="-7.237055" />
      <line x1="12.374369" y1="2.074731" x2="-33.587572" y2="-18.100806" />
      <path d="M 11.402097,-0.524809 A 1.375,0.6035725086117283 0.0 0,1 13.749369,-0.098019" />
      <path d="M 13.749369,-0.098019 A 1.375,0.6035725086117283 0.0 0,1 10.999369,-0.098019" />
      <path d="M 10.999369,-0.098019 A 1.375,0.6035725086117283 0.0 0,1 11.402097,-0.524809" />
      <path d="M -29.610096,-18.527596 A 1.375,0.6035725086117283 0.0 0,1 -27.262825,-18.100806" />
      <path d="M -27.262825,-18.100806 A 1.375,0.6035725086117283 0.0 0,1 -30.012825,-18.100806" />
      <path d="M -30.012825,-18.100806 A 1.375,0.6035725086117283 0.0 0,1 -29.610096,-18.527596" />
      <path d="M 27.665553,-7.663845 A 1.375,0.6035725086117283 0.0 0,1 30.012825,-7.237055" />
      <path d="M 30.012825,-7.237055 A 1.375,0.6035725086117283 0.0 0,1 27.262825,-7.237055" />
      <path d="M 27.262825,-7.237055 A 1.375,0.6035725086117283 0.0 0,1 27.665553,-7.663845" />
      <path d="M -13.34664,-25.666633 A 1.375,0.6035725086117283 0.0 0,1 -10.999369,-25.239842" />
      <path d="M -10.999369,-25.239842 A 1.375,0.6035725086117283 0.0 0,1 -13.749369,-25.239842" />
      <path d="M -13.749369,-25.239842 A 1.375,0.6035725086117283 0.0 0,1 -13.34664,-25.666633" />
      <line x1="13.749369" y1="-0.098019" x2="13.749369" y2="1.159889" />
      <line x1="10.999369" y1="-0.098019" x2="10.999369" y2="1.159889" />
      <line x1="-27.262825" y1="-18.100806" x2="-27.262825" y2="-16.842898" />
      <line x1="-30.012825" y1="-18.100806" x2="-30.012825" y2="-16.842898" />
      <line x1="30.012825" y1="-7.237055" x2="30.012825" y2="-5.979147" />
      <line x1="27.262825" y1="-7.237055" x2="27.262825" y2="-5.979147" />
      <line x1="-10.999369" y1="-25.239842" x2="-10.999369" y2="-23.981934" />
      <line x1="-13.749369" y1="-25.239842" x2="-13.749369" y2="-23.981934" />
    </g>
    <g fill="none" stroke="rgb(127,45,45)" stroke-width="0.4" id="lid_visible">
      <line x1="41.365747" y1="9.475151" x2="41.365747" y2="13.518427" />
      <line x1="39.460364" y1="14.354817" x2="41.365747" y2="13.518427" />
      <line x1="15.62706" y1="26.613739" x2="38.113056" y2="16.743246" />
      <line x1="9.121677" y1="26.613739" x2="-38.113056" y2="5.879495" />
      <line x1="-39.460364" y1="3.491066" x2="-41.365747" y2="2.654676" />
      <line x1="-41.365747" y1="-1.3886" x2="-41.365747" y2="2.654676" />
      <line x1="41.365747" y1="9.475151" x2="-12.374369" y2="-14.114708" />
      <line x1="-41.365747" y1="-1.3886" x2="-12.374369" y2="-14.114708" />
      <line x1="41.365747" y1="13.518427" x2="38.113056" y2="12.09062" />
      <line x1="38.113056" y1="12.09062" x2="38.113056" y2="13.887631" />
      <line x1="38.113056" y1="13.887631" x2="-9.121677" y2="-6.846614" />
      <line x1="-9.121677" y1="-8.643625" x2="-9.121677" y2="-6.846614" />
      <line x1="-9.121677" y1="-8.643625" x2="-12.374369" y2="-10.071432" />
      <line x1="-12.374369" y1="-14.114708" x2="-12.374369" y2="-10.071432" />
      <path d="M 39.460364,13.518427 A 4.6,2.019224392446509 180.0 0,0 38.113056,12.09062" />
      <path d="M 38.113056,16.743246 A 4.6,2.019224392446509 180.0 0,0 39.460364,15.315438" />
      <path d="M 39.460364,15.315438 A 4.6,2.019224392446509 180.0 0,0 38.113056,13.887631" />
      <path d="M 15.62706,26.613739 A 4.6,2.019224392446509 0.0 0,1 9.121677,26.613739" />
      <path d="M -38.113056,3.02388 A 4.6,2.019224392446509 180.0 0,0 -39.460364,4.451687" />
      <path d="M -39.460364,4.451687 A 4.6,2.019224392446509 180.0 0,0 -38.113056,5.879495" />
      <path d="M -15.62706,-6.846614 A 4.6,2.019224392446509 0.0 0,1 -9.121677,-6.846614" />
      <line x1="-38.113056" y1="3.02388" x2="-15.62706" y2="-6.846614" />
      <path d="M -1.343503,11.901117 A 1.2,0.526754189333872 0.0 0,1 0.705025,12.273588" />
      <path d="M 0.705025,12.273588 A 1.2,0.526754189333872 0.0 0,1 -1.694975,12.273588" />
      <path d="M -1.694975,12.273588 A 1.2,0.526754189333872 0.0 0,1 -1.343503,11.901117" />
      <path d="M 4.596194,11.901117 A 1.2,0.526754189333872 0.0 0,1 6.644722,12.273588" />
      <path d="M 6.644722,12.273588 A 1.2,0.526754189333872 0.0 0,1 4.244722,12.273588" />
      <path d="M 4.244722,12.273588 A 1.2,0.526754189333872 0.0 0,1 4.596194,11.901117" />
      <path d="M 1.626346,10.597466 A 1.2,0.526754189333872 0.0 0,1 3.674874,10.969938" />
      <path d="M 3.674874,10.969938 A 1.2,0.526754189333872 0.0 0,1 1.274874,10.969938" />
      <path d="M 1.274874,10.969938 A 1.2,0.526754189333872 0.0 0,1 1.626346,10.597466" />
      <path d="M 4.596194,9.293816 A 1.2,0.526754189333872 0.0 0,1 6.644722,9.666288" />
      <path d="M 6.644722,9.666288 A 1.2,0.526754189333872 0.0 0,1 4.244722,9.666288" />
      <path d="M 4.244722,9.666288 A 1.2,0.526754189333872 0.0 0,1 4.596194,9.293816" />
      <path d="M -1.343503,9.293816 A 1.2,0.526754189333872 0.0 0,1 0.705025,9.666288" />
      <path d="M 0.705025,9.666288 A 1.2,0.526754189333872 0.0 0,1 -1.694975,9.666288" />
      <path d="M -1.694975,9.666288 A 1.2,0.526754189333872 0.0 0,1 -1.343503,9.293816" />
      <line x1="-12.551145" y1="-0.747393" x2="24.218407" y2="15.393037" />
      <line x1="-12.551145" y1="-0.747393" x2="-7.954951" y2="-2.764947" />
      <line x1="24.218407" y1="15.393037" x2="28.814601" y2="13.375483" />
      <line x1="-7.954951" y1="-2.764947" x2="28.814601" y2="13.375483" />
      <path d="M -38.113056,1.226869 A 4.6,2.019224392446509 180.0 0,0 -39.460364,2.654676" />
      <line x1="-38.113056" y1="1.226869" x2="-38.113056" y2="3.02388" />
      <line x1="-41.365747" y1="2.654676" x2="-38.113056" y2="1.226869" />
      <line x1="-15.62706" y1="-8.643625" x2="-12.374369" y2="-10.071432" />
      <line x1="-15.62706" y1="-8.643625" x2="-15.62706" y2="-6.846614" />
      <path d="M -15.62706,-8.643625 A 4.6,2.019224392446509 0.0 0,1 -9.121677,-8.643625" />
      <line x1="24.218407" y1="13.64095" x2="24.218407" y2="15.393037" />
      <line x1="-10.55543" y1="-1.623436" x2="24.218407" y2="13.64095" />
      <line x1="24.218407" y1="13.64095" x2="26.818885" y2="12.49944" />
      <line x1="39.460364" y1="13.518427" x2="39.460364" y2="15.315438" />
      <line x1="-39.460364" y1="2.654676" x2="-39.460364" y2="4.451687" />
    </g>
    <g fill="none" stroke="rgb(191,158,158)" stroke-width="0.22" id="lid_hidden" stroke-dasharray="1.397 0.6985">
      <line x1="12.374369" y1="22.201259" x2="12.374369" y2="26.244535" />
      <line x1="12.374369" y1="22.201259" x2="41.365747" y2="9.475151" />
      <line x1="38.113056" y1="14.946234" x2="39.460364" y2="14.354817" />
      <line x1="38.113056" y1="14.946234" x2="38.113056" y2="16.743246" />
      <line x1="15.62706" y1="24.816728" x2="15.62706" y2="26.613739" />
      <line x1="12.374369" y1="26.244535" x2="15.62706" y2="24.816728" />
      <line x1="12.374369" y1="22.201259" x2="-41.365747" y2="-1.3886" />
      <line x1="12.374369" y1="26.244535" x2="9.121677" y2="24.816728" />
      <line x1="9.121677" y1="24.816728" x2="9.121677" y2="26.613739" />
      <line x1="-38.113056" y1="4.082483" x2="-38.113056" y2="5.879495" />
      <line x1="-38.113056" y1="4.082483" x2="-39.460364" y2="3.491066" />
      <line x1="-38.820162" y1="-1.3886" x2="12.374369" y2="21.083845" />
      <line x1="-38.820162" y1="-1.3886" x2="-12.374369" y2="-12.997294" />
      <line x1="-12.374369" y1="-12.997294" x2="38.820162" y2="9.475151" />
      <line x1="12.374369" y1="21.083845" x2="38.820162" y2="9.475151" />
      <path d="M 38.113056,14.946234 A 4.6,2.019224392446509 180.0 0,0 39.460364,13.518427" />
      <path d="M 15.62706,24.816728 A 4.6,2.019224392446509 0.0 0,1 9.121677,24.816728" />
      <path d="M -39.460364,2.654676 A 4.6,2.019224392446509 180.0 0,0 -38.113056,4.082483" />
      <line x1="-38.820162" y1="-1.3886" x2="-38.820162" y2="2.699601" />
      <line x1="12.374369" y1="25.172046" x2="-38.820162" y2="2.699601" />
      <line x1="12.374369" y1="21.083845" x2="12.374369" y2="25.172046" />
      <line x1="-2.983991" y1="16.543451" x2="-23.461803" y2="7.554473" />
      <line x1="-23.461803" y1="6.655967" x2="-23.461803" y2="7.554473" />
      <line x1="-2.983991" y1="15.644945" x2="-23.461803" y2="6.655967" />
      <line x1="-2.983991" y1="15.644945" x2="-2.983991" y2="16.543451" />
      <line x1="-38.820162" y1="2.699601" x2="-12.374369" y2="-8.909093" />
      <line x1="-12.374369" y1="-12.997294" x2="-12.374369" y2="-8.909093" />
      <line x1="-30.886424" y1="-3.568375" x2="-30.886424" y2="-2.669869" />
      <line x1="-30.886424" y1="-3.568375" x2="-20.308107" y2="-8.211852" />
      <line x1="-20.308107" y1="-8.211852" x2="-20.308107" y2="-7.313346" />
      <line x1="-30.886424" y1="-2.669869" x2="-20.308107" y2="-7.313346" />
      <line x1="38.820162" y1="13.563352" x2="-12.374369" y2="-8.909093" />
      <line x1="38.820162" y1="9.475151" x2="38.820162" y2="13.563352" />
      <line x1="23.461803" y1="4.934757" x2="2.983991" y2="-4.054221" />
      <line x1="2.983991" y1="-4.952727" x2="2.983991" y2="-4.054221" />
      <line x1="23.461803" y1="4.036251" x2="2.983991" y2="-4.952727" />
      <line x1="23.461803" y1="4.036251" x2="23.461803" y2="4.934757" />
      <line x1="12.374369" y1="25.172046" x2="38.820162" y2="13.563352" />
      <line x1="20.308107" y1="18.90407" x2="20.308107" y2="19.802576" />
      <line x1="20.308107" y1="18.90407" x2="30.886424" y2="14.260593" />
      <line x1="30.886424" y1="14.260593" x2="30.886424" y2="15.159098" />
      <line x1="20.308107" y1="19.802576" x2="30.886424" y2="15.159098" />
      <path d="M -1.343503,10.14903 A 1.2,0.526754189333872 0.0 0,1 0.705025,10.521502" />
      <path d="M 0.705025,10.521502 A 1.2,0.526754189333872 0.0 0,1 -1.694975,10.521502" />
      <path d="M -1.694975,10.521502 A 1.2,0.526754189333872 0.0 0,1 -1.343503,10.14903" />
      <path d="M 4.596194,10.14903 A 1.2,0.526754189333872 0.0 0,1 6.644722,10.521502" />
      <path d="M 6.644722,10.521502 A 1.2,0.526754189333872 0.0 0,1 4.244722,10.521502" />
      <path d="M 4.244722,10.521502 A 1.2,0.526754189333872 0.0 0,1 4.596194,10.14903" />
      <path d="M 1.626346,8.84538 A 1.2,0.526754189333872 0.0 0,1 3.674874,9.217852" />
      <path d="M 3.674874,9.217852 A 1.2,0.526754189333872 0.0 0,1 1.274874,9.217852" />
      <path d="M 1.274874,9.217852 A 1.2,0.526754189333872 0.0 0,1 1.626346,8.84538" />
      <path d="M 4.596194,7.54173 A 1.2,0.526754189333872 0.0 0,1 6.644722,7.914202" />
      <path d="M 6.644722,7.914202 A 1.2,0.526754189333872 0.0 0,1 4.244722,7.914202" />
      <path d="M 4.244722,7.914202 A 1.2,0.526754189333872 0.0 0,1 4.596194,7.54173" />
      <path d="M -1.343503,7.54173 A 1.2,0.526754189333872 0.0 0,1 0.705025,7.914202" />
      <path d="M 0.705025,7.914202 A 1.2,0.526754189333872 0.0 0,1 -1.694975,7.914202" />
      <path d="M -1.694975,7.914202 A 1.2,0.526754189333872 0.0 0,1 -1.343503,7.54173" />
      <line x1="-12.551145" y1="-2.49948" x2="-12.551145" y2="-0.747393" />
      <line x1="-12.551145" y1="-2.49948" x2="-10.55543" y2="-1.623436" />
      <line x1="-7.954951" y1="-4.517033" x2="-7.954951" y2="-2.764947" />
      <line x1="-12.551145" y1="-2.49948" x2="-7.954951" y2="-4.517033" />
      <line x1="28.814601" y1="11.623397" x2="28.814601" y2="13.375483" />
      <line x1="26.818885" y1="12.49944" x2="28.814601" y2="11.623397" />
      <line x1="-7.954951" y1="-4.517033" x2="28.814601" y2="11.623397" />
      <line x1="-2.983991" y1="16.543451" x2="-2.38295" y2="16.279617" />
      <line x1="-2.38295" y1="16.279617" x2="-22.860762" y2="7.290639" />
      <line x1="-23.461803" y1="7.554473" x2="-22.860762" y2="7.290639" />
      <line x1="-22.860762" y1="6.392133" x2="-22.860762" y2="7.290639" />
      <line x1="-23.461803" y1="6.655967" x2="-22.860762" y2="6.392133" />
      <line x1="-2.983991" y1="15.644945" x2="-2.38295" y2="15.381111" />
      <line x1="-2.38295" y1="15.381111" x2="-22.860762" y2="6.392133" />
      <line x1="-2.38295" y1="15.381111" x2="-2.38295" y2="16.279617" />
      <line x1="-30.285383" y1="-3.304541" x2="-30.886424" y2="-3.568375" />
      <line x1="-30.285383" y1="-2.406035" x2="-30.886424" y2="-2.669869" />
      <line x1="-30.285383" y1="-3.304541" x2="-30.285383" y2="-2.406035" />
      <line x1="-30.285383" y1="-3.304541" x2="-19.707066" y2="-7.948018" />
      <line x1="-19.707066" y1="-7.948018" x2="-20.308107" y2="-8.211852" />
      <line x1="-19.707066" y1="-7.049512" x2="-20.308107" y2="-7.313346" />
      <line x1="-19.707066" y1="-7.948018" x2="-19.707066" y2="-7.049512" />
      <line x1="-30.285383" y1="-2.406035" x2="-19.707066" y2="-7.049512" />
      <line x1="22.860762" y1="5.198591" x2="23.461803" y2="4.934757" />
      <line x1="2.38295" y1="-3.790387" x2="2.983991" y2="-4.054221" />
      <line x1="22.860762" y1="5.198591" x2="2.38295" y2="-3.790387" />
      <line x1="2.38295" y1="-4.688893" x2="2.38295" y2="-3.790387" />
      <line x1="2.38295" y1="-4.688893" x2="2.983991" y2="-4.952727" />
      <line x1="22.860762" y1="4.300085" x2="23.461803" y2="4.036251" />
      <line x1="22.860762" y1="4.300085" x2="2.38295" y2="-4.688893" />
      <line x1="22.860762" y1="4.300085" x2="22.860762" y2="5.198591" />
      <line x1="20.308107" y1="18.90407" x2="19.707066" y2="18.640236" />
      <line x1="19.707066" y1="18.640236" x2="19.707066" y2="19.538742" />
      <line x1="20.308107" y1="19.802576" x2="19.707066" y2="19.538742" />
      <line x1="30.886424" y1="14.260593" x2="30.285383" y2="13.996759" />
      <line x1="19.707066" y1="18.640236" x2="30.285383" y2="13.996759" />
      <line x1="30.285383" y1="13.996759" x2="30.285383" y2="14.895264" />
      <line x1="30.886424" y1="15.159098" x2="30.285383" y2="14.895264" />
      <line x1="19.707066" y1="19.538742" x2="30.285383" y2="14.895264" />
      <line x1="0.705025" y1="10.521502" x2="0.705025" y2="12.273588" />
      <line x1="-1.694975" y1="10.521502" x2="-1.694975" y2="12.273588" />
      <line x1="6.644722" y1="10.521502" x2="6.644722" y2="12.273588" />
      <line x1="4.244722" y1="10.521502" x2="4.244722" y2="12.273588" />
      <line x1="3.674874" y1="9.217852" x2="3.674874" y2="10.969938" />
      <line x1="1.274874" y1="9.217852" x2="1.274874" y2="10.969938" />
      <line x1="6.644722" y1="7.914202" x2="6.644722" y2="9.666288" />
      <line x1="4.244722" y1="7.914202" x2="4.244722" y2="9.666288" />
      <line x1="0.705025" y1="7.914202" x2="0.705025" y2="9.666288" />
      <line x1="-1.694975" y1="7.914202" x2="-1.694975" y2="9.666288" />
    </g>
  </g>
</svg>