<?xml version='1.0' encoding='utf-8'?>
<svg width="123.799827mm" height="81.819047mm" viewBox="-61.899913 -39.870481 123.799827 81.819047" version="1.1" xmlns="http://www.w3.org/2000/svg">
  <g transform="scale(1,-1)" stroke-linecap="round">
    <g fill="none" stroke="rgb(30,56,76)" stroke-width="0.4" id="base_visible">
      <path d="M 7.990307,11.601524 A 3.2,1.5063458463683916 0.0 0,1 13.453048,12.666671" />
      <path d="M 7.053048,12.666671 A 3.2,1.5063458463683916 0.0 0,1 7.990307,11.601524" />
      <path d="M 7.990307,15.130627 A 3.2,1.5063458463683916 0.0 0,1 13.453048,16.195774" />
      <path d="M 13.453048,16.195774 A 3.2,1.5063458463683916 0.0 0,1 7.053048,16.195774" />
      <path d="M 7.053048,16.195774 A 3.2,1.5063458463683916 0.0 0,1 7.990307,15.130627" />
      <line x1="13.453048" y1="14.289196" x2="31.306088" y2="5.88518" />
      <line x1="7.053048" y1="14.289196" x2="-28.111581" y2="-2.263958" />
      <line x1="-34.127699" y1="-5.095944" x2="-36.734197" y2="-6.322909" />
      <line x1="-39.491914" y1="-7.621057" x2="-48.736696" y2="-11.972882" />
      <path d="M -33.021887,-7.704272 A 3.2,1.5063458463683916 0.0 0,1 -28.542006,-7.725315" />
      <path d="M -33.959145,-6.639124 A 3.2,1.5063458463683916 0.0 0,1 -33.021887,-7.704272" />
      <line x1="3.181981" y1="2.348056" x2="5.303301" y2="3.346632" />
      <line x1="3.181981" y1="2.348056" x2="13.486997" y2="-2.502856" />
      <line x1="5.303301" y1="3.346632" x2="15.608317" y2="-1.50428" />
      <line x1="-1.06066" y1="0.350905" x2="1.06066" y2="1.349481" />
      <line x1="-1.06066" y1="0.350905" x2="9.244356" y2="-4.500007" />
      <line x1="1.06066" y1="1.349481" x2="11.365677" y2="-3.501431" />
      <line x1="-5.303301" y1="-1.646246" x2="-3.181981" y2="-0.647671" />
      <line x1="-5.303301" y1="-1.646246" x2="5.001716" y2="-6.497158" />
      <line x1="-3.181981" y1="-0.647671" x2="7.123036" y2="-5.498583" />
      <line x1="-9.545942" y1="-3.643398" x2="-7.424621" y2="-2.644822" />
      <line x1="-9.545942" y1="-3.643398" x2="0.759075" y2="-8.49431" />
      <line x1="-7.424621" y1="-2.644822" x2="2.880395" y2="-7.495734" />
      <line x1="-13.788582" y1="-5.640549" x2="-11.667262" y2="-4.641973" />
      <line x1="-13.788582" y1="-5.640549" x2="-3.483566" y2="-10.491461" />
      <line x1="-11.667262" y1="-4.641973" x2="-1.362245" y2="-9.492885" />
      <line x1="-18.031223" y1="-7.6377" x2="-15.909903" y2="-6.639124" />
      <line x1="-18.031223" y1="-7.6377" x2="-7.726207" y2="-12.488612" />
      <line x1="-15.909903" y1="-6.639124" x2="-5.604886" y2="-11.490037" />
      <line x1="-20.558065" y1="-8.827168" x2="-20.152543" y2="-8.636276" />
      <line x1="-20.152543" y1="-8.636276" x2="-9.847527" y2="-13.487188" />
      <path d="M 9.227743,15.713129 A 1.45,0.6825629616356774 0.0 0,1 11.703048,16.195774" />
      <path d="M 11.703048,16.195774 A 1.45,0.6825629616356774 0.0 0,1 8.803048,16.195774" />
      <path d="M 8.803048,16.195774 A 1.45,0.6825629616356774 0.0 0,1 9.227743,15.713129" />
      <line x1="10.253048" y1="17.70212" x2="10.253048" y2="34.852696" />
      <line x1="10.253048" y1="34.852696" x2="51.548084" y2="15.413757" />
      <line x1="25.950819" y1="8.582537" x2="13.930004" y2="14.241133" />
      <line x1="25.950819" y1="8.582537" x2="25.950819" y2="13.170371" />
      <line x1="25.950819" y1="13.170371" x2="13.930004" y2="18.828966" />
      <line x1="13.930004" y1="14.241133" x2="13.930004" y2="18.828966" />
      <line x1="-10.253048" y1="-13.67808" x2="51.548084" y2="15.413757" />
      <line x1="-51.548084" y1="5.760859" x2="10.253048" y2="34.852696" />
      <line x1="6.929646" y1="21.995133" x2="-2.262742" y2="17.667971" />
      <line x1="6.929646" y1="21.995133" x2="6.929646" y2="16.701479" />
      <line x1="-2.262742" y1="17.667971" x2="-2.262742" y2="12.374317" />
      <line x1="6.929646" y1="16.701479" x2="-2.262742" y2="12.374317" />
      <line x1="-7.636753" y1="15.138246" x2="-14.707821" y2="11.809661" />
      <line x1="-7.636753" y1="15.138246" x2="-7.636753" y2="10.021048" />
      <line x1="-14.707821" y1="11.809661" x2="-14.707821" y2="6.692462" />
      <line x1="-7.636753" y1="10.021048" x2="-14.707821" y2="6.692462" />
      <line x1="-17.182695" y1="10.644656" x2="-24.253763" y2="7.316071" />
      <line x1="-17.182695" y1="10.644656" x2="-17.182695" y2="5.527457" />
      <line x1="-24.253763" y1="7.316071" x2="-24.253763" y2="2.198872" />
      <line x1="-17.182695" y1="5.527457" x2="-24.253763" y2="2.198872" />
      <line x1="-30.900566" y1="6.128207" x2="-37.971634" y2="2.799621" />
      <line x1="-37.971634" y1="2.799621" x2="-37.971634" y2="-0.630025" />
      <line x1="-30.900566" y1="-1.106454" x2="-32.424068" y2="-1.823617" />
      <line x1="-33.491915" y1="-2.326287" x2="-33.93005" y2="-2.532532" />
      <line x1="-30.900566" y1="6.128207" x2="-30.900566" y2="-1.106454" />
      <line x1="-51.548084" y1="5.760859" x2="-10.253048" y2="-13.67808" />
      <line x1="-13.859293" y1="-28.390829" x2="-24.183052" y2="-23.531094" />
      <line x1="-24.183052" y1="-23.531094" x2="-24.183052" y2="-11.718225" />
      <line x1="-26.763992" y1="-22.316161" x2="-36.734197" y2="-17.622855" />
      <line x1="-36.734197" y1="-17.622855" x2="-36.734197" y2="-3.868979" />
      <line x1="-39.491914" y1="-16.324707" x2="-49.462119" y2="-11.631401" />
      <line x1="-49.462119" y1="-11.631401" x2="-49.462119" y2="2.122475" />
      <path d="M -29.687897,-4.529454 A 3.2,1.5063458463683916 0.0 0,1 -27.559145,-3.110022" />
      <path d="M -27.559145,-3.110022 A 3.2,1.5063458463683916 0.0 0,1 -33.77451,-2.60575" />
      <line x1="5.303301" y1="1.349481" x2="5.303301" y2="3.346632" />
      <line x1="1.06066" y1="-0.647671" x2="1.06066" y2="1.349481" />
      <line x1="-3.181981" y1="-2.644822" x2="-3.181981" y2="-0.647671" />
      <line x1="-7.424621" y1="-4.641973" x2="-7.424621" y2="-2.644822" />
      <line x1="-11.667262" y1="-6.639124" x2="-11.667262" y2="-4.641973" />
      <line x1="-15.909903" y1="-8.636276" x2="-15.909903" y2="-6.639124" />
      <line x1="-20.152543" y1="-9.018061" x2="-20.152543" y2="-8.636276" />
      <line x1="13.081475" y1="35.118983" x2="52.11377" y2="16.745191" />
      <path d="M 13.081475,35.118983 A 4.0,1.8829323079604894 0.0 0,1 7.424621,35.118983" />
      <path d="M 52.11377,16.745191 A 4.0,1.8829323079604894 180.0 0,0 53.285343,15.413757" />
      <path d="M 53.285343,15.413757 A 4.0,1.8829323079604894 180.0 0,0 52.11377,14.082323" />
      <line x1="7.424621" y1="35.118983" x2="-52.11377" y2="7.092293" />
      <line x1="52.11377" y1="14.082323" x2="-7.424621" y2="-13.944367" />
      <path d="M -52.11377,4.429425 A 4.0,1.8829323079604894 180.0 0,0 -53.285343,5.760859" />
      <path d="M -53.285343,5.760859 A 4.0,1.8829323079604894 180.0 0,0 -52.11377,7.092293" />
      <path d="M -13.081475,-13.944367 A 4.0,1.8829323079604894 0.0 0,1 -7.424621,-13.944367" />
      <line x1="-52.11377" y1="4.429425" x2="-13.081475" y2="-13.944367" />
      <line x1="15.62706" y1="15.039993" x2="13.930004" y2="14.241133" />
      <line x1="25.950819" y1="10.180258" x2="15.62706" y2="15.039993" />
      <line x1="15.62706" y1="15.039993" x2="15.62706" y2="18.030106" />
      <line x1="5.23259" y1="17.500339" x2="6.929646" y2="16.701479" />
      <line x1="5.23259" y1="21.196272" x2="5.23259" y2="17.500339" />
      <line x1="5.23259" y1="17.500339" x2="-2.262742" y2="13.972038" />
      <line x1="-9.33381" y1="10.819908" x2="-7.636753" y2="10.021048" />
      <line x1="-9.33381" y1="14.339386" x2="-9.33381" y2="10.819908" />
      <line x1="-9.33381" y1="10.819908" x2="-14.707821" y2="8.290183" />
      <line x1="-18.879751" y1="6.326318" x2="-17.182695" y2="5.527457" />
      <line x1="-18.879751" y1="9.845796" x2="-18.879751" y2="6.326318" />
      <line x1="-18.879751" y1="6.326318" x2="-24.253763" y2="3.796593" />
      <line x1="-32.597623" y1="-0.307593" x2="-30.900566" y2="-1.106454" />
      <line x1="-32.597623" y1="-0.307593" x2="-35.627107" y2="-1.733672" />
      <line x1="-32.597623" y1="5.329346" x2="-32.597623" y2="-0.307593" />
      <line x1="-13.859293" y1="-29.98855" x2="-25.880108" y2="-24.329955" />
      <line x1="-24.183052" y1="-23.531094" x2="-25.880108" y2="-24.329955" />
      <line x1="-13.859293" y1="-29.98855" x2="-13.859293" y2="-16.57796" />
      <line x1="-13.859293" y1="-16.57796" x2="-25.880108" y2="-10.919365" />
      <line x1="-25.880108" y1="-24.329955" x2="-25.880108" y2="-10.919365" />
      <line x1="-26.763992" y1="-23.913882" x2="-38.431254" y2="-18.421716" />
      <line x1="-36.734197" y1="-17.622855" x2="-38.431254" y2="-18.421716" />
      <line x1="-26.763992" y1="-23.913882" x2="-26.763992" y2="-8.562285" />
      <line x1="-38.431254" y1="-18.421716" x2="-38.431254" y2="-3.070119" />
      <line x1="-26.763992" y1="-8.562285" x2="-38.431254" y2="-3.070119" />
      <line x1="-39.491914" y1="-17.922428" x2="-51.159176" y2="-12.430262" />
      <line x1="-49.462119" y1="-11.631401" x2="-51.159176" y2="-12.430262" />
      <line x1="-39.491914" y1="-17.922428" x2="-39.491914" y2="-2.570831" />
      <line x1="-51.159176" y1="-12.430262" x2="-51.159176" y2="2.921335" />
      <line x1="-39.491914" y1="-2.570831" x2="-51.159176" y2="2.921335" />
      <path d="M -31.405088,-3.721116 A 1.45,0.6825629616356774 0.0 0,1 -29.309145,-3.110022" />
      <path d="M -29.309145,-3.110022 A 1.45,0.6825629616356774 0.0 0,1 -32.209145,-3.110022" />
      <path d="M -32.209145,-3.110022 A 1.45,0.6825629616356774 0.0 0,1 -32.05732,-3.414088" />
      <path d="M 53.285343,-5.760859 A 4.0,1.8829323079604894 180.0 0,0 52.11377,-7.092293" />
      <line x1="52.11377" y1="-7.092293" x2="-7.424621" y2="-35.118983" />
      <path d="M -52.11377,-16.745191 A 4.0,1.8829323079604894 180.0 0,0 -53.285343,-15.413757" />
      <path d="M -13.081475,-35.118983 A 4.0,1.8829323079604894 0.0 0,1 -7.424621,-35.118983" />
      <line x1="-52.11377" y1="-16.745191" x2="-13.081475" y2="-35.118983" />
      <line x1="52.11377" y1="-7.092293" x2="52.11377" y2="14.082323" />
      <line x1="-7.424621" y1="-35.118983" x2="-7.424621" y2="-13.944367" />
      <line x1="-52.11377" y1="-16.745191" x2="-52.11377" y2="4.429425" />
      <line x1="-13.081475" y1="-35.118983" x2="-13.081475" y2="-13.944367" />
      <line x1="13.453048" y1="12.666671" x2="13.453048" y2="16.195774" />
      <line x1="7.053048" y1="12.666671" x2="7.053048" y2="16.195774" />
      <line x1="-27.559145" y1="-5.531528" x2="-27.559145" y2="-3.110022" />
      <line x1="-33.959145" y1="-6.639124" x2="-33.959145" y2="-5.175288" />
      <line x1="53.285343" y1="-5.760859" x2="53.285343" y2="15.413757" />
      <line x1="-53.285343" y1="-15.413757" x2="-53.285343" y2="5.760859" />
    </g>
    <g fill="none" stroke="rgb(158,173,183)" stroke-width="0.22" id="base_hidden" stroke-dasharray="1.397 0.6985">
      <path d="M 13.453048,12.666671 A 3.2,1.5063458463683916 0.0 0,1 7.053048,12.666671" />
      <line x1="10.253048" y1="15.795542" x2="13.453048" y2="14.289196" />
      <line x1="31.306088" y1="5.88518" x2="51.548084" y2="-3.643398" />
      <line x1="51.548084" y1="-3.643398" x2="-10.253048" y2="-32.735235" />
      <line x1="10.253048" y1="15.795542" x2="7.053048" y2="14.289196" />
      <line x1="-28.111581" y1="-2.263958" x2="-34.127699" y2="-5.095944" />
      <line x1="-36.734197" y1="-6.322909" x2="-39.491914" y2="-7.621057" />
      <line x1="-48.736696" y1="-11.972882" x2="-51.548084" y2="-13.296295" />
      <line x1="-51.548084" y1="-13.296295" x2="-10.253048" y2="-32.735235" />
      <path d="M -28.542006,-7.725315 A 3.2,1.5063458463683916 0.0 0,1 -27.559145,-6.639124" />
      <path d="M -27.559145,-6.639124 A 3.2,1.5063458463683916 0.0 0,1 -33.959145,-6.639124" />
      <line x1="13.486997" y1="-2.502856" x2="22.98097" y2="-6.971983" />
      <line x1="22.98097" y1="-6.971983" x2="25.102291" y2="-5.973407" />
      <line x1="15.608317" y1="-1.50428" x2="25.102291" y2="-5.973407" />
      <line x1="9.244356" y1="-4.500007" x2="18.73833" y2="-8.969134" />
      <line x1="18.73833" y1="-8.969134" x2="20.85965" y2="-7.970559" />
      <line x1="11.365677" y1="-3.501431" x2="20.85965" y2="-7.970559" />
      <path d="M 42.638539,-4.708545 A 3.2,1.5063458463683916 0.0 0,1 48.101281,-3.643398" />
      <path d="M 48.101281,-3.643398 A 3.2,1.5063458463683916 0.0 0,1 41.701281,-3.643398" />
      <path d="M 41.701281,-3.643398 A 3.2,1.5063458463683916 0.0 0,1 42.638539,-4.708545" />
      <line x1="5.001716" y1="-6.497158" x2="14.495689" y2="-10.966286" />
      <line x1="14.495689" y1="-10.966286" x2="16.617009" y2="-9.96771" />
      <line x1="7.123036" y1="-5.498583" x2="16.617009" y2="-9.96771" />
      <line x1="0.759075" y1="-8.49431" x2="10.253048" y2="-12.963437" />
      <line x1="10.253048" y1="-12.963437" x2="12.374369" y2="-11.964861" />
      <line x1="2.880395" y1="-7.495734" x2="12.374369" y2="-11.964861" />
      <line x1="-3.483566" y1="-10.491461" x2="6.010408" y2="-14.960588" />
      <line x1="6.010408" y1="-14.960588" x2="8.131728" y2="-13.962013" />
      <line x1="-1.362245" y1="-9.492885" x2="8.131728" y2="-13.962013" />
      <line x1="-7.726207" y1="-12.488612" x2="1.767767" y2="-16.95774" />
      <line x1="1.767767" y1="-16.95774" x2="3.889087" y2="-15.959164" />
      <line x1="-5.604886" y1="-11.490037" x2="3.889087" y2="-15.959164" />
      <line x1="-22.273864" y1="-9.634851" x2="-20.558065" y2="-8.827168" />
      <line x1="-22.273864" y1="-9.634851" x2="-2.474874" y2="-18.954891" />
      <line x1="-2.474874" y1="-18.954891" x2="-0.353553" y2="-17.956315" />
      <line x1="-9.847527" y1="-13.487188" x2="-0.353553" y2="-17.956315" />
      <path d="M 1.626346,-24.014341 A 3.2,1.5063458463683916 0.0 0,1 7.089087,-22.949193" />
      <path d="M 7.089087,-22.949193 A 3.2,1.5063458463683916 0.0 0,1 0.689087,-22.949193" />
      <path d="M 0.689087,-22.949193 A 3.2,1.5063458463683916 0.0 0,1 1.626346,-24.014341" />
      <line x1="10.253048" y1="15.795542" x2="10.253048" y2="17.70212" />
      <line x1="51.548084" y1="-3.643398" x2="51.548084" y2="15.413757" />
      <line x1="-10.253048" y1="-32.735235" x2="-10.253048" y2="-13.67808" />
      <line x1="-51.548084" y1="-13.296295" x2="-51.548084" y2="5.760859" />
      <line x1="-37.971634" y1="-0.630025" x2="-37.971634" y2="-4.435039" />
      <line x1="-32.424068" y1="-1.823617" x2="-33.491915" y2="-2.326287" />
      <line x1="-33.93005" y1="-2.532532" x2="-37.971634" y2="-4.435039" />
      <line x1="-12.162237" y1="-29.18969" x2="-13.859293" y2="-28.390829" />
      <line x1="-12.162237" y1="-29.18969" x2="-12.162237" y2="-15.779099" />
      <line x1="-12.162237" y1="-15.779099" x2="-24.183052" y2="-10.120504" />
      <line x1="-24.183052" y1="-11.718225" x2="-24.183052" y2="-10.120504" />
      <line x1="-25.066935" y1="-23.115021" x2="-26.763992" y2="-22.316161" />
      <line x1="-25.066935" y1="-23.115021" x2="-25.066935" y2="-7.763424" />
      <line x1="-36.734197" y1="-3.868979" x2="-36.734197" y2="-2.271258" />
      <line x1="-25.066935" y1="-7.763424" x2="-36.734197" y2="-2.271258" />
      <line x1="-37.794857" y1="-17.123567" x2="-39.491914" y2="-16.324707" />
      <line x1="-37.794857" y1="-17.123567" x2="-37.794857" y2="-1.77197" />
      <line x1="-49.462119" y1="2.122475" x2="-49.462119" y2="3.720196" />
      <line x1="-37.794857" y1="-1.77197" x2="-49.462119" y2="3.720196" />
      <path d="M -33.021887,-4.175169 A 3.2,1.5063458463683916 0.0 0,1 -29.687897,-4.529454" />
      <path d="M -33.77451,-2.60575 A 3.2,1.5063458463683916 0.0 0,1 -33.959145,-3.110022" />
      <path d="M -33.959145,-3.110022 A 3.2,1.5063458463683916 0.0 0,1 -33.021887,-4.175169" />
      <line x1="3.181981" y1="0.230595" x2="3.181981" y2="2.348056" />
      <line x1="5.303301" y1="1.22917" x2="5.303301" y2="1.349481" />
      <line x1="3.181981" y1="0.230595" x2="5.303301" y2="1.22917" />
      <line x1="22.98097" y1="-9.089445" x2="22.98097" y2="-6.971983" />
      <line x1="3.181981" y1="0.230595" x2="22.98097" y2="-9.089445" />
      <line x1="25.102291" y1="-8.090869" x2="25.102291" y2="-5.973407" />
      <line x1="22.98097" y1="-9.089445" x2="25.102291" y2="-8.090869" />
      <line x1="5.303301" y1="1.22917" x2="25.102291" y2="-8.090869" />
      <line x1="-1.06066" y1="-1.766557" x2="-1.06066" y2="0.350905" />
      <line x1="1.06066" y1="-0.767981" x2="1.06066" y2="-0.647671" />
      <line x1="-1.06066" y1="-1.766557" x2="1.06066" y2="-0.767981" />
      <line x1="18.73833" y1="-11.086596" x2="18.73833" y2="-8.969134" />
      <line x1="-1.06066" y1="-1.766557" x2="18.73833" y2="-11.086596" />
      <line x1="20.85965" y1="-10.08802" x2="20.85965" y2="-7.970559" />
      <line x1="18.73833" y1="-11.086596" x2="20.85965" y2="-10.08802" />
      <line x1="1.06066" y1="-0.767981" x2="20.85965" y2="-10.08802" />
      <path d="M 42.638539,-1.179442 A 3.2,1.5063458463683916 0.0 0,1 48.101281,-0.114295" />
      <path d="M 48.101281,-0.114295 A 3.2,1.5063458463683916 0.0 0,1 41.701281,-0.114295" />
      <path d="M 41.701281,-0.114295 A 3.2,1.5063458463683916 0.0 0,1 42.638539,-1.179442" />
      <line x1="-5.303301" y1="-3.763708" x2="-5.303301" y2="-1.646246" />
      <line x1="-3.181981" y1="-2.765132" x2="-3.181981" y2="-2.644822" />
      <line x1="-5.303301" y1="-3.763708" x2="-3.181981" y2="-2.765132" />
      <line x1="14.495689" y1="-13.083747" x2="14.495689" y2="-10.966286" />
      <line x1="-5.303301" y1="-3.763708" x2="14.495689" y2="-13.083747" />
      <line x1="16.617009" y1="-12.085172" x2="16.617009" y2="-9.96771" />
      <line x1="14.495689" y1="-13.083747" x2="16.617009" y2="-12.085172" />
      <line x1="-3.181981" y1="-2.765132" x2="16.617009" y2="-12.085172" />
      <line x1="-9.545942" y1="-5.760859" x2="-9.545942" y2="-3.643398" />
      <line x1="-7.424621" y1="-4.762283" x2="-7.424621" y2="-4.641973" />
      <line x1="-9.545942" y1="-5.760859" x2="-7.424621" y2="-4.762283" />
      <line x1="10.253048" y1="-15.080899" x2="10.253048" y2="-12.963437" />
      <line x1="-9.545942" y1="-5.760859" x2="10.253048" y2="-15.080899" />
      <line x1="12.374369" y1="-14.082323" x2="12.374369" y2="-11.964861" />
      <line x1="10.253048" y1="-15.080899" x2="12.374369" y2="-14.082323" />
      <line x1="-7.424621" y1="-4.762283" x2="12.374369" y2="-14.082323" />
      <line x1="-13.788582" y1="-7.75801" x2="-13.788582" y2="-5.640549" />
      <line x1="-11.667262" y1="-6.759435" x2="-11.667262" y2="-6.639124" />
      <line x1="-13.788582" y1="-7.75801" x2="-11.667262" y2="-6.759435" />
      <line x1="6.010408" y1="-17.07805" x2="6.010408" y2="-14.960588" />
      <line x1="-13.788582" y1="-7.75801" x2="6.010408" y2="-17.07805" />
      <line x1="8.131728" y1="-16.079474" x2="8.131728" y2="-13.962013" />
      <line x1="6.010408" y1="-17.07805" x2="8.131728" y2="-16.079474" />
      <line x1="-11.667262" y1="-6.759435" x2="8.131728" y2="-16.079474" />
      <line x1="-18.031223" y1="-9.755162" x2="-18.031223" y2="-7.6377" />
      <line x1="-15.909903" y1="-8.756586" x2="-15.909903" y2="-8.636276" />
      <line x1="-18.031223" y1="-9.755162" x2="-15.909903" y2="-8.756586" />
      <line x1="1.767767" y1="-19.075201" x2="1.767767" y2="-16.95774" />
      <line x1="-18.031223" y1="-9.755162" x2="1.767767" y2="-19.075201" />
      <line x1="3.889087" y1="-18.076626" x2="3.889087" y2="-15.959164" />
      <line x1="1.767767" y1="-19.075201" x2="3.889087" y2="-18.076626" />
      <line x1="-15.909903" y1="-8.756586" x2="3.889087" y2="-18.076626" />
      <line x1="-22.273864" y1="-11.752313" x2="-22.273864" y2="-9.634851" />
      <line x1="-20.152543" y1="-10.753737" x2="-20.152543" y2="-9.018061" />
      <line x1="-22.273864" y1="-11.752313" x2="-20.152543" y2="-10.753737" />
      <line x1="-2.474874" y1="-21.072352" x2="-2.474874" y2="-18.954891" />
      <line x1="-22.273864" y1="-11.752313" x2="-2.474874" y2="-21.072352" />
      <line x1="-0.353553" y1="-20.073777" x2="-0.353553" y2="-17.956315" />
      <line x1="-2.474874" y1="-21.072352" x2="-0.353553" y2="-20.073777" />
      <line x1="-20.152543" y1="-10.753737" x2="-0.353553" y2="-20.073777" />
      <path d="M 1.626346,-20.485238 A 3.2,1.5063458463683916 0.0 0,1 7.089087,-19.420091" />
      <path d="M 7.089087,-19.420091 A 3.2,1.5063458463683916 0.0 0,1 0.689087,-19.420091" />
      <path d="M 0.689087,-19.420091 A 3.2,1.5063458463683916 0.0 0,1 1.626346,-20.485238" />
      <path d="M 9.227743,10.066565 A 1.45,0.6825629616356774 0.0 0,1 11.703048,10.54921" />
      <path d="M 11.703048,10.54921 A 1.45,0.6825629616356774 0.0 0,1 8.803048,10.54921" />
      <path d="M 8.803048,10.54921 A 1.45,0.6825629616356774 0.0 0,1 9.227743,10.066565" />
      <line x1="27.647875" y1="9.381398" x2="25.950819" y2="8.582537" />
      <line x1="27.647875" y1="9.381398" x2="25.950819" y2="10.180258" />
      <line x1="27.647875" y1="13.969231" x2="25.950819" y2="13.170371" />
      <line x1="27.647875" y1="9.381398" x2="27.647875" y2="13.969231" />
      <line x1="15.62706" y1="19.627827" x2="13.930004" y2="18.828966" />
      <line x1="27.647875" y1="13.969231" x2="15.62706" y2="19.627827" />
      <line x1="15.62706" y1="18.030106" x2="15.62706" y2="19.627827" />
      <line x1="5.23259" y1="22.793993" x2="6.929646" y2="21.995133" />
      <line x1="-3.959798" y1="18.466832" x2="-2.262742" y2="17.667971" />
      <line x1="5.23259" y1="22.793993" x2="-3.959798" y2="18.466832" />
      <line x1="5.23259" y1="22.793993" x2="5.23259" y2="21.196272" />
      <line x1="-3.959798" y1="13.173178" x2="-2.262742" y2="12.374317" />
      <line x1="-3.959798" y1="18.466832" x2="-3.959798" y2="13.173178" />
      <line x1="-2.262742" y1="13.972038" x2="-3.959798" y2="13.173178" />
      <line x1="-9.33381" y1="15.937107" x2="-7.636753" y2="15.138246" />
      <line x1="-16.404877" y1="12.608521" x2="-14.707821" y2="11.809661" />
      <line x1="-9.33381" y1="15.937107" x2="-16.404877" y2="12.608521" />
      <line x1="-9.33381" y1="15.937107" x2="-9.33381" y2="14.339386" />
      <line x1="-16.404877" y1="7.491323" x2="-14.707821" y2="6.692462" />
      <line x1="-16.404877" y1="12.608521" x2="-16.404877" y2="7.491323" />
      <line x1="-14.707821" y1="8.290183" x2="-16.404877" y2="7.491323" />
      <line x1="-18.879751" y1="11.443517" x2="-17.182695" y2="10.644656" />
      <line x1="-25.950819" y1="8.114931" x2="-24.253763" y2="7.316071" />
      <line x1="-18.879751" y1="11.443517" x2="-25.950819" y2="8.114931" />
      <line x1="-18.879751" y1="11.443517" x2="-18.879751" y2="9.845796" />
      <line x1="-25.950819" y1="2.997732" x2="-24.253763" y2="2.198872" />
      <line x1="-25.950819" y1="8.114931" x2="-25.950819" y2="2.997732" />
      <line x1="-24.253763" y1="3.796593" x2="-25.950819" y2="2.997732" />
      <line x1="-32.597623" y1="6.927067" x2="-30.900566" y2="6.128207" />
      <line x1="-39.66869" y1="3.598482" x2="-37.971634" y2="2.799621" />
      <line x1="-32.597623" y1="6.927067" x2="-39.66869" y2="3.598482" />
      <line x1="-39.66869" y1="-3.636179" x2="-37.971634" y2="-4.435039" />
      <line x1="-39.66869" y1="3.598482" x2="-39.66869" y2="-3.636179" />
      <line x1="-35.627107" y1="-1.733672" x2="-39.66869" y2="-3.636179" />
      <line x1="-32.597623" y1="6.927067" x2="-32.597623" y2="5.329346" />
      <line x1="-12.162237" y1="-29.18969" x2="-13.859293" y2="-29.98855" />
      <line x1="-12.162237" y1="-15.779099" x2="-13.859293" y2="-16.57796" />
      <line x1="-24.183052" y1="-10.120504" x2="-25.880108" y2="-10.919365" />
      <line x1="-25.066935" y1="-23.115021" x2="-26.763992" y2="-23.913882" />
      <line x1="-25.066935" y1="-7.763424" x2="-26.763992" y2="-8.562285" />
      <line x1="-36.734197" y1="-2.271258" x2="-38.431254" y2="-3.070119" />
      <line x1="-37.794857" y1="-17.123567" x2="-39.491914" y2="-17.922428" />
      <line x1="-37.794857" y1="-1.77197" x2="-39.491914" y2="-2.570831" />
      <line x1="-49.462119" y1="3.720196" x2="-51.159176" y2="2.921335" />
      <path d="M -31.78445,-3.592667 A 1.45,0.6825629616356774 0.0 0,1 -31.405088,-3.721116" />
      <path d="M -32.05732,-3.414088 A 1.45,0.6825629616356774 0.0 0,1 -31.78445,-3.592667" />
      <line x1="13.081475" y1="13.944367" x2="52.11377" y2="-4.429425" />
      <path d="M 13.081475,13.944367 A 4.0,1.8829323079604894 0.0 0,1 7.424621,13.944367" />
      <path d="M 52.11377,-4.429425 A 4.0,1.8829323079604894 180.0 0,0 53.285343,-5.760859" />
      <line x1="7.424621" y1="13.944367" x2="-52.11377" y2="-14.082323" />
      <path d="M -53.285343,-15.413757 A 4.0,1.8829323079604894 180.0 0,0 -52.11377,-14.082323" />
      <path d="M -31.78445,-9.239231 A 1.45,0.6825629616356774 0.0 0,1 -29.309145,-8.756586" />
      <path d="M -29.309145,-8.756586 A 1.45,0.6825629616356774 0.0 0,1 -32.209145,-8.756586" />
      <path d="M -32.209145,-8.756586 A 1.45,0.6825629616356774 0.0 0,1 -31.78445,-9.239231" />
      <path d="M 43.875976,-6.243504 A 1.45,0.6825629616356774 0.0 0,1 46.351281,-5.760859" />
      <path d="M 46.351281,-5.760859 A 1.45,0.6825629616356774 0.0 0,1 43.451281,-5.760859" />
      <path d="M 43.451281,-5.760859 A 1.45,0.6825629616356774 0.0 0,1 43.875976,-6.243504" />
      <path d="M 2.863782,-25.5493 A 1.45,0.6825629616356774 0.0 0,1 5.339087,-25.066655" />
      <path d="M 5.339087,-25.066655 A 1.45,0.6825629616356774 0.0 0,1 2.439087,-25.066655" />
      <path d="M 2.439087,-25.066655 A 1.45,0.6825629616356774 0.0 0,1 2.863782,-25.5493" />
      <path d="M 43.875976,-0.59694 A 1.45,0.6825629616356774 0.0 0,1 46.351281,-0.114295" />
      <path d="M 46.351281,-0.114295 A 1.45,0.6825629616356774 0.0 0,1 43.451281,-0.114295" />
      <path d="M 43.451281,-0.114295 A 1.45,0.6825629616356774 0.0 0,1 43.875976,-0.59694" />
      <path d="M 2.863782,-19.902736 A 1.45,0.6825629616356774 0.0 0,1 5.339087,-19.420091" />
      <path d="M 5.339087,-19.420091 A 1.45,0.6825629616356774 0.0 0,1 2.439087,-19.420091" />
      <path d="M 2.439087,-19.420091 A 1.45,0.6825629616356774 0.0 0,1 2.863782,-19.902736" />
      <line x1="-27.559145" y1="-6.639124" x2="-27.559145" y2="-5.531528" />
      <line x1="-33.959145" y1="-5.175288" x2="-33.959145" y2="-3.110022" />
      <line x1="48.101281" y1="-3.643398" x2="48.101281" y2="-0.114295" />
      <line x1="41.701281" y1="-3.643398" x2="41.701281" y2="-0.114295" />
      <line x1="7.089087" y1="-22.949193" x2="7.089087" y2="-19.420091" />
      <line x1="0.689087" y1="-22.949193" x2="0.689087" y2="-19.420091" />
      <line x1="11.703048" y1="10.54921" x2="11.703048" y2="16.195774" />
      <line x1="8.803048" y1="10.54921" x2="8.803048" y2="16.195774" />
      <line x1="-29.309145" y1="-8.756586" x2="-29.309145" y2="-3.110022" />
      <line x1="-32.209145" y1="-8.756586" x2="-32.209145" y2="-3.110022" />
      <line x1="46.351281" y1="-5.760859" x2="46.351281" y2="-0.114295" />
      <line x1="43.451281" y1="-5.760859" x2="43.451281" y2="-0.114295" />
      <line x1="5.339087" y1="-25.066655" x2="5.339087" y2="-19.420091" />
      <line x1="2.439087" y1="-25.066655" x2="2.439087" y2="-19.420091" />
      <line x1="13.081475" y1="13.944367" x2="13.081475" y2="35.118983" />
      <line x1="52.11377" y1="-4.429425" x2="52.11377" y2="16.745191" />
      <line x1="7.424621" y1="13.944367" x2="7.424621" y2="35.118983" />
      <line x1="-52.11377" y1="-14.082323" x2="-52.11377" y2="7.092293" />
    </g>
    <g fill="none" stroke="rgb(127,45,45)" stroke-width="0.4" id="lid_visible">
      <line x1="57.699913" y1="-5.760859" x2="57.699913" y2="-2.937577" />
      <line x1="56.043059" y1="-2.157641" x2="57.699913" y2="-2.937577" />
      <line x1="13.081475" y1="20.183259" x2="54.871486" y2="0.511319" />
      <line x1="7.424621" y1="20.183259" x2="-54.871486" y2="-9.141579" />
      <line x1="-56.043059" y1="-11.810539" x2="-57.699913" y2="-12.590475" />
      <line x1="-57.699913" y1="-15.413757" x2="-57.699913" y2="-12.590475" />
      <line x1="57.699913" y1="-5.760859" x2="-10.253048" y2="-37.748566" />
      <line x1="-57.699913" y1="-15.413757" x2="-10.253048" y2="-37.748566" />
      <line x1="57.699913" y1="-2.937577" x2="54.871486" y2="-4.269011" />
      <line x1="54.871486" y1="-4.269011" x2="54.871486" y2="-2.15155" />
      <line x1="54.871486" y1="-2.15155" x2="-7.424621" y2="-31.476388" />
      <line x1="-7.424621" y1="-33.59385" x2="-7.424621" y2="-31.476388" />
      <line x1="-7.424621" y1="-33.59385" x2="-10.253048" y2="-34.925284" />
      <line x1="-10.253048" y1="-37.748566" x2="-10.253048" y2="-34.925284" />
      <path d="M 56.043059,-2.937577 A 4.0,1.8829323079604894 180.0 0,0 54.871486,-4.269011" />
      <path d="M 54.871486,0.511319 A 4.0,1.8829323079604894 180.0 0,0 56.043059,-0.820115" />
      <path d="M 56.043059,-0.820115 A 4.0,1.8829323079604894 180.0 0,0 54.871486,-2.15155" />
      <path d="M 13.081475,20.183259 A 4.0,1.8829323079604894 0.0 0,1 7.424621,20.183259" />
      <path d="M -54.871486,-11.804448 A 4.0,1.8829323079604894 180.0 0,0 -56.043059,-10.473013" />
      <path d="M -56.043059,-10.473013 A 4.0,1.8829323079604894 180.0 0,0 -54.871486,-9.141579" />
      <path d="M -13.081475,-31.476388 A 4.0,1.8829323079604894 0.0 0,1 -7.424621,-31.476388" />
      <line x1="-54.871486" y1="-11.804448" x2="-13.081475" y2="-31.476388" />
      <path d="M 2.404163,3.47376 A 1.6,0.7531729231841958 0.0 0,1 5.135534,4.006334" />
      <path d="M 5.135534,4.006334 A 1.6,0.7531729231841958 0.0 0,1 1.935534,4.006334" />
      <path d="M 1.935534,4.006334 A 1.6,0.7531729231841958 0.0 0,1 2.404163,3.47376" />
      <line x1="-10.111627" y1="-1.552404" x2="-1.626346" y2="2.441898" />
      <line x1="-10.111627" y1="-1.552404" x2="-8.273149" y2="-2.417836" />
      <line x1="-1.626346" y1="2.441898" x2="0.212132" y2="1.576466" />
      <line x1="-8.273149" y1="-2.417836" x2="0.212132" y2="1.576466" />
      <line x1="-10.818734" y1="-4.548131" x2="4.737615" y2="2.774757" />
      <line x1="-10.818734" y1="-4.548131" x2="-8.980256" y2="-5.413563" />
      <line x1="4.737615" y1="2.774757" x2="6.576093" y2="1.909325" />
      <line x1="-8.980256" y1="-5.413563" x2="6.576093" y2="1.909325" />
      <line x1="-9.758074" y1="-6.711712" x2="9.33381" y2="2.275469" />
      <line x1="-9.758074" y1="-6.711712" x2="-7.919596" y2="-7.577144" />
      <line x1="9.33381" y1="2.275469" x2="11.172287" y2="1.410037" />
      <line x1="-7.919596" y1="-7.577144" x2="11.172287" y2="1.410037" />
      <path d="M -14.5664,-4.514845 A 1.6,0.7531729231841958 0.0 0,1 -11.835029,-3.982272" />
      <path d="M -11.835029,-3.982272 A 1.6,0.7531729231841958 0.0 0,1 -15.035029,-3.982272" />
      <path d="M -15.035029,-3.982272 A 1.6,0.7531729231841958 0.0 0,1 -14.5664,-4.514845" />
      <line x1="-7.2832" y1="-8.209575" x2="12.51579" y2="1.110464" />
      <line x1="-7.2832" y1="-8.209575" x2="-5.444722" y2="-9.075007" />
      <line x1="12.51579" y1="1.110464" x2="14.354268" y2="0.245032" />
      <line x1="-5.444722" y1="-9.075007" x2="14.354268" y2="0.245032" />
      <line x1="-4.101219" y1="-9.37458" x2="14.990664" y2="-0.387399" />
      <line x1="-4.101219" y1="-9.37458" x2="-2.262742" y2="-10.240012" />
      <line x1="14.990664" y1="-0.387399" x2="16.829141" y2="-1.252831" />
      <line x1="-2.262742" y1="-10.240012" x2="16.829141" y2="-1.252831" />
      <path d="M 19.374726,-4.514845 A 1.6,0.7531729231841958 0.0 0,1 22.106097,-3.982272" />
      <path d="M 22.106097,-3.982272 A 1.6,0.7531729231841958 0.0 0,1 18.906097,-3.982272" />
      <path d="M 18.906097,-3.982272 A 1.6,0.7531729231841958 0.0 0,1 19.374726,-4.514845" />
      <line x1="0.494975" y1="-9.873868" x2="16.051324" y2="-2.55098" />
      <line x1="0.494975" y1="-9.873868" x2="2.333452" y2="-10.7393" />
      <line x1="16.051324" y1="-2.55098" x2="17.889802" y2="-3.416412" />
      <line x1="2.333452" y1="-10.7393" x2="17.889802" y2="-3.416412" />
      <line x1="6.858936" y1="-9.541009" x2="15.344217" y2="-5.546707" />
      <line x1="6.858936" y1="-9.541009" x2="8.697413" y2="-10.406442" />
      <line x1="15.344217" y1="-5.546707" x2="17.182695" y2="-6.412139" />
      <line x1="8.697413" y1="-10.406442" x2="17.182695" y2="-6.412139" />
      <path d="M 2.404163,-12.50345 A 1.6,0.7531729231841958 0.0 0,1 5.135534,-11.970877" />
      <path d="M 5.135534,-11.970877 A 1.6,0.7531729231841958 0.0 0,1 1.935534,-11.970877" />
      <path d="M 1.935534,-11.970877 A 1.6,0.7531729231841958 0.0 0,1 2.404163,-12.50345" />
      <line x1="2.085965" y1="-17.612829" x2="40.269731" y2="0.361533" />
      <line x1="2.085965" y1="-17.612829" x2="8.096373" y2="-20.442127" />
      <line x1="40.269731" y1="0.361533" x2="46.280139" y2="-2.467765" />
      <line x1="8.096373" y1="-20.442127" x2="46.280139" y2="-2.467765" />
      <path d="M -54.871486,-13.921909 A 4.0,1.8829323079604894 180.0 0,0 -56.043059,-12.590475" />
      <line x1="-54.871486" y1="-13.921909" x2="-54.871486" y2="-11.804448" />
      <line x1="-57.699913" y1="-12.590475" x2="-54.871486" y2="-13.921909" />
      <line x1="-13.081475" y1="-33.59385" x2="-10.253048" y2="-34.925284" />
      <line x1="-13.081475" y1="-33.59385" x2="-13.081475" y2="-31.476388" />
      <path d="M -13.081475,-33.59385 A 4.0,1.8829323079604894 0.0 0,1 -7.424621,-33.59385" />
      <line x1="-1.626346" y1="0.711034" x2="-1.626346" y2="2.441898" />
      <line x1="4.737615" y1="1.043893" x2="4.737615" y2="2.774757" />
      <line x1="9.33381" y1="0.544605" x2="9.33381" y2="2.275469" />
      <line x1="12.51579" y1="-0.6204" x2="12.51579" y2="1.110464" />
      <line x1="14.990664" y1="-2.118264" x2="14.990664" y2="-0.387399" />
      <line x1="16.051324" y1="-4.281844" x2="16.051324" y2="-2.55098" />
      <line x1="15.344217" y1="-7.277571" x2="15.344217" y2="-5.546707" />
      <line x1="40.269731" y1="-1.755929" x2="40.269731" y2="0.361533" />
      <line x1="4.335076" y1="-18.67156" x2="40.269731" y2="-1.755929" />
      <line x1="40.269731" y1="-1.755929" x2="44.031028" y2="-3.526496" />
      <line x1="56.043059" y1="-2.937577" x2="56.043059" y2="-0.820115" />
      <line x1="-56.043059" y1="-12.590475" x2="-56.043059" y2="-10.473013" />
    </g>
    <g fill="none" stroke="rgb(191,158,158)" stroke-width="0.22" id="lid_hidden" stroke-dasharray="1.397 0.6985">
      <line x1="10.253048" y1="16.57395" x2="10.253048" y2="19.397232" />
      <line x1="10.253048" y1="16.57395" x2="57.699913" y2="-5.760859" />
      <line x1="54.871486" y1="-1.606143" x2="56.043059" y2="-2.157641" />
      <line x1="54.871486" y1="-1.606143" x2="54.871486" y2="0.511319" />
      <line x1="13.081475" y1="18.065798" x2="13.081475" y2="20.183259" />
      <line x1="10.253048" y1="19.397232" x2="13.081475" y2="18.065798" />
      <line x1="10.253048" y1="16.57395" x2="-57.699913" y2="-15.413757" />
      <line x1="10.253048" y1="19.397232" x2="7.424621" y2="18.065798" />
      <line x1="7.424621" y1="18.065798" x2="7.424621" y2="20.183259" />
      <line x1="-54.871486" y1="-11.259041" x2="-54.871486" y2="-9.141579" />
      <line x1="-54.871486" y1="-11.259041" x2="-56.043059" y2="-11.810539" />
      <line x1="10.253048" y1="15.375659" x2="55.154329" y2="-5.760859" />
      <line x1="10.253048" y1="15.375659" x2="-55.154329" y2="-15.413757" />
      <line x1="-55.154329" y1="-15.413757" x2="-10.253048" y2="-36.550275" />
      <line x1="55.154329" y1="-5.760859" x2="-10.253048" y2="-36.550275" />
      <path d="M 54.871486,-1.606143 A 4.0,1.8829323079604894 180.0 0,0 56.043059,-2.937577" />
      <path d="M 13.081475,18.065798 A 4.0,1.8829323079604894 0.0 0,1 7.424621,18.065798" />
      <path d="M -56.043059,-12.590475 A 4.0,1.8829323079604894 180.0 0,0 -54.871486,-11.259041" />
      <line x1="10.253048" y1="15.375659" x2="10.253048" y2="18.198941" />
      <line x1="10.253048" y1="18.198941" x2="55.154329" y2="-2.937577" />
      <line x1="55.154329" y1="-5.760859" x2="55.154329" y2="-2.937577" />
      <line x1="-55.154329" y1="-15.413757" x2="-55.154329" y2="-12.590475" />
      <line x1="10.253048" y1="18.198941" x2="-55.154329" y2="-12.590475" />
      <line x1="-55.154329" y1="-12.590475" x2="-10.253048" y2="-33.726993" />
      <line x1="-10.253048" y1="-36.550275" x2="-10.253048" y2="-33.726993" />
      <line x1="55.154329" y1="-2.937577" x2="-10.253048" y2="-33.726993" />
      <path d="M 2.404163,1.356298 A 1.6,0.7531729231841958 0.0 0,1 5.135534,1.888872" />
      <path d="M 5.135534,1.888872 A 1.6,0.7531729231841958 0.0 0,1 1.935534,1.888872" />
      <path d="M 1.935534,1.888872 A 1.6,0.7531729231841958 0.0 0,1 2.404163,1.356298" />
      <line x1="-10.111627" y1="-3.669866" x2="-10.111627" y2="-1.552404" />
      <line x1="-1.626346" y1="0.324437" x2="-1.626346" y2="0.711034" />
      <line x1="-10.111627" y1="-3.669866" x2="-1.626346" y2="0.324437" />
      <line x1="-8.273149" y1="-4.535298" x2="-8.273149" y2="-2.417836" />
      <line x1="-10.111627" y1="-3.669866" x2="-8.273149" y2="-4.535298" />
      <line x1="0.212132" y1="-0.540995" x2="0.212132" y2="1.576466" />
      <line x1="-1.626346" y1="0.324437" x2="0.212132" y2="-0.540995" />
      <line x1="-8.273149" y1="-4.535298" x2="0.212132" y2="-0.540995" />
      <line x1="-10.818734" y1="-6.665593" x2="-10.818734" y2="-4.548131" />
      <line x1="4.737615" y1="0.657295" x2="4.737615" y2="1.043893" />
      <line x1="-10.818734" y1="-6.665593" x2="4.737615" y2="0.657295" />
      <line x1="-8.980256" y1="-7.531025" x2="-8.980256" y2="-5.413563" />
      <line x1="-10.818734" y1="-6.665593" x2="-8.980256" y2="-7.531025" />
      <line x1="6.576093" y1="-0.208137" x2="6.576093" y2="1.909325" />
      <line x1="4.737615" y1="0.657295" x2="6.576093" y2="-0.208137" />
      <line x1="-8.980256" y1="-7.531025" x2="6.576093" y2="-0.208137" />
      <line x1="-9.758074" y1="-8.829173" x2="-9.758074" y2="-6.711712" />
      <line x1="9.33381" y1="0.158008" x2="9.33381" y2="0.544605" />
      <line x1="-9.758074" y1="-8.829173" x2="9.33381" y2="0.158008" />
      <line x1="-7.919596" y1="-9.694606" x2="-7.919596" y2="-7.577144" />
      <line x1="-9.758074" y1="-8.829173" x2="-7.919596" y2="-9.694606" />
      <line x1="11.172287" y1="-0.707425" x2="11.172287" y2="1.410037" />
      <line x1="9.33381" y1="0.158008" x2="11.172287" y2="-0.707425" />
      <line x1="-7.919596" y1="-9.694606" x2="11.172287" y2="-0.707425" />
      <path d="M -14.5664,-6.632307 A 1.6,0.7531729231841958 0.0 0,1 -11.835029,-6.099733" />
      <path d="M -11.835029,-6.099733 A 1.6,0.7531729231841958 0.0 0,1 -15.035029,-6.099733" />
      <path d="M -15.035029,-6.099733 A 1.6,0.7531729231841958 0.0 0,1 -14.5664,-6.632307" />
      <line x1="-7.2832" y1="-10.327037" x2="-7.2832" y2="-8.209575" />
      <line x1="12.51579" y1="-1.006997" x2="12.51579" y2="-0.6204" />
      <line x1="-7.2832" y1="-10.327037" x2="12.51579" y2="-1.006997" />
      <line x1="-5.444722" y1="-11.192469" x2="-5.444722" y2="-9.075007" />
      <line x1="-7.2832" y1="-10.327037" x2="-5.444722" y2="-11.192469" />
      <line x1="14.354268" y1="-1.87243" x2="14.354268" y2="0.245032" />
      <line x1="12.51579" y1="-1.006997" x2="14.354268" y2="-1.87243" />
      <line x1="-5.444722" y1="-11.192469" x2="14.354268" y2="-1.87243" />
      <line x1="-4.101219" y1="-11.492042" x2="-4.101219" y2="-9.37458" />
      <line x1="14.990664" y1="-2.504861" x2="14.990664" y2="-2.118264" />
      <line x1="-4.101219" y1="-11.492042" x2="14.990664" y2="-2.504861" />
      <line x1="-2.262742" y1="-12.357474" x2="-2.262742" y2="-10.240012" />
      <line x1="-4.101219" y1="-11.492042" x2="-2.262742" y2="-12.357474" />
      <line x1="16.829141" y1="-3.370293" x2="16.829141" y2="-1.252831" />
      <line x1="14.990664" y1="-2.504861" x2="16.829141" y2="-3.370293" />
      <line x1="-2.262742" y1="-12.357474" x2="16.829141" y2="-3.370293" />
      <path d="M 19.374726,-6.632307 A 1.6,0.7531729231841958 0.0 0,1 22.106097,-6.099733" />
      <path d="M 22.106097,-6.099733 A 1.6,0.7531729231841958 0.0 0,1 18.906097,-6.099733" />
      <path d="M 18.906097,-6.099733 A 1.6,0.7531729231841958 0.0 0,1 19.374726,-6.632307" />
      <line x1="0.494975" y1="-11.99133" x2="0.494975" y2="-9.873868" />
      <line x1="16.051324" y1="-4.668441" x2="16.051324" y2="-4.281844" />
      <line x1="0.494975" y1="-11.99133" x2="16.051324" y2="-4.668441" />
      <line x1="2.333452" y1="-12.856762" x2="2.333452" y2="-10.7393" />
      <line x1="0.494975" y1="-11.99133" x2="2.333452" y2="-12.856762" />
      <line x1="17.889802" y1="-5.533874" x2="17.889802" y2="-3.416412" />
      <line x1="16.051324" y1="-4.668441" x2="17.889802" y2="-5.533874" />
      <line x1="2.333452" y1="-12.856762" x2="17.889802" y2="-5.533874" />
      <line x1="6.858936" y1="-11.658471" x2="6.858936" y2="-9.541009" />
      <line x1="15.344217" y1="-7.664168" x2="15.344217" y2="-7.277571" />
      <line x1="6.858936" y1="-11.658471" x2="15.344217" y2="-7.664168" />
      <line x1="8.697413" y1="-12.523903" x2="8.697413" y2="-10.406442" />
      <line x1="6.858936" y1="-11.658471" x2="8.697413" y2="-12.523903" />
      <line x1="17.182695" y1="-8.529601" x2="17.182695" y2="-6.412139" />
      <line x1="15.344217" y1="-7.664168" x2="17.182695" y2="-8.529601" />
      <line x1="8.697413" y1="-12.523903" x2="17.182695" y2="-8.529601" />
      <path d="M 2.404163,-14.620912 A 1.6,0.7531729231841958 0.0 0,1 5.135534,-14.088338" />
      <path d="M 5.135534,-14.088338 A 1.6,0.7531729231841958 0.0 0,1 1.935534,-14.088338" />
      <path d="M 1.935534,-14.088338 A 1.6,0.7531729231841958 0.0 0,1 2.404163,-14.620912" />
      <line x1="2.085965" y1="-19.730291" x2="2.085965" y2="-17.612829" />
      <line x1="2.085965" y1="-19.730291" x2="4.335076" y2="-18.67156" />
      <line x1="8.096373" y1="-22.559589" x2="8.096373" y2="-20.442127" />
      <line x1="2.085965" y1="-19.730291" x2="8.096373" y2="-22.559589" />
      <line x1="46.280139" y1="-4.585227" x2="46.280139" y2="-2.467765" />
      <line x1="44.031028" y1="-3.526496" x2="46.280139" y2="-4.585227" />
      <line x1="8.096373" y1="-22.559589" x2="46.280139" y2="-4.585227" />
      <line x1="5.135534" y1="1.888872" x2="5.135534" y2="4.006334" />
      <line x1="1.935534" y1="1.888872" x2="1.935534" y2="4.006334" />
      <line x1="-11.835029" y1="-6.099733" x2="-11.835029" y2="-3.982272" />
      <line x1="-15.035029" y1="-6.099733" x2="-15.035029" y2="-3.982272" />
      <line x1="22.106097" y1="-6.099733" x2="22.106097" y2="-3.982272" />
      <line x1="18.906097" y1="-6.099733" x2="18.906097" y2="-3.982272" />
      <line x1="5.135534" y1="-14.088338" x2="5.135534" y2="-11.970877" />
      <line x1="1.935534" y1="-14.088338" x2="1.935534" y2="-11.970877" />
    </g>
  </g>
</svg>