<?xml version='1.0' encoding='utf-8'?>
<svg width="117.799112mm" height="102.943879mm" viewBox="-58.62172 -53.529713 117.799112 102.943879" version="1.1" xmlns="http://www.w3.org/2000/svg">
  <g transform="scale(1,-1)" stroke-linecap="round">
    <g fill="none" stroke="rgb(211,211,211)" stroke-width="0.4" id="base_visible">
      <path d="M 8.268143,13.366251 A 3.2,1.8475208614068028 0.0 0,1 13.730884,14.672646" />
      <path d="M 7.330884,14.672646 A 3.2,1.8475208614068028 0.0 0,1 8.268143,13.366251" />
      <path d="M 8.268143,16.632237 A 3.2,1.8475208614068028 0.0 0,1 13.730884,17.938632" />
      <path d="M 13.730884,17.938632 A 3.2,1.8475208614068028 0.0 0,1 7.330884,17.938632" />
      <path d="M 7.330884,17.938632 A 3.2,1.8475208614068028 0.0 0,1 8.268143,16.632237" />
      <line x1="13.730884" y1="16.662659" x2="37.966627" y2="2.670146" />
      <line x1="42.492111" y1="0.057357" x2="43.466151" y2="-0.505006" />
      <line x1="7.330884" y1="16.662659" x2="-28.768344" y2="-4.17924" />
      <line x1="-33.681309" y1="-7.015742" x2="-37.410955" y2="-9.169054" />
      <line x1="-17.753387" y1="-8.189259" x2="4.87403" y2="4.874687" />
      <line x1="-17.753387" y1="-8.189259" x2="-15.632067" y2="-9.414003" />
      <line x1="-15.632067" y1="-9.414003" x2="6.99535" y2="3.649942" />
      <line x1="4.87403" y1="4.874687" x2="6.99535" y2="3.649942" />
      <path d="M -32.744051,-10.31215 A 3.2,1.8475208614068028 0.0 0,1 -27.281309,-9.005755" />
      <path d="M -33.681309,-9.005755 A 3.2,1.8475208614068028 0.0 0,1 -32.744051,-10.31215" />
      <line x1="-13.510746" y1="-10.638748" x2="9.116671" y2="2.425197" />
      <line x1="-13.510746" y1="-10.638748" x2="-11.389426" y2="-11.863493" />
      <line x1="-11.389426" y1="-11.863493" x2="11.237991" y2="1.200452" />
      <line x1="9.116671" y1="2.425197" x2="11.237991" y2="1.200452" />
      <line x1="-9.268106" y1="-13.088238" x2="13.359311" y2="-0.024293" />
      <line x1="-9.268106" y1="-13.088238" x2="-7.146785" y2="-14.312983" />
      <line x1="-7.146785" y1="-14.312983" x2="15.480632" y2="-1.249038" />
      <line x1="13.359311" y1="-0.024293" x2="15.480632" y2="-1.249038" />
      <path d="M 42.916375,-6.637915 A 3.2,1.8475208614068028 0.0 0,1 42.988191,-6.678102" />
      <path d="M 41.979117,-5.331521 A 3.2,1.8475208614068028 0.0 0,1 42.916375,-6.637915" />
      <line x1="-5.025465" y1="-15.537728" x2="17.601952" y2="-2.473783" />
      <line x1="-5.025465" y1="-15.537728" x2="-2.904145" y2="-16.762473" />
      <line x1="-2.904145" y1="-16.762473" x2="19.723272" y2="-3.698527" />
      <line x1="17.601952" y1="-2.473783" x2="19.723272" y2="-3.698527" />
      <line x1="-0.782824" y1="-17.987218" x2="21.844593" y2="-4.923272" />
      <line x1="-0.782824" y1="-17.987218" x2="0.7021" y2="-18.844539" />
      <line x1="21.844593" y1="-4.923272" x2="23.329517" y2="-5.780594" />
      <line x1="5.227583" y1="-21.457328" x2="5.581137" y2="-21.661452" />
      <line x1="5.581137" y1="-21.661452" x2="28.208554" y2="-8.597507" />
      <line x1="27.855" y1="-8.393383" x2="28.208554" y2="-8.597507" />
      <path d="M 1.904182,-30.316316 A 3.2,1.8475208614068028 0.0 0,1 1.975997,-30.356503" />
      <path d="M 0.966923,-29.009921 A 3.2,1.8475208614068028 0.0 0,1 1.904182,-30.316316" />
      <path d="M 9.540935,17.367084 A 1.4,0.8082903768654761 0.0 0,1 11.930884,17.938632" />
      <path d="M 11.930884,17.938632 A 1.4000000000000001,0.8082903768654763 0.0 0,1 9.130884,17.938632" />
      <path d="M 9.130884,17.938632 A 1.4,0.8082903768654761 0.0 0,1 9.540935,17.367084" />
      <line x1="10.530884" y1="19.786153" x2="10.530884" y2="34.513513" />
      <line x1="10.530884" y1="34.513513" x2="51.82592" y2="10.671812" />
      <line x1="38.390892" y1="2.915095" x2="21.986014" y2="12.386455" />
      <line x1="40.37079" y1="4.05819" x2="40.37079" y2="7.487476" />
      <line x1="40.37079" y1="7.487476" x2="21.986014" y2="18.101931" />
      <line x1="21.986014" y1="12.386455" x2="21.986014" y2="18.101931" />
      <line x1="-9.975212" y1="-25.009088" x2="51.82592" y2="10.671812" />
      <line x1="45.674091" y1="-5.127396" x2="-2.126327" y2="-32.724981" />
      <line x1="45.674091" y1="1.894474" x2="45.674091" y2="-5.127396" />
      <line x1="-51.270248" y1="-1.167388" x2="10.530884" y2="34.513513" />
      <line x1="4.379055" y1="27.695766" x2="-45.118419" y2="-0.881614" />
      <line x1="-45.118419" y1="-0.881614" x2="-45.118419" y2="-4.719148" />
      <line x1="4.379055" y1="18.714304" x2="-40.663647" y2="-7.291112" />
      <line x1="4.379055" y1="27.695766" x2="4.379055" y2="18.714304" />
      <line x1="-51.270248" y1="-1.167388" x2="-9.975212" y2="-25.009088" />
      <line x1="4.87403" y1="2.915095" x2="4.87403" y2="4.874687" />
      <line x1="-16.056331" y1="-9.169054" x2="4.87403" y2="2.915095" />
      <line x1="4.87403" y1="2.915095" x2="5.298294" y2="2.670146" />
      <path d="M -32.744051,-7.046163 A 3.2,1.8475208614068028 0.0 0,1 -27.281309,-5.739769" />
      <path d="M -27.281309,-5.739769 A 3.2,1.8475208614068028 0.0 0,1 -33.681309,-5.739769" />
      <path d="M -33.681309,-5.739769 A 3.2,1.8475208614068028 0.0 0,1 -32.744051,-7.046163" />
      <line x1="9.116671" y1="0.465605" x2="9.116671" y2="2.425197" />
      <line x1="-11.81369" y1="-11.618544" x2="9.116671" y2="0.465605" />
      <line x1="9.116671" y1="0.465605" x2="9.540935" y2="0.220656" />
      <line x1="13.359311" y1="-1.983885" x2="13.359311" y2="-0.024293" />
      <line x1="-7.571049" y1="-14.068034" x2="13.359311" y2="-1.983885" />
      <line x1="13.359311" y1="-1.983885" x2="13.783576" y2="-2.228834" />
      <path d="M 42.916375,-3.371929 A 3.2,1.8475208614068028 0.0 0,1 45.674091,-3.89082" />
      <path d="M 45.674091,-0.240249 A 3.2,1.8475208614068028 0.0 0,1 41.979117,-2.065534" />
      <path d="M 41.979117,-2.065534 A 3.2,1.8475208614068028 0.0 0,1 42.916375,-3.371929" />
      <line x1="17.601952" y1="-4.433374" x2="17.601952" y2="-2.473783" />
      <line x1="-3.328409" y1="-16.517524" x2="17.601952" y2="-4.433374" />
      <line x1="17.601952" y1="-4.433374" x2="18.026216" y2="-4.678323" />
      <line x1="21.844593" y1="-6.637915" x2="21.844593" y2="-4.923272" />
      <line x1="26.157944" y1="-9.373179" x2="26.511498" y2="-9.577303" />
      <path d="M 1.904182,-27.05033 A 3.2,1.8475208614068028 0.0 0,1 7.366923,-25.743935" />
      <path d="M 7.366923,-25.743935 A 3.2,1.8475208614068028 0.0 0,1 0.966923,-25.743935" />
      <path d="M 0.966923,-25.743935 A 3.2,1.8475208614068028 0.0 0,1 1.904182,-27.05033" />
      <line x1="12.652205" y1="35.24836" x2="53.098713" y2="11.896557" />
      <path d="M 12.652205,35.24836 A 3.0,1.7320508075688776 0.0 0,1 8.409564,35.24836" />
      <path d="M 53.098713,11.896557 A 3.0,1.7320508075688776 180.0 0,0 53.977392,10.671812" />
      <path d="M 53.977392,10.671812 A 3.0,1.7320508075688776 180.0 0,0 53.098713,9.447068" />
      <line x1="8.409564" y1="35.24836" x2="-52.543041" y2="0.057357" />
      <line x1="53.098713" y1="9.447068" x2="-7.853892" y2="-25.743935" />
      <path d="M -52.543041,-2.392133 A 3.0,1.7320508075688776 180.0 0,0 -53.42172,-1.167388" />
      <path d="M -53.42172,-1.167388 A 3.0,1.7320508075688776 180.0 0,0 -52.543041,0.057357" />
      <path d="M -12.096533,-25.743935 A 3.0,1.7320508075688776 0.0 0,1 -7.853892,-25.743935" />
      <line x1="-52.543041" y1="-2.392133" x2="-12.096533" y2="-25.743935" />
      <line x1="23.68307" y1="13.366251" x2="21.986014" y2="12.386455" />
      <line x1="40.087948" y1="3.894891" x2="23.68307" y2="13.366251" />
      <line x1="23.68307" y1="13.366251" x2="23.68307" y2="17.122135" />
      <line x1="47.371148" y1="2.87427" x2="-2.126327" y2="-25.70311" />
      <line x1="-2.126327" y1="-25.70311" x2="-2.126327" y2="-34.684573" />
      <line x1="45.674091" y1="-5.127396" x2="47.371148" y2="-6.107192" />
      <line x1="47.371148" y1="-6.107192" x2="-2.126327" y2="-34.684573" />
      <line x1="47.371148" y1="2.87427" x2="47.371148" y2="-6.107192" />
      <line x1="2.681999" y1="19.6941" x2="4.379055" y2="18.714304" />
      <line x1="2.681999" y1="19.6941" x2="-42.360703" y2="-6.311316" />
      <line x1="2.681999" y1="26.71597" x2="2.681999" y2="19.6941" />
      <path d="M 53.977392,-7.291112 A 3.0,1.7320508075688776 180.0 0,0 53.098713,-8.515857" />
      <line x1="53.098713" y1="-8.515857" x2="-7.853892" y2="-43.70686" />
      <path d="M -52.543041,-20.355058 A 3.0,1.7320508075688776 180.0 0,0 -53.42172,-19.130313" />
      <path d="M -12.096533,-43.70686 A 3.0,1.7320508075688776 0.0 0,1 -7.853892,-43.70686" />
      <line x1="-52.543041" y1="-20.355058" x2="-12.096533" y2="-43.70686" />
      <path d="M -31.471258,-6.311316 A 1.4,0.8082903768654761 0.0 0,1 -29.081309,-5.739769" />
      <path d="M -29.081309,-5.739769 A 1.4000000000000001,0.8082903768654763 0.0 0,1 -31.881309,-5.739769" />
      <path d="M -31.881309,-5.739769 A 1.4,0.8082903768654761 0.0 0,1 -31.471258,-6.311316" />
      <path d="M 44.189167,-2.637082 A 1.4,0.8082903768654761 0.0 0,1 45.674091,-2.821621" />
      <path d="M 45.674091,-1.309448 A 1.4,0.8082903768654761 0.0 0,1 43.779117,-2.065534" />
      <path d="M 43.779117,-2.065534 A 1.4,0.8082903768654761 0.0 0,1 44.189167,-2.637082" />
      <path d="M 3.176974,-26.315483 A 1.4,0.8082903768654761 0.0 0,1 5.566923,-25.743935" />
      <path d="M 5.566923,-25.743935 A 1.4000000000000001,0.8082903768654763 0.0 0,1 2.766923,-25.743935" />
      <path d="M 2.766923,-25.743935 A 1.4,0.8082903768654761 0.0 0,1 3.176974,-26.315483" />
      <line x1="53.098713" y1="-8.515857" x2="53.098713" y2="9.447068" />
      <line x1="-7.853892" y1="-43.70686" x2="-7.853892" y2="-25.743935" />
      <line x1="-52.543041" y1="-20.355058" x2="-52.543041" y2="-2.392133" />
      <line x1="-12.096533" y1="-43.70686" x2="-12.096533" y2="-25.743935" />
      <line x1="13.730884" y1="14.672646" x2="13.730884" y2="17.938632" />
      <line x1="7.330884" y1="14.672646" x2="7.330884" y2="17.938632" />
      <line x1="-27.281309" y1="-9.005755" x2="-27.281309" y2="-5.739769" />
      <line x1="-33.681309" y1="-9.005755" x2="-33.681309" y2="-5.739769" />
      <line x1="41.979117" y1="-5.331521" x2="41.979117" y2="-2.065534" />
      <line x1="7.366923" y1="-27.24405" x2="7.366923" y2="-25.743935" />
      <line x1="0.966923" y1="-29.009921" x2="0.966923" y2="-25.743935" />
      <line x1="53.977392" y1="-7.291112" x2="53.977392" y2="10.671812" />
      <line x1="-53.42172" y1="-19.130313" x2="-53.42172" y2="-1.167388" />
    </g>
    <g fill="none" stroke="rgb(211,211,211)" stroke-width="0.15" id="base_hidden">
      <path d="M 13.730884,14.672646 A 3.2,1.8475208614068028 0.0 0,1 7.330884,14.672646" />
      <line x1="10.530884" y1="18.51018" x2="13.730884" y2="16.662659" />
      <line x1="37.966627" y1="2.670146" x2="42.492111" y2="0.057357" />
      <line x1="43.466151" y1="-0.505006" x2="51.82592" y2="-5.331521" />
      <line x1="51.82592" y1="-5.331521" x2="-9.975212" y2="-41.012421" />
      <line x1="10.530884" y1="18.51018" x2="7.330884" y2="16.662659" />
      <line x1="-28.768344" y1="-4.17924" x2="-33.681309" y2="-7.015742" />
      <line x1="-37.410955" y1="-9.169054" x2="-51.270248" y2="-17.170721" />
      <line x1="-51.270248" y1="-17.170721" x2="-9.975212" y2="-41.012421" />
      <path d="M -27.281309,-9.005755 A 3.2,1.8475208614068028 0.0 0,1 -33.681309,-9.005755" />
      <path d="M 42.988191,-6.678102 A 3.2,1.8475208614068028 0.0 0,1 48.379117,-5.331521" />
      <path d="M 48.379117,-5.331521 A 3.2,1.8475208614068028 0.0 0,1 41.979117,-5.331521" />
      <line x1="0.7021" y1="-18.844539" x2="1.338496" y2="-19.211962" />
      <line x1="1.338496" y1="-19.211962" x2="23.965913" y2="-6.148017" />
      <line x1="23.329517" y1="-5.780594" x2="23.965913" y2="-6.148017" />
      <line x1="3.459817" y1="-20.436707" x2="26.087234" y2="-7.372762" />
      <line x1="3.459817" y1="-20.436707" x2="5.227583" y2="-21.457328" />
      <line x1="26.087234" y1="-7.372762" x2="27.855" y2="-8.393383" />
      <path d="M 1.975997,-30.356503 A 3.2,1.8475208614068028 0.0 0,1 7.366923,-29.009921" />
      <path d="M 7.366923,-29.009921 A 3.2,1.8475208614068028 0.0 0,1 0.966923,-29.009921" />
      <line x1="10.530884" y1="18.51018" x2="10.530884" y2="19.786153" />
      <line x1="51.82592" y1="-5.331521" x2="51.82592" y2="10.671812" />
      <line x1="40.37079" y1="1.772" x2="38.390892" y2="2.915095" />
      <line x1="40.37079" y1="1.772" x2="40.37079" y2="4.05819" />
      <line x1="-9.975212" y1="-41.012421" x2="-9.975212" y2="-25.009088" />
      <line x1="45.674091" y1="3.854066" x2="-3.823383" y2="-24.723314" />
      <line x1="-3.823383" y1="-24.723314" x2="-3.823383" y2="-33.704777" />
      <line x1="-2.126327" y1="-32.724981" x2="-3.823383" y2="-33.704777" />
      <line x1="45.674091" y1="3.854066" x2="45.674091" y2="1.894474" />
      <line x1="-51.270248" y1="-17.170721" x2="-51.270248" y2="-1.167388" />
      <line x1="-45.118419" y1="-4.719148" x2="-45.118419" y2="-9.863077" />
      <line x1="-40.663647" y1="-7.291112" x2="-45.118419" y2="-9.863077" />
      <line x1="-17.753387" y1="-10.14885" x2="-17.753387" y2="-8.189259" />
      <line x1="-17.753387" y1="-10.14885" x2="-16.056331" y2="-9.169054" />
      <line x1="-15.632067" y1="-11.373595" x2="-15.632067" y2="-9.414003" />
      <line x1="-17.753387" y1="-10.14885" x2="-15.632067" y2="-11.373595" />
      <line x1="6.99535" y1="1.69035" x2="6.99535" y2="3.649942" />
      <line x1="-15.632067" y1="-11.373595" x2="6.99535" y2="1.69035" />
      <line x1="5.298294" y1="2.670146" x2="6.99535" y2="1.69035" />
      <line x1="-13.510746" y1="-12.59834" x2="-13.510746" y2="-10.638748" />
      <line x1="-13.510746" y1="-12.59834" x2="-11.81369" y2="-11.618544" />
      <line x1="-11.389426" y1="-13.823085" x2="-11.389426" y2="-11.863493" />
      <line x1="-13.510746" y1="-12.59834" x2="-11.389426" y2="-13.823085" />
      <line x1="11.237991" y1="-0.75914" x2="11.237991" y2="1.200452" />
      <line x1="-11.389426" y1="-13.823085" x2="11.237991" y2="-0.75914" />
      <line x1="9.540935" y1="0.220656" x2="11.237991" y2="-0.75914" />
      <line x1="-9.268106" y1="-15.04783" x2="-9.268106" y2="-13.088238" />
      <line x1="-9.268106" y1="-15.04783" x2="-7.571049" y2="-14.068034" />
      <line x1="-7.146785" y1="-16.272575" x2="-7.146785" y2="-14.312983" />
      <line x1="-9.268106" y1="-15.04783" x2="-7.146785" y2="-16.272575" />
      <line x1="15.480632" y1="-3.208629" x2="15.480632" y2="-1.249038" />
      <line x1="-7.146785" y1="-16.272575" x2="15.480632" y2="-3.208629" />
      <line x1="13.783576" y1="-2.228834" x2="15.480632" y2="-3.208629" />
      <path d="M 45.674091,-3.89082 A 3.2,1.8475208614068028 0.0 0,1 48.379117,-2.065534" />
      <path d="M 48.379117,-2.065534 A 3.2,1.8475208614068028 0.0 0,1 45.674091,-0.240249" />
      <line x1="-5.025465" y1="-17.49732" x2="-5.025465" y2="-15.537728" />
      <line x1="-5.025465" y1="-17.49732" x2="-3.328409" y2="-16.517524" />
      <line x1="-2.904145" y1="-18.722064" x2="-2.904145" y2="-16.762473" />
      <line x1="-5.025465" y1="-17.49732" x2="-2.904145" y2="-18.722064" />
      <line x1="19.723272" y1="-5.658119" x2="19.723272" y2="-3.698527" />
      <line x1="-2.904145" y1="-18.722064" x2="19.723272" y2="-5.658119" />
      <line x1="18.026216" y1="-4.678323" x2="19.723272" y2="-5.658119" />
      <line x1="-0.782824" y1="-19.946809" x2="-0.782824" y2="-17.987218" />
      <line x1="21.844593" y1="-6.882864" x2="21.844593" y2="-6.637915" />
      <line x1="-0.782824" y1="-19.946809" x2="21.844593" y2="-6.882864" />
      <line x1="1.338496" y1="-21.171554" x2="1.338496" y2="-19.211962" />
      <line x1="-0.782824" y1="-19.946809" x2="1.338496" y2="-21.171554" />
      <line x1="23.965913" y1="-8.107609" x2="23.965913" y2="-6.148017" />
      <line x1="1.338496" y1="-21.171554" x2="23.965913" y2="-8.107609" />
      <line x1="21.844593" y1="-6.882864" x2="23.965913" y2="-8.107609" />
      <line x1="3.459817" y1="-22.396299" x2="3.459817" y2="-20.436707" />
      <line x1="26.087234" y1="-9.332354" x2="26.087234" y2="-7.372762" />
      <line x1="3.459817" y1="-22.396299" x2="26.087234" y2="-9.332354" />
      <line x1="5.581137" y1="-23.621044" x2="5.581137" y2="-21.661452" />
      <line x1="3.459817" y1="-22.396299" x2="5.581137" y2="-23.621044" />
      <line x1="28.208554" y1="-10.557099" x2="28.208554" y2="-8.597507" />
      <line x1="5.581137" y1="-23.621044" x2="28.208554" y2="-10.557099" />
      <line x1="26.087234" y1="-9.332354" x2="26.157944" y2="-9.373179" />
      <line x1="26.511498" y1="-9.577303" x2="28.208554" y2="-10.557099" />
      <path d="M 9.540935,12.141506 A 1.4,0.8082903768654761 0.0 0,1 11.930884,12.713054" />
      <path d="M 11.930884,12.713054 A 1.4000000000000001,0.8082903768654763 0.0 0,1 9.130884,12.713054" />
      <path d="M 9.130884,12.713054 A 1.4,0.8082903768654761 0.0 0,1 9.540935,12.141506" />
      <line x1="42.067847" y1="2.751796" x2="40.37079" y2="1.772" />
      <line x1="42.067847" y1="2.751796" x2="40.087948" y2="3.894891" />
      <line x1="42.067847" y1="8.467272" x2="40.37079" y2="7.487476" />
      <line x1="42.067847" y1="2.751796" x2="42.067847" y2="8.467272" />
      <line x1="23.68307" y1="19.081727" x2="21.986014" y2="18.101931" />
      <line x1="42.067847" y1="8.467272" x2="23.68307" y2="19.081727" />
      <line x1="23.68307" y1="17.122135" x2="23.68307" y2="19.081727" />
      <line x1="45.674091" y1="3.854066" x2="47.371148" y2="2.87427" />
      <line x1="-3.823383" y1="-24.723314" x2="-2.126327" y2="-25.70311" />
      <line x1="-3.823383" y1="-33.704777" x2="-2.126327" y2="-34.684573" />
      <line x1="2.681999" y1="28.675562" x2="4.379055" y2="27.695766" />
      <line x1="-46.815476" y1="0.098182" x2="-45.118419" y2="-0.881614" />
      <line x1="2.681999" y1="28.675562" x2="-46.815476" y2="0.098182" />
      <line x1="-46.815476" y1="-8.883281" x2="-45.118419" y2="-9.863077" />
      <line x1="-46.815476" y1="0.098182" x2="-46.815476" y2="-8.883281" />
      <line x1="-42.360703" y1="-6.311316" x2="-46.815476" y2="-8.883281" />
      <line x1="2.681999" y1="28.675562" x2="2.681999" y2="26.71597" />
      <line x1="12.652205" y1="17.285435" x2="53.098713" y2="-6.066367" />
      <path d="M 12.652205,17.285435 A 3.0,1.7320508075688776 0.0 0,1 8.409564,17.285435" />
      <path d="M 53.098713,-6.066367 A 3.0,1.7320508075688776 180.0 0,0 53.977392,-7.291112" />
      <line x1="8.409564" y1="17.285435" x2="-52.543041" y2="-17.905568" />
      <path d="M -53.42172,-19.130313 A 3.0,1.7320508075688776 180.0 0,0 -52.543041,-17.905568" />
      <path d="M -31.471258,-11.536895 A 1.4,0.8082903768654761 0.0 0,1 -29.081309,-10.965347" />
      <path d="M -29.081309,-10.965347 A 1.4000000000000001,0.8082903768654763 0.0 0,1 -31.881309,-10.965347" />
      <path d="M -31.881309,-10.965347 A 1.4,0.8082903768654761 0.0 0,1 -31.471258,-11.536895" />
      <path d="M 44.189167,-7.86266 A 1.4,0.8082903768654761 0.0 0,1 46.579117,-7.291112" />
      <path d="M 46.579117,-7.291112 A 1.4,0.8082903768654761 0.0 0,1 43.779117,-7.291112" />
      <path d="M 43.779117,-7.291112 A 1.4,0.8082903768654761 0.0 0,1 44.189167,-7.86266" />
      <path d="M 3.176974,-31.541061 A 1.4,0.8082903768654761 0.0 0,1 5.566923,-30.969513" />
      <path d="M 5.566923,-30.969513 A 1.4000000000000001,0.8082903768654763 0.0 0,1 2.766923,-30.969513" />
      <path d="M 2.766923,-30.969513 A 1.4,0.8082903768654761 0.0 0,1 3.176974,-31.541061" />
      <path d="M 45.674091,-2.821621 A 1.4,0.8082903768654761 0.0 0,1 46.579117,-2.065534" />
      <path d="M 46.579117,-2.065534 A 1.4,0.8082903768654761 0.0 0,1 45.674091,-1.309448" />
      <line x1="48.379117" y1="-5.331521" x2="48.379117" y2="-2.065534" />
      <line x1="7.366923" y1="-29.009921" x2="7.366923" y2="-27.24405" />
      <line x1="11.930884" y1="12.713054" x2="11.930884" y2="17.938632" />
      <line x1="9.130884" y1="12.713054" x2="9.130884" y2="17.938632" />
      <line x1="-29.081309" y1="-10.965347" x2="-29.081309" y2="-5.739769" />
      <line x1="-31.881309" y1="-10.965347" x2="-31.881309" y2="-5.739769" />
      <line x1="46.579117" y1="-7.291112" x2="46.579117" y2="-2.065534" />
      <line x1="43.779117" y1="-7.291112" x2="43.779117" y2="-2.065534" />
      <line x1="5.566923" y1="-30.969513" x2="5.566923" y2="-25.743935" />
      <line x1="2.766923" y1="-30.969513" x2="2.766923" y2="-25.743935" />
      <line x1="12.652205" y1="17.285435" x2="12.652205" y2="35.24836" />
      <line x1="53.098713" y1="-6.066367" x2="53.098713" y2="11.896557" />
      <line x1="8.409564" y1="17.285435" x2="8.409564" y2="35.24836" />
      <line x1="-52.543041" y1="-17.905568" x2="-52.543041" y2="0.057357" />
    </g>
    <g fill="none" stroke="rgb(0,128,0)" stroke-width="0.4" id="pcb_proxy_visible">
      <line x1="10.530884" y1="22.102765" x2="50.128864" y2="-0.75914" />
      <line x1="50.128864" y1="-2.065534" x2="50.128864" y2="-0.75914" />
      <line x1="-49.573192" y1="-13.904735" x2="-49.573192" y2="-12.59834" />
      <line x1="10.530884" y1="22.102765" x2="-49.573192" y2="-12.59834" />
      <line x1="50.128864" y1="-0.75914" x2="-9.975212" y2="-35.460244" />
      <line x1="-49.573192" y1="-12.59834" x2="-9.975212" y2="-35.460244" />
      <path d="M 9.540935,18.673479 A 1.4,0.8082903768654761 0.0 0,1 11.930884,19.245027" />
      <path d="M 11.930884,19.245027 A 1.4000000000000001,0.8082903768654763 0.0 0,1 9.130884,19.245027" />
      <path d="M 9.130884,19.245027 A 1.4,0.8082903768654761 0.0 0,1 9.540935,18.673479" />
      <path d="M -31.471258,-5.004922 A 1.4,0.8082903768654761 0.0 0,1 -29.081309,-4.433374" />
      <path d="M -29.081309,-4.433374 A 1.4000000000000001,0.8082903768654763 0.0 0,1 -31.881309,-4.433374" />
      <path d="M -31.881309,-4.433374 A 1.4,0.8082903768654761 0.0 0,1 -31.471258,-5.004922" />
      <path d="M 44.189167,-1.330687 A 1.4,0.8082903768654761 0.0 0,1 46.579117,-0.75914" />
      <path d="M 46.579117,-0.75914 A 1.4,0.8082903768654761 0.0 0,1 43.779117,-0.75914" />
      <path d="M 43.779117,-0.75914 A 1.4,0.8082903768654761 0.0 0,1 44.189167,-1.330687" />
      <path d="M 3.176974,-25.009088 A 1.4,0.8082903768654761 0.0 0,1 5.566923,-24.437541" />
      <path d="M 5.566923,-24.437541 A 1.4000000000000001,0.8082903768654763 0.0 0,1 2.766923,-24.437541" />
      <path d="M 2.766923,-24.437541 A 1.4,0.8082903768654761 0.0 0,1 3.176974,-25.009088" />
      <line x1="50.128864" y1="-2.065534" x2="-9.975212" y2="-36.766639" />
      <line x1="-9.975212" y1="-36.766639" x2="-9.975212" y2="-35.460244" />
      <line x1="-49.573192" y1="-13.904735" x2="-9.975212" y2="-36.766639" />
      <path d="M 11.355505,18.591829 A 1.4,0.8082903768654761 0.0 0,1 9.706263,18.591829" />
      <path d="M -29.656688,-5.086572 A 1.4,0.8082903768654761 0.0 0,1 -31.30593,-5.086572" />
      <path d="M 46.003738,-1.412337 A 1.4,0.8082903768654761 0.0 0,1 44.354495,-1.412337" />
      <path d="M 4.991544,-25.090738 A 1.4,0.8082903768654761 0.0 0,1 3.342302,-25.090738" />
    </g>
    <g fill="none" stroke="rgb(0,128,0)" stroke-width="0.15" id="pcb_proxy_hidden">
      <line x1="10.530884" y1="20.79637" x2="10.530884" y2="22.102765" />
      <line x1="10.530884" y1="20.79637" x2="50.128864" y2="-2.065534" />
      <line x1="10.530884" y1="20.79637" x2="-49.573192" y2="-13.904735" />
      <path d="M 9.540935,17.367084 A 1.4,0.8082903768654761 0.0 0,1 11.930884,17.938632" />
      <path d="M 11.930884,17.938632 A 1.4,0.8082903768654761 0.0 0,1 11.355505,18.591829" />
      <path d="M 9.706263,18.591829 A 1.4,0.8082903768654761 0.0 0,1 9.130884,17.938632" />
      <path d="M 9.130884,17.938632 A 1.4,0.8082903768654761 0.0 0,1 9.540935,17.367084" />
      <path d="M -31.471258,-6.311316 A 1.4,0.8082903768654761 0.0 0,1 -29.081309,-5.739769" />
      <path d="M -29.081309,-5.739769 A 1.4,0.8082903768654761 0.0 0,1 -29.656688,-5.086572" />
      <path d="M -31.30593,-5.086572 A 1.4,0.8082903768654761 0.0 0,1 -31.881309,-5.739769" />
      <path d="M -31.881309,-5.739769 A 1.4,0.8082903768654761 0.0 0,1 -31.471258,-6.311316" />
      <path d="M 44.189167,-2.637082 A 1.4,0.8082903768654761 0.0 0,1 46.579117,-2.065534" />
      <path d="M 46.579117,-2.065534 A 1.4,0.8082903768654761 0.0 0,1 46.003738,-1.412337" />
      <path d="M 44.354495,-1.412337 A 1.4,0.8082903768654761 0.0 0,1 43.779117,-2.065534" />
      <path d="M 43.779117,-2.065534 A 1.4,0.8082903768654761 0.0 0,1 44.189167,-2.637082" />
      <path d="M 3.176974,-26.315483 A 1.4,0.8082903768654761 0.0 0,1 5.566923,-25.743935" />
      <path d="M 5.566923,-25.743935 A 1.4,0.8082903768654761 0.0 0,1 4.991544,-25.090738" />
      <path d="M 3.342302,-25.090738 A 1.4,0.8082903768654761 0.0 0,1 2.766923,-25.743935" />
      <path d="M 2.766923,-25.743935 A 1.4,0.8082903768654761 0.0 0,1 3.176974,-26.315483" />
      <line x1="11.930884" y1="17.938632" x2="11.930884" y2="19.245027" />
      <line x1="9.130884" y1="17.938632" x2="9.130884" y2="19.245027" />
      <line x1="-29.081309" y1="-5.739769" x2="-29.081309" y2="-4.433374" />
      <line x1="-31.881309" y1="-5.739769" x2="-31.881309" y2="-4.433374" />
      <line x1="46.579117" y1="-2.065534" x2="46.579117" y2="-0.75914" />
      <line x1="43.779117" y1="-2.065534" x2="43.779117" y2="-0.75914" />
      <line x1="5.566923" y1="-25.743935" x2="5.566923" y2="-24.437541" />
      <line x1="2.766923" y1="-25.743935" x2="2.766923" y2="-24.437541" />
    </g>
    <g fill="none" stroke="rgb(255,164,0)" stroke-width="0.4" id="lid_exploded_visible">
      <line x1="12.652205" y1="47.822407" x2="53.098713" y2="24.470605" />
      <path d="M 12.652205,47.822407 A 3.0,1.7320508075688776 0.0 0,1 8.409564,47.822407" />
      <path d="M 53.098713,24.470605 A 3.0,1.7320508075688776 180.0 0,0 53.977392,23.24586" />
      <path d="M 53.977392,23.24586 A 3.0,1.7320508075688776 180.0 0,0 53.098713,22.021115" />
      <line x1="8.409564" y1="47.822407" x2="-52.543041" y2="12.631404" />
      <line x1="53.098713" y1="22.021115" x2="-7.853892" y2="-13.169888" />
      <path d="M -52.543041,10.181914 A 3.0,1.7320508075688776 180.0 0,0 -53.42172,11.406659" />
      <path d="M -53.42172,11.406659 A 3.0,1.7320508075688776 180.0 0,0 -52.543041,12.631404" />
      <path d="M -12.096533,-13.169888 A 3.0,1.7320508075688776 0.0 0,1 -7.853892,-13.169888" />
      <line x1="-52.543041" y1="10.181914" x2="-12.096533" y2="-13.169888" />
      <line x1="-32.956183" y1="14.060273" x2="5.93469" y2="36.513929" />
      <line x1="-32.956183" y1="14.060273" x2="-30.834862" y2="12.835528" />
      <line x1="-30.834862" y1="12.835528" x2="8.056011" y2="35.289184" />
      <line x1="5.93469" y1="36.513929" x2="8.056011" y2="35.289184" />
      <line x1="-28.713542" y1="11.610784" x2="10.177331" y2="34.064439" />
      <line x1="-28.713542" y1="11.610784" x2="-26.592222" y2="10.386039" />
      <line x1="-26.592222" y1="10.386039" x2="12.298651" y2="32.839695" />
      <line x1="10.177331" y1="34.064439" x2="12.298651" y2="32.839695" />
      <line x1="-24.470901" y1="9.161294" x2="14.419972" y2="31.61495" />
      <line x1="-24.470901" y1="9.161294" x2="-22.349581" y2="7.936549" />
      <line x1="-22.349581" y1="7.936549" x2="16.541292" y2="30.390205" />
      <line x1="14.419972" y1="31.61495" x2="16.541292" y2="30.390205" />
      <line x1="-20.228261" y1="6.711804" x2="18.662612" y2="29.16546" />
      <line x1="-20.228261" y1="6.711804" x2="-18.10694" y2="5.487059" />
      <line x1="-18.10694" y1="5.487059" x2="20.783933" y2="27.940715" />
      <line x1="18.662612" y1="29.16546" x2="20.783933" y2="27.940715" />
      <line x1="-15.98562" y1="4.262314" x2="22.905253" y2="26.71597" />
      <line x1="-15.98562" y1="4.262314" x2="-13.8643" y2="3.037569" />
      <line x1="-13.8643" y1="3.037569" x2="25.026573" y2="25.491225" />
      <line x1="22.905253" y1="26.71597" x2="25.026573" y2="25.491225" />
      <line x1="-11.742979" y1="1.812825" x2="27.147894" y2="24.266481" />
      <line x1="-11.742979" y1="1.812825" x2="-9.621659" y2="0.58808" />
      <line x1="-9.621659" y1="0.58808" x2="29.269214" y2="23.041736" />
      <line x1="27.147894" y1="24.266481" x2="29.269214" y2="23.041736" />
      <line x1="-7.500339" y1="-0.636665" x2="31.390534" y2="21.816991" />
      <line x1="-7.500339" y1="-0.636665" x2="-5.379018" y2="-1.86141" />
      <line x1="-5.379018" y1="-1.86141" x2="33.511855" y2="20.592246" />
      <line x1="31.390534" y1="21.816991" x2="33.511855" y2="20.592246" />
      <path d="M 53.977392,21.286268 A 3.0,1.7320508075688776 180.0 0,0 53.098713,20.061523" />
      <line x1="53.098713" y1="20.061523" x2="-7.853892" y2="-15.12948" />
      <path d="M -52.543041,8.222323 A 3.0,1.7320508075688776 180.0 0,0 -53.42172,9.447068" />
      <path d="M -12.096533,-15.12948 A 3.0,1.7320508075688776 0.0 0,1 -7.853892,-15.12948" />
      <line x1="-52.543041" y1="8.222323" x2="-12.096533" y2="-15.12948" />
      <line x1="5.93469" y1="34.554337" x2="5.93469" y2="36.513929" />
      <line x1="-31.259126" y1="13.080477" x2="5.93469" y2="34.554337" />
      <line x1="5.93469" y1="34.554337" x2="6.358954" y2="34.309388" />
      <line x1="10.177331" y1="32.104848" x2="10.177331" y2="34.064439" />
      <line x1="-27.016486" y1="10.630988" x2="10.177331" y2="32.104848" />
      <line x1="10.177331" y1="32.104848" x2="10.601595" y2="31.859899" />
      <line x1="14.419972" y1="29.655358" x2="14.419972" y2="31.61495" />
      <line x1="-22.773845" y1="8.181498" x2="14.419972" y2="29.655358" />
      <line x1="14.419972" y1="29.655358" x2="14.844236" y2="29.410409" />
      <line x1="18.662612" y1="27.205868" x2="18.662612" y2="29.16546" />
      <line x1="-18.531204" y1="5.732008" x2="18.662612" y2="27.205868" />
      <line x1="18.662612" y1="27.205868" x2="19.086876" y2="26.960919" />
      <line x1="22.905253" y1="24.756378" x2="22.905253" y2="26.71597" />
      <line x1="-14.288564" y1="3.282518" x2="22.905253" y2="24.756378" />
      <line x1="22.905253" y1="24.756378" x2="23.329517" y2="24.511429" />
      <line x1="27.147894" y1="22.306889" x2="27.147894" y2="24.266481" />
      <line x1="-10.045923" y1="0.833029" x2="27.147894" y2="22.306889" />
      <line x1="27.147894" y1="22.306889" x2="27.572158" y2="22.06194" />
      <line x1="31.390534" y1="19.857399" x2="31.390534" y2="21.816991" />
      <line x1="-5.803282" y1="-1.616461" x2="31.390534" y2="19.857399" />
      <line x1="31.390534" y1="19.857399" x2="31.814798" y2="19.61245" />
      <line x1="51.401656" y1="18.836778" x2="51.401656" y2="19.081727" />
      <line x1="-50.845984" y1="6.997578" x2="-50.845984" y2="7.242527" />
      <line x1="-9.975212" y1="-16.599173" x2="-9.975212" y2="-15.636785" />
      <line x1="-50.845984" y1="6.997578" x2="-9.975212" y2="-16.599173" />
      <line x1="51.401656" y1="18.836778" x2="-9.975212" y2="-16.599173" />
      <line x1="53.098713" y1="20.061523" x2="53.098713" y2="22.021115" />
      <line x1="-7.853892" y1="-15.12948" x2="-7.853892" y2="-13.169888" />
      <line x1="-52.543041" y1="8.222323" x2="-52.543041" y2="10.181914" />
      <line x1="-12.096533" y1="-15.12948" x2="-12.096533" y2="-13.169888" />
      <line x1="53.977392" y1="21.286268" x2="53.977392" y2="23.24586" />
      <line x1="-53.42172" y1="9.447068" x2="-53.42172" y2="11.406659" />
    </g>
    <g fill="none" stroke="rgb(255,164,0)" stroke-width="0.15" id="lid_exploded_hidden">
      <line x1="12.652205" y1="45.862815" x2="53.098713" y2="22.511013" />
      <path d="M 12.652205,45.862815 A 3.0,1.7320508075688776 0.0 0,1 8.409564,45.862815" />
      <path d="M 53.098713,22.511013 A 3.0,1.7320508075688776 180.0 0,0 53.977392,21.286268" />
      <line x1="8.409564" y1="45.862815" x2="-52.543041" y2="10.671812" />
      <path d="M -53.42172,9.447068 A 3.0,1.7320508075688776 180.0 0,0 -52.543041,10.671812" />
      <line x1="10.530884" y1="44.883019" x2="51.401656" y2="21.286268" />
      <line x1="10.530884" y1="44.883019" x2="-50.845984" y2="9.447068" />
      <line x1="-50.845984" y1="9.447068" x2="-9.975212" y2="-14.149684" />
      <line x1="51.401656" y1="21.286268" x2="-9.975212" y2="-14.149684" />
      <line x1="-32.956183" y1="12.100681" x2="-32.956183" y2="14.060273" />
      <line x1="-32.956183" y1="12.100681" x2="-31.259126" y2="13.080477" />
      <line x1="-30.834862" y1="10.875937" x2="-30.834862" y2="12.835528" />
      <line x1="-32.956183" y1="12.100681" x2="-30.834862" y2="10.875937" />
      <line x1="8.056011" y1="33.329593" x2="8.056011" y2="35.289184" />
      <line x1="-30.834862" y1="10.875937" x2="8.056011" y2="33.329593" />
      <line x1="6.358954" y1="34.309388" x2="8.056011" y2="33.329593" />
      <line x1="-28.713542" y1="9.651192" x2="-28.713542" y2="11.610784" />
      <line x1="-28.713542" y1="9.651192" x2="-27.016486" y2="10.630988" />
      <line x1="-26.592222" y1="8.426447" x2="-26.592222" y2="10.386039" />
      <line x1="-28.713542" y1="9.651192" x2="-26.592222" y2="8.426447" />
      <line x1="12.298651" y1="30.880103" x2="12.298651" y2="32.839695" />
      <line x1="-26.592222" y1="8.426447" x2="12.298651" y2="30.880103" />
      <line x1="10.601595" y1="31.859899" x2="12.298651" y2="30.880103" />
      <line x1="-24.470901" y1="7.201702" x2="-24.470901" y2="9.161294" />
      <line x1="-24.470901" y1="7.201702" x2="-22.773845" y2="8.181498" />
      <line x1="-22.349581" y1="5.976957" x2="-22.349581" y2="7.936549" />
      <line x1="-24.470901" y1="7.201702" x2="-22.349581" y2="5.976957" />
      <line x1="16.541292" y1="28.430613" x2="16.541292" y2="30.390205" />
      <line x1="-22.349581" y1="5.976957" x2="16.541292" y2="28.430613" />
      <line x1="14.844236" y1="29.410409" x2="16.541292" y2="28.430613" />
      <line x1="-20.228261" y1="4.752212" x2="-20.228261" y2="6.711804" />
      <line x1="-20.228261" y1="4.752212" x2="-18.531204" y2="5.732008" />
      <line x1="-18.10694" y1="3.527467" x2="-18.10694" y2="5.487059" />
      <line x1="-20.228261" y1="4.752212" x2="-18.10694" y2="3.527467" />
      <line x1="20.783933" y1="25.981123" x2="20.783933" y2="27.940715" />
      <line x1="-18.10694" y1="3.527467" x2="20.783933" y2="25.981123" />
      <line x1="19.086876" y1="26.960919" x2="20.783933" y2="25.981123" />
      <line x1="-15.98562" y1="2.302722" x2="-15.98562" y2="4.262314" />
      <line x1="-15.98562" y1="2.302722" x2="-14.288564" y2="3.282518" />
      <line x1="-13.8643" y1="1.077978" x2="-13.8643" y2="3.037569" />
      <line x1="-15.98562" y1="2.302722" x2="-13.8643" y2="1.077978" />
      <line x1="25.026573" y1="23.531634" x2="25.026573" y2="25.491225" />
      <line x1="-13.8643" y1="1.077978" x2="25.026573" y2="23.531634" />
      <line x1="23.329517" y1="24.511429" x2="25.026573" y2="23.531634" />
      <line x1="-11.742979" y1="-0.146767" x2="-11.742979" y2="1.812825" />
      <line x1="-11.742979" y1="-0.146767" x2="-10.045923" y2="0.833029" />
      <line x1="-9.621659" y1="-1.371512" x2="-9.621659" y2="0.58808" />
      <line x1="-11.742979" y1="-0.146767" x2="-9.621659" y2="-1.371512" />
      <line x1="29.269214" y1="21.082144" x2="29.269214" y2="23.041736" />
      <line x1="-9.621659" y1="-1.371512" x2="29.269214" y2="21.082144" />
      <line x1="27.572158" y1="22.06194" x2="29.269214" y2="21.082144" />
      <line x1="-7.500339" y1="-2.596257" x2="-7.500339" y2="-0.636665" />
      <line x1="-7.500339" y1="-2.596257" x2="-5.803282" y2="-1.616461" />
      <line x1="-5.379018" y1="-3.821002" x2="-5.379018" y2="-1.86141" />
      <line x1="-7.500339" y1="-2.596257" x2="-5.379018" y2="-3.821002" />
      <line x1="33.511855" y1="18.632654" x2="33.511855" y2="20.592246" />
      <line x1="-5.379018" y1="-3.821002" x2="33.511855" y2="18.632654" />
      <line x1="31.814798" y1="19.61245" x2="33.511855" y2="18.632654" />
      <line x1="10.530884" y1="42.433529" x2="10.530884" y2="44.883019" />
      <line x1="51.401656" y1="19.081727" x2="51.401656" y2="21.286268" />
      <line x1="10.530884" y1="42.433529" x2="51.401656" y2="18.836778" />
      <line x1="10.530884" y1="42.433529" x2="-50.845984" y2="6.997578" />
      <line x1="-50.845984" y1="7.242527" x2="-50.845984" y2="9.447068" />
      <line x1="-9.975212" y1="-15.636785" x2="-9.975212" y2="-14.149684" />
      <line x1="10.530884" y1="43.250026" x2="48.573229" y2="21.286268" />
      <line x1="48.573229" y1="21.286268" x2="-9.975212" y2="-12.51669" />
      <line x1="10.530884" y1="43.250026" x2="-48.017557" y2="9.447068" />
      <line x1="-48.017557" y1="9.447068" x2="-9.975212" y2="-12.51669" />
      <line x1="10.530884" y1="40.800536" x2="48.573229" y2="18.836778" />
      <line x1="10.530884" y1="40.800536" x2="-48.017557" y2="6.997578" />
      <line x1="-48.017557" y1="6.997578" x2="-9.975212" y2="-14.96618" />
      <line x1="48.573229" y1="18.836778" x2="-9.975212" y2="-14.96618" />
      <line x1="10.530884" y1="40.800536" x2="10.530884" y2="43.250026" />
      <line x1="48.573229" y1="18.836778" x2="48.573229" y2="21.286268" />
      <line x1="-9.975212" y1="-14.96618" x2="-9.975212" y2="-12.51669" />
      <line x1="-48.017557" y1="6.997578" x2="-48.017557" y2="9.447068" />
      <line x1="12.652205" y1="45.862815" x2="12.652205" y2="47.822407" />
      <line x1="53.098713" y1="22.511013" x2="53.098713" y2="24.470605" />
      <line x1="8.409564" y1="45.862815" x2="8.409564" y2="47.822407" />
      <line x1="-52.543041" y1="10.671812" x2="-52.543041" y2="12.631404" />
    </g>
  </g>
</svg>