<?xml version='1.0' encoding='utf-8'?>
<svg width="125.799827mm" height="95.076292mm" viewBox="-63.192552 -45.458625 125.799827 95.076292" version="1.1" xmlns="http://www.w3.org/2000/svg">
  <g transform="scale(1,-1)" stroke-linecap="round">
    <g fill="none" stroke="rgb(173,215,230)" stroke-width="0.4" id="rpi4_base_visible">
      <path d="M 7.697668,12.923604 A 3.2,1.8475208614068028 0.0 0,1 13.16041,14.229999" />
      <path d="M 6.76041,14.229999 A 3.2,1.8475208614068028 0.0 0,1 7.697668,12.923604" />
      <path d="M 7.697668,16.189591 A 3.2,1.8475208614068028 0.0 0,1 13.16041,17.495985" />
      <path d="M 13.16041,17.495985 A 3.2,1.8475208614068028 0.0 0,1 6.76041,17.495985" />
      <path d="M 6.76041,17.495985 A 3.2,1.8475208614068028 0.0 0,1 7.697668,16.189591" />
      <line x1="13.16041" y1="16.220012" x2="35.981939" y2="3.043996" />
      <line x1="6.76041" y1="16.220012" x2="-29.338818" y2="-4.621887" />
      <line x1="-34.251784" y1="-7.458389" x2="-36.567217" y2="-8.795205" />
      <path d="M -32.682566,-11.038009 A 3.2,1.8475208614068028 0.0 0,1 -27.851784,-9.448402" />
      <path d="M -34.251784,-9.448402 A 3.2,1.8475208614068028 0.0 0,1 -33.805063,-10.389935" />
      <line x1="2.889342" y1="1.574302" x2="5.010662" y2="2.799047" />
      <line x1="2.889342" y1="1.574302" x2="18.162848" y2="-7.243861" />
      <line x1="5.010662" y1="2.799047" x2="20.284169" y2="-6.019116" />
      <line x1="-1.353299" y1="-0.875188" x2="0.768021" y2="0.349557" />
      <line x1="-1.353299" y1="-0.875188" x2="13.920208" y2="-9.693351" />
      <line x1="0.768021" y1="0.349557" x2="16.041528" y2="-8.468606" />
      <line x1="-5.59594" y1="-3.324678" x2="-3.474619" y2="-2.099933" />
      <line x1="-5.59594" y1="-3.324678" x2="9.677567" y2="-12.142841" />
      <line x1="-3.474619" y1="-2.099933" x2="11.798887" y2="-10.918096" />
      <line x1="-9.83858" y1="-5.774167" x2="-7.71726" y2="-4.549423" />
      <line x1="-9.83858" y1="-5.774167" x2="5.434926" y2="-14.592331" />
      <line x1="-7.71726" y1="-4.549423" x2="7.556247" y2="-13.367586" />
      <line x1="-14.081221" y1="-8.223657" x2="-11.959901" y2="-6.998912" />
      <line x1="-14.081221" y1="-8.223657" x2="1.192286" y2="-17.04182" />
      <line x1="-11.959901" y1="-6.998912" x2="3.313606" y2="-15.817075" />
      <line x1="-18.323862" y1="-10.673147" x2="-16.202541" y2="-9.448402" />
      <line x1="-18.323862" y1="-10.673147" x2="-3.050355" y2="-19.49131" />
      <line x1="-16.202541" y1="-9.448402" x2="-0.929035" y2="-18.266565" />
      <line x1="-22.566502" y1="-13.122637" x2="-20.445182" y2="-11.897892" />
      <line x1="-22.566502" y1="-13.122637" x2="-7.292996" y2="-21.9408" />
      <line x1="-20.445182" y1="-11.897892" x2="-5.171676" y2="-20.716055" />
      <path d="M 8.935105,16.904025 A 1.45,0.8371578903249575 0.0 0,1 11.41041,17.495985" />
      <path d="M 11.41041,17.495985 A 1.45,0.8371578903249575 0.0 0,1 8.51041,17.495985" />
      <path d="M 8.51041,17.495985 A 1.45,0.8371578903249575 0.0 0,1 8.935105,16.904025" />
      <line x1="9.96041" y1="19.343506" x2="9.96041" y2="35.703859" />
      <line x1="9.96041" y1="35.703859" x2="51.255446" y2="11.862159" />
      <line x1="-10.545687" y1="-23.818742" x2="51.255446" y2="11.862159" />
      <line x1="-51.840723" y1="0.022958" x2="9.96041" y2="35.703859" />
      <line x1="-51.840723" y1="0.022958" x2="-10.545687" y2="-23.818742" />
      <path d="M -33.314525,-7.48881 A 3.2,1.8475208614068028 0.0 0,1 -27.851784,-6.182416" />
      <path d="M -27.851784,-6.182416 A 3.200000000000001,1.8475208614068033 0.0 0,1 -34.251784,-6.182416" />
      <path d="M -34.251784,-6.182416 A 3.2,1.8475208614068028 0.0 0,1 -33.314525,-7.48881" />
      <line x1="5.010662" y1="0.839455" x2="5.010662" y2="2.799047" />
      <line x1="4.586398" y1="0.594506" x2="5.010662" y2="0.839455" />
      <line x1="5.010662" y1="0.839455" x2="18.587112" y2="-6.998912" />
      <line x1="0.768021" y1="-1.610035" x2="0.768021" y2="0.349557" />
      <line x1="0.343757" y1="-1.854984" x2="0.768021" y2="-1.610035" />
      <line x1="0.768021" y1="-1.610035" x2="14.344472" y2="-9.448402" />
      <line x1="-3.474619" y1="-4.059525" x2="-3.474619" y2="-2.099933" />
      <line x1="-3.898883" y1="-4.304474" x2="-3.474619" y2="-4.059525" />
      <line x1="-3.474619" y1="-4.059525" x2="10.101831" y2="-11.897892" />
      <line x1="-7.71726" y1="-6.509014" x2="-7.71726" y2="-4.549423" />
      <line x1="-8.141524" y1="-6.753963" x2="-7.71726" y2="-6.509014" />
      <line x1="-7.71726" y1="-6.509014" x2="5.85919" y2="-14.347382" />
      <line x1="-11.959901" y1="-8.958504" x2="-11.959901" y2="-6.998912" />
      <line x1="-12.384165" y1="-9.203453" x2="-11.959901" y2="-8.958504" />
      <line x1="-11.959901" y1="-8.958504" x2="1.61655" y2="-16.796871" />
      <line x1="-16.202541" y1="-11.407994" x2="-16.202541" y2="-9.448402" />
      <line x1="-16.626805" y1="-11.652943" x2="-16.202541" y2="-11.407994" />
      <line x1="-16.202541" y1="-11.407994" x2="-2.626091" y2="-19.246361" />
      <line x1="-20.445182" y1="-13.857484" x2="-20.445182" y2="-11.897892" />
      <line x1="-20.869446" y1="-14.102433" x2="-20.445182" y2="-13.857484" />
      <line x1="-20.445182" y1="-13.857484" x2="-6.868732" y2="-21.695851" />
      <line x1="12.788837" y1="36.030457" x2="51.821131" y2="13.495152" />
      <path d="M 12.788837,36.030457 A 4.0,2.3094010767585034 0.0 0,1 7.131982,36.030457" />
      <path d="M 51.821131,13.495152 A 4.0,2.3094010767585034 180.0 0,0 52.992704,11.862159" />
      <path d="M 52.992704,11.862159 A 4.0,2.3094010767585034 180.0 0,0 51.821131,10.229165" />
      <line x1="7.131982" y1="36.030457" x2="-52.406408" y2="1.655951" />
      <line x1="51.821131" y1="10.229165" x2="-7.71726" y2="-24.145341" />
      <path d="M -52.406408,-1.610035 A 4.0,2.3094010767585034 180.0 0,0 -53.577981,0.022958" />
      <path d="M -53.577981,0.022958 A 4.0,2.3094010767585034 180.0 0,0 -52.406408,1.655951" />
      <path d="M -13.374114,-24.145341 A 4.0,2.3094010767585034 0.0 0,1 -7.71726,-24.145341" />
      <line x1="-52.406408" y1="-1.610035" x2="-13.374114" y2="-24.145341" />
      <path d="M -32.077089,-6.774376 A 1.45,0.8371578903249575 0.0 0,1 -29.601784,-6.182416" />
      <path d="M -29.601784,-6.182416 A 1.4500000000000008,0.837157890324958 0.0 0,1 -32.501784,-6.182416" />
      <path d="M -32.501784,-6.182416 A 1.45,0.8371578903249575 0.0 0,1 -32.077089,-6.774376" />
      <path d="M 52.992704,-7.733759 A 4.0,2.3094010767585034 180.0 0,0 51.821131,-9.366752" />
      <line x1="51.821131" y1="-9.366752" x2="-7.71726" y2="-43.741259" />
      <path d="M -52.406408,-21.205953 A 4.0,2.3094010767585034 180.0 0,0 -53.577981,-19.57296" />
      <path d="M -13.374114,-43.741259 A 4.0,2.3094010767585034 0.0 0,1 -7.71726,-43.741259" />
      <line x1="-52.406408" y1="-21.205953" x2="-13.374114" y2="-43.741259" />
      <line x1="-14.151932" y1="-38.883104" x2="-26.172747" y2="-31.942883" />
      <line x1="-14.151932" y1="-38.883104" x2="-14.151932" y2="-26.472356" />
      <line x1="-14.151932" y1="-26.472356" x2="-26.172747" y2="-19.532135" />
      <line x1="-26.172747" y1="-31.942883" x2="-26.172747" y2="-19.532135" />
      <line x1="-27.05663" y1="-31.432573" x2="-38.723892" y2="-24.696476" />
      <line x1="-27.05663" y1="-31.432573" x2="-27.05663" y2="-17.225532" />
      <line x1="-38.723892" y1="-24.696476" x2="-38.723892" y2="-10.489435" />
      <line x1="-27.05663" y1="-17.225532" x2="-38.723892" y2="-10.489435" />
      <line x1="-39.784552" y1="-24.084103" x2="-51.451814" y2="-17.348007" />
      <line x1="-39.784552" y1="-24.084103" x2="-39.784552" y2="-9.877063" />
      <line x1="-51.451814" y1="-17.348007" x2="-51.451814" y2="-3.140966" />
      <line x1="-39.784552" y1="-9.877063" x2="-51.451814" y2="-3.140966" />
      <line x1="-24.617112" y1="-31.044737" x2="-26.172747" y2="-31.942883" />
      <line x1="-24.617112" y1="-31.044737" x2="-14.151932" y2="-37.086811" />
      <line x1="-24.617112" y1="-31.044737" x2="-24.617112" y2="-20.430281" />
      <line x1="-37.168257" y1="-23.79833" x2="-38.723892" y2="-24.696476" />
      <line x1="-37.168257" y1="-23.79833" x2="-27.05663" y2="-29.63628" />
      <line x1="-37.168257" y1="-23.79833" x2="-37.168257" y2="-11.387581" />
      <line x1="-49.896179" y1="-16.44986" x2="-51.451814" y2="-17.348007" />
      <line x1="-49.896179" y1="-16.44986" x2="-39.784552" y2="-22.287811" />
      <line x1="-49.896179" y1="-16.44986" x2="-49.896179" y2="-4.039112" />
      <line x1="51.821131" y1="-9.366752" x2="51.821131" y2="10.229165" />
      <line x1="-7.71726" y1="-43.741259" x2="-7.71726" y2="-24.145341" />
      <line x1="-52.406408" y1="-21.205953" x2="-52.406408" y2="-1.610035" />
      <line x1="-13.374114" y1="-43.741259" x2="-13.374114" y2="-24.145341" />
      <line x1="13.16041" y1="14.229999" x2="13.16041" y2="17.495985" />
      <line x1="6.76041" y1="14.229999" x2="6.76041" y2="17.495985" />
      <line x1="-27.851784" y1="-9.448402" x2="-27.851784" y2="-6.182416" />
      <line x1="-34.251784" y1="-9.448402" x2="-34.251784" y2="-6.182416" />
      <line x1="52.992704" y1="-7.733759" x2="52.992704" y2="11.862159" />
      <line x1="-53.577981" y1="-19.57296" x2="-53.577981" y2="0.022958" />
    </g>
    <g fill="none" stroke="rgb(173,215,230)" stroke-width="0.15" id="rpi4_base_hidden">
      <path d="M 13.16041,14.229999 A 3.2,1.8475208614068028 0.0 0,1 6.76041,14.229999" />
      <line x1="9.96041" y1="18.067533" x2="13.16041" y2="16.220012" />
      <line x1="35.981939" y1="3.043996" x2="51.255446" y2="-5.774167" />
      <line x1="51.255446" y1="-5.774167" x2="-10.545687" y2="-41.455068" />
      <line x1="9.96041" y1="18.067533" x2="6.76041" y2="16.220012" />
      <line x1="-29.338818" y1="-4.621887" x2="-34.251784" y2="-7.458389" />
      <line x1="-36.567217" y1="-8.795205" x2="-51.840723" y2="-17.613368" />
      <line x1="-51.840723" y1="-17.613368" x2="-10.545687" y2="-41.455068" />
      <path d="M -33.314525,-10.754797 A 3.2,1.8475208614068028 0.0 0,1 -32.682566,-11.038009" />
      <path d="M -27.851784,-9.448402 A 3.200000000000001,1.8475208614068033 0.0 0,1 -34.251784,-9.448402" />
      <path d="M -33.805063,-10.389935 A 3.2,1.8475208614068028 0.0 0,1 -33.314525,-10.754797" />
      <line x1="18.162848" y1="-7.243861" x2="22.688332" y2="-9.85665" />
      <line x1="22.688332" y1="-9.85665" x2="24.809652" y2="-8.631906" />
      <line x1="20.284169" y1="-6.019116" x2="24.809652" y2="-8.631906" />
      <line x1="13.920208" y1="-9.693351" x2="18.445691" y2="-12.30614" />
      <line x1="18.445691" y1="-12.30614" x2="20.567011" y2="-11.081395" />
      <line x1="16.041528" y1="-8.468606" x2="20.567011" y2="-11.081395" />
      <path d="M 42.3459,-7.080562 A 3.2,1.8475208614068028 0.0 0,1 47.808642,-5.774167" />
      <path d="M 47.808642,-5.774167 A 3.2,1.8475208614068028 0.0 0,1 41.408642,-5.774167" />
      <path d="M 41.408642,-5.774167 A 3.2,1.8475208614068028 0.0 0,1 42.3459,-7.080562" />
      <line x1="9.677567" y1="-12.142841" x2="14.20305" y2="-14.75563" />
      <line x1="14.20305" y1="-14.75563" x2="16.324371" y2="-13.530885" />
      <line x1="11.798887" y1="-10.918096" x2="16.324371" y2="-13.530885" />
      <line x1="5.434926" y1="-14.592331" x2="9.96041" y2="-17.20512" />
      <line x1="9.96041" y1="-17.20512" x2="12.08173" y2="-15.980375" />
      <line x1="7.556247" y1="-13.367586" x2="12.08173" y2="-15.980375" />
      <line x1="1.192286" y1="-17.04182" x2="5.717769" y2="-19.654609" />
      <line x1="5.717769" y1="-19.654609" x2="7.839089" y2="-18.429864" />
      <line x1="3.313606" y1="-15.817075" x2="7.839089" y2="-18.429864" />
      <line x1="-3.050355" y1="-19.49131" x2="1.475128" y2="-22.104099" />
      <line x1="1.475128" y1="-22.104099" x2="3.596449" y2="-20.879354" />
      <line x1="-0.929035" y1="-18.266565" x2="3.596449" y2="-20.879354" />
      <line x1="-7.292996" y1="-21.9408" x2="-2.767512" y2="-24.553589" />
      <line x1="-2.767512" y1="-24.553589" x2="-0.646192" y2="-23.328844" />
      <line x1="-5.171676" y1="-20.716055" x2="-0.646192" y2="-23.328844" />
      <path d="M 1.333707,-30.758963 A 3.2,1.8475208614068028 0.0 0,1 6.796449,-29.452568" />
      <path d="M 6.796449,-29.452568 A 3.2,1.8475208614068028 0.0 0,1 0.396449,-29.452568" />
      <path d="M 0.396449,-29.452568 A 3.2,1.8475208614068028 0.0 0,1 1.333707,-30.758963" />
      <line x1="9.96041" y1="18.067533" x2="9.96041" y2="19.343506" />
      <line x1="51.255446" y1="-5.774167" x2="51.255446" y2="11.862159" />
      <line x1="-10.545687" y1="-41.455068" x2="-10.545687" y2="-23.818742" />
      <line x1="-51.840723" y1="-17.613368" x2="-51.840723" y2="0.022958" />
      <line x1="2.889342" y1="-0.38529" x2="2.889342" y2="1.574302" />
      <line x1="2.889342" y1="-0.38529" x2="4.586398" y2="0.594506" />
      <line x1="22.688332" y1="-11.816242" x2="22.688332" y2="-9.85665" />
      <line x1="2.889342" y1="-0.38529" x2="22.688332" y2="-11.816242" />
      <line x1="24.809652" y1="-10.591497" x2="24.809652" y2="-8.631906" />
      <line x1="22.688332" y1="-11.816242" x2="24.809652" y2="-10.591497" />
      <line x1="18.587112" y1="-6.998912" x2="24.809652" y2="-10.591497" />
      <line x1="-1.353299" y1="-2.83478" x2="-1.353299" y2="-0.875188" />
      <line x1="-1.353299" y1="-2.83478" x2="0.343757" y2="-1.854984" />
      <line x1="18.445691" y1="-14.265732" x2="18.445691" y2="-12.30614" />
      <line x1="-1.353299" y1="-2.83478" x2="18.445691" y2="-14.265732" />
      <line x1="20.567011" y1="-13.040987" x2="20.567011" y2="-11.081395" />
      <line x1="18.445691" y1="-14.265732" x2="20.567011" y2="-13.040987" />
      <line x1="14.344472" y1="-9.448402" x2="20.567011" y2="-13.040987" />
      <path d="M 42.3459,-3.814576 A 3.2,1.8475208614068028 0.0 0,1 47.808642,-2.508181" />
      <path d="M 47.808642,-2.508181 A 3.2,1.8475208614068028 0.0 0,1 41.408642,-2.508181" />
      <path d="M 41.408642,-2.508181 A 3.2,1.8475208614068028 0.0 0,1 42.3459,-3.814576" />
      <line x1="-5.59594" y1="-5.28427" x2="-5.59594" y2="-3.324678" />
      <line x1="-5.59594" y1="-5.28427" x2="-3.898883" y2="-4.304474" />
      <line x1="14.20305" y1="-16.715222" x2="14.20305" y2="-14.75563" />
      <line x1="-5.59594" y1="-5.28427" x2="14.20305" y2="-16.715222" />
      <line x1="16.324371" y1="-15.490477" x2="16.324371" y2="-13.530885" />
      <line x1="14.20305" y1="-16.715222" x2="16.324371" y2="-15.490477" />
      <line x1="10.101831" y1="-11.897892" x2="16.324371" y2="-15.490477" />
      <line x1="-9.83858" y1="-7.733759" x2="-9.83858" y2="-5.774167" />
      <line x1="-9.83858" y1="-7.733759" x2="-8.141524" y2="-6.753963" />
      <line x1="9.96041" y1="-19.164711" x2="9.96041" y2="-17.20512" />
      <line x1="-9.83858" y1="-7.733759" x2="9.96041" y2="-19.164711" />
      <line x1="12.08173" y1="-17.939967" x2="12.08173" y2="-15.980375" />
      <line x1="9.96041" y1="-19.164711" x2="12.08173" y2="-17.939967" />
      <line x1="5.85919" y1="-14.347382" x2="12.08173" y2="-17.939967" />
      <line x1="-14.081221" y1="-10.183249" x2="-14.081221" y2="-8.223657" />
      <line x1="-14.081221" y1="-10.183249" x2="-12.384165" y2="-9.203453" />
      <line x1="5.717769" y1="-21.614201" x2="5.717769" y2="-19.654609" />
      <line x1="-14.081221" y1="-10.183249" x2="5.717769" y2="-21.614201" />
      <line x1="7.839089" y1="-20.389456" x2="7.839089" y2="-18.429864" />
      <line x1="5.717769" y1="-21.614201" x2="7.839089" y2="-20.389456" />
      <line x1="1.61655" y1="-16.796871" x2="7.839089" y2="-20.389456" />
      <line x1="-18.323862" y1="-12.632739" x2="-18.323862" y2="-10.673147" />
      <line x1="-18.323862" y1="-12.632739" x2="-16.626805" y2="-11.652943" />
      <line x1="1.475128" y1="-24.063691" x2="1.475128" y2="-22.104099" />
      <line x1="-18.323862" y1="-12.632739" x2="1.475128" y2="-24.063691" />
      <line x1="3.596449" y1="-22.838946" x2="3.596449" y2="-20.879354" />
      <line x1="1.475128" y1="-24.063691" x2="3.596449" y2="-22.838946" />
      <line x1="-2.626091" y1="-19.246361" x2="3.596449" y2="-22.838946" />
      <line x1="-22.566502" y1="-15.082229" x2="-22.566502" y2="-13.122637" />
      <line x1="-22.566502" y1="-15.082229" x2="-20.869446" y2="-14.102433" />
      <line x1="-2.767512" y1="-26.513181" x2="-2.767512" y2="-24.553589" />
      <line x1="-22.566502" y1="-15.082229" x2="-2.767512" y2="-26.513181" />
      <line x1="-0.646192" y1="-25.288436" x2="-0.646192" y2="-23.328844" />
      <line x1="-2.767512" y1="-26.513181" x2="-0.646192" y2="-25.288436" />
      <line x1="-6.868732" y1="-21.695851" x2="-0.646192" y2="-25.288436" />
      <path d="M 1.333707,-27.492977 A 3.2,1.8475208614068028 0.0 0,1 6.796449,-26.186582" />
      <path d="M 6.796449,-26.186582 A 3.2,1.8475208614068028 0.0 0,1 0.396449,-26.186582" />
      <path d="M 0.396449,-26.186582 A 3.2,1.8475208614068028 0.0 0,1 1.333707,-27.492977" />
      <path d="M 8.935105,11.678447 A 1.45,0.8371578903249575 0.0 0,1 11.41041,12.270407" />
      <path d="M 11.41041,12.270407 A 1.45,0.8371578903249575 0.0 0,1 8.51041,12.270407" />
      <path d="M 8.51041,12.270407 A 1.45,0.8371578903249575 0.0 0,1 8.935105,11.678447" />
      <line x1="12.788837" y1="16.43454" x2="51.821131" y2="-6.100766" />
      <path d="M 12.788837,16.43454 A 4.0,2.3094010767585034 0.0 0,1 7.131982,16.43454" />
      <path d="M 51.821131,-6.100766 A 4.0,2.3094010767585034 180.0 0,0 52.992704,-7.733759" />
      <line x1="7.131982" y1="16.43454" x2="-52.406408" y2="-17.939967" />
      <path d="M -53.577981,-19.57296 A 4.0,2.3094010767585034 180.0 0,0 -52.406408,-17.939967" />
      <path d="M -32.077089,-11.999954 A 1.45,0.8371578903249575 0.0 0,1 -29.601784,-11.407994" />
      <path d="M -29.601784,-11.407994 A 1.4500000000000008,0.837157890324958 0.0 0,1 -32.501784,-11.407994" />
      <path d="M -32.501784,-11.407994 A 1.45,0.8371578903249575 0.0 0,1 -32.077089,-11.999954" />
      <path d="M 43.583337,-8.325719 A 1.45,0.8371578903249575 0.0 0,1 46.058642,-7.733759" />
      <path d="M 46.058642,-7.733759 A 1.45,0.8371578903249575 0.0 0,1 43.158642,-7.733759" />
      <path d="M 43.158642,-7.733759 A 1.45,0.8371578903249575 0.0 0,1 43.583337,-8.325719" />
      <path d="M 2.571144,-32.00412 A 1.45,0.8371578903249575 0.0 0,1 5.046449,-31.41216" />
      <path d="M 5.046449,-31.41216 A 1.45,0.8371578903249575 0.0 0,1 2.146449,-31.41216" />
      <path d="M 2.146449,-31.41216 A 1.45,0.8371578903249575 0.0 0,1 2.571144,-32.00412" />
      <path d="M 43.583337,-3.100141 A 1.45,0.8371578903249575 0.0 0,1 46.058642,-2.508181" />
      <path d="M 46.058642,-2.508181 A 1.45,0.8371578903249575 0.0 0,1 43.158642,-2.508181" />
      <path d="M 43.158642,-2.508181 A 1.45,0.8371578903249575 0.0 0,1 43.583337,-3.100141" />
      <path d="M 2.571144,-26.778542 A 1.45,0.8371578903249575 0.0 0,1 5.046449,-26.186582" />
      <path d="M 5.046449,-26.186582 A 1.45,0.8371578903249575 0.0 0,1 2.146449,-26.186582" />
      <path d="M 2.146449,-26.186582 A 1.45,0.8371578903249575 0.0 0,1 2.571144,-26.778542" />
      <line x1="27.355236" y1="10.147516" x2="15.334421" y2="17.087737" />
      <line x1="27.355236" y1="10.147516" x2="27.355236" y2="14.393298" />
      <line x1="27.355236" y1="14.393298" x2="15.334421" y2="21.333519" />
      <line x1="15.334421" y1="17.087737" x2="15.334421" y2="21.333519" />
      <line x1="4.939951" y1="24.313732" x2="-4.252437" y2="19.006504" />
      <line x1="4.939951" y1="24.313732" x2="4.939951" y2="19.414752" />
      <line x1="-4.252437" y1="19.006504" x2="-4.252437" y2="14.107524" />
      <line x1="4.939951" y1="19.414752" x2="-4.252437" y2="14.107524" />
      <line x1="-9.626448" y1="15.903817" x2="-16.697516" y2="11.821334" />
      <line x1="-9.626448" y1="15.903817" x2="-9.626448" y2="11.168137" />
      <line x1="-16.697516" y1="11.821334" x2="-16.697516" y2="7.085654" />
      <line x1="-9.626448" y1="11.168137" x2="-16.697516" y2="7.085654" />
      <line x1="-19.17239" y1="10.392465" x2="-26.243458" y2="6.309982" />
      <line x1="-19.17239" y1="10.392465" x2="-19.17239" y2="5.656785" />
      <line x1="-26.243458" y1="6.309982" x2="-26.243458" y2="1.574302" />
      <line x1="-19.17239" y1="5.656785" x2="-26.243458" y2="1.574302" />
      <line x1="-32.890261" y1="4.26874" x2="-39.961329" y2="0.186258" />
      <line x1="-39.961329" y1="0.186258" x2="-39.961329" y2="-6.509014" />
      <line x1="-32.890261" y1="-2.426532" x2="-39.961329" y2="-6.509014" />
      <line x1="-32.890261" y1="4.26874" x2="-32.890261" y2="-2.426532" />
      <line x1="27.355236" y1="10.147516" x2="25.799602" y2="9.24937" />
      <line x1="13.778786" y1="16.189591" x2="25.799602" y2="9.24937" />
      <line x1="15.334421" y1="17.087737" x2="13.778786" y2="16.189591" />
      <line x1="25.799602" y1="9.24937" x2="25.799602" y2="13.495152" />
      <line x1="27.355236" y1="14.393298" x2="25.799602" y2="13.495152" />
      <line x1="13.778786" y1="20.435373" x2="25.799602" y2="13.495152" />
      <line x1="15.334421" y1="21.333519" x2="13.778786" y2="20.435373" />
      <line x1="13.778786" y1="16.189591" x2="13.778786" y2="20.435373" />
      <line x1="4.939951" y1="24.313732" x2="6.495586" y2="23.415585" />
      <line x1="6.495586" y1="23.415585" x2="-2.696802" y2="18.108358" />
      <line x1="-4.252437" y1="19.006504" x2="-2.696802" y2="18.108358" />
      <line x1="6.495586" y1="18.516606" x2="6.495586" y2="23.415585" />
      <line x1="4.939951" y1="19.414752" x2="6.495586" y2="18.516606" />
      <line x1="-2.696802" y1="13.209378" x2="-2.696802" y2="18.108358" />
      <line x1="-4.252437" y1="14.107524" x2="-2.696802" y2="13.209378" />
      <line x1="6.495586" y1="18.516606" x2="-2.696802" y2="13.209378" />
      <line x1="-9.626448" y1="15.903817" x2="-8.070813" y2="15.00567" />
      <line x1="-8.070813" y1="15.00567" x2="-15.141881" y2="10.923188" />
      <line x1="-16.697516" y1="11.821334" x2="-15.141881" y2="10.923188" />
      <line x1="-8.070813" y1="10.26999" x2="-8.070813" y2="15.00567" />
      <line x1="-9.626448" y1="11.168137" x2="-8.070813" y2="10.26999" />
      <line x1="-15.141881" y1="6.187507" x2="-15.141881" y2="10.923188" />
      <line x1="-16.697516" y1="7.085654" x2="-15.141881" y2="6.187507" />
      <line x1="-8.070813" y1="10.26999" x2="-15.141881" y2="6.187507" />
      <line x1="-19.17239" y1="10.392465" x2="-17.616755" y2="9.494319" />
      <line x1="-17.616755" y1="9.494319" x2="-24.687823" y2="5.411836" />
      <line x1="-26.243458" y1="6.309982" x2="-24.687823" y2="5.411836" />
      <line x1="-17.616755" y1="4.758638" x2="-17.616755" y2="9.494319" />
      <line x1="-19.17239" y1="5.656785" x2="-17.616755" y2="4.758638" />
      <line x1="-24.687823" y1="0.676155" x2="-24.687823" y2="5.411836" />
      <line x1="-26.243458" y1="1.574302" x2="-24.687823" y2="0.676155" />
      <line x1="-17.616755" y1="4.758638" x2="-24.687823" y2="0.676155" />
      <line x1="-32.890261" y1="4.26874" x2="-31.334626" y2="3.370594" />
      <line x1="-31.334626" y1="3.370594" x2="-38.405694" y2="-0.711889" />
      <line x1="-39.961329" y1="0.186258" x2="-38.405694" y2="-0.711889" />
      <line x1="-38.405694" y1="-7.407161" x2="-38.405694" y2="-0.711889" />
      <line x1="-39.961329" y1="-6.509014" x2="-38.405694" y2="-7.407161" />
      <line x1="-32.890261" y1="-2.426532" x2="-31.334626" y2="-3.324678" />
      <line x1="-31.334626" y1="-3.324678" x2="-38.405694" y2="-7.407161" />
      <line x1="-31.334626" y1="-3.324678" x2="-31.334626" y2="3.370594" />
      <line x1="-12.596297" y1="-37.984958" x2="-14.151932" y2="-38.883104" />
      <line x1="-14.151932" y1="-37.086811" x2="-12.596297" y2="-37.984958" />
      <line x1="-12.596297" y1="-25.57421" x2="-14.151932" y2="-26.472356" />
      <line x1="-12.596297" y1="-37.984958" x2="-12.596297" y2="-25.57421" />
      <line x1="-24.617112" y1="-18.633989" x2="-26.172747" y2="-19.532135" />
      <line x1="-24.617112" y1="-18.633989" x2="-12.596297" y2="-25.57421" />
      <line x1="-24.617112" y1="-20.430281" x2="-24.617112" y2="-18.633989" />
      <line x1="-25.500995" y1="-30.534426" x2="-27.05663" y2="-31.432573" />
      <line x1="-27.05663" y1="-29.63628" x2="-25.500995" y2="-30.534426" />
      <line x1="-25.500995" y1="-16.327386" x2="-27.05663" y2="-17.225532" />
      <line x1="-25.500995" y1="-30.534426" x2="-25.500995" y2="-16.327386" />
      <line x1="-37.168257" y1="-9.591289" x2="-38.723892" y2="-10.489435" />
      <line x1="-37.168257" y1="-11.387581" x2="-37.168257" y2="-9.591289" />
      <line x1="-37.168257" y1="-9.591289" x2="-25.500995" y2="-16.327386" />
      <line x1="-38.228918" y1="-23.185957" x2="-39.784552" y2="-24.084103" />
      <line x1="-39.784552" y1="-22.287811" x2="-38.228918" y2="-23.185957" />
      <line x1="-38.228918" y1="-8.978917" x2="-39.784552" y2="-9.877063" />
      <line x1="-38.228918" y1="-23.185957" x2="-38.228918" y2="-8.978917" />
      <line x1="-49.896179" y1="-2.24282" x2="-51.451814" y2="-3.140966" />
      <line x1="-49.896179" y1="-4.039112" x2="-49.896179" y2="-2.24282" />
      <line x1="-49.896179" y1="-2.24282" x2="-38.228918" y2="-8.978917" />
      <line x1="47.808642" y1="-5.774167" x2="47.808642" y2="-2.508181" />
      <line x1="41.408642" y1="-5.774167" x2="41.408642" y2="-2.508181" />
      <line x1="6.796449" y1="-29.452568" x2="6.796449" y2="-26.186582" />
      <line x1="0.396449" y1="-29.452568" x2="0.396449" y2="-26.186582" />
      <line x1="11.41041" y1="12.270407" x2="11.41041" y2="17.495985" />
      <line x1="8.51041" y1="12.270407" x2="8.51041" y2="17.495985" />
      <line x1="-29.601784" y1="-11.407994" x2="-29.601784" y2="-6.182416" />
      <line x1="-32.501784" y1="-11.407994" x2="-32.501784" y2="-6.182416" />
      <line x1="46.058642" y1="-7.733759" x2="46.058642" y2="-2.508181" />
      <line x1="43.158642" y1="-7.733759" x2="43.158642" y2="-2.508181" />
      <line x1="5.046449" y1="-31.41216" x2="5.046449" y2="-26.186582" />
      <line x1="2.146449" y1="-31.41216" x2="2.146449" y2="-26.186582" />
      <line x1="12.788837" y1="16.43454" x2="12.788837" y2="36.030457" />
      <line x1="51.821131" y1="-6.100766" x2="51.821131" y2="13.495152" />
      <line x1="7.131982" y1="16.43454" x2="7.131982" y2="36.030457" />
      <line x1="-52.406408" y1="-17.939967" x2="-52.406408" y2="1.655951" />
    </g>
    <g fill="none" stroke="rgb(240,128,128)" stroke-width="0.4" id="rpi4_lid_assembled_visible">
      <line x1="57.407275" y1="9.24937" x2="57.407275" y2="11.862159" />
      <line x1="55.75042" y1="12.818744" x2="57.407275" y2="11.862159" />
      <line x1="12.788837" y1="39.582218" x2="54.578848" y2="15.454744" />
      <line x1="7.131982" y1="39.582218" x2="-55.164125" y2="3.615543" />
      <line x1="-56.335698" y1="0.979543" x2="-57.992552" y2="0.022958" />
      <line x1="-57.992552" y1="-2.589831" x2="-57.992552" y2="0.022958" />
      <line x1="57.407275" y1="9.24937" x2="-10.545687" y2="-29.983291" />
      <line x1="-57.992552" y1="-2.589831" x2="-10.545687" y2="-29.983291" />
      <line x1="57.407275" y1="11.862159" x2="54.578848" y2="10.229165" />
      <line x1="54.578848" y1="10.229165" x2="54.578848" y2="12.188757" />
      <line x1="54.578848" y1="12.188757" x2="-7.71726" y2="-23.777917" />
      <line x1="-7.71726" y1="-25.737509" x2="-7.71726" y2="-23.777917" />
      <line x1="-7.71726" y1="-25.737509" x2="-10.545687" y2="-27.370502" />
      <line x1="-10.545687" y1="-29.983291" x2="-10.545687" y2="-27.370502" />
      <path d="M 55.75042,11.862159 A 4.0,2.3094010767585034 180.0 0,0 54.578848,10.229165" />
      <path d="M 54.578848,15.454744 A 4.0,2.3094010767585034 180.0 0,0 55.75042,13.82175" />
      <path d="M 55.75042,13.82175 A 4.0,2.3094010767585034 180.0 0,0 54.578848,12.188757" />
      <path d="M 12.788837,39.582218 A 4.0,2.3094010767585034 0.0 0,1 7.131982,39.582218" />
      <path d="M -55.164125,0.349557 A 4.0,2.3094010767585034 180.0 0,0 -56.335698,1.98255" />
      <path d="M -56.335698,1.98255 A 4.0,2.3094010767585034 180.0 0,0 -55.164125,3.615543" />
      <path d="M -13.374114,-23.777917 A 4.0,2.3094010767585034 0.0 0,1 -7.71726,-23.777917" />
      <line x1="-55.164125" y1="0.349557" x2="-13.374114" y2="-23.777917" />
      <path d="M 2.111524,19.088153 A 1.6,0.9237604307034014 0.0 0,1 4.842895,19.741351" />
      <path d="M 4.842895,19.741351 A 1.6,0.9237604307034014 0.0 0,1 1.642895,19.741351" />
      <path d="M 1.642895,19.741351 A 1.6,0.9237604307034014 0.0 0,1 2.111524,19.088153" />
      <line x1="-10.404266" y1="12.923604" x2="-1.918984" y2="17.822584" />
      <line x1="-10.404266" y1="12.923604" x2="-8.565788" y2="11.862159" />
      <line x1="-1.918984" y1="17.822584" x2="-0.080507" y2="16.761138" />
      <line x1="-8.565788" y1="11.862159" x2="-0.080507" y2="16.761138" />
      <line x1="-11.111372" y1="9.24937" x2="4.444977" y2="18.230832" />
      <line x1="-11.111372" y1="9.24937" x2="-9.272895" y2="8.187924" />
      <line x1="4.444977" y1="18.230832" x2="6.283454" y2="17.169386" />
      <line x1="-9.272895" y1="8.187924" x2="6.283454" y2="17.169386" />
      <line x1="-10.050712" y1="6.595756" x2="9.041171" y2="17.61846" />
      <line x1="-10.050712" y1="6.595756" x2="-8.212235" y2="5.53431" />
      <line x1="9.041171" y1="17.61846" x2="10.879648" y2="16.557014" />
      <line x1="-8.212235" y1="5.53431" x2="10.879648" y2="16.557014" />
      <path d="M -14.859038,9.290194 A 1.6,0.9237604307034014 0.0 0,1 -12.127668,9.943392" />
      <path d="M -12.127668,9.943392 A 1.6,0.9237604307034014 0.0 0,1 -15.327668,9.943392" />
      <path d="M -15.327668,9.943392 A 1.6,0.9237604307034014 0.0 0,1 -14.859038,9.290194" />
      <line x1="-7.575839" y1="4.758638" x2="12.223151" y2="16.189591" />
      <line x1="-7.575839" y1="4.758638" x2="-5.737361" y2="3.697193" />
      <line x1="12.223151" y1="16.189591" x2="14.061629" y2="15.128145" />
      <line x1="-5.737361" y1="3.697193" x2="14.061629" y2="15.128145" />
      <line x1="-4.393858" y1="3.329769" x2="14.698025" y2="14.352473" />
      <line x1="-4.393858" y1="3.329769" x2="-2.55538" y2="2.268324" />
      <line x1="14.698025" y1="14.352473" x2="16.536503" y2="13.291028" />
      <line x1="-2.55538" y1="2.268324" x2="16.536503" y2="13.291028" />
      <path d="M 19.082087,9.290194 A 1.6,0.9237604307034014 0.0 0,1 21.813458,9.943392" />
      <path d="M 21.813458,9.943392 A 1.6,0.9237604307034014 0.0 0,1 18.613458,9.943392" />
      <path d="M 18.613458,9.943392 A 1.6,0.9237604307034014 0.0 0,1 19.082087,9.290194" />
      <line x1="0.202336" y1="2.717397" x2="15.758685" y2="11.698859" />
      <line x1="0.202336" y1="2.717397" x2="2.040814" y2="1.655951" />
      <line x1="15.758685" y1="11.698859" x2="17.597163" y2="10.637414" />
      <line x1="2.040814" y1="1.655951" x2="17.597163" y2="10.637414" />
      <line x1="6.566297" y1="3.125645" x2="15.051578" y2="8.024625" />
      <line x1="6.566297" y1="3.125645" x2="8.404775" y2="2.0642" />
      <line x1="15.051578" y1="8.024625" x2="16.890056" y2="6.963179" />
      <line x1="8.404775" y1="2.0642" x2="16.890056" y2="6.963179" />
      <path d="M 2.111524,-0.507765 A 1.6,0.9237604307034014 0.0 0,1 4.842895,0.145433" />
      <path d="M 4.842895,0.145433 A 1.6,0.9237604307034014 0.0 0,1 1.642895,0.145433" />
      <path d="M 1.642895,0.145433 A 1.6,0.9237604307034014 0.0 0,1 2.111524,-0.507765" />
      <line x1="1.793326" y1="-6.774376" x2="39.977092" y2="15.271032" />
      <line x1="1.793326" y1="-6.774376" x2="7.803734" y2="-10.244486" />
      <line x1="39.977092" y1="15.271032" x2="45.9875" y2="11.800921" />
      <line x1="7.803734" y1="-10.244486" x2="45.9875" y2="11.800921" />
      <path d="M -55.164125,-1.610035 A 4.0,2.3094010767585034 180.0 0,0 -56.335698,0.022958" />
      <line x1="-55.164125" y1="-1.610035" x2="-55.164125" y2="0.349557" />
      <line x1="-57.992552" y1="0.022958" x2="-55.164125" y2="-1.610035" />
      <line x1="-13.374114" y1="-25.737509" x2="-10.545687" y2="-27.370502" />
      <line x1="-13.374114" y1="-25.737509" x2="-13.374114" y2="-23.777917" />
      <path d="M -13.374114,-25.737509 A 4.0,2.3094010767585034 0.0 0,1 -7.71726,-25.737509" />
      <line x1="-1.918984" y1="15.862992" x2="-1.918984" y2="17.822584" />
      <line x1="-8.707209" y1="11.943808" x2="-1.918984" y2="15.862992" />
      <line x1="-1.918984" y1="15.862992" x2="-1.777563" y2="15.781342" />
      <line x1="4.444977" y1="16.27124" x2="4.444977" y2="18.230832" />
      <line x1="-9.414316" y1="8.269574" x2="4.444977" y2="16.27124" />
      <line x1="4.444977" y1="16.27124" x2="4.586398" y2="16.189591" />
      <line x1="9.041171" y1="15.658868" x2="9.041171" y2="17.61846" />
      <line x1="-8.353656" y1="5.61596" x2="9.041171" y2="15.658868" />
      <line x1="9.041171" y1="15.658868" x2="9.182592" y2="15.577218" />
      <line x1="12.223151" y1="14.229999" x2="12.223151" y2="16.189591" />
      <line x1="-5.878782" y1="3.778843" x2="12.223151" y2="14.229999" />
      <line x1="12.223151" y1="14.229999" x2="12.364573" y2="14.148349" />
      <line x1="14.698025" y1="12.392881" x2="14.698025" y2="14.352473" />
      <line x1="-2.696802" y1="2.349973" x2="14.698025" y2="12.392881" />
      <line x1="14.698025" y1="12.392881" x2="14.839446" y2="12.311232" />
      <line x1="15.758685" y1="9.739268" x2="15.758685" y2="11.698859" />
      <line x1="1.899392" y1="1.737601" x2="15.758685" y2="9.739268" />
      <line x1="15.758685" y1="9.739268" x2="15.900107" y2="9.657618" />
      <line x1="15.051578" y1="6.065033" x2="15.051578" y2="8.024625" />
      <line x1="8.263353" y1="2.145849" x2="15.051578" y2="6.065033" />
      <line x1="15.051578" y1="6.065033" x2="15.193" y2="5.983383" />
      <line x1="39.977092" y1="13.31144" x2="39.977092" y2="15.271032" />
      <line x1="3.490383" y1="-7.754172" x2="39.977092" y2="13.31144" />
      <line x1="39.977092" y1="13.31144" x2="44.290444" y2="10.821126" />
      <line x1="55.75042" y1="11.862159" x2="55.75042" y2="13.82175" />
      <line x1="-56.335698" y1="0.022958" x2="-56.335698" y2="1.98255" />
    </g>
    <g fill="none" stroke="rgb(240,128,128)" stroke-width="0.15" id="rpi4_lid_assembled_hidden">
      <line x1="9.96041" y1="36.64283" x2="9.96041" y2="39.255619" />
      <line x1="9.96041" y1="36.64283" x2="57.407275" y2="9.24937" />
      <line x1="54.578848" y1="13.495152" x2="55.75042" y2="12.818744" />
      <line x1="54.578848" y1="13.495152" x2="54.578848" y2="15.454744" />
      <line x1="12.788837" y1="37.622626" x2="12.788837" y2="39.582218" />
      <line x1="9.96041" y1="39.255619" x2="12.788837" y2="37.622626" />
      <line x1="9.96041" y1="36.64283" x2="-57.992552" y2="-2.589831" />
      <line x1="9.96041" y1="39.255619" x2="7.131982" y2="37.622626" />
      <line x1="7.131982" y1="37.622626" x2="7.131982" y2="39.582218" />
      <line x1="-55.164125" y1="1.655951" x2="-55.164125" y2="3.615543" />
      <line x1="-55.164125" y1="1.655951" x2="-56.335698" y2="0.979543" />
      <line x1="9.96041" y1="35.173136" x2="54.86169" y2="9.24937" />
      <line x1="9.96041" y1="35.173136" x2="-55.446968" y2="-2.589831" />
      <line x1="-55.446968" y1="-2.589831" x2="-10.545687" y2="-28.513597" />
      <line x1="54.86169" y1="9.24937" x2="-10.545687" y2="-28.513597" />
      <path d="M 54.578848,13.495152 A 4.0,2.3094010767585034 180.0 0,0 55.75042,11.862159" />
      <path d="M 12.788837,37.622626 A 4.0,2.3094010767585034 0.0 0,1 7.131982,37.622626" />
      <path d="M -56.335698,0.022958 A 4.0,2.3094010767585034 180.0 0,0 -55.164125,1.655951" />
      <line x1="9.96041" y1="35.173136" x2="9.96041" y2="37.785925" />
      <line x1="9.96041" y1="37.785925" x2="54.86169" y2="11.862159" />
      <line x1="54.86169" y1="9.24937" x2="54.86169" y2="11.862159" />
      <line x1="-55.446968" y1="-2.589831" x2="-55.446968" y2="0.022958" />
      <line x1="9.96041" y1="37.785925" x2="-55.446968" y2="0.022958" />
      <line x1="-55.446968" y1="0.022958" x2="-10.545687" y2="-25.900808" />
      <line x1="-10.545687" y1="-28.513597" x2="-10.545687" y2="-25.900808" />
      <line x1="54.86169" y1="11.862159" x2="-10.545687" y2="-25.900808" />
      <path d="M 2.111524,17.128562 A 1.6,0.9237604307034014 0.0 0,1 4.842895,17.781759" />
      <path d="M 4.842895,17.781759 A 1.6,0.9237604307034014 0.0 0,1 1.642895,17.781759" />
      <path d="M 1.642895,17.781759 A 1.6,0.9237604307034014 0.0 0,1 2.111524,17.128562" />
      <line x1="-10.404266" y1="10.964012" x2="-10.404266" y2="12.923604" />
      <line x1="-10.404266" y1="10.964012" x2="-8.707209" y2="11.943808" />
      <line x1="-8.565788" y1="9.902567" x2="-8.565788" y2="11.862159" />
      <line x1="-10.404266" y1="10.964012" x2="-8.565788" y2="9.902567" />
      <line x1="-0.080507" y1="14.801546" x2="-0.080507" y2="16.761138" />
      <line x1="-1.777563" y1="15.781342" x2="-0.080507" y2="14.801546" />
      <line x1="-8.565788" y1="9.902567" x2="-0.080507" y2="14.801546" />
      <line x1="-11.111372" y1="7.289778" x2="-11.111372" y2="9.24937" />
      <line x1="-11.111372" y1="7.289778" x2="-9.414316" y2="8.269574" />
      <line x1="-9.272895" y1="6.228332" x2="-9.272895" y2="8.187924" />
      <line x1="-11.111372" y1="7.289778" x2="-9.272895" y2="6.228332" />
      <line x1="6.283454" y1="15.209795" x2="6.283454" y2="17.169386" />
      <line x1="4.586398" y1="16.189591" x2="6.283454" y2="15.209795" />
      <line x1="-9.272895" y1="6.228332" x2="6.283454" y2="15.209795" />
      <line x1="-10.050712" y1="4.636164" x2="-10.050712" y2="6.595756" />
      <line x1="-10.050712" y1="4.636164" x2="-8.353656" y2="5.61596" />
      <line x1="-8.212235" y1="3.574718" x2="-8.212235" y2="5.53431" />
      <line x1="-10.050712" y1="4.636164" x2="-8.212235" y2="3.574718" />
      <line x1="10.879648" y1="14.597422" x2="10.879648" y2="16.557014" />
      <line x1="9.182592" y1="15.577218" x2="10.879648" y2="14.597422" />
      <line x1="-8.212235" y1="3.574718" x2="10.879648" y2="14.597422" />
      <path d="M -14.859038,7.330603 A 1.6,0.9237604307034014 0.0 0,1 -12.127668,7.9838" />
      <path d="M -12.127668,7.9838 A 1.6,0.9237604307034014 0.0 0,1 -15.327668,7.9838" />
      <path d="M -15.327668,7.9838 A 1.6,0.9237604307034014 0.0 0,1 -14.859038,7.330603" />
      <line x1="-7.575839" y1="2.799047" x2="-7.575839" y2="4.758638" />
      <line x1="-7.575839" y1="2.799047" x2="-5.878782" y2="3.778843" />
      <line x1="-5.737361" y1="1.737601" x2="-5.737361" y2="3.697193" />
      <line x1="-7.575839" y1="2.799047" x2="-5.737361" y2="1.737601" />
      <line x1="14.061629" y1="13.168553" x2="14.061629" y2="15.128145" />
      <line x1="12.364573" y1="14.148349" x2="14.061629" y2="13.168553" />
      <line x1="-5.737361" y1="1.737601" x2="14.061629" y2="13.168553" />
      <line x1="-4.393858" y1="1.370178" x2="-4.393858" y2="3.329769" />
      <line x1="-4.393858" y1="1.370178" x2="-2.696802" y2="2.349973" />
      <line x1="-2.55538" y1="0.308732" x2="-2.55538" y2="2.268324" />
      <line x1="-4.393858" y1="1.370178" x2="-2.55538" y2="0.308732" />
      <line x1="16.536503" y1="11.331436" x2="16.536503" y2="13.291028" />
      <line x1="14.839446" y1="12.311232" x2="16.536503" y2="11.331436" />
      <line x1="-2.55538" y1="0.308732" x2="16.536503" y2="11.331436" />
      <path d="M 19.082087,7.330603 A 1.6,0.9237604307034014 0.0 0,1 21.813458,7.9838" />
      <path d="M 21.813458,7.9838 A 1.6,0.9237604307034014 0.0 0,1 18.613458,7.9838" />
      <path d="M 18.613458,7.9838 A 1.6,0.9237604307034014 0.0 0,1 19.082087,7.330603" />
      <line x1="0.202336" y1="0.757805" x2="0.202336" y2="2.717397" />
      <line x1="0.202336" y1="0.757805" x2="1.899392" y2="1.737601" />
      <line x1="2.040814" y1="-0.30364" x2="2.040814" y2="1.655951" />
      <line x1="0.202336" y1="0.757805" x2="2.040814" y2="-0.30364" />
      <line x1="17.597163" y1="8.677822" x2="17.597163" y2="10.637414" />
      <line x1="15.900107" y1="9.657618" x2="17.597163" y2="8.677822" />
      <line x1="2.040814" y1="-0.30364" x2="17.597163" y2="8.677822" />
      <line x1="6.566297" y1="1.166053" x2="6.566297" y2="3.125645" />
      <line x1="6.566297" y1="1.166053" x2="8.263353" y2="2.145849" />
      <line x1="8.404775" y1="0.104608" x2="8.404775" y2="2.0642" />
      <line x1="6.566297" y1="1.166053" x2="8.404775" y2="0.104608" />
      <line x1="16.890056" y1="5.003587" x2="16.890056" y2="6.963179" />
      <line x1="15.193" y1="5.983383" x2="16.890056" y2="5.003587" />
      <line x1="8.404775" y1="0.104608" x2="16.890056" y2="5.003587" />
      <path d="M 2.111524,-2.467356 A 1.6,0.9237604307034014 0.0 0,1 4.842895,-1.814159" />
      <path d="M 4.842895,-1.814159 A 1.6,0.9237604307034014 0.0 0,1 1.642895,-1.814159" />
      <path d="M 1.642895,-1.814159 A 1.6,0.9237604307034014 0.0 0,1 2.111524,-2.467356" />
      <line x1="1.793326" y1="-8.733968" x2="1.793326" y2="-6.774376" />
      <line x1="1.793326" y1="-8.733968" x2="3.490383" y2="-7.754172" />
      <line x1="7.803734" y1="-12.204078" x2="7.803734" y2="-10.244486" />
      <line x1="1.793326" y1="-8.733968" x2="7.803734" y2="-12.204078" />
      <line x1="45.9875" y1="9.84133" x2="45.9875" y2="11.800921" />
      <line x1="44.290444" y1="10.821126" x2="45.9875" y2="9.84133" />
      <line x1="7.803734" y1="-12.204078" x2="45.9875" y2="9.84133" />
      <line x1="4.842895" y1="17.781759" x2="4.842895" y2="19.741351" />
      <line x1="1.642895" y1="17.781759" x2="1.642895" y2="19.741351" />
      <line x1="-12.127668" y1="7.9838" x2="-12.127668" y2="9.943392" />
      <line x1="-15.327668" y1="7.9838" x2="-15.327668" y2="9.943392" />
      <line x1="21.813458" y1="7.9838" x2="21.813458" y2="9.943392" />
      <line x1="18.613458" y1="7.9838" x2="18.613458" y2="9.943392" />
      <line x1="4.842895" y1="-1.814159" x2="4.842895" y2="0.145433" />
      <line x1="1.642895" y1="-1.814159" x2="1.642895" y2="0.145433" />
    </g>
  </g>
</svg>