<?xml version='1.0' encoding='utf-8'?>
<svg width="91.131493mm" height="60.185196mm" viewBox="-45.565747 -27.047336 91.131493 60.185196" version="1.1" xmlns="http://www.w3.org/2000/svg">
  <g transform="scale(1,-1)" stroke-linecap="round">
    <g fill="none" stroke="rgb(30,56,76)" stroke-width="0.4" id="base_visible">
      <path d="M 11.543518,13.838435 A 1.175,0.5884087399089502 0.0 0,1 13.549369,14.254503" />
      <path d="M 11.199369,14.254503 A 1.175,0.5884087399089502 0.0 0,1 11.543518,13.838435" />
      <path d="M 11.543518,15.872544 A 1.175,0.5884087399089502 0.0 0,1 13.549369,16.288612" />
      <path d="M 13.549369,16.288612 A 1.175,0.5884087399089502 0.0 0,1 11.199369,16.288612" />
      <path d="M 11.199369,16.288612 A 1.175,0.5884087399089502 0.0 0,1 11.543518,15.872544" />
      <path d="M 10.535891,13.333842 A 2.6,1.302010828734698 0.0 0,1 14.974369,14.254503" />
      <path d="M 14.974369,14.254503 A 2.6,1.302010828734698 0.0 0,1 13.549369,15.415971" />
      <path d="M 11.199369,15.415971 A 2.6,1.302010828734698 0.0 0,1 9.774369,14.254503" />
      <path d="M 9.774369,14.254503 A 2.6,1.302010828734698 0.0 0,1 10.535891,13.333842" />
      <path d="M 10.535891,11.42957 A 2.6,1.302010828734698 0.0 0,1 14.974369,12.35023" />
      <path d="M 9.774369,12.35023 A 2.6,1.302010828734698 0.0 0,1 10.535891,11.42957" />
      <line x1="14.974369" y1="14.093482" x2="27.462825" y2="7.839595" />
      <line x1="9.774369" y1="14.093482" x2="-27.462825" y2="-4.553914" />
      <line x1="6.22254" y1="6.790856" x2="7.919596" y2="7.640697" />
      <line x1="6.22254" y1="6.790856" x2="16.742717" y2="1.522631" />
      <line x1="7.919596" y1="7.640697" x2="18.439774" y2="2.372472" />
      <line x1="-2.262742" y1="2.541653" x2="-0.565685" y2="3.391494" />
      <line x1="-2.262742" y1="2.541653" x2="8.257436" y2="-2.726572" />
      <line x1="-0.565685" y1="3.391494" x2="9.954492" y2="-1.876731" />
      <path d="M -27.903568,-9.436597 A 2.6,1.302010828734698 0.0 0,1 -27.454224,-9.346861" />
      <line x1="-10.748023" y1="-1.70755" x2="-9.050967" y2="-0.85771" />
      <line x1="-10.748023" y1="-1.70755" x2="-0.227846" y2="-6.975775" />
      <line x1="-9.050967" y1="-0.85771" x2="1.469211" y2="-6.125935" />
      <line x1="-19.233304" y1="-5.956753" x2="-17.536248" y2="-5.106913" />
      <line x1="-19.233304" y1="-5.956753" x2="-8.713127" y2="-11.224978" />
      <line x1="-17.536248" y1="-5.106913" x2="-7.016071" y2="-10.375138" />
      <line x1="12.374369" y1="16.877021" x2="12.374369" y2="19.983058" />
      <line x1="32.99046" y1="9.659068" x2="12.374369" y2="19.983058" />
      <line x1="27.867992" y1="8.588835" x2="18.596908" y2="13.231547" />
      <line x1="28.496403" y1="8.728437" x2="28.496403" y2="10.351531" />
      <line x1="28.496403" y1="10.351531" x2="18.596908" y2="15.308935" />
      <line x1="18.596908" y1="13.231547" x2="18.596908" y2="15.308935" />
      <line x1="-11.334133" y1="-14.268665" x2="-12.374369" y2="-14.789588" />
      <line x1="-29.380287" y1="-0.926562" x2="-32.99046" y2="-2.734441" />
      <line x1="-29.380287" y1="-0.926562" x2="-29.380287" y2="-3.793149" />
      <line x1="-23.369879" y1="-1.379024" x2="-28.071731" y2="-3.733586" />
      <line x1="-23.369879" y1="2.08329" x2="-23.369879" y2="-1.379024" />
      <line x1="-20.647518" y1="3.446576" x2="-23.369879" y2="2.08329" />
      <line x1="-20.647518" y1="3.446576" x2="-20.647518" y2="-0.015738" />
      <line x1="-14.283557" y1="3.171165" x2="-20.647518" y2="-0.015738" />
      <line x1="-14.283557" y1="6.633478" x2="-14.283557" y2="3.171165" />
      <line x1="-0.141421" y1="13.715484" x2="-14.283557" y2="6.633478" />
      <line x1="-0.141421" y1="13.715484" x2="-0.141421" y2="10.25317" />
      <line x1="6.22254" y1="13.440072" x2="-0.141421" y2="10.25317" />
      <line x1="6.22254" y1="16.902386" x2="6.22254" y2="13.440072" />
      <line x1="12.374369" y1="19.983058" x2="6.22254" y2="16.902386" />
      <line x1="-12.374369" y1="-14.789588" x2="-13.414605" y2="-14.268665" />
      <line x1="-18.596908" y1="-14.097125" x2="-29.910617" y2="-8.431521" />
      <line x1="-29.910617" y1="-8.431521" x2="-29.910617" y2="-8.116765" />
      <line x1="7.919596" y1="5.941016" x2="7.919596" y2="7.640697" />
      <line x1="-0.565685" y1="1.691812" x2="-0.565685" y2="3.391494" />
      <path d="M -26.041479,-6.214306 A 2.6,1.302010828734698 0.0 0,1 -27.462825,-5.121845" />
      <line x1="-9.050967" y1="-2.557391" x2="-9.050967" y2="-0.85771" />
      <line x1="-17.536248" y1="-6.806594" x2="-17.536248" y2="-5.106913" />
      <path d="M 27.462825,7.271665 A 2.6,1.302010828734698 0.0 0,1 26.041479,6.179204" />
      <path d="M 35.881348,8.929032 A 4.0,2.0030935826687664 0.0 0,1 35.753733,9.312837" />
      <path d="M -35.753733,-3.080672 A 4.0,2.0030935826687664 0.0 0,1 -35.881348,-3.464478" />
      <line x1="-30.417377" y1="-0.407215" x2="-29.380287" y2="-0.926562" />
      <line x1="5.18545" y1="17.421733" x2="6.22254" y2="16.902386" />
      <path d="M 13.414605,20.50083 A 4.0,2.0030935826687664 0.0 0,1 11.334133,20.50083" />
      <line x1="20.011122" y1="13.939747" x2="18.596908" y2="13.231547" />
      <line x1="28.496403" y1="9.690544" x2="20.011122" y2="13.939747" />
      <line x1="20.011122" y1="13.939747" x2="20.011122" y2="14.600734" />
      <line x1="-24.784093" y1="-0.670823" x2="-23.369879" y2="-1.379024" />
      <line x1="-24.784093" y1="-0.670823" x2="-29.380287" y2="-2.972475" />
      <line x1="-24.406969" y1="2.602637" x2="-23.369879" y2="2.08329" />
      <line x1="-24.784093" y1="2.413783" x2="-24.784093" y2="-0.670823" />
      <line x1="-21.684608" y1="3.965923" x2="-20.647518" y2="3.446576" />
      <line x1="-15.697771" y1="3.879365" x2="-14.283557" y2="3.171165" />
      <line x1="-15.697771" y1="3.879365" x2="-20.647518" y2="1.400663" />
      <line x1="-15.320647" y1="7.152825" x2="-14.283557" y2="6.633478" />
      <line x1="-15.697771" y1="6.963972" x2="-15.697771" y2="3.879365" />
      <line x1="-1.178511" y1="14.234831" x2="-0.141421" y2="13.715484" />
      <line x1="4.808326" y1="14.148273" x2="6.22254" y2="13.440072" />
      <line x1="4.808326" y1="14.148273" x2="-0.141421" y2="11.669571" />
      <line x1="4.808326" y1="17.23288" x2="4.808326" y2="14.148273" />
      <line x1="-18.596908" y1="-15.513526" x2="-31.32483" y2="-9.139721" />
      <line x1="-29.910617" y1="-8.431521" x2="-31.32483" y2="-9.139721" />
      <line x1="-18.596908" y1="-15.513526" x2="-18.596908" y2="-13.782369" />
      <line x1="-18.596908" y1="-13.782369" x2="-31.32483" y2="-7.408564" />
      <line x1="-31.32483" y1="-9.139721" x2="-31.32483" y2="-7.408564" />
      <path d="M 35.890516,1.868863 A 4.0,2.0030935826687664 180.0 0,0 34.718943,0.452461" />
      <line x1="34.718943" y1="0.452461" x2="-9.545942" y2="-21.714215" />
      <path d="M -34.718943,-11.941048 A 4.0,2.0030935826687664 180.0 0,0 -35.890516,-10.524647" />
      <path d="M -15.202796,-21.714215 A 4.0,2.0030935826687664 0.0 0,1 -9.545942,-21.714215" />
      <line x1="-34.718943" y1="-11.941048" x2="-15.202796" y2="-21.714215" />
      <line x1="12.374369" y1="22.300908" x2="12.374369" y2="22.333891" />
      <line x1="12.374369" y1="22.333891" x2="12.440784" y2="22.300631" />
      <line x1="35.889964" y1="10.557906" x2="37.512015" y2="9.745626" />
      <line x1="35.881348" y1="9.696642" x2="36.647773" y2="9.312837" />
      <line x1="-12.374369" y1="-15.236147" x2="-9.879352" y2="-13.98671" />
      <line x1="-9.879352" y1="-13.98671" x2="-9.879352" y2="-13.900152" />
      <line x1="35.016999" y1="8.496188" x2="35.016999" y2="8.582746" />
      <line x1="35.016999" y1="8.496188" x2="37.512015" y2="9.745626" />
      <line x1="-37.512015" y1="-2.647883" x2="-35.016999" y2="-3.897321" />
      <line x1="-35.016999" y1="-3.897321" x2="-35.016999" y2="-3.810763" />
      <line x1="-14.869385" y1="-13.98671" x2="-14.869385" y2="-13.900152" />
      <line x1="-14.869385" y1="-13.98671" x2="-12.374369" y2="-15.236147" />
      <line x1="-36.647773" y1="-3.080672" x2="-35.881348" y2="-2.696867" />
      <line x1="-37.512015" y1="-2.647883" x2="-35.889964" y2="-1.835603" />
      <line x1="12.307953" y1="22.300631" x2="12.374369" y2="22.333891" />
      <line x1="-38.53732" y1="-3.513462" x2="-12.374369" y2="-16.615171" />
      <line x1="38.53732" y1="8.880048" x2="-12.374369" y2="-16.615171" />
      <line x1="-38.53732" y1="-3.513462" x2="-38.53732" y2="-2.647883" />
      <line x1="12.374369" y1="22.847336" x2="11.061667" y2="22.18997" />
      <line x1="-35.668983" y1="-1.211496" x2="-38.53732" y2="-2.647883" />
      <path d="M -28.802163,-4.831828 A 1.175,0.5884087399089502 0.0 0,1 -27.462825,-4.249203" />
      <path d="M -27.462825,-4.249203 A 1.1750000000000005,0.5884087399089504 0.0 0,1 -29.812825,-4.249203" />
      <path d="M -29.812825,-4.249203 A 1.175,0.5884087399089502 0.0 0,1 -29.801275,-4.3315" />
      <path d="M 27.806974,7.728238 A 1.175,0.5884087399089502 0.0 0,1 28.802163,7.561681" />
      <path d="M 29.801275,8.06201 A 1.175,0.5884087399089502 0.0 0,1 29.812825,8.144306" />
      <path d="M 29.812825,8.144306 A 1.1750000000000005,0.5884087399089504 0.0 0,1 27.462825,8.144306" />
      <path d="M 27.462825,8.144306 A 1.175,0.5884087399089502 0.0 0,1 27.806974,7.728238" />
      <path d="M -12.538707,-12.976134 A 1.175,0.5884087399089502 0.0 0,1 -12.21003,-12.976134" />
      <path d="M -11.210918,-12.475806 A 1.175,0.5884087399089502 0.0 0,1 -11.199369,-12.393509" />
      <path d="M -11.199369,-12.393509 A 1.175,0.5884087399089502 0.0 0,1 -13.549369,-12.393509" />
      <path d="M -13.549369,-12.393509 A 1.175,0.5884087399089502 0.0 0,1 -13.53782,-12.475806" />
      <line x1="12.374369" y1="22.847336" x2="13.68707" y2="22.18997" />
      <line x1="35.668983" y1="11.182013" x2="38.53732" y2="9.745626" />
      <line x1="38.53732" y1="9.745626" x2="-12.374369" y2="-15.749593" />
      <line x1="-38.53732" y1="-2.647883" x2="-12.374369" y2="-15.749593" />
      <path d="M -35.016999,-3.897321 A 4.0,2.0030935826687664 0.0 0,1 -34.718943,-4.064284" />
      <line x1="-15.202796" y1="-13.837451" x2="-34.718943" y2="-4.064284" />
      <path d="M -15.202796,-13.837451 A 4.0,2.0030935826687664 0.0 0,1 -14.869385,-13.98671" />
      <path d="M -9.879352,-13.98671 A 4.0,2.0030935826687664 0.0 0,1 -9.545942,-13.837451" />
      <line x1="34.718943" y1="8.329225" x2="-9.545942" y2="-13.837451" />
      <path d="M 34.718943,8.329225 A 4.0,2.0030935826687664 0.0 0,1 35.016999,8.496188" />
      <path d="M 15.202796,21.714215 A 4.0,2.0030935826687664 0.0 0,1 9.545942,21.714215" />
      <path d="M 35.016999,8.582746 A 4.0,2.0030935826687664 0.0 0,1 35.890516,9.832184" />
      <path d="M -14.869385,-13.900152 A 4.0,2.0030935826687664 0.0 0,1 -9.879352,-13.900152" />
      <path d="M -35.890516,-2.561325 A 4.0,2.0030935826687664 0.0 0,1 -35.016999,-3.810763" />
      <line x1="12.374369" y1="21.021752" x2="-34.02755" y2="-2.215094" />
      <line x1="34.02755" y1="10.178415" x2="12.374369" y2="21.021752" />
      <path d="M 34.718943,11.941048 A 4.0,2.0030935826687664 180.0 0,0 35.890516,10.524647" />
      <path d="M 35.890516,10.524647 A 4.0,2.0030935826687664 180.0 0,0 34.718943,9.108246" />
      <path d="M -15.202796,-13.058431 A 4.0,2.0030935826687664 0.0 0,1 -9.545942,-13.058431" />
      <path d="M -34.718943,-3.285264 A 4.0,2.0030935826687664 180.0 0,0 -35.890516,-1.868863" />
      <path d="M -35.890516,-1.868863 A 4.0,2.0030935826687664 180.0 0,0 -34.718943,-0.452461" />
      <line x1="-12.374369" y1="-16.615171" x2="-12.374369" y2="-15.749593" />
      <line x1="38.53732" y1="8.880048" x2="38.53732" y2="9.745626" />
      <line x1="15.202796" y1="21.714215" x2="34.718943" y2="11.941048" />
      <line x1="9.545942" y1="21.714215" x2="-34.718943" y2="-0.452461" />
      <line x1="-34.718943" y1="-3.285264" x2="-15.202796" y2="-13.058431" />
      <line x1="34.718943" y1="9.108246" x2="-9.545942" y2="-13.058431" />
      <line x1="-34.718943" y1="-1.868863" x2="12.374369" y2="21.714215" />
      <line x1="-34.718943" y1="-1.868863" x2="-12.374369" y2="-13.058431" />
      <line x1="-12.374369" y1="-13.058431" x2="34.718943" y2="10.524647" />
      <line x1="12.374369" y1="21.714215" x2="34.718943" y2="10.524647" />
      <line x1="12.374369" y1="21.021752" x2="12.374369" y2="21.714215" />
      <line x1="34.718943" y1="0.452461" x2="34.718943" y2="6.967906" />
      <line x1="-15.202796" y1="-21.714215" x2="-15.202796" y2="-15.19877" />
      <line x1="-9.545942" y1="-21.714215" x2="-9.545942" y2="-15.19877" />
      <line x1="-34.718943" y1="-11.941048" x2="-34.718943" y2="-5.425603" />
      <line x1="34.718943" y1="8.329225" x2="34.718943" y2="9.108246" />
      <line x1="-15.202796" y1="-13.837451" x2="-15.202796" y2="-13.058431" />
      <line x1="-9.545942" y1="-13.837451" x2="-9.545942" y2="-13.058431" />
      <line x1="-34.718943" y1="-4.064284" x2="-34.718943" y2="-3.285264" />
      <line x1="13.549369" y1="14.254503" x2="13.549369" y2="16.288612" />
      <line x1="11.199369" y1="14.254503" x2="11.199369" y2="16.288612" />
      <line x1="14.974369" y1="12.35023" x2="14.974369" y2="14.254503" />
      <line x1="9.774369" y1="12.35023" x2="9.774369" y2="14.254503" />
      <line x1="35.890516" y1="1.868863" x2="35.890516" y2="7.554599" />
      <line x1="-35.890516" y1="-10.524647" x2="-35.890516" y2="-4.83891" />
      <line x1="-27.462825" y1="-5.502534" x2="-27.462825" y2="-4.249203" />
      <line x1="-29.812825" y1="-4.325716" x2="-29.812825" y2="-4.249203" />
      <line x1="29.812825" y1="8.067793" x2="29.812825" y2="8.144306" />
      <line x1="27.462825" y1="6.890976" x2="27.462825" y2="8.144306" />
      <line x1="-11.199369" y1="-12.470022" x2="-11.199369" y2="-12.393509" />
      <line x1="-13.549369" y1="-12.470022" x2="-13.549369" y2="-12.393509" />
      <line x1="35.890516" y1="9.832184" x2="35.890516" y2="10.524647" />
      <line x1="-35.890516" y1="-2.561325" x2="-35.890516" y2="-1.868863" />
    </g>
    <g fill="none" stroke="rgb(158,173,183)" stroke-width="0.22" id="base_hidden" stroke-dasharray="1.397 0.6985">
      <path d="M 13.549369,14.254503 A 1.175,0.5884087399089502 0.0 0,1 11.199369,14.254503" />
      <path d="M 13.549369,15.415971 A 2.6,1.302010828734698 0.0 0,1 11.199369,15.415971" />
      <path d="M 14.974369,12.35023 A 2.6,1.302010828734698 0.0 0,1 9.774369,12.35023" />
      <line x1="12.374369" y1="15.395493" x2="14.974369" y2="14.093482" />
      <line x1="27.462825" y1="7.839595" x2="34.718943" y2="4.205924" />
      <line x1="34.718943" y1="4.205924" x2="-12.374369" y2="-19.377153" />
      <line x1="12.374369" y1="15.395493" x2="9.774369" y2="14.093482" />
      <line x1="-27.462825" y1="-4.553914" x2="-34.718943" y2="-8.187585" />
      <line x1="-34.718943" y1="-8.187585" x2="-12.374369" y2="-19.377153" />
      <line x1="16.742717" y1="1.522631" x2="17.536248" y2="1.125252" />
      <line x1="18.439774" y1="2.372472" x2="19.233304" y2="1.975093" />
      <line x1="17.536248" y1="1.125252" x2="19.233304" y2="1.975093" />
      <line x1="8.257436" y1="-2.726572" x2="9.050967" y2="-3.123951" />
      <line x1="9.954492" y1="-1.876731" x2="10.748023" y2="-2.274111" />
      <line x1="9.050967" y1="-3.123951" x2="10.748023" y2="-2.274111" />
      <path d="M -30.476302,-9.108246 A 2.6,1.302010828734698 0.0 0,1 -27.903568,-9.436597" />
      <path d="M -27.454224,-9.346861 A 2.6,1.302010828734698 0.0 0,1 -26.037825,-8.187585" />
      <path d="M -26.037825,-8.187585 A 2.6,1.302010828734698 0.0 0,1 -31.237825,-8.187585" />
      <path d="M -31.237825,-8.187585 A 2.6,1.302010828734698 0.0 0,1 -30.476302,-9.108246" />
      <line x1="-0.227846" y1="-6.975775" x2="0.565685" y2="-7.373154" />
      <line x1="1.469211" y1="-6.125935" x2="2.262742" y2="-6.523314" />
      <line x1="0.565685" y1="-7.373154" x2="2.262742" y2="-6.523314" />
      <line x1="-8.713127" y1="-11.224978" x2="-7.919596" y2="-11.622358" />
      <line x1="-7.919596" y1="-11.622358" x2="-6.22254" y2="-10.772517" />
      <line x1="-7.016071" y1="-10.375138" x2="-6.22254" y2="-10.772517" />
      <path d="M 26.799347,3.285264 A 2.6,1.302010828734698 0.0 0,1 31.237825,4.205924" />
      <path d="M 31.237825,4.205924 A 2.6,1.302010828734698 0.0 0,1 26.037825,4.205924" />
      <path d="M 26.037825,4.205924 A 2.6,1.302010828734698 0.0 0,1 26.799347,3.285264" />
      <path d="M -14.212846,-17.252552 A 2.6,1.302010828734698 0.0 0,1 -9.774369,-16.331891" />
      <path d="M -9.774369,-16.331891 A 2.6,1.302010828734698 0.0 0,1 -14.974369,-16.331891" />
      <path d="M -14.974369,-16.331891 A 2.6,1.302010828734698 0.0 0,1 -14.212846,-17.252552" />
      <line x1="12.374369" y1="15.395493" x2="12.374369" y2="16.877021" />
      <line x1="34.718943" y1="8.79349" x2="32.99046" y2="9.659068" />
      <line x1="34.718943" y1="4.205924" x2="34.718943" y2="8.79349" />
      <line x1="28.496403" y1="8.274143" x2="27.867992" y2="8.588835" />
      <line x1="28.496403" y1="8.274143" x2="28.496403" y2="8.728437" />
      <line x1="-12.374369" y1="-19.377153" x2="-12.374369" y2="-14.789588" />
      <line x1="34.718943" y1="8.79349" x2="-11.334133" y2="-14.268665" />
      <line x1="-34.718943" y1="-8.187585" x2="-34.718943" y2="-3.600019" />
      <line x1="-32.99046" y1="-2.734441" x2="-34.718943" y2="-3.600019" />
      <line x1="-29.380287" y1="-3.793149" x2="-29.380287" y2="-4.388876" />
      <line x1="-28.071731" y1="-3.733586" x2="-29.380287" y2="-4.388876" />
      <line x1="-13.414605" y1="-14.268665" x2="-34.718943" y2="-3.600019" />
      <line x1="-17.182695" y1="-14.805325" x2="-18.596908" y2="-14.097125" />
      <line x1="-17.182695" y1="-14.805325" x2="-17.182695" y2="-13.074169" />
      <line x1="-17.182695" y1="-13.074169" x2="-29.910617" y2="-6.700364" />
      <line x1="-29.910617" y1="-8.116765" x2="-29.910617" y2="-6.700364" />
      <line x1="6.22254" y1="4.453794" x2="6.22254" y2="6.790856" />
      <line x1="7.919596" y1="5.303635" x2="7.919596" y2="5.941016" />
      <line x1="6.22254" y1="4.453794" x2="7.919596" y2="5.303635" />
      <line x1="17.536248" y1="-1.21181" x2="17.536248" y2="1.125252" />
      <line x1="6.22254" y1="4.453794" x2="17.536248" y2="-1.21181" />
      <line x1="19.233304" y1="-0.361969" x2="19.233304" y2="1.975093" />
      <line x1="7.919596" y1="5.303635" x2="19.233304" y2="-0.361969" />
      <line x1="17.536248" y1="-1.21181" x2="19.233304" y2="-0.361969" />
      <line x1="-2.262742" y1="0.204591" x2="-2.262742" y2="2.541653" />
      <line x1="-0.565685" y1="1.054432" x2="-0.565685" y2="1.691812" />
      <line x1="-2.262742" y1="0.204591" x2="-0.565685" y2="1.054432" />
      <line x1="9.050967" y1="-5.461013" x2="9.050967" y2="-3.123951" />
      <line x1="-2.262742" y1="0.204591" x2="9.050967" y2="-5.461013" />
      <line x1="10.748023" y1="-4.611172" x2="10.748023" y2="-2.274111" />
      <line x1="-0.565685" y1="1.054432" x2="10.748023" y2="-4.611172" />
      <line x1="9.050967" y1="-5.461013" x2="10.748023" y2="-4.611172" />
      <path d="M -30.476302,-7.203973 A 2.6,1.302010828734698 0.0 0,1 -26.037825,-6.283312" />
      <path d="M -26.037825,-6.283312 A 2.6,1.302010828734698 0.0 0,1 -26.041479,-6.214306" />
      <path d="M -27.462825,-5.121845 A 2.6,1.302010828734698 0.0 0,1 -31.237825,-6.283312" />
      <path d="M -31.237825,-6.283312 A 2.6,1.302010828734698 0.0 0,1 -30.476302,-7.203973" />
      <line x1="-10.748023" y1="-4.044612" x2="-10.748023" y2="-1.70755" />
      <line x1="-9.050967" y1="-3.194771" x2="-9.050967" y2="-2.557391" />
      <line x1="-10.748023" y1="-4.044612" x2="-9.050967" y2="-3.194771" />
      <line x1="0.565685" y1="-9.710216" x2="0.565685" y2="-7.373154" />
      <line x1="-10.748023" y1="-4.044612" x2="0.565685" y2="-9.710216" />
      <line x1="2.262742" y1="-8.860375" x2="2.262742" y2="-6.523314" />
      <line x1="-9.050967" y1="-3.194771" x2="2.262742" y2="-8.860375" />
      <line x1="0.565685" y1="-9.710216" x2="2.262742" y2="-8.860375" />
      <line x1="-19.233304" y1="-8.293815" x2="-19.233304" y2="-5.956753" />
      <line x1="-17.536248" y1="-7.443974" x2="-17.536248" y2="-6.806594" />
      <line x1="-19.233304" y1="-8.293815" x2="-17.536248" y2="-7.443974" />
      <line x1="-7.919596" y1="-13.959419" x2="-7.919596" y2="-11.622358" />
      <line x1="-19.233304" y1="-8.293815" x2="-7.919596" y2="-13.959419" />
      <line x1="-6.22254" y1="-13.109579" x2="-6.22254" y2="-10.772517" />
      <line x1="-7.919596" y1="-13.959419" x2="-6.22254" y2="-13.109579" />
      <line x1="-17.536248" y1="-7.443974" x2="-6.22254" y2="-13.109579" />
      <path d="M 26.799347,5.189536 A 2.6,1.302010828734698 0.0 0,1 31.237825,6.110197" />
      <path d="M 31.237825,6.110197 A 2.6,1.302010828734698 0.0 0,1 27.462825,7.271665" />
      <path d="M 26.041479,6.179204 A 2.6,1.302010828734698 0.0 0,1 26.037825,6.110197" />
      <path d="M 26.037825,6.110197 A 2.6,1.302010828734698 0.0 0,1 26.799347,5.189536" />
      <path d="M -14.212846,-15.348279 A 2.6,1.302010828734698 0.0 0,1 -9.774369,-14.427619" />
      <path d="M -9.774369,-14.427619 A 2.6,1.302010828734698 0.0 0,1 -14.974369,-14.427619" />
      <path d="M -14.974369,-14.427619 A 2.6,1.302010828734698 0.0 0,1 -14.212846,-15.348279" />
      <line x1="14.869385" y1="20.132317" x2="35.016999" y2="10.042928" />
      <path d="M 35.016999,7.544052 A 4.0,2.0030935826687664 0.0 0,1 35.890516,8.79349" />
      <path d="M 35.890516,8.79349 A 4.0,2.0030935826687664 0.0 0,1 35.881348,8.929032" />
      <path d="M 35.753733,9.312837 A 4.0,2.0030935826687664 0.0 0,1 35.016999,10.042928" />
      <line x1="35.016999" y1="7.544052" x2="-9.879352" y2="-14.938846" />
      <path d="M -14.869385,-14.938846 A 4.0,2.0030935826687664 0.0 0,1 -9.879352,-14.938846" />
      <line x1="-35.016999" y1="-4.849457" x2="-14.869385" y2="-14.938846" />
      <path d="M -35.016999,-2.350582 A 4.0,2.0030935826687664 0.0 0,1 -35.753733,-3.080672" />
      <path d="M -35.881348,-3.464478 A 4.0,2.0030935826687664 0.0 0,1 -35.890516,-3.600019" />
      <path d="M -35.890516,-3.600019 A 4.0,2.0030935826687664 0.0 0,1 -35.016999,-4.849457" />
      <line x1="-30.776823" y1="-0.227214" x2="-35.016999" y2="-2.350582" />
      <line x1="-30.776823" y1="-0.227214" x2="-30.417377" y2="-0.407215" />
      <line x1="4.826004" y1="17.601734" x2="5.18545" y2="17.421733" />
      <line x1="9.879352" y1="20.132317" x2="4.826004" y2="17.601734" />
      <path d="M 14.869385,20.132317 A 4.0,2.0030935826687664 0.0 0,1 13.414605,20.50083" />
      <path d="M 11.334133,20.50083 A 4.0,2.0030935826687664 0.0 0,1 9.879352,20.132317" />
      <line x1="29.910617" y1="8.982343" x2="28.496403" y2="8.274143" />
      <line x1="29.910617" y1="8.982343" x2="28.496403" y2="9.690544" />
      <line x1="29.910617" y1="11.059732" x2="28.496403" y2="10.351531" />
      <line x1="29.910617" y1="8.982343" x2="29.910617" y2="11.059732" />
      <line x1="20.011122" y1="16.017135" x2="18.596908" y2="15.308935" />
      <line x1="29.910617" y1="11.059732" x2="20.011122" y2="16.017135" />
      <line x1="20.011122" y1="14.600734" x2="20.011122" y2="16.017135" />
      <line x1="-30.7945" y1="-0.218362" x2="-30.776823" y2="-0.227214" />
      <line x1="-30.7945" y1="-3.680676" x2="-29.380287" y2="-4.388876" />
      <line x1="-30.7945" y1="-0.218362" x2="-30.7945" y2="-3.680676" />
      <line x1="-29.380287" y1="-2.972475" x2="-30.7945" y2="-3.680676" />
      <line x1="-24.784093" y1="2.79149" x2="-24.766415" y2="2.782638" />
      <line x1="-24.766415" y1="2.782638" x2="-24.406969" y2="2.602637" />
      <line x1="-24.784093" y1="2.79149" x2="-24.784093" y2="2.413783" />
      <line x1="-22.044054" y1="4.145924" x2="-24.766415" y2="2.782638" />
      <line x1="-22.044054" y1="4.145924" x2="-21.684608" y2="3.965923" />
      <line x1="-22.556706" y1="4.575762" x2="-22.044054" y2="4.31904" />
      <line x1="-22.044054" y1="4.31904" x2="-22.044054" y2="4.145924" />
      <line x1="-22.061732" y1="0.692463" x2="-20.647518" y2="-0.015738" />
      <line x1="-22.061732" y1="4.241334" x2="-22.061732" y2="0.692463" />
      <line x1="-22.556706" y1="4.489204" x2="-22.061732" y2="4.241334" />
      <line x1="-22.556706" y1="4.575762" x2="-22.556706" y2="4.489204" />
      <line x1="-20.647518" y1="1.400663" x2="-22.061732" y2="0.692463" />
      <line x1="-16.192745" y1="7.762665" x2="-15.680093" y2="7.505942" />
      <line x1="-15.680093" y1="7.505942" x2="-15.680093" y2="7.332826" />
      <line x1="-15.680093" y1="7.332826" x2="-15.320647" y2="7.152825" />
      <line x1="-15.697771" y1="7.428237" x2="-15.697771" y2="6.963972" />
      <line x1="-16.192745" y1="7.676107" x2="-15.697771" y2="7.428237" />
      <line x1="-16.192745" y1="7.762665" x2="-16.192745" y2="7.676107" />
      <line x1="-1.537957" y1="14.414832" x2="-15.680093" y2="7.332826" />
      <line x1="-1.537957" y1="14.414832" x2="-1.178511" y2="14.234831" />
      <line x1="-2.05061" y1="14.84467" x2="-1.537957" y2="14.587947" />
      <line x1="-1.537957" y1="14.587947" x2="-1.537957" y2="14.414832" />
      <line x1="-1.555635" y1="10.96137" x2="-0.141421" y2="10.25317" />
      <line x1="-1.555635" y1="14.510242" x2="-1.555635" y2="10.96137" />
      <line x1="-2.05061" y1="14.758112" x2="-1.555635" y2="14.510242" />
      <line x1="-2.05061" y1="14.84467" x2="-2.05061" y2="14.758112" />
      <line x1="-0.141421" y1="11.669571" x2="-1.555635" y2="10.96137" />
      <line x1="4.313351" y1="18.031572" x2="4.826004" y2="17.77485" />
      <line x1="4.826004" y1="17.77485" x2="4.826004" y2="17.601734" />
      <line x1="4.808326" y1="17.697144" x2="4.808326" y2="17.23288" />
      <line x1="4.313351" y1="17.945014" x2="4.808326" y2="17.697144" />
      <line x1="4.313351" y1="18.031572" x2="4.313351" y2="17.945014" />
      <line x1="-17.182695" y1="-14.805325" x2="-18.596908" y2="-15.513526" />
      <line x1="-17.182695" y1="-13.074169" x2="-18.596908" y2="-13.782369" />
      <line x1="-29.910617" y1="-6.700364" x2="-31.32483" y2="-7.408564" />
      <line x1="15.202796" y1="13.058431" x2="34.718943" y2="3.285264" />
      <path d="M 15.202796,13.058431 A 4.0,2.0030935826687664 0.0 0,1 9.545942,13.058431" />
      <path d="M 34.718943,3.285264 A 4.0,2.0030935826687664 180.0 0,0 35.890516,1.868863" />
      <line x1="9.545942" y1="13.058431" x2="-34.718943" y2="-9.108246" />
      <path d="M -35.890516,-10.524647 A 4.0,2.0030935826687664 180.0 0,0 -34.718943,-9.108246" />
      <path d="M -29.468675,-6.69938 A 1.175,0.5884087399089502 0.0 0,1 -27.462825,-6.283312" />
      <path d="M -27.462825,-6.283312 A 1.1750000000000005,0.5884087399089504 0.0 0,1 -29.812825,-6.283312" />
      <path d="M -29.812825,-6.283312 A 1.175,0.5884087399089502 0.0 0,1 -29.468675,-6.69938" />
      <path d="M 27.806974,5.694129 A 1.175,0.5884087399089502 0.0 0,1 29.812825,6.110197" />
      <path d="M 29.812825,6.110197 A 1.1750000000000005,0.5884087399089504 0.0 0,1 27.462825,6.110197" />
      <path d="M 27.462825,6.110197 A 1.175,0.5884087399089502 0.0 0,1 27.806974,5.694129" />
      <path d="M -13.205219,-14.843686 A 1.175,0.5884087399089502 0.0 0,1 -11.199369,-14.427619" />
      <path d="M -11.199369,-14.427619 A 1.175,0.5884087399089502 0.0 0,1 -13.549369,-14.427619" />
      <path d="M -13.549369,-14.427619 A 1.175,0.5884087399089502 0.0 0,1 -13.205219,-14.843686" />
      <line x1="12.374369" y1="21.468312" x2="12.374369" y2="22.300908" />
      <line x1="12.440784" y1="22.300631" x2="14.869385" y2="21.084453" />
      <line x1="14.869385" y1="21.084453" x2="14.869385" y2="21.171011" />
      <line x1="14.869385" y1="21.171011" x2="35.016999" y2="11.081622" />
      <line x1="35.016999" y1="10.995064" x2="35.016999" y2="11.081622" />
      <line x1="35.016999" y1="10.995064" x2="35.889964" y2="10.557906" />
      <line x1="37.512015" y1="8.880048" x2="37.512015" y2="9.745626" />
      <line x1="35.016999" y1="10.129485" x2="35.881348" y2="9.696642" />
      <line x1="36.647773" y1="9.312837" x2="37.512015" y2="8.880048" />
      <line x1="35.016999" y1="10.042928" x2="35.016999" y2="10.129485" />
      <line x1="14.869385" y1="20.132317" x2="14.869385" y2="20.218874" />
      <line x1="12.374369" y1="21.468312" x2="14.869385" y2="20.218874" />
      <path d="M 35.016999,10.129485 A 4.0,2.0030935826687664 0.0 0,1 34.718943,10.296449" />
      <line x1="35.016999" y1="7.544052" x2="35.016999" y2="7.63061" />
      <path d="M 34.718943,7.463647 A 4.0,2.0030935826687664 0.0 0,1 35.016999,7.63061" />
      <line x1="-9.879352" y1="-14.938846" x2="-9.879352" y2="-14.852288" />
      <line x1="-12.374369" y1="-16.101726" x2="-9.879352" y2="-14.852288" />
      <line x1="-12.374369" y1="-16.101726" x2="-12.374369" y2="-15.236147" />
      <line x1="35.016999" y1="8.582746" x2="-9.879352" y2="-13.900152" />
      <line x1="35.016999" y1="7.63061" x2="37.512015" y2="8.880048" />
      <path d="M -15.202796,-14.70303 A 4.0,2.0030935826687664 0.0 0,1 -14.869385,-14.852288" />
      <line x1="-14.869385" y1="-14.938846" x2="-14.869385" y2="-14.852288" />
      <path d="M -9.879352,-14.852288 A 4.0,2.0030935826687664 0.0 0,1 -9.545942,-14.70303" />
      <line x1="-37.512015" y1="-3.513462" x2="-37.512015" y2="-2.647883" />
      <line x1="-35.016999" y1="-3.810763" x2="-14.869385" y2="-13.900152" />
      <line x1="-14.869385" y1="-14.852288" x2="-12.374369" y2="-16.101726" />
      <line x1="-35.016999" y1="-4.849457" x2="-35.016999" y2="-4.762899" />
      <line x1="-37.512015" y1="-3.513462" x2="-35.016999" y2="-4.762899" />
      <path d="M -35.016999,-4.762899 A 4.0,2.0030935826687664 0.0 0,1 -34.718943,-4.929863" />
      <line x1="-35.016999" y1="-2.350582" x2="-35.016999" y2="-2.264024" />
      <path d="M -34.718943,-2.09706 A 4.0,2.0030935826687664 0.0 0,1 -35.016999,-2.264024" />
      <line x1="4.826004" y1="17.77485" x2="-1.537957" y2="14.587947" />
      <line x1="-15.680093" y1="7.505942" x2="-22.044054" y2="4.31904" />
      <line x1="-24.766415" y1="2.782638" x2="-30.776823" y2="-0.227214" />
      <line x1="-37.512015" y1="-3.513462" x2="-36.647773" y2="-3.080672" />
      <line x1="-35.881348" y1="-2.696867" x2="-35.016999" y2="-2.264024" />
      <line x1="-35.889964" y1="-1.835603" x2="-35.016999" y2="-1.398445" />
      <line x1="-35.016999" y1="-1.398445" x2="-35.016999" y2="-1.311888" />
      <line x1="9.879352" y1="21.171011" x2="-35.016999" y2="-1.311888" />
      <line x1="9.879352" y1="21.084453" x2="9.879352" y2="21.171011" />
      <line x1="9.879352" y1="21.084453" x2="12.307953" y2="22.300631" />
      <line x1="9.879352" y1="20.218874" x2="12.374369" y2="21.468312" />
      <line x1="9.879352" y1="20.132317" x2="9.879352" y2="20.218874" />
      <path d="M 15.202796,20.069616 A 4.0,2.0030935826687664 0.0 0,1 14.869385,20.218874" />
      <path d="M 9.879352,20.218874 A 4.0,2.0030935826687664 0.0 0,1 9.545942,20.069616" />
      <line x1="34.718943" y1="10.296449" x2="15.202796" y2="20.069616" />
      <line x1="-24.784093" y1="2.79149" x2="-30.7945" y2="-0.218362" />
      <line x1="9.545942" y1="20.069616" x2="4.808326" y2="17.697144" />
      <line x1="-22.061732" y1="4.241334" x2="-34.718943" y2="-2.09706" />
      <line x1="-1.555635" y1="14.510242" x2="-15.697771" y2="7.428237" />
      <line x1="-16.192745" y1="7.762665" x2="-22.556706" y2="4.575762" />
      <line x1="-22.556706" y1="4.489204" x2="-38.53732" y2="-3.513462" />
      <line x1="-15.202796" y1="-14.70303" x2="-34.718943" y2="-4.929863" />
      <line x1="34.718943" y1="7.463647" x2="-9.545942" y2="-14.70303" />
      <line x1="12.374369" y1="21.981757" x2="4.313351" y2="17.945014" />
      <line x1="12.374369" y1="21.981757" x2="38.53732" y2="8.880048" />
      <line x1="4.313351" y1="18.031572" x2="-2.05061" y2="14.84467" />
      <line x1="-2.05061" y1="14.758112" x2="-16.192745" y2="7.676107" />
      <line x1="11.061667" y1="22.18997" x2="-35.668983" y2="-1.211496" />
      <line x1="12.374369" y1="21.981757" x2="12.374369" y2="22.847336" />
      <path d="M -29.468675,-4.665271 A 1.175,0.5884087399089502 0.0 0,1 -28.802163,-4.831828" />
      <path d="M -29.801275,-4.3315 A 1.175,0.5884087399089502 0.0 0,1 -29.468675,-4.665271" />
      <path d="M 28.802163,7.561681 A 1.175,0.5884087399089502 0.0 0,1 29.801275,8.06201" />
      <path d="M -13.205219,-12.809577 A 1.175,0.5884087399089502 0.0 0,1 -12.538707,-12.976134" />
      <path d="M -12.21003,-12.976134 A 1.175,0.5884087399089502 0.0 0,1 -11.210918,-12.475806" />
      <path d="M -13.53782,-12.475806 A 1.175,0.5884087399089502 0.0 0,1 -13.205219,-12.809577" />
      <line x1="13.68707" y1="22.18997" x2="35.668983" y2="11.182013" />
      <line x1="34.718943" y1="11.162027" x2="15.202796" y2="20.935194" />
      <path d="M 15.202796,20.935194 A 4.0,2.0030935826687664 0.0 0,1 14.869385,21.084453" />
      <path d="M 9.879352,21.084453 A 4.0,2.0030935826687664 0.0 0,1 9.545942,20.935194" />
      <line x1="9.545942" y1="20.935194" x2="-34.718943" y2="-1.231482" />
      <path d="M -34.718943,-1.231482 A 4.0,2.0030935826687664 0.0 0,1 -35.016999,-1.398445" />
      <path d="M 35.016999,10.995064 A 4.0,2.0030935826687664 0.0 0,1 34.718943,11.162027" />
      <path d="M 14.869385,21.171011 A 4.0,2.0030935826687664 0.0 0,1 9.879352,21.171011" />
      <path d="M 35.890516,9.832184 A 4.0,2.0030935826687664 0.0 0,1 35.016999,11.081622" />
      <path d="M -35.016999,-1.311888 A 4.0,2.0030935826687664 0.0 0,1 -35.890516,-2.561325" />
      <line x1="-34.02755" y1="-2.215094" x2="-34.718943" y2="-2.561325" />
      <line x1="-12.374369" y1="-13.750894" x2="-34.718943" y2="-2.561325" />
      <line x1="34.718943" y1="9.832184" x2="-12.374369" y2="-13.750894" />
      <line x1="34.718943" y1="9.832184" x2="34.02755" y2="10.178415" />
      <line x1="-34.718943" y1="-2.561325" x2="-34.718943" y2="-1.868863" />
      <line x1="-12.374369" y1="-13.750894" x2="-12.374369" y2="-13.058431" />
      <line x1="34.718943" y1="9.832184" x2="34.718943" y2="10.524647" />
      <line x1="-26.037825" y1="-8.187585" x2="-26.037825" y2="-6.283312" />
      <line x1="-31.237825" y1="-8.187585" x2="-31.237825" y2="-6.283312" />
      <line x1="31.237825" y1="4.205924" x2="31.237825" y2="6.110197" />
      <line x1="26.037825" y1="4.205924" x2="26.037825" y2="6.110197" />
      <line x1="-9.774369" y1="-16.331891" x2="-9.774369" y2="-14.427619" />
      <line x1="-14.974369" y1="-16.331891" x2="-14.974369" y2="-14.427619" />
      <line x1="35.890516" y1="7.554599" x2="35.890516" y2="8.79349" />
      <line x1="-35.890516" y1="-4.83891" x2="-35.890516" y2="-3.600019" />
      <line x1="-27.462825" y1="-6.283312" x2="-27.462825" y2="-5.502534" />
      <line x1="-29.812825" y1="-6.283312" x2="-29.812825" y2="-4.325716" />
      <line x1="29.812825" y1="6.110197" x2="29.812825" y2="8.067793" />
      <line x1="27.462825" y1="6.110197" x2="27.462825" y2="6.890976" />
      <line x1="-11.199369" y1="-14.427619" x2="-11.199369" y2="-12.470022" />
      <line x1="-13.549369" y1="-14.427619" x2="-13.549369" y2="-12.470022" />
      <line x1="34.718943" y1="3.285264" x2="34.718943" y2="10.296449" />
      <line x1="34.718943" y1="6.967906" x2="34.718943" y2="7.463647" />
      <line x1="-15.202796" y1="-15.19877" x2="-15.202796" y2="-14.70303" />
      <line x1="-9.545942" y1="-15.19877" x2="-9.545942" y2="-14.70303" />
      <line x1="-34.718943" y1="-5.425603" x2="-34.718943" y2="-4.929863" />
      <line x1="-34.718943" y1="-9.108246" x2="-34.718943" y2="-2.09706" />
      <line x1="15.202796" y1="13.058431" x2="15.202796" y2="20.069616" />
      <line x1="9.545942" y1="13.058431" x2="9.545942" y2="20.069616" />
      <line x1="15.202796" y1="20.935194" x2="15.202796" y2="21.714215" />
      <line x1="9.545942" y1="20.935194" x2="9.545942" y2="21.714215" />
      <line x1="34.718943" y1="11.162027" x2="34.718943" y2="11.941048" />
      <line x1="-34.718943" y1="-1.231482" x2="-34.718943" y2="-0.452461" />
    </g>
    <g fill="none" stroke="rgb(127,45,45)" stroke-width="0.4" id="lid_visible">
      <line x1="41.365747" y1="-2.02624" x2="41.365747" y2="1.868863" />
      <line x1="39.460364" y1="2.823027" x2="41.365747" y2="1.868863" />
      <line x1="15.62706" y1="16.489269" x2="38.113056" y2="5.228881" />
      <line x1="9.121677" y1="16.489269" x2="-38.113056" y2="-7.164629" />
      <line x1="-39.460364" y1="-9.570482" x2="-41.365747" y2="-10.524647" />
      <line x1="-41.365747" y1="-14.41975" x2="-41.365747" y2="-10.524647" />
      <line x1="41.365747" y1="-2.02624" x2="-12.374369" y2="-28.93786" />
      <line x1="-41.365747" y1="-14.41975" x2="-12.374369" y2="-28.93786" />
      <line x1="41.365747" y1="1.868863" x2="38.113056" y2="0.240001" />
      <line x1="38.113056" y1="0.240001" x2="38.113056" y2="1.971158" />
      <line x1="38.113056" y1="1.971158" x2="-9.121677" y2="-21.682739" />
      <line x1="-9.121677" y1="-23.413896" x2="-9.121677" y2="-21.682739" />
      <line x1="-9.121677" y1="-23.413896" x2="-12.374369" y2="-25.042758" />
      <line x1="-12.374369" y1="-28.93786" x2="-12.374369" y2="-25.042758" />
      <path d="M 39.460364,1.868863 A 4.6,2.303557620069081 180.0 0,0 38.113056,0.240001" />
      <path d="M 38.113056,5.228881 A 4.6,2.303557620069081 180.0 0,0 39.460364,3.600019" />
      <path d="M 39.460364,3.600019 A 4.6,2.303557620069081 180.0 0,0 38.113056,1.971158" />
      <path d="M 15.62706,16.489269 A 4.6,2.303557620069081 0.0 0,1 9.121677,16.489269" />
      <path d="M -38.113056,-10.422351 A 4.6,2.303557620069081 180.0 0,0 -39.460364,-8.79349" />
      <path d="M -39.460364,-8.79349 A 4.6,2.303557620069081 180.0 0,0 -38.113056,-7.164629" />
      <path d="M -15.62706,-21.682739 A 4.6,2.303557620069081 0.0 0,1 -9.121677,-21.682739" />
      <line x1="-38.113056" y1="-10.422351" x2="-15.62706" y2="-21.682739" />
      <path d="M -1.343503,-0.295084 A 1.2,0.6009280748006299 0.0 0,1 0.705025,0.129837" />
      <path d="M 0.705025,0.129837 A 1.2,0.6009280748006299 0.0 0,1 -1.694975,0.129837" />
      <path d="M -1.694975,0.129837 A 1.2,0.6009280748006299 0.0 0,1 -1.343503,-0.295084" />
      <path d="M 4.596194,-0.295084 A 1.2,0.6009280748006299 0.0 0,1 6.644722,0.129837" />
      <path d="M 6.644722,0.129837 A 1.2,0.6009280748006299 0.0 0,1 4.244722,0.129837" />
      <path d="M 4.244722,0.129837 A 1.2,0.6009280748006299 0.0 0,1 4.596194,-0.295084" />
      <path d="M 1.626346,-1.782305 A 1.2,0.6009280748006299 0.0 0,1 3.674874,-1.357384" />
      <path d="M 3.674874,-1.357384 A 1.2,0.6009280748006299 0.0 0,1 1.274874,-1.357384" />
      <path d="M 1.274874,-1.357384 A 1.2,0.6009280748006299 0.0 0,1 1.626346,-1.782305" />
      <path d="M 4.596194,-3.269526 A 1.2,0.6009280748006299 0.0 0,1 6.644722,-2.844605" />
      <path d="M 6.644722,-2.844605 A 1.2,0.6009280748006299 0.0 0,1 4.244722,-2.844605" />
      <path d="M 4.244722,-2.844605 A 1.2,0.6009280748006299 0.0 0,1 4.596194,-3.269526" />
      <path d="M -1.343503,-3.269526 A 1.2,0.6009280748006299 0.0 0,1 0.705025,-2.844605" />
      <path d="M 0.705025,-2.844605 A 1.2,0.6009280748006299 0.0 0,1 -1.694975,-2.844605" />
      <path d="M -1.694975,-2.844605 A 1.2,0.6009280748006299 0.0 0,1 -1.343503,-3.269526" />
      <line x1="-12.551145" y1="-14.724669" x2="24.218407" y2="3.688544" />
      <line x1="-12.551145" y1="-14.724669" x2="-7.954951" y2="-17.026321" />
      <line x1="24.218407" y1="3.688544" x2="28.814601" y2="1.386893" />
      <line x1="-7.954951" y1="-17.026321" x2="28.814601" y2="1.386893" />
      <path d="M -38.113056,-12.153508 A 4.6,2.303557620069081 180.0 0,0 -39.460364,-10.524647" />
      <line x1="-38.113056" y1="-12.153508" x2="-38.113056" y2="-10.422351" />
      <line x1="-41.365747" y1="-10.524647" x2="-38.113056" y2="-12.153508" />
      <line x1="-15.62706" y1="-23.413896" x2="-12.374369" y2="-25.042758" />
      <line x1="-15.62706" y1="-23.413896" x2="-15.62706" y2="-21.682739" />
      <path d="M -15.62706,-23.413896 A 4.6,2.303557620069081 0.0 0,1 -9.121677,-23.413896" />
      <line x1="24.218407" y1="2.000666" x2="24.218407" y2="3.688544" />
      <line x1="-10.865874" y1="-15.568608" x2="24.218407" y2="2.000666" />
      <line x1="24.218407" y1="2.000666" x2="27.12933" y2="0.542954" />
      <line x1="39.460364" y1="1.868863" x2="39.460364" y2="3.600019" />
      <line x1="-39.460364" y1="-10.524647" x2="-39.460364" y2="-8.79349" />
    </g>
    <g fill="none" stroke="rgb(191,158,158)" stroke-width="0.22" id="lid_hidden" stroke-dasharray="1.397 0.6985">
      <line x1="12.374369" y1="12.49187" x2="12.374369" y2="16.386973" />
      <line x1="12.374369" y1="12.49187" x2="41.365747" y2="-2.02624" />
      <line x1="38.113056" y1="3.497724" x2="39.460364" y2="2.823027" />
      <line x1="38.113056" y1="3.497724" x2="38.113056" y2="5.228881" />
      <line x1="15.62706" y1="14.758112" x2="15.62706" y2="16.489269" />
      <line x1="12.374369" y1="16.386973" x2="15.62706" y2="14.758112" />
      <line x1="12.374369" y1="12.49187" x2="-41.365747" y2="-14.41975" />
      <line x1="12.374369" y1="16.386973" x2="9.121677" y2="14.758112" />
      <line x1="9.121677" y1="14.758112" x2="9.121677" y2="16.489269" />
      <line x1="-38.113056" y1="-8.895786" x2="-38.113056" y2="-7.164629" />
      <line x1="-38.113056" y1="-8.895786" x2="-39.460364" y2="-9.570482" />
      <line x1="-38.820162" y1="-14.41975" x2="12.374369" y2="11.217109" />
      <line x1="-38.820162" y1="-14.41975" x2="-12.374369" y2="-27.6631" />
      <line x1="-12.374369" y1="-27.6631" x2="38.820162" y2="-2.02624" />
      <line x1="12.374369" y1="11.217109" x2="38.820162" y2="-2.02624" />
      <path d="M 38.113056,3.497724 A 4.6,2.303557620069081 180.0 0,0 39.460364,1.868863" />
      <path d="M 15.62706,14.758112 A 4.6,2.303557620069081 0.0 0,1 9.121677,14.758112" />
      <path d="M -39.460364,-10.524647 A 4.6,2.303557620069081 180.0 0,0 -38.113056,-8.895786" />
      <line x1="-38.820162" y1="-14.41975" x2="-38.820162" y2="-10.481368" />
      <line x1="12.374369" y1="15.155491" x2="-38.820162" y2="-10.481368" />
      <line x1="12.374369" y1="11.217109" x2="12.374369" y2="15.155491" />
      <line x1="-2.983991" y1="5.646719" x2="-23.461803" y2="-4.608025" />
      <line x1="-23.461803" y1="-5.473603" x2="-23.461803" y2="-4.608025" />
      <line x1="-2.983991" y1="4.78114" x2="-23.461803" y2="-5.473603" />
      <line x1="-2.983991" y1="4.78114" x2="-2.983991" y2="5.646719" />
      <line x1="-38.820162" y1="-10.481368" x2="-12.374369" y2="-23.724718" />
      <line x1="-12.374369" y1="-27.6631" x2="-12.374369" y2="-23.724718" />
      <line x1="-30.886424" y1="-17.137666" x2="-30.886424" y2="-16.272087" />
      <line x1="-30.886424" y1="-17.137666" x2="-20.308107" y2="-22.435006" />
      <line x1="-20.308107" y1="-22.435006" x2="-20.308107" y2="-21.569427" />
      <line x1="-30.886424" y1="-16.272087" x2="-20.308107" y2="-21.569427" />
      <line x1="38.820162" y1="1.912141" x2="-12.374369" y2="-23.724718" />
      <line x1="38.820162" y1="-2.02624" x2="38.820162" y2="1.912141" />
      <line x1="23.461803" y1="-7.596631" x2="2.983991" y2="-17.851375" />
      <line x1="2.983991" y1="-18.716953" x2="2.983991" y2="-17.851375" />
      <line x1="23.461803" y1="-8.462209" x2="2.983991" y2="-18.716953" />
      <line x1="23.461803" y1="-8.462209" x2="23.461803" y2="-7.596631" />
      <line x1="12.374369" y1="15.155491" x2="38.820162" y2="1.912141" />
      <line x1="20.308107" y1="8.499193" x2="20.308107" y2="9.364772" />
      <line x1="20.308107" y1="8.499193" x2="30.886424" y2="3.201853" />
      <line x1="30.886424" y1="3.201853" x2="30.886424" y2="4.067432" />
      <line x1="20.308107" y1="9.364772" x2="30.886424" y2="4.067432" />
      <path d="M -1.343503,-1.982961 A 1.2,0.6009280748006299 0.0 0,1 0.705025,-1.558041" />
      <path d="M 0.705025,-1.558041 A 1.2,0.6009280748006299 0.0 0,1 -1.694975,-1.558041" />
      <path d="M -1.694975,-1.558041 A 1.2,0.6009280748006299 0.0 0,1 -1.343503,-1.982961" />
      <path d="M 4.596194,-1.982961 A 1.2,0.6009280748006299 0.0 0,1 6.644722,-1.558041" />
      <path d="M 6.644722,-1.558041 A 1.2,0.6009280748006299 0.0 0,1 4.244722,-1.558041" />
      <path d="M 4.244722,-1.558041 A 1.2,0.6009280748006299 0.0 0,1 4.596194,-1.982961" />
      <path d="M 1.626346,-3.470183 A 1.2,0.6009280748006299 0.0 0,1 3.674874,-3.045262" />
      <path d="M 3.674874,-3.045262 A 1.2,0.6009280748006299 0.0 0,1 1.274874,-3.045262" />
      <path d="M 1.274874,-3.045262 A 1.2,0.6009280748006299 0.0 0,1 1.626346,-3.470183" />
      <path d="M 4.596194,-4.957404 A 1.2,0.6009280748006299 0.0 0,1 6.644722,-4.532483" />
      <path d="M 6.644722,-4.532483 A 1.2,0.6009280748006299 0.0 0,1 4.244722,-4.532483" />
      <path d="M 4.244722,-4.532483 A 1.2,0.6009280748006299 0.0 0,1 4.596194,-4.957404" />
      <path d="M -1.343503,-4.957404 A 1.2,0.6009280748006299 0.0 0,1 0.705025,-4.532483" />
      <path d="M 0.705025,-4.532483 A 1.2,0.6009280748006299 0.0 0,1 -1.694975,-4.532483" />
      <path d="M -1.694975,-4.532483 A 1.2,0.6009280748006299 0.0 0,1 -1.343503,-4.957404" />
      <line x1="-12.551145" y1="-16.412547" x2="-12.551145" y2="-14.724669" />
      <line x1="-12.551145" y1="-16.412547" x2="-10.865874" y2="-15.568608" />
      <line x1="-7.954951" y1="-18.714199" x2="-7.954951" y2="-17.026321" />
      <line x1="-12.551145" y1="-16.412547" x2="-7.954951" y2="-18.714199" />
      <line x1="28.814601" y1="-0.300985" x2="28.814601" y2="1.386893" />
      <line x1="27.12933" y1="0.542954" x2="28.814601" y2="-0.300985" />
      <line x1="-7.954951" y1="-18.714199" x2="28.814601" y2="-0.300985" />
      <line x1="-2.983991" y1="5.646719" x2="-2.38295" y2="5.345734" />
      <line x1="-2.38295" y1="5.345734" x2="-22.860762" y2="-4.90901" />
      <line x1="-23.461803" y1="-4.608025" x2="-22.860762" y2="-4.90901" />
      <line x1="-22.860762" y1="-5.774588" x2="-22.860762" y2="-4.90901" />
      <line x1="-23.461803" y1="-5.473603" x2="-22.860762" y2="-5.774588" />
      <line x1="-2.983991" y1="4.78114" x2="-2.38295" y2="4.480155" />
      <line x1="-2.38295" y1="4.480155" x2="-22.860762" y2="-5.774588" />
      <line x1="-2.38295" y1="4.480155" x2="-2.38295" y2="5.345734" />
      <line x1="-30.285383" y1="-16.836681" x2="-30.886424" y2="-17.137666" />
      <line x1="-30.285383" y1="-15.971102" x2="-30.886424" y2="-16.272087" />
      <line x1="-30.285383" y1="-16.836681" x2="-30.285383" y2="-15.971102" />
      <line x1="-30.285383" y1="-16.836681" x2="-19.707066" y2="-22.134021" />
      <line x1="-19.707066" y1="-22.134021" x2="-20.308107" y2="-22.435006" />
      <line x1="-19.707066" y1="-21.268442" x2="-20.308107" y2="-21.569427" />
      <line x1="-19.707066" y1="-22.134021" x2="-19.707066" y2="-21.268442" />
      <line x1="-30.285383" y1="-15.971102" x2="-19.707066" y2="-21.268442" />
      <line x1="22.860762" y1="-7.295646" x2="23.461803" y2="-7.596631" />
      <line x1="2.38295" y1="-17.550389" x2="2.983991" y2="-17.851375" />
      <line x1="22.860762" y1="-7.295646" x2="2.38295" y2="-17.550389" />
      <line x1="2.38295" y1="-18.415968" x2="2.38295" y2="-17.550389" />
      <line x1="2.38295" y1="-18.415968" x2="2.983991" y2="-18.716953" />
      <line x1="22.860762" y1="-8.161224" x2="23.461803" y2="-8.462209" />
      <line x1="22.860762" y1="-8.161224" x2="2.38295" y2="-18.415968" />
      <line x1="22.860762" y1="-8.161224" x2="22.860762" y2="-7.295646" />
      <line x1="20.308107" y1="8.499193" x2="19.707066" y2="8.198208" />
      <line x1="19.707066" y1="8.198208" x2="19.707066" y2="9.063786" />
      <line x1="20.308107" y1="9.364772" x2="19.707066" y2="9.063786" />
      <line x1="30.886424" y1="3.201853" x2="30.285383" y2="2.900868" />
      <line x1="19.707066" y1="8.198208" x2="30.285383" y2="2.900868" />
      <line x1="30.285383" y1="2.900868" x2="30.285383" y2="3.766446" />
      <line x1="30.886424" y1="4.067432" x2="30.285383" y2="3.766446" />
      <line x1="19.707066" y1="9.063786" x2="30.285383" y2="3.766446" />
      <line x1="0.705025" y1="-1.558041" x2="0.705025" y2="0.129837" />
      <line x1="-1.694975" y1="-1.558041" x2="-1.694975" y2="0.129837" />
      <line x1="6.644722" y1="-1.558041" x2="6.644722" y2="0.129837" />
      <line x1="4.244722" y1="-1.558041" x2="4.244722" y2="0.129837" />
      <line x1="3.674874" y1="-3.045262" x2="3.674874" y2="-1.357384" />
      <line x1="1.274874" y1="-3.045262" x2="1.274874" y2="-1.357384" />
      <line x1="6.644722" y1="-4.532483" x2="6.644722" y2="-2.844605" />
      <line x1="4.244722" y1="-4.532483" x2="4.244722" y2="-2.844605" />
      <line x1="0.705025" y1="-4.532483" x2="0.705025" y2="-2.844605" />
      <line x1="-1.694975" y1="-4.532483" x2="-1.694975" y2="-2.844605" />
    </g>
  </g>
</svg>