<?xml version='1.0' encoding='utf-8'?>
<svg width="115.799112mm" height="82.929372mm" viewBox="-57.899556 -33.895673 115.799112 82.929372" version="1.1" xmlns="http://www.w3.org/2000/svg">
  <g transform="scale(1,-1)" stroke-linecap="round">
    <g fill="none" stroke="rgb(30,56,76)" stroke-width="0.4" id="base_visible">
      <path d="M 7.990307,-3.112995 A 3.2,1.3131112551436306 0.0 0,1 13.453048,-2.184485" />
      <path d="M 7.053048,-2.184485 A 3.2,1.3131112551436306 0.0 0,1 7.990307,-3.112995" />
      <path d="M 7.990307,0.534722 A 3.2,1.3131112551436306 0.0 0,1 13.453048,1.463232" />
      <path d="M 13.453048,1.463232 A 3.2,1.3131112551436306 0.0 0,1 7.053048,1.463232" />
      <path d="M 7.053048,1.463232 A 3.2,1.3131112551436306 0.0 0,1 7.990307,0.534722" />
      <line x1="13.453048" y1="-0.770099" x2="29.769195" y2="-7.465385" />
      <line x1="7.053048" y1="-0.770099" x2="-27.672486" y2="-15.019627" />
      <line x1="-33.959145" y1="-17.59934" x2="-36.734197" y2="-18.738075" />
      <line x1="-39.491914" y1="-19.869697" x2="-47.54788" y2="-23.175441" />
      <line x1="-18.031223" y1="-18.433408" x2="4.596194" y2="-9.148309" />
      <line x1="-18.031223" y1="-18.433408" x2="-15.909903" y2="-19.303886" />
      <line x1="-15.909903" y1="-19.303886" x2="6.717514" y2="-10.018787" />
      <line x1="4.596194" y1="-9.148309" x2="6.717514" y2="-10.018787" />
      <path d="M -33.021887,-19.942237 A 3.2,1.3131112551436306 0.0 0,1 -27.559145,-19.013727" />
      <path d="M -33.959145,-19.013727 A 3.2,1.3131112551436306 0.0 0,1 -33.021887,-19.942237" />
      <line x1="-13.788582" y1="-20.174364" x2="8.838835" y2="-10.889265" />
      <line x1="-13.788582" y1="-20.174364" x2="-11.667262" y2="-21.044842" />
      <line x1="-11.667262" y1="-21.044842" x2="10.960155" y2="-11.759743" />
      <line x1="8.838835" y1="-10.889265" x2="10.960155" y2="-11.759743" />
      <line x1="-9.545942" y1="-21.91532" x2="13.081475" y2="-12.630221" />
      <line x1="-9.545942" y1="-21.91532" x2="-7.495332" y2="-22.756782" />
      <line x1="13.081475" y1="-12.630221" x2="15.132085" y2="-13.471683" />
      <path d="M 9.298454,1.071517 A 1.35,0.5539688107637192 0.0 0,1 11.603048,1.463232" />
      <path d="M 11.603048,1.463232 A 1.35,0.5539688107637192 0.0 0,1 8.903048,1.463232" />
      <path d="M 8.903048,1.463232 A 1.35,0.5539688107637192 0.0 0,1 9.298454,1.071517" />
      <line x1="10.253048" y1="2.776343" x2="10.253048" y2="18.416828" />
      <line x1="10.253048" y1="18.416828" x2="51.548084" y2="1.471522" />
      <line x1="25.950819" y1="-5.716139" x2="13.930004" y2="-0.78343" />
      <line x1="25.950819" y1="-5.716139" x2="25.950819" y2="-0.974106" />
      <line x1="25.950819" y1="-0.974106" x2="13.930004" y2="3.958602" />
      <line x1="13.930004" y1="-0.78343" x2="13.930004" y2="3.958602" />
      <line x1="-10.253048" y1="-23.888404" x2="51.548084" y2="1.471522" />
      <line x1="-51.548084" y1="-6.943098" x2="10.253048" y2="18.416828" />
      <line x1="-0.742462" y1="6.609415" x2="-10.146982" y2="2.750296" />
      <line x1="-0.742462" y1="6.609415" x2="-0.742462" y2="-0.68602" />
      <line x1="-10.146982" y1="2.750296" x2="-10.146982" y2="-4.545139" />
      <line x1="-0.742462" y1="-0.68602" x2="-10.146982" y2="-4.545139" />
      <line x1="-13.152186" y1="0.149225" x2="-20.364675" y2="-2.8104" />
      <line x1="-13.152186" y1="0.149225" x2="-13.152186" y2="-5.778316" />
      <line x1="-20.364675" y1="-2.8104" x2="-20.364675" y2="-8.737941" />
      <line x1="-13.152186" y1="-5.778316" x2="-20.364675" y2="-8.737941" />
      <line x1="-23.051681" y1="-3.913006" x2="-30.26417" y2="-6.872631" />
      <line x1="-30.26417" y1="-6.872631" x2="-30.26417" y2="-12.800172" />
      <line x1="-23.051681" y1="-9.840547" x2="-30.26417" y2="-12.800172" />
      <line x1="-23.051681" y1="-3.913006" x2="-23.051681" y2="-9.840547" />
      <line x1="-51.548084" y1="-6.943098" x2="-49.462119" y2="-7.799068" />
      <line x1="-49.462119" y1="-22.389938" x2="-49.462119" y2="-7.799068" />
      <line x1="-25.066935" y1="-17.809565" x2="-10.253048" y2="-23.888404" />
      <line x1="-39.491914" y1="-26.481184" x2="-49.462119" y2="-22.389938" />
      <line x1="-26.763992" y1="-31.704053" x2="-36.734197" y2="-27.612806" />
      <line x1="-37.794857" y1="-12.586697" x2="-36.734197" y2="-13.021936" />
      <line x1="-36.734197" y1="-27.612806" x2="-36.734197" y2="-13.021936" />
      <line x1="-13.859293" y1="-36.99946" x2="-24.183052" y2="-32.763134" />
      <line x1="-24.183052" y1="-32.763134" x2="-24.183052" y2="-20.476959" />
      <line x1="4.596194" y1="-10.889265" x2="4.596194" y2="-9.148309" />
      <path d="M -33.021887,-16.294519 A 3.2,1.3131112551436306 0.0 0,1 -27.559145,-15.366009" />
      <path d="M -27.559145,-15.366009 A 3.2,1.3131112551436306 0.0 0,1 -33.959145,-15.366009" />
      <path d="M -33.959145,-15.366009 A 3.2,1.3131112551436306 0.0 0,1 -33.021887,-16.294519" />
      <line x1="8.838835" y1="-12.630221" x2="8.838835" y2="-10.889265" />
      <line x1="13.081475" y1="-14.313145" x2="13.081475" y2="-12.630221" />
      <line x1="12.374369" y1="18.939114" x2="52.820877" y2="2.342" />
      <path d="M 52.820877,2.342 A 3.0,1.2310418016971536 180.0 0,0 53.699556,1.471522" />
      <path d="M 53.699556,1.471522 A 3.0,1.2310418016971536 180.0 0,0 52.820877,0.601044" />
      <line x1="52.820877" y1="0.601044" x2="-8.131728" y2="-24.41069" />
      <path d="M -12.374369,-24.41069 A 3.0,1.2310418016971536 0.0 0,1 -8.131728,-24.41069" />
      <line x1="-26.763992" y1="-18.505948" x2="-12.374369" y2="-24.41069" />
      <line x1="-25.066935" y1="-17.809565" x2="-26.763992" y2="-18.505948" />
      <line x1="-49.462119" y1="-7.799068" x2="-51.159176" y2="-8.495451" />
      <line x1="-52.820877" y1="-7.813576" x2="-51.159176" y2="-8.495451" />
      <path d="M -52.820877,-7.813576 A 3.0,1.2310418016971536 180.0 0,0 -53.699556,-6.943098" />
      <path d="M -53.699556,-6.943098 A 3.0,1.2310418016971536 180.0 0,0 -52.820877,-6.07262" />
      <line x1="8.131728" y1="18.939114" x2="-52.820877" y2="-6.07262" />
      <path d="M 12.374369,18.939114 A 3.0,1.2310418016971536 0.0 0,1 8.131728,18.939114" />
      <line x1="15.62706" y1="-0.087048" x2="13.930004" y2="-0.78343" />
      <line x1="25.950819" y1="-4.323374" x2="15.62706" y2="-0.087048" />
      <line x1="15.62706" y1="-0.087048" x2="15.62706" y2="3.26222" />
      <line x1="-2.439518" y1="0.010363" x2="-0.742462" y2="-0.68602" />
      <line x1="-2.439518" y1="5.913033" x2="-2.439518" y2="0.010363" />
      <line x1="-2.439518" y1="0.010363" x2="-10.146982" y2="-3.152374" />
      <line x1="-14.849242" y1="-5.081934" x2="-13.152186" y2="-5.778316" />
      <line x1="-14.849242" y1="-0.547158" x2="-14.849242" y2="-5.081934" />
      <line x1="-14.849242" y1="-5.081934" x2="-20.364675" y2="-7.345176" />
      <line x1="-24.748737" y1="-9.144164" x2="-23.051681" y2="-9.840547" />
      <line x1="-24.748737" y1="-9.144164" x2="-30.26417" y2="-11.407407" />
      <line x1="-24.748737" y1="-4.609388" x2="-24.748737" y2="-9.144164" />
      <line x1="-49.462119" y1="-22.389938" x2="-51.159176" y2="-23.08632" />
      <line x1="-51.159176" y1="-23.08632" x2="-51.159176" y2="-8.495451" />
      <line x1="-39.491914" y1="-27.873949" x2="-51.159176" y2="-23.08632" />
      <line x1="-26.763992" y1="-33.096817" x2="-26.763992" y2="-18.505948" />
      <line x1="-39.491914" y1="-27.873949" x2="-39.491914" y2="-13.28308" />
      <line x1="-37.794857" y1="-12.586697" x2="-39.491914" y2="-13.28308" />
      <line x1="-26.763992" y1="-33.096817" x2="-38.431254" y2="-28.309188" />
      <line x1="-36.734197" y1="-27.612806" x2="-38.431254" y2="-28.309188" />
      <line x1="-39.491914" y1="-13.28308" x2="-38.431254" y2="-13.718319" />
      <line x1="-36.734197" y1="-13.021936" x2="-38.431254" y2="-13.718319" />
      <line x1="-38.431254" y1="-28.309188" x2="-38.431254" y2="-13.718319" />
      <line x1="-13.859293" y1="-38.392225" x2="-25.880108" y2="-33.459516" />
      <line x1="-24.183052" y1="-32.763134" x2="-25.880108" y2="-33.459516" />
      <line x1="-13.859293" y1="-38.392225" x2="-13.859293" y2="-24.713285" />
      <line x1="-13.859293" y1="-24.713285" x2="-25.880108" y2="-19.780576" />
      <line x1="-25.880108" y1="-33.459516" x2="-25.880108" y2="-19.780576" />
      <path d="M 53.699556,-18.590923 A 3.0,1.2310418016971536 180.0 0,0 52.820877,-19.461401" />
      <line x1="52.820877" y1="-19.461401" x2="-8.131728" y2="-44.473136" />
      <path d="M -52.820877,-27.876022 A 3.0,1.2310418016971536 180.0 0,0 -53.699556,-27.005544" />
      <path d="M -12.374369,-44.473136 A 3.0,1.2310418016971536 0.0 0,1 -8.131728,-44.473136" />
      <line x1="-52.820877" y1="-27.876022" x2="-12.374369" y2="-44.473136" />
      <path d="M -31.713739,-15.757724 A 1.35,0.5539688107637192 0.0 0,1 -29.409145,-15.366009" />
      <path d="M -29.409145,-15.366009 A 1.35,0.5539688107637192 0.0 0,1 -32.109145,-15.366009" />
      <path d="M -32.109145,-15.366009 A 1.35,0.5539688107637192 0.0 0,1 -31.713739,-15.757724" />
      <line x1="52.820877" y1="-19.461401" x2="52.820877" y2="0.601044" />
      <line x1="-8.131728" y1="-44.473136" x2="-8.131728" y2="-24.41069" />
      <line x1="-12.374369" y1="-44.473136" x2="-12.374369" y2="-24.41069" />
      <line x1="-52.820877" y1="-27.876022" x2="-52.820877" y2="-7.813576" />
      <line x1="13.453048" y1="-2.184485" x2="13.453048" y2="1.463232" />
      <line x1="7.053048" y1="-2.184485" x2="7.053048" y2="1.463232" />
      <line x1="-27.559145" y1="-19.013727" x2="-27.559145" y2="-15.366009" />
      <line x1="-33.959145" y1="-19.013727" x2="-33.959145" y2="-15.366009" />
      <line x1="53.699556" y1="-18.590923" x2="53.699556" y2="1.471522" />
      <line x1="-53.699556" y1="-27.005544" x2="-53.699556" y2="-6.943098" />
    </g>
    <g fill="none" stroke="rgb(158,173,183)" stroke-width="0.22" id="base_hidden" stroke-dasharray="1.397 0.6985">
      <path d="M 13.453048,-2.184485 A 3.2,1.3131112551436306 0.0 0,1 7.053048,-2.184485" />
      <line x1="10.253048" y1="0.543012" x2="13.453048" y2="-0.770099" />
      <line x1="29.769195" y1="-7.465385" x2="51.548084" y2="-16.402293" />
      <line x1="51.548084" y1="-16.402293" x2="-10.253048" y2="-41.762219" />
      <line x1="10.253048" y1="0.543012" x2="7.053048" y2="-0.770099" />
      <line x1="-27.672486" y1="-15.019627" x2="-33.959145" y2="-17.59934" />
      <line x1="-36.734197" y1="-18.738075" x2="-39.491914" y2="-19.869697" />
      <line x1="-47.54788" y1="-23.175441" x2="-51.548084" y2="-24.816913" />
      <line x1="-51.548084" y1="-24.816913" x2="-10.253048" y2="-41.762219" />
      <path d="M -27.559145,-19.013727 A 3.2,1.3131112551436306 0.0 0,1 -33.959145,-19.013727" />
      <line x1="-7.495332" y1="-22.756782" x2="-7.424621" y2="-22.785798" />
      <line x1="-7.424621" y1="-22.785798" x2="15.202796" y2="-13.500699" />
      <line x1="15.132085" y1="-13.471683" x2="15.202796" y2="-13.500699" />
      <path d="M 42.638539,-17.330803 A 3.2,1.3131112551436306 0.0 0,1 48.101281,-16.402293" />
      <path d="M 48.101281,-16.402293 A 3.2,1.3131112551436306 0.0 0,1 41.701281,-16.402293" />
      <path d="M 41.701281,-16.402293 A 3.2,1.3131112551436306 0.0 0,1 42.638539,-17.330803" />
      <line x1="-5.303301" y1="-23.656276" x2="17.324116" y2="-14.371177" />
      <line x1="-5.303301" y1="-23.656276" x2="-3.181981" y2="-24.526754" />
      <line x1="-3.181981" y1="-24.526754" x2="19.445436" y2="-15.241655" />
      <line x1="17.324116" y1="-14.371177" x2="19.445436" y2="-15.241655" />
      <line x1="-1.06066" y1="-25.397232" x2="21.566757" y2="-16.112133" />
      <line x1="-1.06066" y1="-25.397232" x2="1.06066" y2="-26.26771" />
      <line x1="1.06066" y1="-26.26771" x2="23.688077" y2="-16.982611" />
      <line x1="21.566757" y1="-16.112133" x2="23.688077" y2="-16.982611" />
      <line x1="3.181981" y1="-27.138188" x2="25.809398" y2="-17.853089" />
      <line x1="3.181981" y1="-27.138188" x2="5.303301" y2="-28.008666" />
      <line x1="5.303301" y1="-28.008666" x2="27.930718" y2="-18.723567" />
      <line x1="25.809398" y1="-17.853089" x2="27.930718" y2="-18.723567" />
      <path d="M 1.626346,-34.160044 A 3.2,1.3131112551436306 0.0 0,1 7.089087,-33.231534" />
      <path d="M 7.089087,-33.231534 A 3.2,1.3131112551436306 0.0 0,1 0.689087,-33.231534" />
      <path d="M 0.689087,-33.231534 A 3.2,1.3131112551436306 0.0 0,1 1.626346,-34.160044" />
      <line x1="10.253048" y1="0.543012" x2="10.253048" y2="2.776343" />
      <line x1="51.548084" y1="-16.402293" x2="51.548084" y2="1.471522" />
      <line x1="-10.253048" y1="-41.762219" x2="-10.253048" y2="-23.888404" />
      <line x1="-51.548084" y1="-24.816913" x2="-51.548084" y2="-6.943098" />
      <line x1="-37.794857" y1="-27.177567" x2="-39.491914" y2="-26.481184" />
      <line x1="-25.066935" y1="-32.400435" x2="-25.066935" y2="-17.809565" />
      <line x1="-37.794857" y1="-27.177567" x2="-37.794857" y2="-12.586697" />
      <line x1="-25.066935" y1="-32.400435" x2="-26.763992" y2="-31.704053" />
      <line x1="-12.162237" y1="-37.695843" x2="-13.859293" y2="-36.99946" />
      <line x1="-12.162237" y1="-37.695843" x2="-12.162237" y2="-24.016903" />
      <line x1="-12.162237" y1="-24.016903" x2="-24.183052" y2="-19.084194" />
      <line x1="-24.183052" y1="-20.476959" x2="-24.183052" y2="-19.084194" />
      <line x1="-18.031223" y1="-20.622038" x2="-18.031223" y2="-18.433408" />
      <line x1="4.596194" y1="-11.33694" x2="4.596194" y2="-10.889265" />
      <line x1="-18.031223" y1="-20.622038" x2="4.596194" y2="-11.33694" />
      <line x1="-15.909903" y1="-21.492516" x2="-15.909903" y2="-19.303886" />
      <line x1="-18.031223" y1="-20.622038" x2="-15.909903" y2="-21.492516" />
      <line x1="6.717514" y1="-12.207418" x2="6.717514" y2="-10.018787" />
      <line x1="-15.909903" y1="-21.492516" x2="6.717514" y2="-12.207418" />
      <line x1="4.596194" y1="-11.33694" x2="6.717514" y2="-12.207418" />
      <line x1="-13.788582" y1="-22.362994" x2="-13.788582" y2="-20.174364" />
      <line x1="8.838835" y1="-13.077896" x2="8.838835" y2="-12.630221" />
      <line x1="-13.788582" y1="-22.362994" x2="8.838835" y2="-13.077896" />
      <line x1="-11.667262" y1="-23.233472" x2="-11.667262" y2="-21.044842" />
      <line x1="-13.788582" y1="-22.362994" x2="-11.667262" y2="-23.233472" />
      <line x1="10.960155" y1="-13.948374" x2="10.960155" y2="-11.759743" />
      <line x1="-11.667262" y1="-23.233472" x2="10.960155" y2="-13.948374" />
      <line x1="8.838835" y1="-13.077896" x2="10.960155" y2="-13.948374" />
      <line x1="-9.545942" y1="-24.10395" x2="-9.545942" y2="-21.91532" />
      <line x1="13.081475" y1="-14.818852" x2="13.081475" y2="-14.313145" />
      <line x1="-9.545942" y1="-24.10395" x2="13.081475" y2="-14.818852" />
      <line x1="-7.424621" y1="-24.974429" x2="-7.424621" y2="-22.785798" />
      <line x1="-9.545942" y1="-24.10395" x2="-7.424621" y2="-24.974429" />
      <line x1="15.202796" y1="-15.68933" x2="15.202796" y2="-13.500699" />
      <line x1="-7.424621" y1="-24.974429" x2="15.202796" y2="-15.68933" />
      <line x1="13.081475" y1="-14.818852" x2="15.202796" y2="-15.68933" />
      <path d="M 42.638539,-13.683085 A 3.2,1.3131112551436306 0.0 0,1 48.101281,-12.754575" />
      <path d="M 48.101281,-12.754575 A 3.2,1.3131112551436306 0.0 0,1 41.701281,-12.754575" />
      <path d="M 41.701281,-12.754575 A 3.2,1.3131112551436306 0.0 0,1 42.638539,-13.683085" />
      <line x1="-5.303301" y1="-25.844907" x2="-5.303301" y2="-23.656276" />
      <line x1="17.324116" y1="-16.559808" x2="17.324116" y2="-14.371177" />
      <line x1="-5.303301" y1="-25.844907" x2="17.324116" y2="-16.559808" />
      <line x1="-3.181981" y1="-26.715385" x2="-3.181981" y2="-24.526754" />
      <line x1="-5.303301" y1="-25.844907" x2="-3.181981" y2="-26.715385" />
      <line x1="19.445436" y1="-17.430286" x2="19.445436" y2="-15.241655" />
      <line x1="-3.181981" y1="-26.715385" x2="19.445436" y2="-17.430286" />
      <line x1="17.324116" y1="-16.559808" x2="19.445436" y2="-17.430286" />
      <line x1="-1.06066" y1="-27.585863" x2="-1.06066" y2="-25.397232" />
      <line x1="21.566757" y1="-18.300764" x2="21.566757" y2="-16.112133" />
      <line x1="-1.06066" y1="-27.585863" x2="21.566757" y2="-18.300764" />
      <line x1="1.06066" y1="-28.456341" x2="1.06066" y2="-26.26771" />
      <line x1="-1.06066" y1="-27.585863" x2="1.06066" y2="-28.456341" />
      <line x1="23.688077" y1="-19.171242" x2="23.688077" y2="-16.982611" />
      <line x1="1.06066" y1="-28.456341" x2="23.688077" y2="-19.171242" />
      <line x1="21.566757" y1="-18.300764" x2="23.688077" y2="-19.171242" />
      <line x1="3.181981" y1="-29.326819" x2="3.181981" y2="-27.138188" />
      <line x1="25.809398" y1="-20.04172" x2="25.809398" y2="-17.853089" />
      <line x1="3.181981" y1="-29.326819" x2="25.809398" y2="-20.04172" />
      <line x1="5.303301" y1="-30.197297" x2="5.303301" y2="-28.008666" />
      <line x1="3.181981" y1="-29.326819" x2="5.303301" y2="-30.197297" />
      <line x1="27.930718" y1="-20.912198" x2="27.930718" y2="-18.723567" />
      <line x1="5.303301" y1="-30.197297" x2="27.930718" y2="-20.912198" />
      <line x1="25.809398" y1="-20.04172" x2="27.930718" y2="-20.912198" />
      <path d="M 1.626346,-30.512327 A 3.2,1.3131112551436306 0.0 0,1 7.089087,-29.583817" />
      <path d="M 7.089087,-29.583817 A 3.2,1.3131112551436306 0.0 0,1 0.689087,-29.583817" />
      <path d="M 0.689087,-29.583817 A 3.2,1.3131112551436306 0.0 0,1 1.626346,-30.512327" />
      <path d="M 9.298454,-4.764831 A 1.35,0.5539688107637192 0.0 0,1 11.603048,-4.373116" />
      <path d="M 11.603048,-4.373116 A 1.35,0.5539688107637192 0.0 0,1 8.903048,-4.373116" />
      <path d="M 8.903048,-4.373116 A 1.35,0.5539688107637192 0.0 0,1 9.298454,-4.764831" />
      <line x1="27.647875" y1="-5.019757" x2="25.950819" y2="-5.716139" />
      <line x1="27.647875" y1="-5.019757" x2="25.950819" y2="-4.323374" />
      <line x1="27.647875" y1="-0.277724" x2="25.950819" y2="-0.974106" />
      <line x1="27.647875" y1="-5.019757" x2="27.647875" y2="-0.277724" />
      <line x1="15.62706" y1="4.654985" x2="13.930004" y2="3.958602" />
      <line x1="27.647875" y1="-0.277724" x2="15.62706" y2="4.654985" />
      <line x1="15.62706" y1="3.26222" x2="15.62706" y2="4.654985" />
      <line x1="-2.439518" y1="7.305798" x2="-0.742462" y2="6.609415" />
      <line x1="-11.844039" y1="3.446678" x2="-10.146982" y2="2.750296" />
      <line x1="-2.439518" y1="7.305798" x2="-11.844039" y2="3.446678" />
      <line x1="-2.439518" y1="7.305798" x2="-2.439518" y2="5.913033" />
      <line x1="-11.844039" y1="-3.848756" x2="-10.146982" y2="-4.545139" />
      <line x1="-11.844039" y1="3.446678" x2="-11.844039" y2="-3.848756" />
      <line x1="-10.146982" y1="-3.152374" x2="-11.844039" y2="-3.848756" />
      <line x1="-14.849242" y1="0.845607" x2="-13.152186" y2="0.149225" />
      <line x1="-22.061732" y1="-2.114018" x2="-20.364675" y2="-2.8104" />
      <line x1="-14.849242" y1="0.845607" x2="-22.061732" y2="-2.114018" />
      <line x1="-14.849242" y1="0.845607" x2="-14.849242" y2="-0.547158" />
      <line x1="-22.061732" y1="-8.041559" x2="-20.364675" y2="-8.737941" />
      <line x1="-22.061732" y1="-2.114018" x2="-22.061732" y2="-8.041559" />
      <line x1="-20.364675" y1="-7.345176" x2="-22.061732" y2="-8.041559" />
      <line x1="-24.748737" y1="-3.216623" x2="-23.051681" y2="-3.913006" />
      <line x1="-31.961227" y1="-6.176249" x2="-30.26417" y2="-6.872631" />
      <line x1="-24.748737" y1="-3.216623" x2="-31.961227" y2="-6.176249" />
      <line x1="-31.961227" y1="-12.103789" x2="-30.26417" y2="-12.800172" />
      <line x1="-31.961227" y1="-6.176249" x2="-31.961227" y2="-12.103789" />
      <line x1="-30.26417" y1="-11.407407" x2="-31.961227" y2="-12.103789" />
      <line x1="-24.748737" y1="-3.216623" x2="-24.748737" y2="-4.609388" />
      <line x1="-37.794857" y1="-27.177567" x2="-39.491914" y2="-27.873949" />
      <line x1="-25.066935" y1="-32.400435" x2="-26.763992" y2="-33.096817" />
      <line x1="-12.162237" y1="-37.695843" x2="-13.859293" y2="-38.392225" />
      <line x1="-12.162237" y1="-24.016903" x2="-13.859293" y2="-24.713285" />
      <line x1="-24.183052" y1="-19.084194" x2="-25.880108" y2="-19.780576" />
      <line x1="12.374369" y1="-1.123331" x2="52.820877" y2="-17.720445" />
      <path d="M 12.374369,-1.123331 A 3.0,1.2310418016971536 0.0 0,1 8.131728,-1.123331" />
      <path d="M 52.820877,-17.720445 A 3.0,1.2310418016971536 180.0 0,0 53.699556,-18.590923" />
      <line x1="8.131728" y1="-1.123331" x2="-52.820877" y2="-26.135066" />
      <path d="M -53.699556,-27.005544 A 3.0,1.2310418016971536 180.0 0,0 -52.820877,-26.135066" />
      <path d="M -31.713739,-21.594072 A 1.35,0.5539688107637192 0.0 0,1 -29.409145,-21.202357" />
      <path d="M -29.409145,-21.202357 A 1.35,0.5539688107637192 0.0 0,1 -32.109145,-21.202357" />
      <path d="M -32.109145,-21.202357 A 1.35,0.5539688107637192 0.0 0,1 -31.713739,-21.594072" />
      <path d="M 43.946686,-18.982638 A 1.35,0.5539688107637192 0.0 0,1 46.251281,-18.590923" />
      <path d="M 46.251281,-18.590923 A 1.35,0.5539688107637192 0.0 0,1 43.551281,-18.590923" />
      <path d="M 43.551281,-18.590923 A 1.35,0.5539688107637192 0.0 0,1 43.946686,-18.982638" />
      <path d="M 2.934493,-35.81188 A 1.35,0.5539688107637192 0.0 0,1 5.239087,-35.420165" />
      <path d="M 5.239087,-35.420165 A 1.35,0.5539688107637192 0.0 0,1 2.539087,-35.420165" />
      <path d="M 2.539087,-35.420165 A 1.35,0.5539688107637192 0.0 0,1 2.934493,-35.81188" />
      <path d="M 43.946686,-13.14629 A 1.35,0.5539688107637192 0.0 0,1 46.251281,-12.754575" />
      <path d="M 46.251281,-12.754575 A 1.35,0.5539688107637192 0.0 0,1 43.551281,-12.754575" />
      <path d="M 43.551281,-12.754575 A 1.35,0.5539688107637192 0.0 0,1 43.946686,-13.14629" />
      <path d="M 2.934493,-29.975532 A 1.35,0.5539688107637192 0.0 0,1 5.239087,-29.583817" />
      <path d="M 5.239087,-29.583817 A 1.35,0.5539688107637192 0.0 0,1 2.539087,-29.583817" />
      <path d="M 2.539087,-29.583817 A 1.35,0.5539688107637192 0.0 0,1 2.934493,-29.975532" />
      <line x1="48.101281" y1="-16.402293" x2="48.101281" y2="-12.754575" />
      <line x1="41.701281" y1="-16.402293" x2="41.701281" y2="-12.754575" />
      <line x1="7.089087" y1="-33.231534" x2="7.089087" y2="-29.583817" />
      <line x1="0.689087" y1="-33.231534" x2="0.689087" y2="-29.583817" />
      <line x1="11.603048" y1="-4.373116" x2="11.603048" y2="1.463232" />
      <line x1="8.903048" y1="-4.373116" x2="8.903048" y2="1.463232" />
      <line x1="-29.409145" y1="-21.202357" x2="-29.409145" y2="-15.366009" />
      <line x1="-32.109145" y1="-21.202357" x2="-32.109145" y2="-15.366009" />
      <line x1="46.251281" y1="-18.590923" x2="46.251281" y2="-12.754575" />
      <line x1="43.551281" y1="-18.590923" x2="43.551281" y2="-12.754575" />
      <line x1="5.239087" y1="-35.420165" x2="5.239087" y2="-29.583817" />
      <line x1="2.539087" y1="-35.420165" x2="2.539087" y2="-29.583817" />
      <line x1="12.374369" y1="-1.123331" x2="12.374369" y2="18.939114" />
      <line x1="52.820877" y1="-17.720445" x2="52.820877" y2="2.342" />
      <line x1="-52.820877" y1="-26.135066" x2="-52.820877" y2="-6.07262" />
      <line x1="8.131728" y1="-1.123331" x2="8.131728" y2="18.939114" />
    </g>
    <g fill="none" stroke="rgb(30,107,45)" stroke-width="0.4" id="pcb_proxy_visible">
      <line x1="15.980613" y1="4.800064" x2="28.001429" y2="-0.132644" />
      <line x1="28.001429" y1="-2.329565" x2="28.001429" y2="-0.132644" />
      <line x1="15.980613" y1="4.800064" x2="13.303709" y2="3.701604" />
      <line x1="28.001429" y1="-0.132644" x2="25.324524" y2="-1.231105" />
      <line x1="10.253048" y1="4.953434" x2="49.851028" y2="-11.295488" />
      <line x1="49.851028" y1="-12.754575" x2="49.851028" y2="-11.295488" />
      <line x1="49.851028" y1="-12.754575" x2="-10.253048" y2="-37.418119" />
      <line x1="-11.313708" y1="-36.98288" x2="-10.253048" y2="-37.418119" />
      <line x1="49.851028" y1="-11.295488" x2="-10.253048" y2="-35.959032" />
      <line x1="10.253048" y1="4.953434" x2="0.106066" y2="0.789648" />
      <line x1="0.106066" y1="0.789648" x2="-9.298454" y2="-3.069471" />
      <line x1="-9.298454" y1="-3.069471" x2="-12.303658" y2="-4.302648" />
      <line x1="-12.303658" y1="-4.302648" x2="-19.516147" y2="-7.262274" />
      <line x1="-19.516147" y1="-7.262274" x2="-22.203153" y2="-8.364879" />
      <line x1="-22.203153" y1="-8.364879" x2="-29.415642" y2="-11.324504" />
      <line x1="-29.415642" y1="-11.324504" x2="-34.294679" y2="-13.326604" />
      <line x1="-11.313708" y1="-35.523793" x2="-10.253048" y2="-35.959032" />
      <path d="M 9.298454,2.530604 A 1.35,0.5539688107637192 0.0 0,1 11.603048,2.922319" />
      <path d="M 11.603048,2.922319 A 1.35,0.5539688107637192 0.0 0,1 8.903048,2.922319" />
      <path d="M 8.903048,2.922319 A 1.35,0.5539688107637192 0.0 0,1 9.298454,2.530604" />
      <path d="M -31.713739,-14.298638 A 1.35,0.5539688107637192 0.0 0,1 -29.409145,-13.906922" />
      <path d="M -29.409145,-13.906922 A 1.35,0.5539688107637192 0.0 0,1 -32.109145,-13.906922" />
      <path d="M -32.109145,-13.906922 A 1.35,0.5539688107637192 0.0 0,1 -31.713739,-14.298638" />
      <path d="M 43.946686,-11.687204 A 1.35,0.5539688107637192 0.0 0,1 46.251281,-11.295488" />
      <path d="M 46.251281,-11.295488 A 1.35,0.5539688107637192 0.0 0,1 43.551281,-11.295488" />
      <path d="M 43.551281,-11.295488 A 1.35,0.5539688107637192 0.0 0,1 43.946686,-11.687204" />
      <path d="M 2.934493,-28.516445 A 1.35,0.5539688107637192 0.0 0,1 5.239087,-28.12473" />
      <path d="M 5.239087,-28.12473 A 1.35,0.5539688107637192 0.0 0,1 2.539087,-28.12473" />
      <path d="M 2.539087,-28.12473 A 1.35,0.5539688107637192 0.0 0,1 2.934493,-28.516445" />
      <line x1="-10.253048" y1="-37.418119" x2="-10.253048" y2="-35.959032" />
      <line x1="-11.313708" y1="-37.347652" x2="-11.313708" y2="-36.98288" />
      <line x1="-11.313708" y1="-36.98288" x2="-11.313708" y2="-35.523793" />
      <line x1="-9.298454" y1="-3.069471" x2="-9.298454" y2="2.402105" />
      <line x1="0.106066" y1="6.261224" x2="-9.298454" y2="2.402105" />
      <line x1="0.106066" y1="0.789648" x2="0.106066" y2="6.261224" />
      <line x1="-19.516147" y1="-7.262274" x2="-19.516147" y2="-3.158592" />
      <line x1="-12.303658" y1="-0.198966" x2="-19.516147" y2="-3.158592" />
      <line x1="-12.303658" y1="-4.302648" x2="-12.303658" y2="-0.198966" />
      <line x1="-29.415642" y1="-11.324504" x2="-29.415642" y2="-7.220822" />
      <line x1="-22.203153" y1="-4.261197" x2="-29.415642" y2="-7.220822" />
      <line x1="-22.203153" y1="-8.364879" x2="-22.203153" y2="-4.261197" />
      <line x1="-48.613591" y1="-7.450877" x2="-36.946329" y2="-12.238506" />
      <line x1="-36.946329" y1="-13.108984" x2="-36.946329" y2="-12.238506" />
      <line x1="-35.885669" y1="-12.673745" x2="-24.218407" y2="-17.461374" />
      <line x1="-24.218407" y1="-19.098702" x2="-24.218407" y2="-17.461374" />
      <line x1="-23.334524" y1="-18.736003" x2="-11.313708" y2="-23.668711" />
      <line x1="-11.313708" y1="-35.523793" x2="-11.313708" y2="-23.668711" />
      <line x1="-2.793072" y1="7.450877" x2="0.106066" y2="6.261224" />
      <line x1="-12.197592" y1="-3.703677" x2="-12.197592" y2="3.591758" />
      <line x1="-12.197592" y1="3.591758" x2="-9.298454" y2="2.402105" />
      <line x1="-12.197592" y1="-3.703677" x2="-11.52079" y2="-3.981401" />
      <line x1="-15.202796" y1="0.990687" x2="-12.303658" y2="-0.198966" />
      <line x1="-22.415285" y1="-4.174149" x2="-22.415285" y2="-1.968938" />
      <line x1="-22.415285" y1="-1.968938" x2="-19.516147" y2="-3.158592" />
      <line x1="-22.203153" y1="-7.983527" x2="-21.738483" y2="-8.174203" />
      <line x1="-25.102291" y1="-3.071544" x2="-22.203153" y2="-4.261197" />
      <line x1="-32.31478" y1="-11.95871" x2="-32.31478" y2="-6.031169" />
      <line x1="-32.31478" y1="-6.031169" x2="-29.415642" y2="-7.220822" />
      <line x1="-32.31478" y1="-11.95871" x2="-31.637978" y2="-12.236434" />
      <line x1="-51.512729" y1="-23.2314" x2="-51.512729" y2="-8.64053" />
      <line x1="-48.613591" y1="-7.450877" x2="-51.512729" y2="-8.64053" />
      <line x1="-38.784807" y1="-27.58379" x2="-39.845467" y2="-28.019029" />
      <line x1="-39.845467" y1="-28.019029" x2="-39.845467" y2="-13.42816" />
      <line x1="-36.946329" y1="-12.238506" x2="-39.845467" y2="-13.42816" />
      <line x1="-51.512729" y1="-23.2314" x2="-39.845467" y2="-28.019029" />
      <line x1="-38.784807" y1="-28.454268" x2="-38.784807" y2="-13.863399" />
      <line x1="-35.885669" y1="-12.673745" x2="-38.784807" y2="-13.863399" />
      <line x1="-26.233662" y1="-32.879198" x2="-27.117545" y2="-33.241897" />
      <line x1="-27.117545" y1="-33.241897" x2="-27.117545" y2="-18.651028" />
      <line x1="-24.218407" y1="-17.461374" x2="-27.117545" y2="-18.651028" />
      <line x1="-38.784807" y1="-28.454268" x2="-27.117545" y2="-33.241897" />
      <line x1="-26.233662" y1="-33.604596" x2="-26.233662" y2="-19.925656" />
      <line x1="-23.334524" y1="-18.736003" x2="-26.233662" y2="-19.925656" />
      <line x1="-11.313708" y1="-37.347652" x2="-14.212846" y2="-38.537305" />
      <line x1="-14.212846" y1="-38.537305" x2="-14.212846" y2="-24.858365" />
      <line x1="-11.313708" y1="-23.668711" x2="-14.212846" y2="-24.858365" />
      <line x1="-26.233662" y1="-33.604596" x2="-14.212846" y2="-38.537305" />
      <line x1="-2.793072" y1="7.450877" x2="-12.197592" y2="3.591758" />
      <line x1="-15.202796" y1="0.990687" x2="-22.415285" y2="-1.968938" />
      <line x1="-25.102291" y1="-3.071544" x2="-32.31478" y2="-6.031169" />
      <line x1="-51.512729" y1="-8.64053" x2="-39.845467" y2="-13.42816" />
      <line x1="-38.784807" y1="-13.863399" x2="-27.117545" y2="-18.651028" />
      <line x1="-26.233662" y1="-19.925656" x2="-14.212846" y2="-24.858365" />
    </g>
    <g fill="none" stroke="rgb(158,183,158)" stroke-width="0.22" id="pcb_proxy_hidden" stroke-dasharray="1.397 0.6985">
      <line x1="15.980613" y1="0.058032" x2="15.980613" y2="4.800064" />
      <line x1="28.001429" y1="-4.874677" x2="28.001429" y2="-2.329565" />
      <line x1="15.980613" y1="0.058032" x2="28.001429" y2="-4.874677" />
      <line x1="15.980613" y1="0.058032" x2="13.081475" y2="-1.131621" />
      <line x1="13.081475" y1="-1.131621" x2="13.081475" y2="2.33371" />
      <line x1="13.081475" y1="2.33371" x2="13.081475" y2="3.610411" />
      <line x1="13.303709" y1="3.701604" x2="13.081475" y2="3.610411" />
      <line x1="25.324524" y1="-1.231105" x2="25.102291" y2="-1.322298" />
      <line x1="13.081475" y1="3.610411" x2="25.102291" y2="-1.322298" />
      <line x1="28.001429" y1="-4.874677" x2="25.102291" y2="-6.06433" />
      <line x1="25.102291" y1="-6.06433" x2="25.102291" y2="-2.598999" />
      <line x1="25.102291" y1="-2.598999" x2="25.102291" y2="-1.322298" />
      <line x1="13.081475" y1="-1.131621" x2="25.102291" y2="-6.06433" />
      <line x1="13.081475" y1="2.33371" x2="25.102291" y2="-2.598999" />
      <line x1="25.102291" y1="-2.598999" x2="49.851028" y2="-12.754575" />
      <line x1="10.253048" y1="3.494347" x2="13.081475" y2="2.33371" />
      <line x1="10.253048" y1="3.494347" x2="10.253048" y2="4.953434" />
      <line x1="10.253048" y1="3.494347" x2="0.106066" y2="-0.669439" />
      <line x1="0.106066" y1="-0.669439" x2="-9.298454" y2="-4.528558" />
      <line x1="-9.298454" y1="-4.528558" x2="-12.303658" y2="-5.761735" />
      <line x1="-12.303658" y1="-5.761735" x2="-19.516147" y2="-8.721361" />
      <line x1="-19.516147" y1="-8.721361" x2="-22.203153" y2="-9.823966" />
      <line x1="-22.203153" y1="-9.823966" x2="-29.415642" y2="-12.783591" />
      <line x1="-29.415642" y1="-12.783591" x2="-49.851028" y2="-21.169196" />
      <line x1="-49.851028" y1="-21.169196" x2="-48.613591" y2="-21.676975" />
      <line x1="-48.613591" y1="-21.676975" x2="-36.946329" y2="-26.464604" />
      <line x1="-36.946329" y1="-26.464604" x2="-35.885669" y2="-26.899843" />
      <line x1="-35.885669" y1="-26.899843" x2="-24.218407" y2="-31.687472" />
      <line x1="-24.218407" y1="-31.687472" x2="-23.334524" y2="-32.050171" />
      <line x1="-23.334524" y1="-32.050171" x2="-11.313708" y2="-36.98288" />
      <path d="M 9.298454,1.071517 A 1.35,0.5539688107637192 0.0 0,1 11.603048,1.463232" />
      <path d="M 11.603048,1.463232 A 1.35,0.5539688107637192 0.0 0,1 8.903048,1.463232" />
      <path d="M 8.903048,1.463232 A 1.35,0.5539688107637192 0.0 0,1 9.298454,1.071517" />
      <path d="M -31.713739,-15.757724 A 1.35,0.5539688107637192 0.0 0,1 -29.409145,-15.366009" />
      <path d="M -29.409145,-15.366009 A 1.35,0.5539688107637192 0.0 0,1 -32.109145,-15.366009" />
      <path d="M -32.109145,-15.366009 A 1.35,0.5539688107637192 0.0 0,1 -31.713739,-15.757724" />
      <path d="M 43.946686,-13.14629 A 1.35,0.5539688107637192 0.0 0,1 46.251281,-12.754575" />
      <path d="M 46.251281,-12.754575 A 1.35,0.5539688107637192 0.0 0,1 43.551281,-12.754575" />
      <path d="M 43.551281,-12.754575 A 1.35,0.5539688107637192 0.0 0,1 43.946686,-13.14629" />
      <path d="M 2.934493,-29.975532 A 1.35,0.5539688107637192 0.0 0,1 5.239087,-29.583817" />
      <path d="M 5.239087,-29.583817 A 1.35,0.5539688107637192 0.0 0,1 2.539087,-29.583817" />
      <path d="M 2.539087,-29.583817 A 1.35,0.5539688107637192 0.0 0,1 2.934493,-29.975532" />
      <line x1="-34.294679" y1="-13.326604" x2="-49.851028" y2="-19.710109" />
      <line x1="-49.851028" y1="-19.710109" x2="-48.613591" y2="-20.217888" />
      <line x1="-48.613591" y1="-20.217888" x2="-36.946329" y2="-25.005517" />
      <line x1="-36.946329" y1="-25.005517" x2="-35.885669" y2="-25.440756" />
      <line x1="-35.885669" y1="-25.440756" x2="-24.218407" y2="-30.228385" />
      <line x1="-24.218407" y1="-30.228385" x2="-23.334524" y2="-30.591084" />
      <line x1="-23.334524" y1="-30.591084" x2="-11.313708" y2="-35.523793" />
      <line x1="0.106066" y1="-0.669439" x2="0.106066" y2="0.789648" />
      <line x1="-9.298454" y1="-4.89333" x2="-9.298454" y2="-4.528558" />
      <line x1="0.106066" y1="-1.034211" x2="0.106066" y2="-0.669439" />
      <line x1="0.106066" y1="-1.034211" x2="-9.298454" y2="-4.89333" />
      <line x1="-12.303658" y1="-5.761735" x2="-12.303658" y2="-4.302648" />
      <line x1="-9.298454" y1="-4.528558" x2="-9.298454" y2="-3.069471" />
      <line x1="-19.516147" y1="-9.086132" x2="-19.516147" y2="-8.721361" />
      <line x1="-12.303658" y1="-6.126507" x2="-12.303658" y2="-5.761735" />
      <line x1="-12.303658" y1="-6.126507" x2="-19.516147" y2="-9.086132" />
      <line x1="-22.203153" y1="-9.823966" x2="-22.203153" y2="-8.364879" />
      <line x1="-19.516147" y1="-8.721361" x2="-19.516147" y2="-7.262274" />
      <line x1="-29.415642" y1="-13.148363" x2="-29.415642" y2="-12.783591" />
      <line x1="-22.203153" y1="-10.188738" x2="-22.203153" y2="-9.823966" />
      <line x1="-22.203153" y1="-10.188738" x2="-29.415642" y2="-13.148363" />
      <line x1="-49.851028" y1="-21.169196" x2="-49.851028" y2="-19.710109" />
      <line x1="-29.415642" y1="-12.783591" x2="-29.415642" y2="-11.324504" />
      <line x1="-48.613591" y1="-21.676975" x2="-48.613591" y2="-20.217888" />
      <line x1="-48.613591" y1="-22.041747" x2="-48.613591" y2="-21.676975" />
      <line x1="-36.946329" y1="-26.829376" x2="-36.946329" y2="-26.464604" />
      <line x1="-48.613591" y1="-22.041747" x2="-36.946329" y2="-26.829376" />
      <line x1="-35.885669" y1="-26.899843" x2="-35.885669" y2="-25.440756" />
      <line x1="-36.946329" y1="-26.464604" x2="-36.946329" y2="-25.005517" />
      <line x1="-35.885669" y1="-27.264615" x2="-35.885669" y2="-26.899843" />
      <line x1="-24.218407" y1="-32.052244" x2="-24.218407" y2="-31.687472" />
      <line x1="-35.885669" y1="-27.264615" x2="-24.218407" y2="-32.052244" />
      <line x1="-23.334524" y1="-32.050171" x2="-23.334524" y2="-30.591084" />
      <line x1="-24.218407" y1="-31.687472" x2="-24.218407" y2="-30.228385" />
      <line x1="-23.334524" y1="-32.414943" x2="-23.334524" y2="-32.050171" />
      <line x1="-23.334524" y1="-32.414943" x2="-11.313708" y2="-37.347652" />
      <line x1="-48.613591" y1="-20.217888" x2="-48.613591" y2="-7.450877" />
      <line x1="-36.946329" y1="-25.005517" x2="-36.946329" y2="-13.108984" />
      <line x1="-35.885669" y1="-25.440756" x2="-35.885669" y2="-12.673745" />
      <line x1="-24.218407" y1="-30.228385" x2="-24.218407" y2="-19.098702" />
      <line x1="-23.334524" y1="-30.591084" x2="-23.334524" y2="-18.736003" />
      <line x1="-2.793072" y1="0.155443" x2="-2.793072" y2="7.450877" />
      <line x1="-2.793072" y1="0.155443" x2="0.106066" y2="-1.034211" />
      <line x1="-11.52079" y1="-3.981401" x2="-9.298454" y2="-4.89333" />
      <line x1="-2.793072" y1="0.155443" x2="-12.197592" y2="-3.703677" />
      <line x1="-15.202796" y1="-4.936854" x2="-15.202796" y2="0.990687" />
      <line x1="-15.202796" y1="-4.936854" x2="-12.303658" y2="-6.126507" />
      <line x1="-22.415285" y1="-7.896479" x2="-22.415285" y2="-4.174149" />
      <line x1="-22.415285" y1="-7.896479" x2="-22.203153" y2="-7.983527" />
      <line x1="-21.738483" y1="-8.174203" x2="-19.516147" y2="-9.086132" />
      <line x1="-15.202796" y1="-4.936854" x2="-22.415285" y2="-7.896479" />
      <line x1="-25.102291" y1="-8.999085" x2="-25.102291" y2="-3.071544" />
      <line x1="-25.102291" y1="-8.999085" x2="-22.203153" y2="-10.188738" />
      <line x1="-31.637978" y1="-12.236434" x2="-29.415642" y2="-13.148363" />
      <line x1="-25.102291" y1="-8.999085" x2="-32.31478" y2="-11.95871" />
      <line x1="-48.613591" y1="-22.041747" x2="-51.512729" y2="-23.2314" />
      <line x1="-36.946329" y1="-26.829376" x2="-38.784807" y2="-27.58379" />
      <line x1="-35.885669" y1="-27.264615" x2="-38.784807" y2="-28.454268" />
      <line x1="-24.218407" y1="-32.052244" x2="-26.233662" y2="-32.879198" />
      <line x1="-23.334524" y1="-32.414943" x2="-26.233662" y2="-33.604596" />
      <line x1="11.603048" y1="1.463232" x2="11.603048" y2="2.922319" />
      <line x1="8.903048" y1="1.463232" x2="8.903048" y2="2.922319" />
      <line x1="-29.409145" y1="-15.366009" x2="-29.409145" y2="-13.906922" />
      <line x1="-32.109145" y1="-15.366009" x2="-32.109145" y2="-13.906922" />
      <line x1="46.251281" y1="-12.754575" x2="46.251281" y2="-11.295488" />
      <line x1="43.551281" y1="-12.754575" x2="43.551281" y2="-11.295488" />
      <line x1="5.239087" y1="-29.583817" x2="5.239087" y2="-28.12473" />
      <line x1="2.539087" y1="-29.583817" x2="2.539087" y2="-28.12473" />
    </g>
    <g fill="none" stroke="rgb(127,45,45)" stroke-width="0.4" id="lid_visible">
      <line x1="12.374369" y1="29.335109" x2="52.820877" y2="12.737995" />
      <path d="M 12.374369,29.335109 A 3.0,1.2310418016971536 0.0 0,1 8.131728,29.335109" />
      <path d="M 52.820877,12.737995 A 3.0,1.2310418016971536 180.0 0,0 53.699556,11.867517" />
      <path d="M 53.699556,11.867517 A 3.0,1.2310418016971536 180.0 0,0 52.820877,10.997039" />
      <line x1="8.131728" y1="29.335109" x2="-52.820877" y2="4.323374" />
      <line x1="52.820877" y1="10.997039" x2="-8.131728" y2="-14.014696" />
      <path d="M -52.820877,2.582418 A 3.0,1.2310418016971536 180.0 0,0 -53.699556,3.452896" />
      <path d="M -53.699556,3.452896 A 3.0,1.2310418016971536 180.0 0,0 -52.820877,4.323374" />
      <path d="M -12.374369,-14.014696 A 3.0,1.2310418016971536 0.0 0,1 -8.131728,-14.014696" />
      <line x1="-52.820877" y1="2.582418" x2="-12.374369" y2="-14.014696" />
      <line x1="-33.234019" y1="5.338932" x2="5.656854" y2="21.297695" />
      <line x1="-33.234019" y1="5.338932" x2="-31.112698" y2="4.468454" />
      <line x1="-31.112698" y1="4.468454" x2="7.778175" y2="20.427217" />
      <line x1="5.656854" y1="21.297695" x2="7.778175" y2="20.427217" />
      <line x1="-28.991378" y1="3.597976" x2="9.899495" y2="19.556739" />
      <line x1="-28.991378" y1="3.597976" x2="-26.870058" y2="2.727498" />
      <line x1="-26.870058" y1="2.727498" x2="12.020815" y2="18.686261" />
      <line x1="9.899495" y1="19.556739" x2="12.020815" y2="18.686261" />
      <line x1="-24.748737" y1="1.85702" x2="14.142136" y2="17.815783" />
      <line x1="-24.748737" y1="1.85702" x2="-22.627417" y2="0.986542" />
      <line x1="-22.627417" y1="0.986542" x2="16.263456" y2="16.945305" />
      <line x1="14.142136" y1="17.815783" x2="16.263456" y2="16.945305" />
      <line x1="-20.506097" y1="0.116064" x2="18.384776" y2="16.074827" />
      <line x1="-20.506097" y1="0.116064" x2="-18.384776" y2="-0.754414" />
      <line x1="-18.384776" y1="-0.754414" x2="20.506097" y2="15.204349" />
      <line x1="18.384776" y1="16.074827" x2="20.506097" y2="15.204349" />
      <line x1="31.112698" y1="10.851959" x2="33.198663" y2="9.995989" />
      <line x1="-7.778175" y1="-5.106804" x2="31.112698" y2="10.851959" />
      <line x1="-7.778175" y1="-5.106804" x2="-5.656854" y2="-5.977282" />
      <line x1="-5.656854" y1="-5.977282" x2="2.12132" y2="-2.78553" />
      <line x1="2.12132" y1="-2.78553" x2="8.096373" y2="-5.237376" />
      <line x1="8.096373" y1="-5.237376" x2="46.280139" y2="10.431228" />
      <line x1="40.269731" y1="12.897582" x2="46.280139" y2="10.431228" />
      <line x1="33.198663" y1="9.995989" x2="40.269731" y2="12.897582" />
      <line x1="-16.263456" y1="-1.624892" x2="22.627417" y2="14.333871" />
      <line x1="-16.263456" y1="-1.624892" x2="-14.142136" y2="-2.49537" />
      <line x1="-14.142136" y1="-2.49537" x2="24.748737" y2="13.463393" />
      <line x1="22.627417" y1="14.333871" x2="24.748737" y2="13.463393" />
      <line x1="-12.020815" y1="-3.365848" x2="26.870058" y2="12.592915" />
      <line x1="-12.020815" y1="-3.365848" x2="-9.899495" y2="-4.236326" />
      <line x1="-9.899495" y1="-4.236326" x2="28.991378" y2="11.722437" />
      <line x1="26.870058" y1="12.592915" x2="28.991378" y2="11.722437" />
      <path d="M 53.699556,9.678886 A 3.0,1.2310418016971536 180.0 0,0 52.820877,8.808408" />
      <line x1="52.820877" y1="8.808408" x2="-8.131728" y2="-16.203326" />
      <path d="M -52.820877,0.393788 A 3.0,1.2310418016971536 180.0 0,0 -53.699556,1.264266" />
      <path d="M -12.374369,-16.203326 A 3.0,1.2310418016971536 0.0 0,1 -8.131728,-16.203326" />
      <line x1="-52.820877" y1="0.393788" x2="-12.374369" y2="-16.203326" />
      <line x1="5.656854" y1="19.556739" x2="5.656854" y2="21.297695" />
      <line x1="9.899495" y1="17.815783" x2="9.899495" y2="19.556739" />
      <line x1="14.142136" y1="16.074827" x2="14.142136" y2="17.815783" />
      <line x1="18.384776" y1="14.333871" x2="18.384776" y2="16.074827" />
      <line x1="31.112698" y1="8.663329" x2="31.112698" y2="10.851959" />
      <line x1="33.198663" y1="9.995989" x2="33.198663" y2="7.807359" />
      <line x1="31.112698" y1="8.663329" x2="33.198663" y2="7.807359" />
      <line x1="2.666803" y1="-3.009367" x2="31.112698" y2="8.663329" />
      <line x1="40.269731" y1="10.708952" x2="40.269731" y2="12.897582" />
      <line x1="40.269731" y1="10.708952" x2="43.613336" y2="9.336913" />
      <line x1="33.198663" y1="7.807359" x2="40.269731" y2="10.708952" />
      <line x1="22.627417" y1="12.592915" x2="22.627417" y2="14.333871" />
      <line x1="26.870058" y1="10.851959" x2="26.870058" y2="12.592915" />
      <line x1="51.12382" y1="6.943098" x2="51.12382" y2="8.112026" />
      <line x1="-51.12382" y1="-1.471522" x2="-51.12382" y2="-0.302595" />
      <line x1="-10.253048" y1="-18.242732" x2="-10.253048" y2="-16.56389" />
      <line x1="-51.12382" y1="-1.471522" x2="-10.253048" y2="-18.242732" />
      <line x1="51.12382" y1="6.943098" x2="-10.253048" y2="-18.242732" />
      <line x1="39.693944" y1="10.472679" x2="43.037549" y2="9.10064" />
      <line x1="52.820877" y1="8.808408" x2="52.820877" y2="10.997039" />
      <line x1="-8.131728" y1="-16.203326" x2="-8.131728" y2="-14.014696" />
      <line x1="-52.820877" y1="0.393788" x2="-52.820877" y2="2.582418" />
      <line x1="-12.374369" y1="-16.203326" x2="-12.374369" y2="-14.014696" />
      <line x1="53.699556" y1="9.678886" x2="53.699556" y2="11.867517" />
      <line x1="-53.699556" y1="1.264266" x2="-53.699556" y2="3.452896" />
    </g>
    <g fill="none" stroke="rgb(191,158,158)" stroke-width="0.22" id="lid_hidden" stroke-dasharray="1.397 0.6985">
      <line x1="12.374369" y1="27.146478" x2="52.820877" y2="10.549364" />
      <path d="M 12.374369,27.146478 A 3.0,1.2310418016971536 0.0 0,1 8.131728,27.146478" />
      <path d="M 52.820877,10.549364 A 3.0,1.2310418016971536 180.0 0,0 53.699556,9.678886" />
      <line x1="8.131728" y1="27.146478" x2="-52.820877" y2="2.134744" />
      <path d="M -53.699556,1.264266 A 3.0,1.2310418016971536 180.0 0,0 -52.820877,2.134744" />
      <line x1="10.253048" y1="26.450096" x2="51.12382" y2="9.678886" />
      <line x1="10.253048" y1="26.450096" x2="-51.12382" y2="1.264266" />
      <line x1="-51.12382" y1="1.264266" x2="-10.253048" y2="-15.506944" />
      <line x1="51.12382" y1="9.678886" x2="-10.253048" y2="-15.506944" />
      <line x1="-33.234019" y1="3.150301" x2="-33.234019" y2="5.338932" />
      <line x1="5.656854" y1="19.109065" x2="5.656854" y2="19.556739" />
      <line x1="-33.234019" y1="3.150301" x2="5.656854" y2="19.109065" />
      <line x1="-31.112698" y1="2.279823" x2="-31.112698" y2="4.468454" />
      <line x1="-33.234019" y1="3.150301" x2="-31.112698" y2="2.279823" />
      <line x1="7.778175" y1="18.238587" x2="7.778175" y2="20.427217" />
      <line x1="-31.112698" y1="2.279823" x2="7.778175" y2="18.238587" />
      <line x1="5.656854" y1="19.109065" x2="7.778175" y2="18.238587" />
      <line x1="-28.991378" y1="1.409345" x2="-28.991378" y2="3.597976" />
      <line x1="9.899495" y1="17.368109" x2="9.899495" y2="17.815783" />
      <line x1="-28.991378" y1="1.409345" x2="9.899495" y2="17.368109" />
      <line x1="-26.870058" y1="0.538867" x2="-26.870058" y2="2.727498" />
      <line x1="-28.991378" y1="1.409345" x2="-26.870058" y2="0.538867" />
      <line x1="12.020815" y1="16.497631" x2="12.020815" y2="18.686261" />
      <line x1="-26.870058" y1="0.538867" x2="12.020815" y2="16.497631" />
      <line x1="9.899495" y1="17.368109" x2="12.020815" y2="16.497631" />
      <line x1="-24.748737" y1="-0.331611" x2="-24.748737" y2="1.85702" />
      <line x1="14.142136" y1="15.627153" x2="14.142136" y2="16.074827" />
      <line x1="-24.748737" y1="-0.331611" x2="14.142136" y2="15.627153" />
      <line x1="-22.627417" y1="-1.202089" x2="-22.627417" y2="0.986542" />
      <line x1="-24.748737" y1="-0.331611" x2="-22.627417" y2="-1.202089" />
      <line x1="16.263456" y1="14.756675" x2="16.263456" y2="16.945305" />
      <line x1="-22.627417" y1="-1.202089" x2="16.263456" y2="14.756675" />
      <line x1="14.142136" y1="15.627153" x2="16.263456" y2="14.756675" />
      <line x1="-20.506097" y1="-2.072567" x2="-20.506097" y2="0.116064" />
      <line x1="18.384776" y1="13.886197" x2="18.384776" y2="14.333871" />
      <line x1="-20.506097" y1="-2.072567" x2="18.384776" y2="13.886197" />
      <line x1="-18.384776" y1="-2.943045" x2="-18.384776" y2="-0.754414" />
      <line x1="-20.506097" y1="-2.072567" x2="-18.384776" y2="-2.943045" />
      <line x1="20.506097" y1="13.015719" x2="20.506097" y2="15.204349" />
      <line x1="-18.384776" y1="-2.943045" x2="20.506097" y2="13.015719" />
      <line x1="18.384776" y1="13.886197" x2="20.506097" y2="13.015719" />
      <line x1="-7.778175" y1="-7.295435" x2="-7.778175" y2="-5.106804" />
      <line x1="-7.778175" y1="-7.295435" x2="2.666803" y2="-3.009367" />
      <line x1="-5.656854" y1="-8.165913" x2="-5.656854" y2="-5.977282" />
      <line x1="-7.778175" y1="-7.295435" x2="-5.656854" y2="-8.165913" />
      <line x1="2.12132" y1="-4.97416" x2="2.12132" y2="-2.78553" />
      <line x1="-5.656854" y1="-8.165913" x2="2.12132" y2="-4.97416" />
      <line x1="8.096373" y1="-7.881971" x2="8.096373" y2="-5.237376" />
      <line x1="7.353911" y1="-7.577304" x2="8.096373" y2="-7.881971" />
      <line x1="7.353911" y1="-7.121339" x2="7.353911" y2="-7.577304" />
      <line x1="2.12132" y1="-4.97416" x2="7.353911" y2="-7.121339" />
      <line x1="46.280139" y1="7.786633" x2="46.280139" y2="10.431228" />
      <line x1="46.280139" y1="7.786633" x2="8.096373" y2="-7.881971" />
      <line x1="45.537677" y1="8.0913" x2="46.280139" y2="7.786633" />
      <line x1="45.537677" y1="8.547265" x2="45.537677" y2="8.0913" />
      <line x1="43.613336" y1="9.336913" x2="45.537677" y2="8.547265" />
      <line x1="-16.263456" y1="-3.813523" x2="-16.263456" y2="-1.624892" />
      <line x1="22.627417" y1="12.145241" x2="22.627417" y2="12.592915" />
      <line x1="-16.263456" y1="-3.813523" x2="22.627417" y2="12.145241" />
      <line x1="-14.142136" y1="-4.684001" x2="-14.142136" y2="-2.49537" />
      <line x1="-16.263456" y1="-3.813523" x2="-14.142136" y2="-4.684001" />
      <line x1="24.748737" y1="11.274763" x2="24.748737" y2="13.463393" />
      <line x1="-14.142136" y1="-4.684001" x2="24.748737" y2="11.274763" />
      <line x1="22.627417" y1="12.145241" x2="24.748737" y2="11.274763" />
      <line x1="-12.020815" y1="-5.554479" x2="-12.020815" y2="-3.365848" />
      <line x1="26.870058" y1="10.404285" x2="26.870058" y2="10.851959" />
      <line x1="-12.020815" y1="-5.554479" x2="26.870058" y2="10.404285" />
      <line x1="-9.899495" y1="-6.424957" x2="-9.899495" y2="-4.236326" />
      <line x1="-12.020815" y1="-5.554479" x2="-9.899495" y2="-6.424957" />
      <line x1="28.991378" y1="9.533807" x2="28.991378" y2="11.722437" />
      <line x1="-9.899495" y1="-6.424957" x2="28.991378" y2="9.533807" />
      <line x1="26.870058" y1="10.404285" x2="28.991378" y2="9.533807" />
      <line x1="10.253048" y1="23.714308" x2="10.253048" y2="26.450096" />
      <line x1="51.12382" y1="8.112026" x2="51.12382" y2="9.678886" />
      <line x1="10.253048" y1="23.714308" x2="51.12382" y2="6.943098" />
      <line x1="10.253048" y1="23.714308" x2="-51.12382" y2="-1.471522" />
      <line x1="-51.12382" y1="-0.302595" x2="-51.12382" y2="1.264266" />
      <line x1="-10.253048" y1="-16.56389" x2="-10.253048" y2="-15.506944" />
      <line x1="48.295393" y1="9.678886" x2="45.537677" y2="8.547265" />
      <line x1="7.353911" y1="-7.121339" x2="-10.253048" y2="-14.346307" />
      <line x1="-48.295393" y1="1.264266" x2="-10.253048" y2="-14.346307" />
      <line x1="10.253048" y1="25.289459" x2="-48.295393" y2="1.264266" />
      <line x1="10.253048" y1="25.289459" x2="48.295393" y2="9.678886" />
      <line x1="45.537677" y1="8.0913" x2="7.353911" y2="-7.577304" />
      <line x1="-10.253048" y1="-17.082095" x2="-10.253048" y2="-14.346307" />
      <line x1="48.295393" y1="6.943098" x2="48.295393" y2="9.678886" />
      <line x1="48.295393" y1="6.943098" x2="-10.253048" y2="-17.082095" />
      <line x1="10.253048" y1="22.553671" x2="39.693944" y2="10.472679" />
      <line x1="43.037549" y1="9.10064" x2="48.295393" y2="6.943098" />
      <line x1="10.253048" y1="22.553671" x2="-48.295393" y2="-1.471522" />
      <line x1="-48.295393" y1="-1.471522" x2="-10.253048" y2="-17.082095" />
      <line x1="-48.295393" y1="-1.471522" x2="-48.295393" y2="1.264266" />
      <line x1="10.253048" y1="22.553671" x2="10.253048" y2="25.289459" />
      <line x1="12.374369" y1="27.146478" x2="12.374369" y2="29.335109" />
      <line x1="52.820877" y1="10.549364" x2="52.820877" y2="12.737995" />
      <line x1="8.131728" y1="27.146478" x2="8.131728" y2="29.335109" />
      <line x1="-52.820877" y1="2.134744" x2="-52.820877" y2="4.323374" />
    </g>
  </g>
</svg>