<?xml version='1.0' encoding='utf-8'?>
<svg width="123.799827mm" height="83.441981mm" viewBox="-61.899913 -33.870196 123.799827 83.441981" version="1.1" xmlns="http://www.w3.org/2000/svg">
  <g transform="scale(1,-1)" stroke-linecap="round">
    <g fill="none" stroke="rgb(30,56,76)" stroke-width="0.4" id="base_visible">
      <path d="M 7.990307,-4.285123 A 3.2,1.2974549648159783 0.0 0,1 13.453048,-3.367683" />
      <path d="M 7.053048,-3.367683 A 3.2,1.2974549648159783 0.0 0,1 7.990307,-4.285123" />
      <path d="M 7.990307,-0.628662 A 3.2,1.2974549648159783 0.0 0,1 13.453048,0.288777" />
      <path d="M 13.453048,0.288777 A 3.2,1.2974549648159783 0.0 0,1 7.053048,0.288777" />
      <path d="M 7.053048,0.288777 A 3.2,1.2974549648159783 0.0 0,1 7.990307,-0.628662" />
      <line x1="13.453048" y1="-1.970161" x2="27.199016" y2="-7.543528" />
      <line x1="7.053048" y1="-1.970161" x2="-27.199016" y2="-15.85782" />
      <line x1="-33.959145" y1="-18.598746" x2="-36.734197" y2="-19.723904" />
      <line x1="-39.491914" y1="-20.842033" x2="-48.166269" y2="-24.359091" />
      <path d="M -33.021887,-20.913708 A 3.2,1.2974549648159783 0.0 0,1 -27.559145,-19.996269" />
      <path d="M -33.959145,-19.996269 A 3.2,1.2974549648159783 0.0 0,1 -33.021887,-20.913708" />
      <line x1="3.181981" y1="-12.255376" x2="5.303301" y2="-11.395276" />
      <line x1="3.181981" y1="-12.255376" x2="9.379925" y2="-14.768361" />
      <line x1="5.303301" y1="-11.395276" x2="11.501246" y2="-13.908262" />
      <line x1="-1.06066" y1="-13.975574" x2="1.06066" y2="-13.115475" />
      <line x1="-1.06066" y1="-13.975574" x2="5.137284" y2="-16.48856" />
      <line x1="1.06066" y1="-13.115475" x2="7.258605" y2="-15.62846" />
      <line x1="-5.303301" y1="-15.695773" x2="-3.181981" y2="-14.835673" />
      <line x1="-5.303301" y1="-15.695773" x2="0.894644" y2="-18.208758" />
      <line x1="-3.181981" y1="-14.835673" x2="3.015964" y2="-17.348659" />
      <line x1="-9.545942" y1="-17.415971" x2="-7.424621" y2="-16.555872" />
      <line x1="-9.545942" y1="-17.415971" x2="-3.347997" y2="-19.928957" />
      <line x1="-7.424621" y1="-16.555872" x2="-1.226677" y2="-19.068858" />
      <line x1="-13.788582" y1="-19.13617" x2="-11.667262" y2="-18.27607" />
      <line x1="-13.788582" y1="-19.13617" x2="-7.590638" y2="-21.649155" />
      <line x1="-11.667262" y1="-18.27607" x2="-5.469317" y2="-20.789056" />
      <line x1="-16.450993" y1="-20.215657" x2="-15.909903" y2="-19.996269" />
      <line x1="-15.909903" y1="-19.996269" x2="-9.711958" y2="-22.509255" />
      <line x1="-22.273864" y1="-22.576567" x2="-21.980773" y2="-22.457732" />
      <line x1="-22.273864" y1="-22.576567" x2="-13.859293" y2="-25.988294" />
      <path d="M 9.227743,-0.126937 A 1.45,0.5879092809322402 0.0 0,1 11.703048,0.288777" />
      <path d="M 11.703048,0.288777 A 1.45,0.5879092809322402 0.0 0,1 8.803048,0.288777" />
      <path d="M 8.803048,0.288777 A 1.45,0.5879092809322402 0.0 0,1 9.227743,-0.126937" />
      <line x1="10.253048" y1="1.586232" x2="10.253048" y2="19.072182" />
      <line x1="10.253048" y1="19.072182" x2="51.548084" y2="2.328916" />
      <line x1="25.950819" y1="-6.854617" x2="13.930004" y2="-1.980721" />
      <line x1="25.950819" y1="-6.854617" x2="25.950819" y2="-2.101218" />
      <line x1="25.950819" y1="-2.101218" x2="13.930004" y2="2.772677" />
      <line x1="13.930004" y1="-1.980721" x2="13.930004" y2="2.772677" />
      <line x1="-10.253048" y1="-22.728642" x2="51.548084" y2="2.328916" />
      <line x1="-51.548084" y1="-5.985377" x2="10.253048" y2="19.072182" />
      <line x1="6.929646" y1="6.024019" x2="-2.262742" y2="2.296922" />
      <line x1="6.929646" y1="6.024019" x2="6.929646" y2="0.539328" />
      <line x1="-2.262742" y1="2.296922" x2="-2.262742" y2="-3.187769" />
      <line x1="6.929646" y1="0.539328" x2="-2.262742" y2="-3.187769" />
      <line x1="-7.636753" y1="0.118004" x2="-14.707821" y2="-2.748994" />
      <line x1="-7.636753" y1="0.118004" x2="-7.636753" y2="-5.183864" />
      <line x1="-14.707821" y1="-2.748994" x2="-14.707821" y2="-8.050861" />
      <line x1="-7.636753" y1="-5.183864" x2="-14.707821" y2="-8.050861" />
      <line x1="-17.182695" y1="-3.752443" x2="-24.253763" y2="-6.61944" />
      <line x1="-17.182695" y1="-3.752443" x2="-17.182695" y2="-9.054311" />
      <line x1="-24.253763" y1="-6.61944" x2="-24.253763" y2="-11.921308" />
      <line x1="-17.182695" y1="-9.054311" x2="-24.253763" y2="-11.921308" />
      <line x1="-30.900566" y1="-7.303365" x2="-37.971634" y2="-10.170362" />
      <line x1="-37.971634" y1="-10.170362" x2="-37.971634" y2="-11.490012" />
      <line x1="-33.841773" y1="-15.991635" x2="-36.734197" y2="-17.164382" />
      <line x1="-30.900566" y1="-7.303365" x2="-30.900566" y2="-14.357009" />
      <line x1="-51.548084" y1="-5.985377" x2="-10.253048" y2="-22.728642" />
      <line x1="-13.859293" y1="-38.269015" x2="-24.183052" y2="-34.083199" />
      <line x1="-24.183052" y1="-34.083199" x2="-24.183052" y2="-21.564807" />
      <line x1="-26.763992" y1="-33.036745" x2="-36.734197" y2="-28.994278" />
      <line x1="-36.734197" y1="-28.994278" x2="-36.734197" y2="-14.464833" />
      <line x1="-39.491914" y1="-27.876149" x2="-49.462119" y2="-23.833683" />
      <line x1="-49.462119" y1="-23.833683" x2="-49.462119" y2="-9.304238" />
      <path d="M -33.021887,-17.257247 A 3.2,1.2974549648159783 0.0 0,1 -29.274873,-17.489252" />
      <path d="M -33.594094,-15.738003 A 3.2,1.2974549648159783 0.0 0,1 -33.959145,-16.339808" />
      <path d="M -33.959145,-16.339808 A 3.2,1.2974549648159783 0.0 0,1 -33.021887,-17.257247" />
      <line x1="5.303301" y1="-13.115475" x2="5.303301" y2="-11.395276" />
      <line x1="1.06066" y1="-14.835673" x2="1.06066" y2="-13.115475" />
      <line x1="-3.181981" y1="-16.555872" x2="-3.181981" y2="-14.835673" />
      <line x1="-7.424621" y1="-18.27607" x2="-7.424621" y2="-16.555872" />
      <line x1="-11.667262" y1="-19.996269" x2="-11.667262" y2="-18.27607" />
      <line x1="-15.909903" y1="-20.435044" x2="-15.909903" y2="-19.996269" />
      <line x1="-20.152543" y1="-23.436666" x2="-20.152543" y2="-23.198996" />
      <line x1="13.081475" y1="19.301541" x2="52.11377" y2="3.475715" />
      <path d="M 13.081475,19.301541 A 4.0,1.621818706019973 0.0 0,1 7.424621,19.301541" />
      <path d="M 52.11377,3.475715 A 4.0,1.621818706019973 180.0 0,0 53.285343,2.328916" />
      <path d="M 53.285343,2.328916 A 4.0,1.621818706019973 180.0 0,0 52.11377,1.182117" />
      <line x1="7.424621" y1="19.301541" x2="-52.11377" y2="-4.838578" />
      <line x1="52.11377" y1="1.182117" x2="-7.424621" y2="-22.958002" />
      <path d="M -52.11377,-7.132176 A 4.0,1.621818706019973 180.0 0,0 -53.285343,-5.985377" />
      <path d="M -53.285343,-5.985377 A 4.0,1.621818706019973 180.0 0,0 -52.11377,-4.838578" />
      <path d="M -13.081475,-22.958002 A 4.0,1.621818706019973 0.0 0,1 -7.424621,-22.958002" />
      <line x1="-52.11377" y1="-7.132176" x2="-13.081475" y2="-22.958002" />
      <line x1="15.62706" y1="-1.292642" x2="13.930004" y2="-1.980721" />
      <line x1="25.950819" y1="-5.478458" x2="15.62706" y2="-1.292642" />
      <line x1="15.62706" y1="-1.292642" x2="15.62706" y2="2.084598" />
      <line x1="5.23259" y1="1.227407" x2="6.929646" y2="0.539328" />
      <line x1="5.23259" y1="5.335939" x2="5.23259" y2="1.227407" />
      <line x1="5.23259" y1="1.227407" x2="-2.262742" y2="-1.81161" />
      <line x1="-9.33381" y1="-4.495785" x2="-7.636753" y2="-5.183864" />
      <line x1="-9.33381" y1="-0.570075" x2="-9.33381" y2="-4.495785" />
      <line x1="-9.33381" y1="-4.495785" x2="-14.707821" y2="-6.674703" />
      <line x1="-18.879751" y1="-8.366231" x2="-17.182695" y2="-9.054311" />
      <line x1="-18.879751" y1="-4.440522" x2="-18.879751" y2="-8.366231" />
      <line x1="-18.879751" y1="-8.366231" x2="-24.253763" y2="-10.545149" />
      <line x1="-35.102215" y1="-15.126528" x2="-36.734197" y2="-15.788223" />
      <line x1="-32.597623" y1="-7.991444" x2="-32.597623" y2="-13.66893" />
      <line x1="-13.859293" y1="-39.645174" x2="-25.880108" y2="-34.771278" />
      <line x1="-24.183052" y1="-34.083199" x2="-25.880108" y2="-34.771278" />
      <line x1="-13.859293" y1="-39.645174" x2="-13.859293" y2="-25.750624" />
      <line x1="-13.859293" y1="-25.750624" x2="-25.880108" y2="-20.876728" />
      <line x1="-25.880108" y1="-34.771278" x2="-25.880108" y2="-20.876728" />
      <line x1="-26.763992" y1="-34.412904" x2="-38.431254" y2="-29.682358" />
      <line x1="-36.734197" y1="-28.994278" x2="-38.431254" y2="-29.682358" />
      <line x1="-26.763992" y1="-34.412904" x2="-26.763992" y2="-18.5073" />
      <line x1="-38.431254" y1="-29.682358" x2="-38.431254" y2="-13.776754" />
      <line x1="-26.763992" y1="-18.5073" x2="-38.431254" y2="-13.776754" />
      <line x1="-39.491914" y1="-29.252308" x2="-51.159176" y2="-24.521762" />
      <line x1="-49.462119" y1="-23.833683" x2="-51.159176" y2="-24.521762" />
      <line x1="-39.491914" y1="-29.252308" x2="-39.491914" y2="-13.346704" />
      <line x1="-51.159176" y1="-24.521762" x2="-51.159176" y2="-8.616159" />
      <line x1="-39.491914" y1="-13.346704" x2="-51.159176" y2="-8.616159" />
      <path d="M -31.78445,-16.755523 A 1.45,0.5879092809322402 0.0 0,1 -30.663012,-16.926424" />
      <path d="M -32.205955,-16.300831 A 1.45,0.5879092809322402 0.0 0,1 -32.209145,-16.339808" />
      <path d="M -32.209145,-16.339808 A 1.45,0.5879092809322402 0.0 0,1 -31.78445,-16.755523" />
      <path d="M 53.285343,-19.609847 A 4.0,1.621818706019973 180.0 0,0 52.11377,-20.756646" />
      <line x1="52.11377" y1="-20.756646" x2="-7.424621" y2="-44.896766" />
      <path d="M -52.11377,-29.070939 A 4.0,1.621818706019973 180.0 0,0 -53.285343,-27.92414" />
      <path d="M -13.081475,-44.896766 A 4.0,1.621818706019973 0.0 0,1 -7.424621,-44.896766" />
      <line x1="-52.11377" y1="-29.070939" x2="-13.081475" y2="-44.896766" />
      <line x1="52.11377" y1="-20.756646" x2="52.11377" y2="1.182117" />
      <line x1="-7.424621" y1="-44.896766" x2="-7.424621" y2="-22.958002" />
      <line x1="-52.11377" y1="-29.070939" x2="-52.11377" y2="-7.132176" />
      <line x1="-13.081475" y1="-44.896766" x2="-13.081475" y2="-22.958002" />
      <line x1="13.453048" y1="-3.367683" x2="13.453048" y2="0.288777" />
      <line x1="7.053048" y1="-3.367683" x2="7.053048" y2="0.288777" />
      <line x1="-27.559145" y1="-19.996269" x2="-27.559145" y2="-18.184901" />
      <line x1="-33.959145" y1="-19.996269" x2="-33.959145" y2="-16.339808" />
      <line x1="53.285343" y1="-19.609847" x2="53.285343" y2="2.328916" />
      <line x1="-53.285343" y1="-27.92414" x2="-53.285343" y2="-5.985377" />
    </g>
    <g fill="none" stroke="rgb(158,173,183)" stroke-width="0.22" id="base_hidden" stroke-dasharray="1.397 0.6985">
      <path d="M 13.453048,-3.367683 A 3.2,1.2974549648159783 0.0 0,1 7.053048,-3.367683" />
      <line x1="10.253048" y1="-0.672706" x2="13.453048" y2="-1.970161" />
      <line x1="27.199016" y1="-7.543528" x2="51.548084" y2="-17.415971" />
      <line x1="51.548084" y1="-17.415971" x2="-10.253048" y2="-42.473529" />
      <line x1="10.253048" y1="-0.672706" x2="7.053048" y2="-1.970161" />
      <line x1="-27.199016" y1="-15.85782" x2="-33.959145" y2="-18.598746" />
      <line x1="-36.734197" y1="-19.723904" x2="-39.491914" y2="-20.842033" />
      <line x1="-48.166269" y1="-24.359091" x2="-51.548084" y2="-25.730264" />
      <line x1="-51.548084" y1="-25.730264" x2="-10.253048" y2="-42.473529" />
      <path d="M -27.559145,-19.996269 A 3.2,1.2974549648159783 0.0 0,1 -33.959145,-19.996269" />
      <line x1="9.379925" y1="-14.768361" x2="22.98097" y2="-20.282969" />
      <line x1="22.98097" y1="-20.282969" x2="25.102291" y2="-19.422869" />
      <line x1="11.501246" y1="-13.908262" x2="25.102291" y2="-19.422869" />
      <line x1="5.137284" y1="-16.48856" x2="18.73833" y2="-22.003167" />
      <line x1="18.73833" y1="-22.003167" x2="20.85965" y2="-21.143068" />
      <line x1="7.258605" y1="-15.62846" x2="20.85965" y2="-21.143068" />
      <path d="M 42.638539,-18.33341 A 3.2,1.2974549648159783 0.0 0,1 48.101281,-17.415971" />
      <path d="M 48.101281,-17.415971 A 3.2,1.2974549648159783 0.0 0,1 41.701281,-17.415971" />
      <path d="M 41.701281,-17.415971 A 3.2,1.2974549648159783 0.0 0,1 42.638539,-18.33341" />
      <line x1="0.894644" y1="-18.208758" x2="14.495689" y2="-23.723366" />
      <line x1="14.495689" y1="-23.723366" x2="16.617009" y2="-22.863266" />
      <line x1="3.015964" y1="-17.348659" x2="16.617009" y2="-22.863266" />
      <line x1="-3.347997" y1="-19.928957" x2="10.253048" y2="-25.443564" />
      <line x1="10.253048" y1="-25.443564" x2="12.374369" y2="-24.583465" />
      <line x1="-1.226677" y1="-19.068858" x2="12.374369" y2="-24.583465" />
      <line x1="-7.590638" y1="-21.649155" x2="6.010408" y2="-27.163763" />
      <line x1="6.010408" y1="-27.163763" x2="8.131728" y2="-26.303663" />
      <line x1="-5.469317" y1="-20.789056" x2="8.131728" y2="-26.303663" />
      <line x1="-18.031223" y1="-20.856368" x2="-16.450993" y2="-20.215657" />
      <line x1="-18.031223" y1="-20.856368" x2="1.767767" y2="-28.883961" />
      <line x1="1.767767" y1="-28.883961" x2="3.889087" y2="-28.023862" />
      <line x1="-9.711958" y1="-22.509255" x2="3.889087" y2="-28.023862" />
      <line x1="-21.980773" y1="-22.457732" x2="-20.152543" y2="-21.716467" />
      <line x1="-13.859293" y1="-25.988294" x2="-2.474874" y2="-30.60416" />
      <line x1="-2.474874" y1="-30.60416" x2="-0.353553" y2="-29.74406" />
      <line x1="-20.152543" y1="-21.716467" x2="-0.353553" y2="-29.74406" />
      <path d="M 1.626346,-34.961996 A 3.2,1.2974549648159783 0.0 0,1 7.089087,-34.044557" />
      <path d="M 7.089087,-34.044557 A 3.2,1.2974549648159783 0.0 0,1 0.689087,-34.044557" />
      <path d="M 0.689087,-34.044557 A 3.2,1.2974549648159783 0.0 0,1 1.626346,-34.961996" />
      <line x1="10.253048" y1="-0.672706" x2="10.253048" y2="1.586232" />
      <line x1="51.548084" y1="-17.415971" x2="51.548084" y2="2.328916" />
      <line x1="-10.253048" y1="-42.473529" x2="-10.253048" y2="-22.728642" />
      <line x1="-51.548084" y1="-25.730264" x2="-51.548084" y2="-5.985377" />
      <line x1="-37.971634" y1="-11.490012" x2="-37.971634" y2="-17.666106" />
      <line x1="-30.900566" y1="-14.799109" x2="-33.841773" y2="-15.991635" />
      <line x1="-36.734197" y1="-17.164382" x2="-37.971634" y2="-17.666106" />
      <line x1="-30.900566" y1="-14.357009" x2="-30.900566" y2="-14.799109" />
      <line x1="-12.162237" y1="-38.957095" x2="-13.859293" y2="-38.269015" />
      <line x1="-12.162237" y1="-38.957095" x2="-12.162237" y2="-25.062544" />
      <line x1="-12.162237" y1="-25.062544" x2="-24.183052" y2="-20.188649" />
      <line x1="-24.183052" y1="-21.564807" x2="-24.183052" y2="-20.188649" />
      <line x1="-25.066935" y1="-33.724824" x2="-26.763992" y2="-33.036745" />
      <line x1="-25.066935" y1="-33.724824" x2="-25.066935" y2="-17.819221" />
      <line x1="-36.734197" y1="-14.464833" x2="-36.734197" y2="-13.088675" />
      <line x1="-25.066935" y1="-17.819221" x2="-36.734197" y2="-13.088675" />
      <line x1="-37.794857" y1="-28.564229" x2="-39.491914" y2="-27.876149" />
      <line x1="-37.794857" y1="-28.564229" x2="-37.794857" y2="-12.658625" />
      <line x1="-49.462119" y1="-9.304238" x2="-49.462119" y2="-7.928079" />
      <line x1="-37.794857" y1="-12.658625" x2="-49.462119" y2="-7.928079" />
      <path d="M -29.274873,-17.489252 A 3.2,1.2974549648159783 0.0 0,1 -27.559145,-16.339808" />
      <path d="M -27.559145,-16.339808 A 3.2,1.2974549648159783 0.0 0,1 -33.594094,-15.738003" />
      <line x1="3.181981" y1="-14.449252" x2="3.181981" y2="-12.255376" />
      <line x1="5.303301" y1="-13.589153" x2="5.303301" y2="-13.115475" />
      <line x1="3.181981" y1="-14.449252" x2="5.303301" y2="-13.589153" />
      <line x1="22.98097" y1="-22.476845" x2="22.98097" y2="-20.282969" />
      <line x1="3.181981" y1="-14.449252" x2="22.98097" y2="-22.476845" />
      <line x1="25.102291" y1="-21.616746" x2="25.102291" y2="-19.422869" />
      <line x1="22.98097" y1="-22.476845" x2="25.102291" y2="-21.616746" />
      <line x1="5.303301" y1="-13.589153" x2="25.102291" y2="-21.616746" />
      <line x1="-1.06066" y1="-16.16945" x2="-1.06066" y2="-13.975574" />
      <line x1="1.06066" y1="-15.309351" x2="1.06066" y2="-14.835673" />
      <line x1="-1.06066" y1="-16.16945" x2="1.06066" y2="-15.309351" />
      <line x1="18.73833" y1="-24.197043" x2="18.73833" y2="-22.003167" />
      <line x1="-1.06066" y1="-16.16945" x2="18.73833" y2="-24.197043" />
      <line x1="20.85965" y1="-23.336944" x2="20.85965" y2="-21.143068" />
      <line x1="18.73833" y1="-24.197043" x2="20.85965" y2="-23.336944" />
      <line x1="1.06066" y1="-15.309351" x2="20.85965" y2="-23.336944" />
      <path d="M 42.638539,-14.67695 A 3.2,1.2974549648159783 0.0 0,1 48.101281,-13.759511" />
      <path d="M 48.101281,-13.759511 A 3.2,1.2974549648159783 0.0 0,1 41.701281,-13.759511" />
      <path d="M 41.701281,-13.759511 A 3.2,1.2974549648159783 0.0 0,1 42.638539,-14.67695" />
      <line x1="-5.303301" y1="-17.889649" x2="-5.303301" y2="-15.695773" />
      <line x1="-3.181981" y1="-17.02955" x2="-3.181981" y2="-16.555872" />
      <line x1="-5.303301" y1="-17.889649" x2="-3.181981" y2="-17.02955" />
      <line x1="14.495689" y1="-25.917242" x2="14.495689" y2="-23.723366" />
      <line x1="-5.303301" y1="-17.889649" x2="14.495689" y2="-25.917242" />
      <line x1="16.617009" y1="-25.057143" x2="16.617009" y2="-22.863266" />
      <line x1="14.495689" y1="-25.917242" x2="16.617009" y2="-25.057143" />
      <line x1="-3.181981" y1="-17.02955" x2="16.617009" y2="-25.057143" />
      <line x1="-9.545942" y1="-19.609847" x2="-9.545942" y2="-17.415971" />
      <line x1="-7.424621" y1="-18.749748" x2="-7.424621" y2="-18.27607" />
      <line x1="-9.545942" y1="-19.609847" x2="-7.424621" y2="-18.749748" />
      <line x1="10.253048" y1="-27.637441" x2="10.253048" y2="-25.443564" />
      <line x1="-9.545942" y1="-19.609847" x2="10.253048" y2="-27.637441" />
      <line x1="12.374369" y1="-26.777341" x2="12.374369" y2="-24.583465" />
      <line x1="10.253048" y1="-27.637441" x2="12.374369" y2="-26.777341" />
      <line x1="-7.424621" y1="-18.749748" x2="12.374369" y2="-26.777341" />
      <line x1="-13.788582" y1="-21.330046" x2="-13.788582" y2="-19.13617" />
      <line x1="-11.667262" y1="-20.469947" x2="-11.667262" y2="-19.996269" />
      <line x1="-13.788582" y1="-21.330046" x2="-11.667262" y2="-20.469947" />
      <line x1="6.010408" y1="-29.357639" x2="6.010408" y2="-27.163763" />
      <line x1="-13.788582" y1="-21.330046" x2="6.010408" y2="-29.357639" />
      <line x1="8.131728" y1="-28.49754" x2="8.131728" y2="-26.303663" />
      <line x1="6.010408" y1="-29.357639" x2="8.131728" y2="-28.49754" />
      <line x1="-11.667262" y1="-20.469947" x2="8.131728" y2="-28.49754" />
      <line x1="-18.031223" y1="-23.050244" x2="-18.031223" y2="-20.856368" />
      <line x1="-15.909903" y1="-22.190145" x2="-15.909903" y2="-20.435044" />
      <line x1="-18.031223" y1="-23.050244" x2="-15.909903" y2="-22.190145" />
      <line x1="1.767767" y1="-31.077838" x2="1.767767" y2="-28.883961" />
      <line x1="-18.031223" y1="-23.050244" x2="1.767767" y2="-31.077838" />
      <line x1="3.889087" y1="-30.217738" x2="3.889087" y2="-28.023862" />
      <line x1="1.767767" y1="-31.077838" x2="3.889087" y2="-30.217738" />
      <line x1="-15.909903" y1="-22.190145" x2="3.889087" y2="-30.217738" />
      <line x1="-22.273864" y1="-24.770443" x2="-22.273864" y2="-22.576567" />
      <line x1="-20.152543" y1="-23.910344" x2="-20.152543" y2="-23.436666" />
      <line x1="-20.152543" y1="-23.198996" x2="-20.152543" y2="-21.716467" />
      <line x1="-22.273864" y1="-24.770443" x2="-20.152543" y2="-23.910344" />
      <line x1="-2.474874" y1="-32.798036" x2="-2.474874" y2="-30.60416" />
      <line x1="-22.273864" y1="-24.770443" x2="-2.474874" y2="-32.798036" />
      <line x1="-0.353553" y1="-31.937937" x2="-0.353553" y2="-29.74406" />
      <line x1="-2.474874" y1="-32.798036" x2="-0.353553" y2="-31.937937" />
      <line x1="-20.152543" y1="-23.910344" x2="-0.353553" y2="-31.937937" />
      <path d="M 1.626346,-31.305535 A 3.2,1.2974549648159783 0.0 0,1 7.089087,-30.388096" />
      <path d="M 7.089087,-30.388096 A 3.2,1.2974549648159783 0.0 0,1 0.689087,-30.388096" />
      <path d="M 0.689087,-30.388096 A 3.2,1.2974549648159783 0.0 0,1 1.626346,-31.305535" />
      <path d="M 9.227743,-5.977274 A 1.45,0.5879092809322402 0.0 0,1 11.703048,-5.56156" />
      <path d="M 11.703048,-5.56156 A 1.45,0.5879092809322402 0.0 0,1 8.803048,-5.56156" />
      <path d="M 8.803048,-5.56156 A 1.45,0.5879092809322402 0.0 0,1 9.227743,-5.977274" />
      <line x1="27.647875" y1="-6.166538" x2="25.950819" y2="-6.854617" />
      <line x1="27.647875" y1="-6.166538" x2="25.950819" y2="-5.478458" />
      <line x1="27.647875" y1="-1.413139" x2="25.950819" y2="-2.101218" />
      <line x1="27.647875" y1="-6.166538" x2="27.647875" y2="-1.413139" />
      <line x1="15.62706" y1="3.460757" x2="13.930004" y2="2.772677" />
      <line x1="27.647875" y1="-1.413139" x2="15.62706" y2="3.460757" />
      <line x1="15.62706" y1="2.084598" x2="15.62706" y2="3.460757" />
      <line x1="5.23259" y1="6.712098" x2="6.929646" y2="6.024019" />
      <line x1="-3.959798" y1="2.985001" x2="-2.262742" y2="2.296922" />
      <line x1="5.23259" y1="6.712098" x2="-3.959798" y2="2.985001" />
      <line x1="5.23259" y1="6.712098" x2="5.23259" y2="5.335939" />
      <line x1="-3.959798" y1="-2.499689" x2="-2.262742" y2="-3.187769" />
      <line x1="-3.959798" y1="2.985001" x2="-3.959798" y2="-2.499689" />
      <line x1="-2.262742" y1="-1.81161" x2="-3.959798" y2="-2.499689" />
      <line x1="-9.33381" y1="0.806083" x2="-7.636753" y2="0.118004" />
      <line x1="-16.404877" y1="-2.060914" x2="-14.707821" y2="-2.748994" />
      <line x1="-9.33381" y1="0.806083" x2="-16.404877" y2="-2.060914" />
      <line x1="-9.33381" y1="0.806083" x2="-9.33381" y2="-0.570075" />
      <line x1="-16.404877" y1="-7.362782" x2="-14.707821" y2="-8.050861" />
      <line x1="-16.404877" y1="-2.060914" x2="-16.404877" y2="-7.362782" />
      <line x1="-14.707821" y1="-6.674703" x2="-16.404877" y2="-7.362782" />
      <line x1="-18.879751" y1="-3.064363" x2="-17.182695" y2="-3.752443" />
      <line x1="-25.950819" y1="-5.931361" x2="-24.253763" y2="-6.61944" />
      <line x1="-18.879751" y1="-3.064363" x2="-25.950819" y2="-5.931361" />
      <line x1="-18.879751" y1="-3.064363" x2="-18.879751" y2="-4.440522" />
      <line x1="-25.950819" y1="-11.233229" x2="-24.253763" y2="-11.921308" />
      <line x1="-25.950819" y1="-5.931361" x2="-25.950819" y2="-11.233229" />
      <line x1="-24.253763" y1="-10.545149" x2="-25.950819" y2="-11.233229" />
      <line x1="-32.597623" y1="-6.615285" x2="-30.900566" y2="-7.303365" />
      <line x1="-39.66869" y1="-9.482283" x2="-37.971634" y2="-10.170362" />
      <line x1="-32.597623" y1="-6.615285" x2="-39.66869" y2="-9.482283" />
      <line x1="-39.66869" y1="-16.978027" x2="-37.971634" y2="-17.666106" />
      <line x1="-39.66869" y1="-9.482283" x2="-39.66869" y2="-16.978027" />
      <line x1="-32.597623" y1="-14.111029" x2="-30.900566" y2="-14.799109" />
      <line x1="-32.597623" y1="-14.111029" x2="-35.102215" y2="-15.126528" />
      <line x1="-36.734197" y1="-15.788223" x2="-39.66869" y2="-16.978027" />
      <line x1="-32.597623" y1="-6.615285" x2="-32.597623" y2="-7.991444" />
      <line x1="-32.597623" y1="-13.66893" x2="-32.597623" y2="-14.111029" />
      <line x1="-12.162237" y1="-38.957095" x2="-13.859293" y2="-39.645174" />
      <line x1="-12.162237" y1="-25.062544" x2="-13.859293" y2="-25.750624" />
      <line x1="-24.183052" y1="-20.188649" x2="-25.880108" y2="-20.876728" />
      <line x1="-25.066935" y1="-33.724824" x2="-26.763992" y2="-34.412904" />
      <line x1="-25.066935" y1="-17.819221" x2="-26.763992" y2="-18.5073" />
      <line x1="-36.734197" y1="-13.088675" x2="-38.431254" y2="-13.776754" />
      <line x1="-37.794857" y1="-28.564229" x2="-39.491914" y2="-29.252308" />
      <line x1="-37.794857" y1="-12.658625" x2="-39.491914" y2="-13.346704" />
      <line x1="-49.462119" y1="-7.928079" x2="-51.159176" y2="-8.616159" />
      <path d="M -30.663012,-16.926424 A 1.45,0.5879092809322402 0.0 0,1 -29.309145,-16.339808" />
      <path d="M -29.309145,-16.339808 A 1.45,0.5879092809322402 0.0 0,1 -32.205955,-16.300831" />
      <line x1="13.081475" y1="-2.637222" x2="52.11377" y2="-18.463048" />
      <path d="M 13.081475,-2.637222 A 4.0,1.621818706019973 0.0 0,1 7.424621,-2.637222" />
      <path d="M 52.11377,-18.463048 A 4.0,1.621818706019973 180.0 0,0 53.285343,-19.609847" />
      <line x1="7.424621" y1="-2.637222" x2="-52.11377" y2="-26.777341" />
      <path d="M -53.285343,-27.92414 A 4.0,1.621818706019973 180.0 0,0 -52.11377,-26.777341" />
      <path d="M -31.78445,-22.60586 A 1.45,0.5879092809322402 0.0 0,1 -29.309145,-22.190145" />
      <path d="M -29.309145,-22.190145 A 1.45,0.5879092809322402 0.0 0,1 -32.209145,-22.190145" />
      <path d="M -32.209145,-22.190145 A 1.45,0.5879092809322402 0.0 0,1 -31.78445,-22.60586" />
      <path d="M 43.875976,-20.025562 A 1.45,0.5879092809322402 0.0 0,1 46.351281,-19.609847" />
      <path d="M 46.351281,-19.609847 A 1.45,0.5879092809322402 0.0 0,1 43.451281,-19.609847" />
      <path d="M 43.451281,-19.609847 A 1.45,0.5879092809322402 0.0 0,1 43.875976,-20.025562" />
      <path d="M 2.863782,-36.654148 A 1.45,0.5879092809322402 0.0 0,1 5.339087,-36.238433" />
      <path d="M 5.339087,-36.238433 A 1.45,0.5879092809322402 0.0 0,1 2.439087,-36.238433" />
      <path d="M 2.439087,-36.238433 A 1.45,0.5879092809322402 0.0 0,1 2.863782,-36.654148" />
      <path d="M 43.875976,-14.175225 A 1.45,0.5879092809322402 0.0 0,1 46.351281,-13.759511" />
      <path d="M 46.351281,-13.759511 A 1.45,0.5879092809322402 0.0 0,1 43.451281,-13.759511" />
      <path d="M 43.451281,-13.759511 A 1.45,0.5879092809322402 0.0 0,1 43.875976,-14.175225" />
      <path d="M 2.863782,-30.803811 A 1.45,0.5879092809322402 0.0 0,1 5.339087,-30.388096" />
      <path d="M 5.339087,-30.388096 A 1.45,0.5879092809322402 0.0 0,1 2.439087,-30.388096" />
      <path d="M 2.439087,-30.388096 A 1.45,0.5879092809322402 0.0 0,1 2.863782,-30.803811" />
      <line x1="-27.559145" y1="-18.184901" x2="-27.559145" y2="-16.339808" />
      <line x1="48.101281" y1="-17.415971" x2="48.101281" y2="-13.759511" />
      <line x1="41.701281" y1="-17.415971" x2="41.701281" y2="-13.759511" />
      <line x1="7.089087" y1="-34.044557" x2="7.089087" y2="-30.388096" />
      <line x1="0.689087" y1="-34.044557" x2="0.689087" y2="-30.388096" />
      <line x1="11.703048" y1="-5.56156" x2="11.703048" y2="0.288777" />
      <line x1="8.803048" y1="-5.56156" x2="8.803048" y2="0.288777" />
      <line x1="-29.309145" y1="-22.190145" x2="-29.309145" y2="-16.339808" />
      <line x1="-32.209145" y1="-22.190145" x2="-32.209145" y2="-16.339808" />
      <line x1="46.351281" y1="-19.609847" x2="46.351281" y2="-13.759511" />
      <line x1="43.451281" y1="-19.609847" x2="43.451281" y2="-13.759511" />
      <line x1="5.339087" y1="-36.238433" x2="5.339087" y2="-30.388096" />
      <line x1="2.439087" y1="-36.238433" x2="2.439087" y2="-30.388096" />
      <line x1="13.081475" y1="-2.637222" x2="13.081475" y2="19.301541" />
      <line x1="52.11377" y1="-18.463048" x2="52.11377" y2="3.475715" />
      <line x1="7.424621" y1="-2.637222" x2="7.424621" y2="19.301541" />
      <line x1="-52.11377" y1="-26.777341" x2="-52.11377" y2="-4.838578" />
    </g>
    <g fill="none" stroke="rgb(30,107,45)" stroke-width="0.4" id="pcb_proxy_visible">
      <line x1="10.253048" y1="3.75826" x2="49.851028" y2="-12.296926" />
      <line x1="49.851028" y1="-13.759511" x2="49.851028" y2="-12.296926" />
      <line x1="-49.851028" y1="-22.073803" x2="-49.851028" y2="-20.611219" />
      <line x1="10.253048" y1="3.75826" x2="-49.851028" y2="-20.611219" />
      <line x1="49.851028" y1="-12.296926" x2="-10.253048" y2="-36.666405" />
      <line x1="-49.851028" y1="-20.611219" x2="-10.253048" y2="-36.666405" />
      <path d="M 9.298454,1.364317 A 1.35,0.5473638132817409 0.0 0,1 11.603048,1.751362" />
      <path d="M 11.603048,1.751362 A 1.35,0.5473638132817409 0.0 0,1 8.903048,1.751362" />
      <path d="M 8.903048,1.751362 A 1.35,0.5473638132817409 0.0 0,1 9.298454,1.364317" />
      <path d="M -31.713739,-15.264269 A 1.35,0.5473638132817409 0.0 0,1 -29.409145,-14.877224" />
      <path d="M -29.409145,-14.877224 A 1.35,0.5473638132817409 0.0 0,1 -32.109145,-14.877224" />
      <path d="M -32.109145,-14.877224 A 1.35,0.5473638132817409 0.0 0,1 -31.713739,-15.264269" />
      <path d="M 43.946686,-12.683971 A 1.35,0.5473638132817409 0.0 0,1 46.251281,-12.296926" />
      <path d="M 46.251281,-12.296926 A 1.35,0.5473638132817409 0.0 0,1 43.551281,-12.296926" />
      <path d="M 43.551281,-12.296926 A 1.35,0.5473638132817409 0.0 0,1 43.946686,-12.683971" />
      <path d="M 2.934493,-29.312557 A 1.35,0.5473638132817409 0.0 0,1 5.239087,-28.925512" />
      <path d="M 5.239087,-28.925512 A 1.35,0.5473638132817409 0.0 0,1 2.539087,-28.925512" />
      <path d="M 2.539087,-28.925512 A 1.35,0.5473638132817409 0.0 0,1 2.934493,-29.312557" />
      <line x1="49.851028" y1="-13.759511" x2="-10.253048" y2="-38.128989" />
      <line x1="-10.253048" y1="-38.128989" x2="-10.253048" y2="-36.666405" />
      <line x1="-49.851028" y1="-22.073803" x2="-10.253048" y2="-38.128989" />
    </g>
    <g fill="none" stroke="rgb(158,183,158)" stroke-width="0.22" id="pcb_proxy_hidden" stroke-dasharray="1.397 0.6985">
      <line x1="10.253048" y1="2.295676" x2="10.253048" y2="3.75826" />
      <line x1="10.253048" y1="2.295676" x2="49.851028" y2="-13.759511" />
      <line x1="10.253048" y1="2.295676" x2="-49.851028" y2="-22.073803" />
      <path d="M 9.298454,-0.098267 A 1.35,0.5473638132817409 0.0 0,1 11.603048,0.288777" />
      <path d="M 11.603048,0.288777 A 1.35,0.5473638132817409 0.0 0,1 8.903048,0.288777" />
      <path d="M 8.903048,0.288777 A 1.35,0.5473638132817409 0.0 0,1 9.298454,-0.098267" />
      <path d="M -31.713739,-16.726853 A 1.35,0.5473638132817409 0.0 0,1 -29.409145,-16.339808" />
      <path d="M -29.409145,-16.339808 A 1.35,0.5473638132817409 0.0 0,1 -32.109145,-16.339808" />
      <path d="M -32.109145,-16.339808 A 1.35,0.5473638132817409 0.0 0,1 -31.713739,-16.726853" />
      <path d="M 43.946686,-14.146555 A 1.35,0.5473638132817409 0.0 0,1 46.251281,-13.759511" />
      <path d="M 46.251281,-13.759511 A 1.35,0.5473638132817409 0.0 0,1 43.551281,-13.759511" />
      <path d="M 43.551281,-13.759511 A 1.35,0.5473638132817409 0.0 0,1 43.946686,-14.146555" />
      <path d="M 2.934493,-30.775141 A 1.35,0.5473638132817409 0.0 0,1 5.239087,-30.388096" />
      <path d="M 5.239087,-30.388096 A 1.35,0.5473638132817409 0.0 0,1 2.539087,-30.388096" />
      <path d="M 2.539087,-30.388096 A 1.35,0.5473638132817409 0.0 0,1 2.934493,-30.775141" />
      <line x1="11.603048" y1="0.288777" x2="11.603048" y2="1.751362" />
      <line x1="8.903048" y1="0.288777" x2="8.903048" y2="1.751362" />
      <line x1="-29.409145" y1="-16.339808" x2="-29.409145" y2="-14.877224" />
      <line x1="-32.109145" y1="-16.339808" x2="-32.109145" y2="-14.877224" />
      <line x1="46.251281" y1="-13.759511" x2="46.251281" y2="-12.296926" />
      <line x1="43.551281" y1="-13.759511" x2="43.551281" y2="-12.296926" />
      <line x1="5.239087" y1="-30.388096" x2="5.239087" y2="-28.925512" />
      <line x1="2.539087" y1="-30.388096" x2="2.539087" y2="-28.925512" />
    </g>
    <g fill="none" stroke="rgb(127,45,45)" stroke-width="0.4" id="lid_visible">
      <line x1="57.699913" y1="5.985377" x2="57.699913" y2="8.910545" />
      <line x1="56.043059" y1="9.582324" x2="57.699913" y2="8.910545" />
      <line x1="13.081475" y1="29.195176" x2="54.871486" y2="12.251221" />
      <line x1="7.424621" y1="29.195176" x2="-54.871486" y2="3.936928" />
      <line x1="-56.043059" y1="1.268032" x2="-57.699913" y2="0.596252" />
      <line x1="-57.699913" y1="-2.328916" x2="-57.699913" y2="0.596252" />
      <line x1="57.699913" y1="5.985377" x2="-10.253048" y2="-21.566469" />
      <line x1="-57.699913" y1="-2.328916" x2="-10.253048" y2="-21.566469" />
      <line x1="57.699913" y1="8.910545" x2="54.871486" y2="7.763746" />
      <line x1="54.871486" y1="7.763746" x2="54.871486" y2="9.957623" />
      <line x1="54.871486" y1="9.957623" x2="-7.424621" y2="-15.300626" />
      <line x1="-7.424621" y1="-17.494502" x2="-7.424621" y2="-15.300626" />
      <line x1="-7.424621" y1="-17.494502" x2="-10.253048" y2="-18.641301" />
      <line x1="-10.253048" y1="-21.566469" x2="-10.253048" y2="-18.641301" />
      <path d="M 56.043059,8.910545 A 4.0,1.621818706019973 180.0 0,0 54.871486,7.763746" />
      <path d="M 54.871486,12.251221 A 4.0,1.621818706019973 180.0 0,0 56.043059,11.104422" />
      <path d="M 56.043059,11.104422 A 4.0,1.621818706019973 180.0 0,0 54.871486,9.957623" />
      <path d="M 13.081475,29.195176 A 4.0,1.621818706019973 0.0 0,1 7.424621,29.195176" />
      <path d="M -54.871486,1.64333 A 4.0,1.621818706019973 180.0 0,0 -56.043059,2.790129" />
      <path d="M -56.043059,2.790129 A 4.0,1.621818706019973 180.0 0,0 -54.871486,3.936928" />
      <path d="M -13.081475,-15.300626 A 4.0,1.621818706019973 0.0 0,1 -7.424621,-15.300626" />
      <line x1="-54.871486" y1="1.64333" x2="-13.081475" y2="-15.300626" />
      <path d="M 2.404163,14.802848 A 1.6,0.6487274824079892 0.0 0,1 5.135534,15.261568" />
      <path d="M 5.135534,15.261568 A 1.6,0.6487274824079892 0.0 0,1 1.935534,15.261568" />
      <path d="M 1.935534,15.261568 A 1.6,0.6487274824079892 0.0 0,1 2.404163,14.802848" />
      <line x1="-10.111627" y1="10.473682" x2="-1.626346" y2="13.914079" />
      <line x1="-10.111627" y1="10.473682" x2="-8.273149" y2="9.728263" />
      <line x1="-1.626346" y1="13.914079" x2="0.212132" y2="13.16866" />
      <line x1="-8.273149" y1="9.728263" x2="0.212132" y2="13.16866" />
      <line x1="-10.818734" y1="7.893384" x2="4.737615" y2="14.200779" />
      <line x1="-10.818734" y1="7.893384" x2="-8.980256" y2="7.147965" />
      <line x1="4.737615" y1="14.200779" x2="6.576093" y2="13.455359" />
      <line x1="-8.980256" y1="7.147965" x2="6.576093" y2="13.455359" />
      <line x1="-9.758074" y1="6.029836" x2="9.33381" y2="13.770729" />
      <line x1="-9.758074" y1="6.029836" x2="-7.919596" y2="5.284417" />
      <line x1="9.33381" y1="13.770729" x2="11.172287" y2="13.02531" />
      <line x1="-7.919596" y1="5.284417" x2="11.172287" y2="13.02531" />
      <path d="M -14.5664,7.922054 A 1.6,0.6487274824079892 0.0 0,1 -11.835029,8.380774" />
      <path d="M -11.835029,8.380774 A 1.6,0.6487274824079892 0.0 0,1 -15.035029,8.380774" />
      <path d="M -15.035029,8.380774 A 1.6,0.6487274824079892 0.0 0,1 -14.5664,7.922054" />
      <line x1="-7.2832" y1="4.739687" x2="12.51579" y2="12.76728" />
      <line x1="-7.2832" y1="4.739687" x2="-5.444722" y2="3.994268" />
      <line x1="12.51579" y1="12.76728" x2="14.354268" y2="12.021861" />
      <line x1="-5.444722" y1="3.994268" x2="14.354268" y2="12.021861" />
      <line x1="-4.101219" y1="3.736238" x2="14.990664" y2="11.477131" />
      <line x1="-4.101219" y1="3.736238" x2="-2.262742" y2="2.990819" />
      <line x1="14.990664" y1="11.477131" x2="16.829141" y2="10.731712" />
      <line x1="-2.262742" y1="2.990819" x2="16.829141" y2="10.731712" />
      <path d="M 19.374726,7.922054 A 1.6,0.6487274824079892 0.0 0,1 22.106097,8.380774" />
      <path d="M 22.106097,8.380774 A 1.6,0.6487274824079892 0.0 0,1 18.906097,8.380774" />
      <path d="M 18.906097,8.380774 A 1.6,0.6487274824079892 0.0 0,1 19.374726,7.922054" />
      <line x1="0.494975" y1="3.306188" x2="16.051324" y2="9.613583" />
      <line x1="0.494975" y1="3.306188" x2="2.333452" y2="2.560769" />
      <line x1="16.051324" y1="9.613583" x2="17.889802" y2="8.868163" />
      <line x1="2.333452" y1="2.560769" x2="17.889802" y2="8.868163" />
      <line x1="6.858936" y1="3.592888" x2="15.344217" y2="7.033285" />
      <line x1="6.858936" y1="3.592888" x2="8.697413" y2="2.847469" />
      <line x1="15.344217" y1="7.033285" x2="17.182695" y2="6.287866" />
      <line x1="8.697413" y1="2.847469" x2="17.182695" y2="6.287866" />
      <path d="M 2.404163,1.04126 A 1.6,0.6487274824079892 0.0 0,1 5.135534,1.49998" />
      <path d="M 5.135534,1.49998 A 1.6,0.6487274824079892 0.0 0,1 1.935534,1.49998" />
      <path d="M 1.935534,1.49998 A 1.6,0.6487274824079892 0.0 0,1 2.404163,1.04126" />
      <line x1="2.085965" y1="-3.359581" x2="40.269731" y2="12.122206" />
      <line x1="2.085965" y1="-3.359581" x2="8.096373" y2="-5.796529" />
      <line x1="40.269731" y1="12.122206" x2="46.280139" y2="9.685258" />
      <line x1="8.096373" y1="-5.796529" x2="46.280139" y2="9.685258" />
      <path d="M -54.871486,-0.550547 A 4.0,1.621818706019973 180.0 0,0 -56.043059,0.596252" />
      <line x1="-54.871486" y1="-0.550547" x2="-54.871486" y2="1.64333" />
      <line x1="-57.699913" y1="0.596252" x2="-54.871486" y2="-0.550547" />
      <line x1="-13.081475" y1="-17.494502" x2="-10.253048" y2="-18.641301" />
      <line x1="-13.081475" y1="-17.494502" x2="-13.081475" y2="-15.300626" />
      <path d="M -13.081475,-17.494502 A 4.0,1.621818706019973 0.0 0,1 -7.424621,-17.494502" />
      <line x1="-1.626346" y1="12.42324" x2="-1.626346" y2="13.914079" />
      <line x1="4.737615" y1="12.70994" x2="4.737615" y2="14.200779" />
      <line x1="9.33381" y1="12.279891" x2="9.33381" y2="13.770729" />
      <line x1="12.51579" y1="11.276441" x2="12.51579" y2="12.76728" />
      <line x1="14.990664" y1="9.986292" x2="14.990664" y2="11.477131" />
      <line x1="16.051324" y1="8.122744" x2="16.051324" y2="9.613583" />
      <line x1="15.344217" y1="5.542446" x2="15.344217" y2="7.033285" />
      <line x1="40.269731" y1="9.928329" x2="40.269731" y2="12.122206" />
      <line x1="4.791417" y1="-4.456519" x2="40.269731" y2="9.928329" />
      <line x1="40.269731" y1="9.928329" x2="43.574687" y2="8.58832" />
      <line x1="56.043059" y1="8.910545" x2="56.043059" y2="11.104422" />
      <line x1="-56.043059" y1="0.596252" x2="-56.043059" y2="2.790129" />
    </g>
    <g fill="none" stroke="rgb(191,158,158)" stroke-width="0.22" id="lid_hidden" stroke-dasharray="1.397 0.6985">
      <line x1="10.253048" y1="25.22293" x2="10.253048" y2="28.148098" />
      <line x1="10.253048" y1="25.22293" x2="57.699913" y2="5.985377" />
      <line x1="54.871486" y1="10.057344" x2="56.043059" y2="9.582324" />
      <line x1="54.871486" y1="10.057344" x2="54.871486" y2="12.251221" />
      <line x1="13.081475" y1="27.001299" x2="13.081475" y2="29.195176" />
      <line x1="10.253048" y1="28.148098" x2="13.081475" y2="27.001299" />
      <line x1="10.253048" y1="25.22293" x2="-57.699913" y2="-2.328916" />
      <line x1="10.253048" y1="28.148098" x2="7.424621" y2="27.001299" />
      <line x1="7.424621" y1="27.001299" x2="7.424621" y2="29.195176" />
      <line x1="-54.871486" y1="1.743051" x2="-54.871486" y2="3.936928" />
      <line x1="-54.871486" y1="1.743051" x2="-56.043059" y2="1.268032" />
      <line x1="10.253048" y1="24.190811" x2="55.154329" y2="5.985377" />
      <line x1="10.253048" y1="24.190811" x2="-55.154329" y2="-2.328916" />
      <line x1="-55.154329" y1="-2.328916" x2="-10.253048" y2="-20.53435" />
      <line x1="55.154329" y1="5.985377" x2="-10.253048" y2="-20.53435" />
      <path d="M 54.871486,10.057344 A 4.0,1.621818706019973 180.0 0,0 56.043059,8.910545" />
      <path d="M 13.081475,27.001299 A 4.0,1.621818706019973 0.0 0,1 7.424621,27.001299" />
      <path d="M -56.043059,0.596252 A 4.0,1.621818706019973 180.0 0,0 -54.871486,1.743051" />
      <line x1="10.253048" y1="24.190811" x2="10.253048" y2="27.115979" />
      <line x1="10.253048" y1="27.115979" x2="55.154329" y2="8.910545" />
      <line x1="55.154329" y1="5.985377" x2="55.154329" y2="8.910545" />
      <line x1="-55.154329" y1="-2.328916" x2="-55.154329" y2="0.596252" />
      <line x1="10.253048" y1="27.115979" x2="-55.154329" y2="0.596252" />
      <line x1="-55.154329" y1="0.596252" x2="-10.253048" y2="-17.609182" />
      <line x1="-10.253048" y1="-20.53435" x2="-10.253048" y2="-17.609182" />
      <line x1="55.154329" y1="8.910545" x2="-10.253048" y2="-17.609182" />
      <path d="M 2.404163,12.608972 A 1.6,0.6487274824079892 0.0 0,1 5.135534,13.067692" />
      <path d="M 5.135534,13.067692 A 1.6,0.6487274824079892 0.0 0,1 1.935534,13.067692" />
      <path d="M 1.935534,13.067692 A 1.6,0.6487274824079892 0.0 0,1 2.404163,12.608972" />
      <line x1="-10.111627" y1="8.279806" x2="-10.111627" y2="10.473682" />
      <line x1="-1.626346" y1="11.720203" x2="-1.626346" y2="12.42324" />
      <line x1="-10.111627" y1="8.279806" x2="-1.626346" y2="11.720203" />
      <line x1="-8.273149" y1="7.534386" x2="-8.273149" y2="9.728263" />
      <line x1="-10.111627" y1="8.279806" x2="-8.273149" y2="7.534386" />
      <line x1="0.212132" y1="10.974783" x2="0.212132" y2="13.16866" />
      <line x1="-1.626346" y1="11.720203" x2="0.212132" y2="10.974783" />
      <line x1="-8.273149" y1="7.534386" x2="0.212132" y2="10.974783" />
      <line x1="-10.818734" y1="5.699508" x2="-10.818734" y2="7.893384" />
      <line x1="4.737615" y1="12.006902" x2="4.737615" y2="12.70994" />
      <line x1="-10.818734" y1="5.699508" x2="4.737615" y2="12.006902" />
      <line x1="-8.980256" y1="4.954089" x2="-8.980256" y2="7.147965" />
      <line x1="-10.818734" y1="5.699508" x2="-8.980256" y2="4.954089" />
      <line x1="6.576093" y1="11.261483" x2="6.576093" y2="13.455359" />
      <line x1="4.737615" y1="12.006902" x2="6.576093" y2="11.261483" />
      <line x1="-8.980256" y1="4.954089" x2="6.576093" y2="11.261483" />
      <line x1="-9.758074" y1="3.83596" x2="-9.758074" y2="6.029836" />
      <line x1="9.33381" y1="11.576853" x2="9.33381" y2="12.279891" />
      <line x1="-9.758074" y1="3.83596" x2="9.33381" y2="11.576853" />
      <line x1="-7.919596" y1="3.09054" x2="-7.919596" y2="5.284417" />
      <line x1="-9.758074" y1="3.83596" x2="-7.919596" y2="3.09054" />
      <line x1="11.172287" y1="10.831433" x2="11.172287" y2="13.02531" />
      <line x1="9.33381" y1="11.576853" x2="11.172287" y2="10.831433" />
      <line x1="-7.919596" y1="3.09054" x2="11.172287" y2="10.831433" />
      <path d="M -14.5664,5.728178 A 1.6,0.6487274824079892 0.0 0,1 -11.835029,6.186898" />
      <path d="M -11.835029,6.186898 A 1.6,0.6487274824079892 0.0 0,1 -15.035029,6.186898" />
      <path d="M -15.035029,6.186898 A 1.6,0.6487274824079892 0.0 0,1 -14.5664,5.728178" />
      <line x1="-7.2832" y1="2.545811" x2="-7.2832" y2="4.739687" />
      <line x1="12.51579" y1="10.573404" x2="12.51579" y2="11.276441" />
      <line x1="-7.2832" y1="2.545811" x2="12.51579" y2="10.573404" />
      <line x1="-5.444722" y1="1.800391" x2="-5.444722" y2="3.994268" />
      <line x1="-7.2832" y1="2.545811" x2="-5.444722" y2="1.800391" />
      <line x1="14.354268" y1="9.827984" x2="14.354268" y2="12.021861" />
      <line x1="12.51579" y1="10.573404" x2="14.354268" y2="9.827984" />
      <line x1="-5.444722" y1="1.800391" x2="14.354268" y2="9.827984" />
      <line x1="-4.101219" y1="1.542362" x2="-4.101219" y2="3.736238" />
      <line x1="14.990664" y1="9.283255" x2="14.990664" y2="9.986292" />
      <line x1="-4.101219" y1="1.542362" x2="14.990664" y2="9.283255" />
      <line x1="-2.262742" y1="0.796942" x2="-2.262742" y2="2.990819" />
      <line x1="-4.101219" y1="1.542362" x2="-2.262742" y2="0.796942" />
      <line x1="16.829141" y1="8.537835" x2="16.829141" y2="10.731712" />
      <line x1="14.990664" y1="9.283255" x2="16.829141" y2="8.537835" />
      <line x1="-2.262742" y1="0.796942" x2="16.829141" y2="8.537835" />
      <path d="M 19.374726,5.728178 A 1.6,0.6487274824079892 0.0 0,1 22.106097,6.186898" />
      <path d="M 22.106097,6.186898 A 1.6,0.6487274824079892 0.0 0,1 18.906097,6.186898" />
      <path d="M 18.906097,6.186898 A 1.6,0.6487274824079892 0.0 0,1 19.374726,5.728178" />
      <line x1="0.494975" y1="1.112312" x2="0.494975" y2="3.306188" />
      <line x1="16.051324" y1="7.419706" x2="16.051324" y2="8.122744" />
      <line x1="0.494975" y1="1.112312" x2="16.051324" y2="7.419706" />
      <line x1="2.333452" y1="0.366893" x2="2.333452" y2="2.560769" />
      <line x1="0.494975" y1="1.112312" x2="2.333452" y2="0.366893" />
      <line x1="17.889802" y1="6.674287" x2="17.889802" y2="8.868163" />
      <line x1="16.051324" y1="7.419706" x2="17.889802" y2="6.674287" />
      <line x1="2.333452" y1="0.366893" x2="17.889802" y2="6.674287" />
      <line x1="6.858936" y1="1.399012" x2="6.858936" y2="3.592888" />
      <line x1="15.344217" y1="4.839409" x2="15.344217" y2="5.542446" />
      <line x1="6.858936" y1="1.399012" x2="15.344217" y2="4.839409" />
      <line x1="8.697413" y1="0.653592" x2="8.697413" y2="2.847469" />
      <line x1="6.858936" y1="1.399012" x2="8.697413" y2="0.653592" />
      <line x1="17.182695" y1="4.093989" x2="17.182695" y2="6.287866" />
      <line x1="15.344217" y1="4.839409" x2="17.182695" y2="4.093989" />
      <line x1="8.697413" y1="0.653592" x2="17.182695" y2="4.093989" />
      <path d="M 2.404163,-1.152616 A 1.6,0.6487274824079892 0.0 0,1 5.135534,-0.693896" />
      <path d="M 5.135534,-0.693896 A 1.6,0.6487274824079892 0.0 0,1 1.935534,-0.693896" />
      <path d="M 1.935534,-0.693896 A 1.6,0.6487274824079892 0.0 0,1 2.404163,-1.152616" />
      <line x1="2.085965" y1="-5.553457" x2="2.085965" y2="-3.359581" />
      <line x1="2.085965" y1="-5.553457" x2="4.791417" y2="-4.456519" />
      <line x1="8.096373" y1="-7.990405" x2="8.096373" y2="-5.796529" />
      <line x1="2.085965" y1="-5.553457" x2="8.096373" y2="-7.990405" />
      <line x1="46.280139" y1="7.491381" x2="46.280139" y2="9.685258" />
      <line x1="43.574687" y1="8.58832" x2="46.280139" y2="7.491381" />
      <line x1="8.096373" y1="-7.990405" x2="46.280139" y2="7.491381" />
      <line x1="5.135534" y1="13.067692" x2="5.135534" y2="15.261568" />
      <line x1="1.935534" y1="13.067692" x2="1.935534" y2="15.261568" />
      <line x1="-11.835029" y1="6.186898" x2="-11.835029" y2="8.380774" />
      <line x1="-15.035029" y1="6.186898" x2="-15.035029" y2="8.380774" />
      <line x1="22.106097" y1="6.186898" x2="22.106097" y2="8.380774" />
      <line x1="18.906097" y1="6.186898" x2="18.906097" y2="8.380774" />
      <line x1="5.135534" y1="-0.693896" x2="5.135534" y2="1.49998" />
      <line x1="1.935534" y1="-0.693896" x2="1.935534" y2="1.49998" />
    </g>
  </g>
</svg>