<?xml version='1.0' encoding='utf-8'?>
<svg width="125.799827mm" height="105.854047mm" viewBox="-63.08361 -55.241903 125.799827 105.854047" version="1.1" xmlns="http://www.w3.org/2000/svg">
  <g transform="scale(1,-1)" stroke-linecap="round">
    <g fill="none" stroke="rgb(173,215,230)" stroke-width="0.4" id="rpi4_base_visible">
      <path d="M 7.80661,11.929126 A 3.2,1.8475208614068028 0.0 0,1 13.269351,13.235521" />
      <path d="M 6.869351,13.235521 A 3.2,1.8475208614068028 0.0 0,1 7.80661,11.929126" />
      <path d="M 7.80661,15.195113 A 3.2,1.8475208614068028 0.0 0,1 13.269351,16.501507" />
      <path d="M 13.269351,16.501507 A 3.2,1.8475208614068028 0.0 0,1 6.869351,16.501507" />
      <path d="M 6.869351,16.501507 A 3.2,1.8475208614068028 0.0 0,1 7.80661,15.195113" />
      <line x1="13.269351" y1="15.225534" x2="36.090881" y2="2.049518" />
      <line x1="6.869351" y1="15.225534" x2="-29.229877" y2="-5.616365" />
      <line x1="-34.142842" y1="-8.452867" x2="-36.458275" y2="-9.789683" />
      <path d="M -32.573624,-12.032487 A 3.2,1.8475208614068028 0.0 0,1 -27.742842,-10.44288" />
      <path d="M -34.142842,-10.44288 A 3.2,1.8475208614068028 0.0 0,1 -33.696122,-11.384413" />
      <line x1="2.998283" y1="0.579824" x2="5.119604" y2="1.804569" />
      <line x1="2.998283" y1="0.579824" x2="18.27179" y2="-8.238339" />
      <line x1="5.119604" y1="1.804569" x2="20.39311" y2="-7.013594" />
      <line x1="-1.244357" y1="-1.869666" x2="0.876963" y2="-0.644921" />
      <line x1="-1.244357" y1="-1.869666" x2="14.029149" y2="-10.687829" />
      <line x1="0.876963" y1="-0.644921" x2="16.15047" y2="-9.463084" />
      <line x1="-5.486998" y1="-4.319156" x2="-3.365678" y2="-3.094411" />
      <line x1="-5.486998" y1="-4.319156" x2="9.786509" y2="-13.137319" />
      <line x1="-3.365678" y1="-3.094411" x2="11.907829" y2="-11.912574" />
      <line x1="-9.729639" y1="-6.768645" x2="-7.608318" y2="-5.5439" />
      <line x1="-9.729639" y1="-6.768645" x2="5.543868" y2="-15.586808" />
      <line x1="-7.608318" y1="-5.5439" x2="7.665188" y2="-14.362063" />
      <line x1="-13.972279" y1="-9.218135" x2="-11.850959" y2="-7.99339" />
      <line x1="-13.972279" y1="-9.218135" x2="1.301227" y2="-18.036298" />
      <line x1="-11.850959" y1="-7.99339" x2="3.422547" y2="-16.811553" />
      <line x1="-18.21492" y1="-11.667625" x2="-16.0936" y2="-10.44288" />
      <line x1="-18.21492" y1="-11.667625" x2="-2.941414" y2="-20.485788" />
      <line x1="-16.0936" y1="-10.44288" x2="-0.820093" y2="-19.261043" />
      <line x1="-22.457561" y1="-14.117115" x2="-20.33624" y2="-12.89237" />
      <line x1="-22.457561" y1="-14.117115" x2="-7.184054" y2="-22.935278" />
      <line x1="-20.33624" y1="-12.89237" x2="-5.062734" y2="-21.710533" />
      <path d="M 9.044046,15.909547 A 1.45,0.8371578903249575 0.0 0,1 11.519351,16.501507" />
      <path d="M 11.519351,16.501507 A 1.45,0.8371578903249575 0.0 0,1 8.619351,16.501507" />
      <path d="M 8.619351,16.501507 A 1.45,0.8371578903249575 0.0 0,1 9.044046,15.909547" />
      <line x1="10.069351" y1="18.349028" x2="10.069351" y2="34.709381" />
      <line x1="10.069351" y1="34.709381" x2="51.364387" y2="10.867681" />
      <line x1="-10.436745" y1="-24.81322" x2="51.364387" y2="10.867681" />
      <line x1="-51.731781" y1="-0.97152" x2="10.069351" y2="34.709381" />
      <line x1="-51.731781" y1="-0.97152" x2="-10.436745" y2="-24.81322" />
      <path d="M -33.205584,-8.483288 A 3.2,1.8475208614068028 0.0 0,1 -27.742842,-7.176894" />
      <path d="M -27.742842,-7.176894 A 3.200000000000001,1.8475208614068033 0.0 0,1 -34.142842,-7.176894" />
      <path d="M -34.142842,-7.176894 A 3.2,1.8475208614068028 0.0 0,1 -33.205584,-8.483288" />
      <line x1="5.119604" y1="-0.155023" x2="5.119604" y2="1.804569" />
      <line x1="4.69534" y1="-0.399972" x2="5.119604" y2="-0.155023" />
      <line x1="5.119604" y1="-0.155023" x2="18.696054" y2="-7.99339" />
      <line x1="0.876963" y1="-2.604513" x2="0.876963" y2="-0.644921" />
      <line x1="0.452699" y1="-2.849462" x2="0.876963" y2="-2.604513" />
      <line x1="0.876963" y1="-2.604513" x2="14.453413" y2="-10.44288" />
      <line x1="-3.365678" y1="-5.054002" x2="-3.365678" y2="-3.094411" />
      <line x1="-3.789942" y1="-5.298951" x2="-3.365678" y2="-5.054002" />
      <line x1="-3.365678" y1="-5.054002" x2="10.210773" y2="-12.89237" />
      <line x1="-7.608318" y1="-7.503492" x2="-7.608318" y2="-5.5439" />
      <line x1="-8.032582" y1="-7.748441" x2="-7.608318" y2="-7.503492" />
      <line x1="-7.608318" y1="-7.503492" x2="5.968132" y2="-15.341859" />
      <line x1="-11.850959" y1="-9.952982" x2="-11.850959" y2="-7.99339" />
      <line x1="-12.275223" y1="-10.197931" x2="-11.850959" y2="-9.952982" />
      <line x1="-11.850959" y1="-9.952982" x2="1.725491" y2="-17.791349" />
      <line x1="-16.0936" y1="-12.402472" x2="-16.0936" y2="-10.44288" />
      <line x1="-16.517864" y1="-12.647421" x2="-16.0936" y2="-12.402472" />
      <line x1="-16.0936" y1="-12.402472" x2="-2.517149" y2="-20.240839" />
      <line x1="-20.33624" y1="-14.851961" x2="-20.33624" y2="-12.89237" />
      <line x1="-20.760504" y1="-15.09691" x2="-20.33624" y2="-14.851961" />
      <line x1="-20.33624" y1="-14.851961" x2="-6.75979" y2="-22.690329" />
      <line x1="12.897778" y1="35.03598" x2="51.930073" y2="12.500674" />
      <path d="M 12.897778,35.03598 A 4.0,2.3094010767585034 0.0 0,1 7.240924,35.03598" />
      <path d="M 51.930073,12.500674 A 4.0,2.3094010767585034 180.0 0,0 53.101646,10.867681" />
      <path d="M 53.101646,10.867681 A 4.0,2.3094010767585034 180.0 0,0 51.930073,9.234688" />
      <line x1="7.240924" y1="35.03598" x2="-52.297467" y2="0.661474" />
      <line x1="51.930073" y1="9.234688" x2="-7.608318" y2="-25.139818" />
      <path d="M -52.297467,-2.604513 A 4.0,2.3094010767585034 180.0 0,0 -53.46904,-0.97152" />
      <path d="M -53.46904,-0.97152 A 4.0,2.3094010767585034 180.0 0,0 -52.297467,0.661474" />
      <path d="M -13.265173,-25.139818 A 4.0,2.3094010767585034 0.0 0,1 -7.608318,-25.139818" />
      <line x1="-52.297467" y1="-2.604513" x2="-13.265173" y2="-25.139818" />
      <path d="M -31.968147,-7.768854 A 1.45,0.8371578903249575 0.0 0,1 -29.492842,-7.176894" />
      <path d="M -29.492842,-7.176894 A 1.4500000000000008,0.837157890324958 0.0 0,1 -32.392842,-7.176894" />
      <path d="M -32.392842,-7.176894 A 1.45,0.8371578903249575 0.0 0,1 -31.968147,-7.768854" />
      <path d="M 53.101646,-8.728237 A 4.0,2.3094010767585034 180.0 0,0 51.930073,-10.36123" />
      <line x1="51.930073" y1="-10.36123" x2="-7.608318" y2="-44.735736" />
      <path d="M -52.297467,-22.200431 A 4.0,2.3094010767585034 180.0 0,0 -53.46904,-20.567438" />
      <path d="M -13.265173,-44.735736 A 4.0,2.3094010767585034 0.0 0,1 -7.608318,-44.735736" />
      <line x1="-52.297467" y1="-22.200431" x2="-13.265173" y2="-44.735736" />
      <line x1="-14.04299" y1="-39.877582" x2="-26.063805" y2="-32.937361" />
      <line x1="-14.04299" y1="-39.877582" x2="-14.04299" y2="-27.466834" />
      <line x1="-14.04299" y1="-27.466834" x2="-26.063805" y2="-20.526613" />
      <line x1="-26.063805" y1="-32.937361" x2="-26.063805" y2="-20.526613" />
      <line x1="-26.947689" y1="-32.42705" x2="-38.614951" y2="-25.690954" />
      <line x1="-26.947689" y1="-32.42705" x2="-26.947689" y2="-18.22001" />
      <line x1="-38.614951" y1="-25.690954" x2="-38.614951" y2="-11.483913" />
      <line x1="-26.947689" y1="-18.22001" x2="-38.614951" y2="-11.483913" />
      <line x1="-39.675611" y1="-25.078581" x2="-51.342873" y2="-18.342484" />
      <line x1="-39.675611" y1="-25.078581" x2="-39.675611" y2="-10.871541" />
      <line x1="-51.342873" y1="-18.342484" x2="-51.342873" y2="-4.135444" />
      <line x1="-39.675611" y1="-10.871541" x2="-51.342873" y2="-4.135444" />
      <line x1="-24.50817" y1="-32.039214" x2="-26.063805" y2="-32.937361" />
      <line x1="-24.50817" y1="-32.039214" x2="-14.04299" y2="-38.081289" />
      <line x1="-24.50817" y1="-32.039214" x2="-24.50817" y2="-21.424759" />
      <line x1="-37.059316" y1="-24.792807" x2="-38.614951" y2="-25.690954" />
      <line x1="-37.059316" y1="-24.792807" x2="-26.947689" y2="-30.630758" />
      <line x1="-37.059316" y1="-24.792807" x2="-37.059316" y2="-12.382059" />
      <line x1="-49.787238" y1="-17.444338" x2="-51.342873" y2="-18.342484" />
      <line x1="-49.787238" y1="-17.444338" x2="-39.675611" y2="-23.282289" />
      <line x1="-49.787238" y1="-17.444338" x2="-49.787238" y2="-5.03359" />
      <line x1="51.930073" y1="-10.36123" x2="51.930073" y2="9.234688" />
      <line x1="-7.608318" y1="-44.735736" x2="-7.608318" y2="-25.139818" />
      <line x1="-52.297467" y1="-22.200431" x2="-52.297467" y2="-2.604513" />
      <line x1="-13.265173" y1="-44.735736" x2="-13.265173" y2="-25.139818" />
      <line x1="13.269351" y1="13.235521" x2="13.269351" y2="16.501507" />
      <line x1="6.869351" y1="13.235521" x2="6.869351" y2="16.501507" />
      <line x1="-27.742842" y1="-10.44288" x2="-27.742842" y2="-7.176894" />
      <line x1="-34.142842" y1="-10.44288" x2="-34.142842" y2="-7.176894" />
      <line x1="53.101646" y1="-8.728237" x2="53.101646" y2="10.867681" />
      <line x1="-53.46904" y1="-20.567438" x2="-53.46904" y2="-0.97152" />
    </g>
    <g fill="none" stroke="rgb(173,215,230)" stroke-width="0.15" id="rpi4_base_hidden">
      <path d="M 13.269351,13.235521 A 3.2,1.8475208614068028 0.0 0,1 6.869351,13.235521" />
      <line x1="10.069351" y1="17.073055" x2="13.269351" y2="15.225534" />
      <line x1="36.090881" y1="2.049518" x2="51.364387" y2="-6.768645" />
      <line x1="51.364387" y1="-6.768645" x2="-10.436745" y2="-42.449546" />
      <line x1="10.069351" y1="17.073055" x2="6.869351" y2="15.225534" />
      <line x1="-29.229877" y1="-5.616365" x2="-34.142842" y2="-8.452867" />
      <line x1="-36.458275" y1="-9.789683" x2="-51.731781" y2="-18.607846" />
      <line x1="-51.731781" y1="-18.607846" x2="-10.436745" y2="-42.449546" />
      <path d="M -33.205584,-11.749274 A 3.2,1.8475208614068028 0.0 0,1 -32.573624,-12.032487" />
      <path d="M -27.742842,-10.44288 A 3.200000000000001,1.8475208614068033 0.0 0,1 -34.142842,-10.44288" />
      <path d="M -33.696122,-11.384413 A 3.2,1.8475208614068028 0.0 0,1 -33.205584,-11.749274" />
      <line x1="18.27179" y1="-8.238339" x2="22.797273" y2="-10.851128" />
      <line x1="22.797273" y1="-10.851128" x2="24.918594" y2="-9.626383" />
      <line x1="20.39311" y1="-7.013594" x2="24.918594" y2="-9.626383" />
      <line x1="14.029149" y1="-10.687829" x2="18.554633" y2="-13.300618" />
      <line x1="18.554633" y1="-13.300618" x2="20.675953" y2="-12.075873" />
      <line x1="16.15047" y1="-9.463084" x2="20.675953" y2="-12.075873" />
      <path d="M 42.454842,-8.07504 A 3.2,1.8475208614068028 0.0 0,1 47.917584,-6.768645" />
      <path d="M 47.917584,-6.768645 A 3.2,1.8475208614068028 0.0 0,1 41.517584,-6.768645" />
      <path d="M 41.517584,-6.768645 A 3.2,1.8475208614068028 0.0 0,1 42.454842,-8.07504" />
      <line x1="9.786509" y1="-13.137319" x2="14.311992" y2="-15.750108" />
      <line x1="14.311992" y1="-15.750108" x2="16.433312" y2="-14.525363" />
      <line x1="11.907829" y1="-11.912574" x2="16.433312" y2="-14.525363" />
      <line x1="5.543868" y1="-15.586808" x2="10.069351" y2="-18.199597" />
      <line x1="10.069351" y1="-18.199597" x2="12.190672" y2="-16.974853" />
      <line x1="7.665188" y1="-14.362063" x2="12.190672" y2="-16.974853" />
      <line x1="1.301227" y1="-18.036298" x2="5.826711" y2="-20.649087" />
      <line x1="5.826711" y1="-20.649087" x2="7.948031" y2="-19.424342" />
      <line x1="3.422547" y1="-16.811553" x2="7.948031" y2="-19.424342" />
      <line x1="-2.941414" y1="-20.485788" x2="1.58407" y2="-23.098577" />
      <line x1="1.58407" y1="-23.098577" x2="3.70539" y2="-21.873832" />
      <line x1="-0.820093" y1="-19.261043" x2="3.70539" y2="-21.873832" />
      <line x1="-7.184054" y1="-22.935278" x2="-2.658571" y2="-25.548067" />
      <line x1="-2.658571" y1="-25.548067" x2="-0.53725" y2="-24.323322" />
      <line x1="-5.062734" y1="-21.710533" x2="-0.53725" y2="-24.323322" />
      <path d="M 1.442648,-31.753441 A 3.2,1.8475208614068028 0.0 0,1 6.90539,-30.447046" />
      <path d="M 6.90539,-30.447046 A 3.2,1.8475208614068028 0.0 0,1 0.50539,-30.447046" />
      <path d="M 0.50539,-30.447046 A 3.2,1.8475208614068028 0.0 0,1 1.442648,-31.753441" />
      <line x1="10.069351" y1="17.073055" x2="10.069351" y2="18.349028" />
      <line x1="51.364387" y1="-6.768645" x2="51.364387" y2="10.867681" />
      <line x1="-10.436745" y1="-42.449546" x2="-10.436745" y2="-24.81322" />
      <line x1="-51.731781" y1="-18.607846" x2="-51.731781" y2="-0.97152" />
      <line x1="2.998283" y1="-1.379768" x2="2.998283" y2="0.579824" />
      <line x1="2.998283" y1="-1.379768" x2="4.69534" y2="-0.399972" />
      <line x1="22.797273" y1="-12.81072" x2="22.797273" y2="-10.851128" />
      <line x1="2.998283" y1="-1.379768" x2="22.797273" y2="-12.81072" />
      <line x1="24.918594" y1="-11.585975" x2="24.918594" y2="-9.626383" />
      <line x1="22.797273" y1="-12.81072" x2="24.918594" y2="-11.585975" />
      <line x1="18.696054" y1="-7.99339" x2="24.918594" y2="-11.585975" />
      <line x1="-1.244357" y1="-3.829258" x2="-1.244357" y2="-1.869666" />
      <line x1="-1.244357" y1="-3.829258" x2="0.452699" y2="-2.849462" />
      <line x1="18.554633" y1="-15.26021" x2="18.554633" y2="-13.300618" />
      <line x1="-1.244357" y1="-3.829258" x2="18.554633" y2="-15.26021" />
      <line x1="20.675953" y1="-14.035465" x2="20.675953" y2="-12.075873" />
      <line x1="18.554633" y1="-15.26021" x2="20.675953" y2="-14.035465" />
      <line x1="14.453413" y1="-10.44288" x2="20.675953" y2="-14.035465" />
      <path d="M 42.454842,-4.809053 A 3.2,1.8475208614068028 0.0 0,1 47.917584,-3.502659" />
      <path d="M 47.917584,-3.502659 A 3.2,1.8475208614068028 0.0 0,1 41.517584,-3.502659" />
      <path d="M 41.517584,-3.502659 A 3.2,1.8475208614068028 0.0 0,1 42.454842,-4.809053" />
      <line x1="-5.486998" y1="-6.278747" x2="-5.486998" y2="-4.319156" />
      <line x1="-5.486998" y1="-6.278747" x2="-3.789942" y2="-5.298951" />
      <line x1="14.311992" y1="-17.709699" x2="14.311992" y2="-15.750108" />
      <line x1="-5.486998" y1="-6.278747" x2="14.311992" y2="-17.709699" />
      <line x1="16.433312" y1="-16.484955" x2="16.433312" y2="-14.525363" />
      <line x1="14.311992" y1="-17.709699" x2="16.433312" y2="-16.484955" />
      <line x1="10.210773" y1="-12.89237" x2="16.433312" y2="-16.484955" />
      <line x1="-9.729639" y1="-8.728237" x2="-9.729639" y2="-6.768645" />
      <line x1="-9.729639" y1="-8.728237" x2="-8.032582" y2="-7.748441" />
      <line x1="10.069351" y1="-20.159189" x2="10.069351" y2="-18.199597" />
      <line x1="-9.729639" y1="-8.728237" x2="10.069351" y2="-20.159189" />
      <line x1="12.190672" y1="-18.934444" x2="12.190672" y2="-16.974853" />
      <line x1="10.069351" y1="-20.159189" x2="12.190672" y2="-18.934444" />
      <line x1="5.968132" y1="-15.341859" x2="12.190672" y2="-18.934444" />
      <line x1="-13.972279" y1="-11.177727" x2="-13.972279" y2="-9.218135" />
      <line x1="-13.972279" y1="-11.177727" x2="-12.275223" y2="-10.197931" />
      <line x1="5.826711" y1="-22.608679" x2="5.826711" y2="-20.649087" />
      <line x1="-13.972279" y1="-11.177727" x2="5.826711" y2="-22.608679" />
      <line x1="7.948031" y1="-21.383934" x2="7.948031" y2="-19.424342" />
      <line x1="5.826711" y1="-22.608679" x2="7.948031" y2="-21.383934" />
      <line x1="1.725491" y1="-17.791349" x2="7.948031" y2="-21.383934" />
      <line x1="-18.21492" y1="-13.627217" x2="-18.21492" y2="-11.667625" />
      <line x1="-18.21492" y1="-13.627217" x2="-16.517864" y2="-12.647421" />
      <line x1="1.58407" y1="-25.058169" x2="1.58407" y2="-23.098577" />
      <line x1="-18.21492" y1="-13.627217" x2="1.58407" y2="-25.058169" />
      <line x1="3.70539" y1="-23.833424" x2="3.70539" y2="-21.873832" />
      <line x1="1.58407" y1="-25.058169" x2="3.70539" y2="-23.833424" />
      <line x1="-2.517149" y1="-20.240839" x2="3.70539" y2="-23.833424" />
      <line x1="-22.457561" y1="-16.076706" x2="-22.457561" y2="-14.117115" />
      <line x1="-22.457561" y1="-16.076706" x2="-20.760504" y2="-15.09691" />
      <line x1="-2.658571" y1="-27.507658" x2="-2.658571" y2="-25.548067" />
      <line x1="-22.457561" y1="-16.076706" x2="-2.658571" y2="-27.507658" />
      <line x1="-0.53725" y1="-26.282914" x2="-0.53725" y2="-24.323322" />
      <line x1="-2.658571" y1="-27.507658" x2="-0.53725" y2="-26.282914" />
      <line x1="-6.75979" y1="-22.690329" x2="-0.53725" y2="-26.282914" />
      <path d="M 1.442648,-28.487454 A 3.2,1.8475208614068028 0.0 0,1 6.90539,-27.18106" />
      <path d="M 6.90539,-27.18106 A 3.2,1.8475208614068028 0.0 0,1 0.50539,-27.18106" />
      <path d="M 0.50539,-27.18106 A 3.2,1.8475208614068028 0.0 0,1 1.442648,-28.487454" />
      <path d="M 9.044046,10.683969 A 1.45,0.8371578903249575 0.0 0,1 11.519351,11.275929" />
      <path d="M 11.519351,11.275929 A 1.45,0.8371578903249575 0.0 0,1 8.619351,11.275929" />
      <path d="M 8.619351,11.275929 A 1.45,0.8371578903249575 0.0 0,1 9.044046,10.683969" />
      <line x1="12.897778" y1="15.440062" x2="51.930073" y2="-7.095244" />
      <path d="M 12.897778,15.440062 A 4.0,2.3094010767585034 0.0 0,1 7.240924,15.440062" />
      <path d="M 51.930073,-7.095244 A 4.0,2.3094010767585034 180.0 0,0 53.101646,-8.728237" />
      <line x1="7.240924" y1="15.440062" x2="-52.297467" y2="-18.934444" />
      <path d="M -53.46904,-20.567438 A 4.0,2.3094010767585034 180.0 0,0 -52.297467,-18.934444" />
      <path d="M -31.968147,-12.994432 A 1.45,0.8371578903249575 0.0 0,1 -29.492842,-12.402472" />
      <path d="M -29.492842,-12.402472 A 1.4500000000000008,0.837157890324958 0.0 0,1 -32.392842,-12.402472" />
      <path d="M -32.392842,-12.402472 A 1.45,0.8371578903249575 0.0 0,1 -31.968147,-12.994432" />
      <path d="M 43.692279,-9.320197 A 1.45,0.8371578903249575 0.0 0,1 46.167584,-8.728237" />
      <path d="M 46.167584,-8.728237 A 1.45,0.8371578903249575 0.0 0,1 43.267584,-8.728237" />
      <path d="M 43.267584,-8.728237 A 1.45,0.8371578903249575 0.0 0,1 43.692279,-9.320197" />
      <path d="M 2.680085,-32.998598 A 1.45,0.8371578903249575 0.0 0,1 5.15539,-32.406638" />
      <path d="M 5.15539,-32.406638 A 1.45,0.8371578903249575 0.0 0,1 2.25539,-32.406638" />
      <path d="M 2.25539,-32.406638 A 1.45,0.8371578903249575 0.0 0,1 2.680085,-32.998598" />
      <path d="M 43.692279,-4.094619 A 1.45,0.8371578903249575 0.0 0,1 46.167584,-3.502659" />
      <path d="M 46.167584,-3.502659 A 1.45,0.8371578903249575 0.0 0,1 43.267584,-3.502659" />
      <path d="M 43.267584,-3.502659 A 1.45,0.8371578903249575 0.0 0,1 43.692279,-4.094619" />
      <path d="M 2.680085,-27.77302 A 1.45,0.8371578903249575 0.0 0,1 5.15539,-27.18106" />
      <path d="M 5.15539,-27.18106 A 1.45,0.8371578903249575 0.0 0,1 2.25539,-27.18106" />
      <path d="M 2.25539,-27.18106 A 1.45,0.8371578903249575 0.0 0,1 2.680085,-27.77302" />
      <line x1="27.464178" y1="9.153038" x2="15.443363" y2="16.093259" />
      <line x1="27.464178" y1="9.153038" x2="27.464178" y2="13.39882" />
      <line x1="27.464178" y1="13.39882" x2="15.443363" y2="20.339041" />
      <line x1="15.443363" y1="16.093259" x2="15.443363" y2="20.339041" />
      <line x1="5.048893" y1="23.319254" x2="-4.143495" y2="18.012026" />
      <line x1="5.048893" y1="23.319254" x2="5.048893" y2="18.420274" />
      <line x1="-4.143495" y1="18.012026" x2="-4.143495" y2="13.113046" />
      <line x1="5.048893" y1="18.420274" x2="-4.143495" y2="13.113046" />
      <line x1="-9.517507" y1="14.909339" x2="-16.588574" y2="10.826856" />
      <line x1="-9.517507" y1="14.909339" x2="-9.517507" y2="10.173659" />
      <line x1="-16.588574" y1="10.826856" x2="-16.588574" y2="6.091176" />
      <line x1="-9.517507" y1="10.173659" x2="-16.588574" y2="6.091176" />
      <line x1="-19.063448" y1="9.397987" x2="-26.134516" y2="5.315504" />
      <line x1="-19.063448" y1="9.397987" x2="-19.063448" y2="4.662307" />
      <line x1="-26.134516" y1="5.315504" x2="-26.134516" y2="0.579824" />
      <line x1="-19.063448" y1="4.662307" x2="-26.134516" y2="0.579824" />
      <line x1="-32.78132" y1="3.274263" x2="-39.852388" y2="-0.80822" />
      <line x1="-39.852388" y1="-0.80822" x2="-39.852388" y2="-7.503492" />
      <line x1="-32.78132" y1="-3.421009" x2="-39.852388" y2="-7.503492" />
      <line x1="-32.78132" y1="3.274263" x2="-32.78132" y2="-3.421009" />
      <line x1="27.464178" y1="9.153038" x2="25.908543" y2="8.254892" />
      <line x1="13.887728" y1="15.195113" x2="25.908543" y2="8.254892" />
      <line x1="15.443363" y1="16.093259" x2="13.887728" y2="15.195113" />
      <line x1="25.908543" y1="8.254892" x2="25.908543" y2="12.500674" />
      <line x1="27.464178" y1="13.39882" x2="25.908543" y2="12.500674" />
      <line x1="13.887728" y1="19.440895" x2="25.908543" y2="12.500674" />
      <line x1="15.443363" y1="20.339041" x2="13.887728" y2="19.440895" />
      <line x1="13.887728" y1="15.195113" x2="13.887728" y2="19.440895" />
      <line x1="5.048893" y1="23.319254" x2="6.604528" y2="22.421107" />
      <line x1="6.604528" y1="22.421107" x2="-2.58786" y2="17.11388" />
      <line x1="-4.143495" y1="18.012026" x2="-2.58786" y2="17.11388" />
      <line x1="6.604528" y1="17.522128" x2="6.604528" y2="22.421107" />
      <line x1="5.048893" y1="18.420274" x2="6.604528" y2="17.522128" />
      <line x1="-2.58786" y1="12.2149" x2="-2.58786" y2="17.11388" />
      <line x1="-4.143495" y1="13.113046" x2="-2.58786" y2="12.2149" />
      <line x1="6.604528" y1="17.522128" x2="-2.58786" y2="12.2149" />
      <line x1="-9.517507" y1="14.909339" x2="-7.961872" y2="14.011193" />
      <line x1="-7.961872" y1="14.011193" x2="-15.03294" y2="9.92871" />
      <line x1="-16.588574" y1="10.826856" x2="-15.03294" y2="9.92871" />
      <line x1="-7.961872" y1="9.275513" x2="-7.961872" y2="14.011193" />
      <line x1="-9.517507" y1="10.173659" x2="-7.961872" y2="9.275513" />
      <line x1="-15.03294" y1="5.19303" x2="-15.03294" y2="9.92871" />
      <line x1="-16.588574" y1="6.091176" x2="-15.03294" y2="5.19303" />
      <line x1="-7.961872" y1="9.275513" x2="-15.03294" y2="5.19303" />
      <line x1="-19.063448" y1="9.397987" x2="-17.507813" y2="8.499841" />
      <line x1="-17.507813" y1="8.499841" x2="-24.578881" y2="4.417358" />
      <line x1="-26.134516" y1="5.315504" x2="-24.578881" y2="4.417358" />
      <line x1="-17.507813" y1="3.764161" x2="-17.507813" y2="8.499841" />
      <line x1="-19.063448" y1="4.662307" x2="-17.507813" y2="3.764161" />
      <line x1="-24.578881" y1="-0.318322" x2="-24.578881" y2="4.417358" />
      <line x1="-26.134516" y1="0.579824" x2="-24.578881" y2="-0.318322" />
      <line x1="-17.507813" y1="3.764161" x2="-24.578881" y2="-0.318322" />
      <line x1="-32.78132" y1="3.274263" x2="-31.225685" y2="2.376116" />
      <line x1="-31.225685" y1="2.376116" x2="-38.296753" y2="-1.706366" />
      <line x1="-39.852388" y1="-0.80822" x2="-38.296753" y2="-1.706366" />
      <line x1="-38.296753" y1="-8.401638" x2="-38.296753" y2="-1.706366" />
      <line x1="-39.852388" y1="-7.503492" x2="-38.296753" y2="-8.401638" />
      <line x1="-32.78132" y1="-3.421009" x2="-31.225685" y2="-4.319156" />
      <line x1="-31.225685" y1="-4.319156" x2="-38.296753" y2="-8.401638" />
      <line x1="-31.225685" y1="-4.319156" x2="-31.225685" y2="2.376116" />
      <line x1="-12.487355" y1="-38.979435" x2="-14.04299" y2="-39.877582" />
      <line x1="-14.04299" y1="-38.081289" x2="-12.487355" y2="-38.979435" />
      <line x1="-12.487355" y1="-26.568687" x2="-14.04299" y2="-27.466834" />
      <line x1="-12.487355" y1="-38.979435" x2="-12.487355" y2="-26.568687" />
      <line x1="-24.50817" y1="-19.628466" x2="-26.063805" y2="-20.526613" />
      <line x1="-24.50817" y1="-19.628466" x2="-12.487355" y2="-26.568687" />
      <line x1="-24.50817" y1="-21.424759" x2="-24.50817" y2="-19.628466" />
      <line x1="-25.392054" y1="-31.528904" x2="-26.947689" y2="-32.42705" />
      <line x1="-26.947689" y1="-30.630758" x2="-25.392054" y2="-31.528904" />
      <line x1="-25.392054" y1="-17.321864" x2="-26.947689" y2="-18.22001" />
      <line x1="-25.392054" y1="-31.528904" x2="-25.392054" y2="-17.321864" />
      <line x1="-37.059316" y1="-10.585767" x2="-38.614951" y2="-11.483913" />
      <line x1="-37.059316" y1="-12.382059" x2="-37.059316" y2="-10.585767" />
      <line x1="-37.059316" y1="-10.585767" x2="-25.392054" y2="-17.321864" />
      <line x1="-38.119976" y1="-24.180435" x2="-39.675611" y2="-25.078581" />
      <line x1="-39.675611" y1="-23.282289" x2="-38.119976" y2="-24.180435" />
      <line x1="-38.119976" y1="-9.973394" x2="-39.675611" y2="-10.871541" />
      <line x1="-38.119976" y1="-24.180435" x2="-38.119976" y2="-9.973394" />
      <line x1="-49.787238" y1="-3.237298" x2="-51.342873" y2="-4.135444" />
      <line x1="-49.787238" y1="-5.03359" x2="-49.787238" y2="-3.237298" />
      <line x1="-49.787238" y1="-3.237298" x2="-38.119976" y2="-9.973394" />
      <line x1="47.917584" y1="-6.768645" x2="47.917584" y2="-3.502659" />
      <line x1="41.517584" y1="-6.768645" x2="41.517584" y2="-3.502659" />
      <line x1="6.90539" y1="-30.447046" x2="6.90539" y2="-27.18106" />
      <line x1="0.50539" y1="-30.447046" x2="0.50539" y2="-27.18106" />
      <line x1="11.519351" y1="11.275929" x2="11.519351" y2="16.501507" />
      <line x1="8.619351" y1="11.275929" x2="8.619351" y2="16.501507" />
      <line x1="-29.492842" y1="-12.402472" x2="-29.492842" y2="-7.176894" />
      <line x1="-32.392842" y1="-12.402472" x2="-32.392842" y2="-7.176894" />
      <line x1="46.167584" y1="-8.728237" x2="46.167584" y2="-3.502659" />
      <line x1="43.267584" y1="-8.728237" x2="43.267584" y2="-3.502659" />
      <line x1="5.15539" y1="-32.406638" x2="5.15539" y2="-27.18106" />
      <line x1="2.25539" y1="-32.406638" x2="2.25539" y2="-27.18106" />
      <line x1="12.897778" y1="15.440062" x2="12.897778" y2="35.03598" />
      <line x1="51.930073" y1="-7.095244" x2="51.930073" y2="12.500674" />
      <line x1="7.240924" y1="15.440062" x2="7.240924" y2="35.03598" />
      <line x1="-52.297467" y1="-18.934444" x2="-52.297467" y2="0.661474" />
    </g>
    <g fill="none" stroke="rgb(240,128,128)" stroke-width="0.4" id="rpi4_pcb_proxy_visible">
      <line x1="10.069351" y1="20.66564" x2="49.667331" y2="-2.196264" />
      <line x1="49.667331" y1="-3.502659" x2="49.667331" y2="-2.196264" />
      <line x1="-50.034725" y1="-15.341859" x2="-50.034725" y2="-14.035465" />
      <line x1="10.069351" y1="20.66564" x2="-50.034725" y2="-14.035465" />
      <line x1="49.667331" y1="-2.196264" x2="-10.436745" y2="-36.897369" />
      <line x1="-50.034725" y1="-14.035465" x2="-10.436745" y2="-36.897369" />
      <path d="M 9.114757,17.256767 A 1.35,0.779422863405995 0.0 0,1 11.419351,17.807902" />
      <path d="M 11.419351,17.807902 A 1.3500000000000003,0.7794228634059952 0.0 0,1 8.719351,17.807902" />
      <path d="M 8.719351,17.807902 A 1.35,0.779422863405995 0.0 0,1 9.114757,17.256767" />
      <path d="M -31.897436,-6.421634 A 1.35,0.779422863405995 0.0 0,1 -29.592842,-5.870499" />
      <path d="M -29.592842,-5.870499 A 1.35,0.779422863405995 0.0 0,1 -32.292842,-5.870499" />
      <path d="M -32.292842,-5.870499 A 1.35,0.779422863405995 0.0 0,1 -31.897436,-6.421634" />
      <path d="M 43.762989,-2.7474 A 1.35,0.779422863405995 0.0 0,1 46.067584,-2.196264" />
      <path d="M 46.067584,-2.196264 A 1.35,0.779422863405995 0.0 0,1 43.367584,-2.196264" />
      <path d="M 43.367584,-2.196264 A 1.35,0.779422863405995 0.0 0,1 43.762989,-2.7474" />
      <path d="M 2.750796,-26.4258 A 1.35,0.779422863405995 0.0 0,1 5.05539,-25.874665" />
      <path d="M 5.05539,-25.874665 A 1.35,0.779422863405995 0.0 0,1 2.35539,-25.874665" />
      <path d="M 2.35539,-25.874665 A 1.35,0.779422863405995 0.0 0,1 2.750796,-26.4258" />
      <line x1="49.667331" y1="-3.502659" x2="-10.436745" y2="-38.203764" />
      <line x1="-10.436745" y1="-38.203764" x2="-10.436745" y2="-36.897369" />
      <line x1="-50.034725" y1="-15.341859" x2="-10.436745" y2="-38.203764" />
      <path d="M 10.805897,17.154705 A 1.35,0.779422863405995 0.0 0,1 9.332805,17.154705" />
      <path d="M -30.206296,-6.523696 A 1.35,0.779422863405995 0.0 0,1 -31.679388,-6.523696" />
      <path d="M 45.454129,-2.849462 A 1.35,0.779422863405995 0.0 0,1 43.981038,-2.849462" />
      <path d="M 4.441936,-26.527863 A 1.35,0.779422863405995 0.0 0,1 2.968844,-26.527863" />
    </g>
    <g fill="none" stroke="rgb(240,128,128)" stroke-width="0.15" id="rpi4_pcb_proxy_hidden">
      <line x1="10.069351" y1="19.359245" x2="10.069351" y2="20.66564" />
      <line x1="10.069351" y1="19.359245" x2="49.667331" y2="-3.502659" />
      <line x1="10.069351" y1="19.359245" x2="-50.034725" y2="-15.341859" />
      <path d="M 9.114757,15.950372 A 1.35,0.779422863405995 0.0 0,1 11.419351,16.501507" />
      <path d="M 11.419351,16.501507 A 1.35,0.779422863405995 0.0 0,1 10.805897,17.154705" />
      <path d="M 9.332805,17.154705 A 1.35,0.779422863405995 0.0 0,1 8.719351,16.501507" />
      <path d="M 8.719351,16.501507 A 1.35,0.779422863405995 0.0 0,1 9.114757,15.950372" />
      <path d="M -31.897436,-7.728029 A 1.35,0.779422863405995 0.0 0,1 -29.592842,-7.176894" />
      <path d="M -29.592842,-7.176894 A 1.35,0.779422863405995 0.0 0,1 -30.206296,-6.523696" />
      <path d="M -31.679388,-6.523696 A 1.35,0.779422863405995 0.0 0,1 -32.292842,-7.176894" />
      <path d="M -32.292842,-7.176894 A 1.35,0.779422863405995 0.0 0,1 -31.897436,-7.728029" />
      <path d="M 43.762989,-4.053794 A 1.35,0.779422863405995 0.0 0,1 46.067584,-3.502659" />
      <path d="M 46.067584,-3.502659 A 1.35,0.779422863405995 0.0 0,1 45.454129,-2.849462" />
      <path d="M 43.981038,-2.849462 A 1.35,0.779422863405995 0.0 0,1 43.367584,-3.502659" />
      <path d="M 43.367584,-3.502659 A 1.35,0.779422863405995 0.0 0,1 43.762989,-4.053794" />
      <path d="M 2.750796,-27.732195 A 1.35,0.779422863405995 0.0 0,1 5.05539,-27.18106" />
      <path d="M 5.05539,-27.18106 A 1.35,0.779422863405995 0.0 0,1 4.441936,-26.527863" />
      <path d="M 2.968844,-26.527863 A 1.35,0.779422863405995 0.0 0,1 2.35539,-27.18106" />
      <path d="M 2.35539,-27.18106 A 1.35,0.779422863405995 0.0 0,1 2.750796,-27.732195" />
      <line x1="11.419351" y1="16.501507" x2="11.419351" y2="17.807902" />
      <line x1="8.719351" y1="16.501507" x2="8.719351" y2="17.807902" />
      <line x1="-29.592842" y1="-7.176894" x2="-29.592842" y2="-5.870499" />
      <line x1="-32.292842" y1="-7.176894" x2="-32.292842" y2="-5.870499" />
      <line x1="46.067584" y1="-3.502659" x2="46.067584" y2="-2.196264" />
      <line x1="43.367584" y1="-3.502659" x2="43.367584" y2="-2.196264" />
      <line x1="5.05539" y1="-27.18106" x2="5.05539" y2="-25.874665" />
      <line x1="2.35539" y1="-27.18106" x2="2.35539" y2="-25.874665" />
    </g>
    <g fill="none" stroke="rgb(144,237,144)" stroke-width="0.4" id="rpi4_lid_exploded_visible">
      <line x1="57.516216" y1="19.032647" x2="57.516216" y2="21.645436" />
      <line x1="55.859362" y1="22.602021" x2="57.516216" y2="21.645436" />
      <line x1="12.897778" y1="49.365495" x2="54.687789" y2="25.238021" />
      <line x1="7.240924" y1="49.365495" x2="-55.055183" y2="13.39882" />
      <line x1="-56.226756" y1="10.762821" x2="-57.88361" y2="9.806235" />
      <line x1="-57.88361" y1="7.193446" x2="-57.88361" y2="9.806235" />
      <line x1="57.516216" y1="19.032647" x2="-10.436745" y2="-20.200014" />
      <line x1="-57.88361" y1="7.193446" x2="-10.436745" y2="-20.200014" />
      <line x1="57.516216" y1="21.645436" x2="54.687789" y2="20.012443" />
      <line x1="54.687789" y1="20.012443" x2="54.687789" y2="21.972034" />
      <line x1="54.687789" y1="21.972034" x2="-7.608318" y2="-13.99464" />
      <line x1="-7.608318" y1="-15.954232" x2="-7.608318" y2="-13.99464" />
      <line x1="-7.608318" y1="-15.954232" x2="-10.436745" y2="-17.587225" />
      <line x1="-10.436745" y1="-20.200014" x2="-10.436745" y2="-17.587225" />
      <path d="M 55.859362,21.645436 A 4.0,2.3094010767585034 180.0 0,0 54.687789,20.012443" />
      <path d="M 54.687789,25.238021 A 4.0,2.3094010767585034 180.0 0,0 55.859362,23.605028" />
      <path d="M 55.859362,23.605028 A 4.0,2.3094010767585034 180.0 0,0 54.687789,21.972034" />
      <path d="M 12.897778,49.365495 A 4.0,2.3094010767585034 0.0 0,1 7.240924,49.365495" />
      <path d="M -55.055183,10.132834 A 4.0,2.3094010767585034 180.0 0,0 -56.226756,11.765827" />
      <path d="M -56.226756,11.765827 A 4.0,2.3094010767585034 180.0 0,0 -55.055183,13.39882" />
      <path d="M -13.265173,-13.99464 A 4.0,2.3094010767585034 0.0 0,1 -7.608318,-13.99464" />
      <line x1="-55.055183" y1="10.132834" x2="-13.265173" y2="-13.99464" />
      <path d="M 2.220466,28.87143 A 1.6,0.9237604307034014 0.0 0,1 4.951837,29.524628" />
      <path d="M 4.951837,29.524628 A 1.6,0.9237604307034014 0.0 0,1 1.751837,29.524628" />
      <path d="M 1.751837,29.524628 A 1.6,0.9237604307034014 0.0 0,1 2.220466,28.87143" />
      <line x1="-10.295324" y1="22.706881" x2="-1.810043" y2="27.605861" />
      <line x1="-10.295324" y1="22.706881" x2="-8.456846" y2="21.645436" />
      <line x1="-1.810043" y1="27.605861" x2="0.028435" y2="26.544415" />
      <line x1="-8.456846" y1="21.645436" x2="0.028435" y2="26.544415" />
      <line x1="-11.002431" y1="19.032647" x2="4.553918" y2="28.014109" />
      <line x1="-11.002431" y1="19.032647" x2="-9.163953" y2="17.971201" />
      <line x1="4.553918" y1="28.014109" x2="6.392396" y2="26.952664" />
      <line x1="-9.163953" y1="17.971201" x2="6.392396" y2="26.952664" />
      <line x1="-9.941771" y1="16.379033" x2="9.150112" y2="27.401737" />
      <line x1="-9.941771" y1="16.379033" x2="-8.103293" y2="15.317587" />
      <line x1="9.150112" y1="27.401737" x2="10.98859" y2="26.340291" />
      <line x1="-8.103293" y1="15.317587" x2="10.98859" y2="26.340291" />
      <path d="M -14.750097,19.073472 A 1.6,0.9237604307034014 0.0 0,1 -12.018726,19.726669" />
      <path d="M -12.018726,19.726669 A 1.6000000000000005,0.9237604307034016 0.0 0,1 -15.218726,19.726669" />
      <path d="M -15.218726,19.726669 A 1.6,0.9237604307034014 0.0 0,1 -14.750097,19.073472" />
      <line x1="-7.466897" y1="14.541915" x2="12.332093" y2="25.972868" />
      <line x1="-7.466897" y1="14.541915" x2="-5.628419" y2="13.48047" />
      <line x1="12.332093" y1="25.972868" x2="14.170571" y2="24.911422" />
      <line x1="-5.628419" y1="13.48047" x2="14.170571" y2="24.911422" />
      <line x1="-4.284916" y1="13.113046" x2="14.806967" y2="24.13575" />
      <line x1="-4.284916" y1="13.113046" x2="-2.446439" y2="12.051601" />
      <line x1="14.806967" y1="24.13575" x2="16.645444" y2="23.074305" />
      <line x1="-2.446439" y1="12.051601" x2="16.645444" y2="23.074305" />
      <path d="M 19.191029,19.073472 A 1.6,0.9237604307034014 0.0 0,1 21.9224,19.726669" />
      <path d="M 21.9224,19.726669 A 1.6,0.9237604307034014 0.0 0,1 18.7224,19.726669" />
      <path d="M 18.7224,19.726669 A 1.6,0.9237604307034014 0.0 0,1 19.191029,19.073472" />
      <line x1="0.311278" y1="12.500674" x2="15.867627" y2="21.482136" />
      <line x1="0.311278" y1="12.500674" x2="2.149755" y2="11.439228" />
      <line x1="15.867627" y1="21.482136" x2="17.706104" y2="20.420691" />
      <line x1="2.149755" y1="11.439228" x2="17.706104" y2="20.420691" />
      <line x1="6.675239" y1="12.908922" x2="15.16052" y2="17.807902" />
      <line x1="6.675239" y1="12.908922" x2="8.513716" y2="11.847477" />
      <line x1="15.16052" y1="17.807902" x2="16.998998" y2="16.746456" />
      <line x1="8.513716" y1="11.847477" x2="16.998998" y2="16.746456" />
      <path d="M 2.220466,9.275513 A 1.6,0.9237604307034014 0.0 0,1 4.951837,9.92871" />
      <path d="M 4.951837,9.92871 A 1.6,0.9237604307034014 0.0 0,1 1.751837,9.92871" />
      <path d="M 1.751837,9.92871 A 1.6,0.9237604307034014 0.0 0,1 2.220466,9.275513" />
      <line x1="1.902268" y1="3.008901" x2="40.086034" y2="25.054309" />
      <line x1="1.902268" y1="3.008901" x2="7.912676" y2="-0.461209" />
      <line x1="40.086034" y1="25.054309" x2="46.096442" y2="21.584198" />
      <line x1="7.912676" y1="-0.461209" x2="46.096442" y2="21.584198" />
      <path d="M -55.055183,8.173242 A 4.0,2.3094010767585034 180.0 0,0 -56.226756,9.806235" />
      <line x1="-55.055183" y1="8.173242" x2="-55.055183" y2="10.132834" />
      <line x1="-57.88361" y1="9.806235" x2="-55.055183" y2="8.173242" />
      <line x1="-13.265173" y1="-15.954232" x2="-10.436745" y2="-17.587225" />
      <line x1="-13.265173" y1="-15.954232" x2="-13.265173" y2="-13.99464" />
      <path d="M -13.265173,-15.954232 A 4.0,2.3094010767585034 0.0 0,1 -7.608318,-15.954232" />
      <line x1="-1.810043" y1="25.646269" x2="-1.810043" y2="27.605861" />
      <line x1="-8.598268" y1="21.727085" x2="-1.810043" y2="25.646269" />
      <line x1="-1.810043" y1="25.646269" x2="-1.668621" y2="25.564619" />
      <line x1="4.553918" y1="26.054517" x2="4.553918" y2="28.014109" />
      <line x1="-9.305375" y1="18.052851" x2="4.553918" y2="26.054517" />
      <line x1="4.553918" y1="26.054517" x2="4.69534" y2="25.972868" />
      <line x1="9.150112" y1="25.442145" x2="9.150112" y2="27.401737" />
      <line x1="-8.244714" y1="15.399237" x2="9.150112" y2="25.442145" />
      <line x1="9.150112" y1="25.442145" x2="9.291534" y2="25.360495" />
      <line x1="12.332093" y1="24.013276" x2="12.332093" y2="25.972868" />
      <line x1="-5.769841" y1="13.56212" x2="12.332093" y2="24.013276" />
      <line x1="12.332093" y1="24.013276" x2="12.473514" y2="23.931626" />
      <line x1="14.806967" y1="22.176159" x2="14.806967" y2="24.13575" />
      <line x1="-2.58786" y1="12.133251" x2="14.806967" y2="22.176159" />
      <line x1="14.806967" y1="22.176159" x2="14.948388" y2="22.094509" />
      <line x1="15.867627" y1="19.522545" x2="15.867627" y2="21.482136" />
      <line x1="2.008334" y1="11.520878" x2="15.867627" y2="19.522545" />
      <line x1="15.867627" y1="19.522545" x2="16.009048" y2="19.440895" />
      <line x1="15.16052" y1="15.84831" x2="15.16052" y2="17.807902" />
      <line x1="8.372295" y1="11.929126" x2="15.16052" y2="15.84831" />
      <line x1="15.16052" y1="15.84831" x2="15.301941" y2="15.76666" />
      <line x1="40.086034" y1="23.094717" x2="40.086034" y2="25.054309" />
      <line x1="3.599324" y1="2.029105" x2="40.086034" y2="23.094717" />
      <line x1="40.086034" y1="23.094717" x2="44.399385" y2="20.604403" />
      <line x1="55.859362" y1="21.645436" x2="55.859362" y2="23.605028" />
      <line x1="-56.226756" y1="9.806235" x2="-56.226756" y2="11.765827" />
    </g>
    <g fill="none" stroke="rgb(144,237,144)" stroke-width="0.15" id="rpi4_lid_exploded_hidden">
      <line x1="10.069351" y1="46.426107" x2="10.069351" y2="49.038896" />
      <line x1="10.069351" y1="46.426107" x2="57.516216" y2="19.032647" />
      <line x1="54.687789" y1="23.278429" x2="55.859362" y2="22.602021" />
      <line x1="54.687789" y1="23.278429" x2="54.687789" y2="25.238021" />
      <line x1="12.897778" y1="47.405903" x2="12.897778" y2="49.365495" />
      <line x1="10.069351" y1="49.038896" x2="12.897778" y2="47.405903" />
      <line x1="10.069351" y1="46.426107" x2="-57.88361" y2="7.193446" />
      <line x1="10.069351" y1="49.038896" x2="7.240924" y2="47.405903" />
      <line x1="7.240924" y1="47.405903" x2="7.240924" y2="49.365495" />
      <line x1="-55.055183" y1="11.439228" x2="-55.055183" y2="13.39882" />
      <line x1="-55.055183" y1="11.439228" x2="-56.226756" y2="10.762821" />
      <line x1="10.069351" y1="44.956413" x2="54.970632" y2="19.032647" />
      <line x1="10.069351" y1="44.956413" x2="-55.338026" y2="7.193446" />
      <line x1="-55.338026" y1="7.193446" x2="-10.436745" y2="-18.73032" />
      <line x1="54.970632" y1="19.032647" x2="-10.436745" y2="-18.73032" />
      <path d="M 54.687789,23.278429 A 4.0,2.3094010767585034 180.0 0,0 55.859362,21.645436" />
      <path d="M 12.897778,47.405903 A 4.0,2.3094010767585034 0.0 0,1 7.240924,47.405903" />
      <path d="M -56.226756,9.806235 A 4.0,2.3094010767585034 180.0 0,0 -55.055183,11.439228" />
      <line x1="10.069351" y1="44.956413" x2="10.069351" y2="47.569202" />
      <line x1="10.069351" y1="47.569202" x2="54.970632" y2="21.645436" />
      <line x1="54.970632" y1="19.032647" x2="54.970632" y2="21.645436" />
      <line x1="-55.338026" y1="7.193446" x2="-55.338026" y2="9.806235" />
      <line x1="10.069351" y1="47.569202" x2="-55.338026" y2="9.806235" />
      <line x1="-55.338026" y1="9.806235" x2="-10.436745" y2="-16.117531" />
      <line x1="-10.436745" y1="-18.73032" x2="-10.436745" y2="-16.117531" />
      <line x1="54.970632" y1="21.645436" x2="-10.436745" y2="-16.117531" />
      <path d="M 2.220466,26.911839 A 1.6,0.9237604307034014 0.0 0,1 4.951837,27.565036" />
      <path d="M 4.951837,27.565036 A 1.6,0.9237604307034014 0.0 0,1 1.751837,27.565036" />
      <path d="M 1.751837,27.565036 A 1.6,0.9237604307034014 0.0 0,1 2.220466,26.911839" />
      <line x1="-10.295324" y1="20.747289" x2="-10.295324" y2="22.706881" />
      <line x1="-10.295324" y1="20.747289" x2="-8.598268" y2="21.727085" />
      <line x1="-8.456846" y1="19.685844" x2="-8.456846" y2="21.645436" />
      <line x1="-10.295324" y1="20.747289" x2="-8.456846" y2="19.685844" />
      <line x1="0.028435" y1="24.584823" x2="0.028435" y2="26.544415" />
      <line x1="-1.668621" y1="25.564619" x2="0.028435" y2="24.584823" />
      <line x1="-8.456846" y1="19.685844" x2="0.028435" y2="24.584823" />
      <line x1="-11.002431" y1="17.073055" x2="-11.002431" y2="19.032647" />
      <line x1="-11.002431" y1="17.073055" x2="-9.305375" y2="18.052851" />
      <line x1="-9.163953" y1="16.011609" x2="-9.163953" y2="17.971201" />
      <line x1="-11.002431" y1="17.073055" x2="-9.163953" y2="16.011609" />
      <line x1="6.392396" y1="24.993072" x2="6.392396" y2="26.952664" />
      <line x1="4.69534" y1="25.972868" x2="6.392396" y2="24.993072" />
      <line x1="-9.163953" y1="16.011609" x2="6.392396" y2="24.993072" />
      <line x1="-9.941771" y1="14.419441" x2="-9.941771" y2="16.379033" />
      <line x1="-9.941771" y1="14.419441" x2="-8.244714" y2="15.399237" />
      <line x1="-8.103293" y1="13.357995" x2="-8.103293" y2="15.317587" />
      <line x1="-9.941771" y1="14.419441" x2="-8.103293" y2="13.357995" />
      <line x1="10.98859" y1="24.380699" x2="10.98859" y2="26.340291" />
      <line x1="9.291534" y1="25.360495" x2="10.98859" y2="24.380699" />
      <line x1="-8.103293" y1="13.357995" x2="10.98859" y2="24.380699" />
      <path d="M -14.750097,17.11388 A 1.6,0.9237604307034014 0.0 0,1 -12.018726,17.767077" />
      <path d="M -12.018726,17.767077 A 1.6000000000000005,0.9237604307034016 0.0 0,1 -15.218726,17.767077" />
      <path d="M -15.218726,17.767077 A 1.6,0.9237604307034014 0.0 0,1 -14.750097,17.11388" />
      <line x1="-7.466897" y1="12.582324" x2="-7.466897" y2="14.541915" />
      <line x1="-7.466897" y1="12.582324" x2="-5.769841" y2="13.56212" />
      <line x1="-5.628419" y1="11.520878" x2="-5.628419" y2="13.48047" />
      <line x1="-7.466897" y1="12.582324" x2="-5.628419" y2="11.520878" />
      <line x1="14.170571" y1="22.95183" x2="14.170571" y2="24.911422" />
      <line x1="12.473514" y1="23.931626" x2="14.170571" y2="22.95183" />
      <line x1="-5.628419" y1="11.520878" x2="14.170571" y2="22.95183" />
      <line x1="-4.284916" y1="11.153455" x2="-4.284916" y2="13.113046" />
      <line x1="-4.284916" y1="11.153455" x2="-2.58786" y2="12.133251" />
      <line x1="-2.446439" y1="10.092009" x2="-2.446439" y2="12.051601" />
      <line x1="-4.284916" y1="11.153455" x2="-2.446439" y2="10.092009" />
      <line x1="16.645444" y1="21.114713" x2="16.645444" y2="23.074305" />
      <line x1="14.948388" y1="22.094509" x2="16.645444" y2="21.114713" />
      <line x1="-2.446439" y1="10.092009" x2="16.645444" y2="21.114713" />
      <path d="M 19.191029,17.11388 A 1.6,0.9237604307034014 0.0 0,1 21.9224,17.767077" />
      <path d="M 21.9224,17.767077 A 1.6,0.9237604307034014 0.0 0,1 18.7224,17.767077" />
      <path d="M 18.7224,17.767077 A 1.6,0.9237604307034014 0.0 0,1 19.191029,17.11388" />
      <line x1="0.311278" y1="10.541082" x2="0.311278" y2="12.500674" />
      <line x1="0.311278" y1="10.541082" x2="2.008334" y2="11.520878" />
      <line x1="2.149755" y1="9.479637" x2="2.149755" y2="11.439228" />
      <line x1="0.311278" y1="10.541082" x2="2.149755" y2="9.479637" />
      <line x1="17.706104" y1="18.461099" x2="17.706104" y2="20.420691" />
      <line x1="16.009048" y1="19.440895" x2="17.706104" y2="18.461099" />
      <line x1="2.149755" y1="9.479637" x2="17.706104" y2="18.461099" />
      <line x1="6.675239" y1="10.949331" x2="6.675239" y2="12.908922" />
      <line x1="6.675239" y1="10.949331" x2="8.372295" y2="11.929126" />
      <line x1="8.513716" y1="9.887885" x2="8.513716" y2="11.847477" />
      <line x1="6.675239" y1="10.949331" x2="8.513716" y2="9.887885" />
      <line x1="16.998998" y1="14.786864" x2="16.998998" y2="16.746456" />
      <line x1="15.301941" y1="15.76666" x2="16.998998" y2="14.786864" />
      <line x1="8.513716" y1="9.887885" x2="16.998998" y2="14.786864" />
      <path d="M 2.220466,7.315921 A 1.6,0.9237604307034014 0.0 0,1 4.951837,7.969118" />
      <path d="M 4.951837,7.969118 A 1.6,0.9237604307034014 0.0 0,1 1.751837,7.969118" />
      <path d="M 1.751837,7.969118 A 1.6,0.9237604307034014 0.0 0,1 2.220466,7.315921" />
      <line x1="1.902268" y1="1.049309" x2="1.902268" y2="3.008901" />
      <line x1="1.902268" y1="1.049309" x2="3.599324" y2="2.029105" />
      <line x1="7.912676" y1="-2.420801" x2="7.912676" y2="-0.461209" />
      <line x1="1.902268" y1="1.049309" x2="7.912676" y2="-2.420801" />
      <line x1="46.096442" y1="19.624607" x2="46.096442" y2="21.584198" />
      <line x1="44.399385" y1="20.604403" x2="46.096442" y2="19.624607" />
      <line x1="7.912676" y1="-2.420801" x2="46.096442" y2="19.624607" />
      <line x1="4.951837" y1="27.565036" x2="4.951837" y2="29.524628" />
      <line x1="1.751837" y1="27.565036" x2="1.751837" y2="29.524628" />
      <line x1="-12.018726" y1="17.767077" x2="-12.018726" y2="19.726669" />
      <line x1="-15.218726" y1="17.767077" x2="-15.218726" y2="19.726669" />
      <line x1="21.9224" y1="17.767077" x2="21.9224" y2="19.726669" />
      <line x1="18.7224" y1="17.767077" x2="18.7224" y2="19.726669" />
      <line x1="4.951837" y1="7.969118" x2="4.951837" y2="9.92871" />
      <line x1="1.751837" y1="7.969118" x2="1.751837" y2="9.92871" />
    </g>
  </g>
</svg>